G04 #@! TF.FileFunction,Other,Fab,Top*
%FSLAX46Y46*%
G04 Gerber Fmt 4.6, Leading zero omitted, Abs format (unit mm)*
G04 Created by KiCad (PCBNEW 4.0.7-e2-6376~58~ubuntu16.04.1) date Thu May  2 11:57:46 2019*
%MOMM*%
%LPD*%
G01*
G04 APERTURE LIST*
%ADD10C,0.100000*%
%ADD11C,0.150000*%
%ADD12C,0.060000*%
%ADD13C,0.075000*%
%ADD14C,0.040000*%
G04 APERTURE END LIST*
D10*
X178954412Y-105537000D02*
G75*
G03X178954412Y-105537000I-3059412J0D01*
G01*
X179045000Y-102387000D02*
X172745000Y-102387000D01*
X179045000Y-108017000D02*
X179045000Y-102387000D01*
X178375000Y-108687000D02*
X179045000Y-108017000D01*
X173415000Y-108687000D02*
X178375000Y-108687000D01*
X172745000Y-108017000D02*
X173415000Y-108687000D01*
X172745000Y-102387000D02*
X172745000Y-108017000D01*
X192293000Y-116729000D02*
X193533000Y-116729000D01*
X192293000Y-118729000D02*
X192293000Y-116729000D01*
X193533000Y-118729000D02*
X192293000Y-118729000D01*
X193533000Y-116729000D02*
X193533000Y-118729000D01*
X183245000Y-110505000D02*
X183245000Y-111745000D01*
X181245000Y-110505000D02*
X183245000Y-110505000D01*
X181245000Y-111745000D02*
X181245000Y-110505000D01*
X183245000Y-111745000D02*
X181245000Y-111745000D01*
X194325000Y-116729000D02*
X195565000Y-116729000D01*
X194325000Y-118729000D02*
X194325000Y-116729000D01*
X195565000Y-118729000D02*
X194325000Y-118729000D01*
X195565000Y-116729000D02*
X195565000Y-118729000D01*
X187309000Y-129174000D02*
X187309000Y-130414000D01*
X185309000Y-129174000D02*
X187309000Y-129174000D01*
X185309000Y-130414000D02*
X185309000Y-129174000D01*
X187309000Y-130414000D02*
X185309000Y-130414000D01*
X183245000Y-112410000D02*
X183245000Y-113650000D01*
X181245000Y-112410000D02*
X183245000Y-112410000D01*
X181245000Y-113650000D02*
X181245000Y-112410000D01*
X183245000Y-113650000D02*
X181245000Y-113650000D01*
X178547000Y-124063000D02*
X177307000Y-124063000D01*
X178547000Y-122063000D02*
X178547000Y-124063000D01*
X177307000Y-122063000D02*
X178547000Y-122063000D01*
X177307000Y-124063000D02*
X177307000Y-122063000D01*
X187309000Y-131079000D02*
X187309000Y-132319000D01*
X185309000Y-131079000D02*
X187309000Y-131079000D01*
X185309000Y-132319000D02*
X185309000Y-131079000D01*
X187309000Y-132319000D02*
X185309000Y-132319000D01*
X212384000Y-109225000D02*
X212984000Y-108625000D01*
X217384000Y-108625000D02*
X212384000Y-108625000D01*
X217384000Y-113625000D02*
X217384000Y-108625000D01*
X212384000Y-113625000D02*
X217384000Y-113625000D01*
X212384000Y-108625000D02*
X212384000Y-113625000D01*
X216784000Y-111125000D02*
G75*
G03X216784000Y-111125000I-1900000J0D01*
G01*
X212384000Y-101732000D02*
X212984000Y-101132000D01*
X217384000Y-101132000D02*
X212384000Y-101132000D01*
X217384000Y-106132000D02*
X217384000Y-101132000D01*
X212384000Y-106132000D02*
X217384000Y-106132000D01*
X212384000Y-101132000D02*
X212384000Y-106132000D01*
X216784000Y-103632000D02*
G75*
G03X216784000Y-103632000I-1900000J0D01*
G01*
X184150000Y-104775000D02*
X184150000Y-106045000D01*
X201930000Y-105410000D02*
X201930000Y-106680000D01*
X184150000Y-104775000D02*
X184150000Y-102870000D01*
X184150000Y-102870000D02*
X201930000Y-102870000D01*
X201930000Y-102870000D02*
X201930000Y-105410000D01*
X201930000Y-106680000D02*
X184785000Y-106680000D01*
X184785000Y-106680000D02*
X184150000Y-106045000D01*
X186690000Y-137795000D02*
X186690000Y-135890000D01*
X186690000Y-135890000D02*
X196850000Y-135890000D01*
X196850000Y-135890000D02*
X196850000Y-138430000D01*
X196850000Y-138430000D02*
X187325000Y-138430000D01*
X187325000Y-138430000D02*
X186690000Y-137795000D01*
X205359000Y-107950000D02*
X203454000Y-107950000D01*
X203454000Y-107950000D02*
X203454000Y-102870000D01*
X203454000Y-102870000D02*
X205994000Y-102870000D01*
X205994000Y-102870000D02*
X205994000Y-107315000D01*
X205994000Y-107315000D02*
X205359000Y-107950000D01*
X196977000Y-107950000D02*
X198882000Y-107950000D01*
X198882000Y-107950000D02*
X198882000Y-113030000D01*
X198882000Y-113030000D02*
X196342000Y-113030000D01*
X196342000Y-113030000D02*
X196342000Y-108585000D01*
X196342000Y-108585000D02*
X196977000Y-107950000D01*
X172720000Y-139700000D02*
X172720000Y-135890000D01*
X172720000Y-135890000D02*
X185420000Y-135890000D01*
X185420000Y-135890000D02*
X185420000Y-140970000D01*
X185420000Y-140970000D02*
X173990000Y-140970000D01*
X173990000Y-140970000D02*
X172720000Y-139700000D01*
X164251000Y-140910000D02*
X169251000Y-140910000D01*
X164949296Y-134160000D02*
X164949296Y-140160000D01*
X164249296Y-133410000D02*
X164249296Y-140910000D01*
X169251000Y-133410000D02*
X169251000Y-140910000D01*
X164251000Y-133410000D02*
X169251000Y-133410000D01*
X169351000Y-135860000D02*
X169551000Y-135660000D01*
X169551000Y-136060000D02*
X169351000Y-135860000D01*
X169761000Y-135660000D02*
X169761000Y-136060000D01*
X169761000Y-135660000D02*
X169551000Y-135660000D01*
X169761000Y-136060000D02*
X169551000Y-136060000D01*
X201183000Y-107839000D02*
X202423000Y-107839000D01*
X201183000Y-109839000D02*
X201183000Y-107839000D01*
X202423000Y-109839000D02*
X201183000Y-109839000D01*
X202423000Y-107839000D02*
X202423000Y-109839000D01*
X174355000Y-133238000D02*
X174355000Y-134478000D01*
X172355000Y-133238000D02*
X174355000Y-133238000D01*
X172355000Y-134478000D02*
X172355000Y-133238000D01*
X174355000Y-134478000D02*
X172355000Y-134478000D01*
X174355000Y-131333000D02*
X174355000Y-132573000D01*
X172355000Y-131333000D02*
X174355000Y-131333000D01*
X172355000Y-132573000D02*
X172355000Y-131333000D01*
X174355000Y-132573000D02*
X172355000Y-132573000D01*
X167706000Y-101182000D02*
X170606000Y-101182000D01*
X170606000Y-101182000D02*
X170606000Y-106082000D01*
X170606000Y-106082000D02*
X166706000Y-106082000D01*
X166706000Y-106082000D02*
X166706000Y-102182000D01*
X166706000Y-102182000D02*
X167706000Y-101182000D01*
D11*
X188612039Y-116911523D02*
X188612039Y-122911523D01*
X188612039Y-122911523D02*
X181612039Y-122911523D01*
X181612039Y-122911523D02*
X181612039Y-115911523D01*
X181612039Y-115911523D02*
X187612039Y-115911523D01*
X187612039Y-115911523D02*
X188612039Y-116911523D01*
D10*
X217207000Y-138667000D02*
X213277000Y-140107000D01*
X213277000Y-140107000D02*
X204277000Y-140107000D01*
X204277000Y-140107000D02*
X202287000Y-138117000D01*
X202287000Y-138117000D02*
X202287000Y-120837000D01*
X202287000Y-120837000D02*
X204277000Y-118847000D01*
X204277000Y-118847000D02*
X213277000Y-118847000D01*
X213277000Y-118847000D02*
X217207000Y-120287000D01*
X217205882Y-120296274D02*
G75*
G02X218107000Y-123377000I-678882J-1870726D01*
G01*
X218103043Y-135571852D02*
G75*
G02X218107000Y-123377000I7933957J6094852D01*
G01*
X218115508Y-135573145D02*
G75*
G02X217207000Y-138667000I-1588508J-1213855D01*
G01*
X217670000Y-107442000D02*
G75*
G03X217670000Y-107442000I-500000J0D01*
G01*
X217543000Y-140335000D02*
G75*
G03X217543000Y-140335000I-500000J0D01*
G01*
X171696000Y-140335000D02*
G75*
G03X171696000Y-140335000I-500000J0D01*
G01*
D11*
X171787381Y-107084619D02*
X171787381Y-107656048D01*
X171787381Y-107370334D02*
X170787381Y-107370334D01*
X170930238Y-107465572D01*
X171025476Y-107560810D01*
X171073095Y-107656048D01*
X170787381Y-106465572D02*
X170787381Y-106370333D01*
X170835000Y-106275095D01*
X170882619Y-106227476D01*
X170977857Y-106179857D01*
X171168333Y-106132238D01*
X171406429Y-106132238D01*
X171596905Y-106179857D01*
X171692143Y-106227476D01*
X171739762Y-106275095D01*
X171787381Y-106370333D01*
X171787381Y-106465572D01*
X171739762Y-106560810D01*
X171692143Y-106608429D01*
X171596905Y-106656048D01*
X171406429Y-106703667D01*
X171168333Y-106703667D01*
X170977857Y-106656048D01*
X170882619Y-106608429D01*
X170835000Y-106560810D01*
X170787381Y-106465572D01*
X170787381Y-105513191D02*
X170787381Y-105417952D01*
X170835000Y-105322714D01*
X170882619Y-105275095D01*
X170977857Y-105227476D01*
X171168333Y-105179857D01*
X171406429Y-105179857D01*
X171596905Y-105227476D01*
X171692143Y-105275095D01*
X171739762Y-105322714D01*
X171787381Y-105417952D01*
X171787381Y-105513191D01*
X171739762Y-105608429D01*
X171692143Y-105656048D01*
X171596905Y-105703667D01*
X171406429Y-105751286D01*
X171168333Y-105751286D01*
X170977857Y-105703667D01*
X170882619Y-105656048D01*
X170835000Y-105608429D01*
X170787381Y-105513191D01*
X171120714Y-104322714D02*
X171787381Y-104322714D01*
X171120714Y-104751286D02*
X171644524Y-104751286D01*
X171739762Y-104703667D01*
X171787381Y-104608429D01*
X171787381Y-104465571D01*
X171739762Y-104370333D01*
X171692143Y-104322714D01*
X171263571Y-103513190D02*
X171263571Y-103846524D01*
X171787381Y-103846524D02*
X170787381Y-103846524D01*
X170787381Y-103370333D01*
X175906429Y-107707952D02*
X175906429Y-106946047D01*
X176287381Y-107326999D02*
X175525476Y-107326999D01*
X180812143Y-105703666D02*
X180859762Y-105751285D01*
X180907381Y-105894142D01*
X180907381Y-105989380D01*
X180859762Y-106132238D01*
X180764524Y-106227476D01*
X180669286Y-106275095D01*
X180478810Y-106322714D01*
X180335952Y-106322714D01*
X180145476Y-106275095D01*
X180050238Y-106227476D01*
X179955000Y-106132238D01*
X179907381Y-105989380D01*
X179907381Y-105894142D01*
X179955000Y-105751285D01*
X180002619Y-105703666D01*
X180907381Y-104751285D02*
X180907381Y-105322714D01*
X180907381Y-105037000D02*
X179907381Y-105037000D01*
X180050238Y-105132238D01*
X180145476Y-105227476D01*
X180193095Y-105322714D01*
X191615381Y-119276619D02*
X191615381Y-119848048D01*
X191615381Y-119562334D02*
X190615381Y-119562334D01*
X190758238Y-119657572D01*
X190853476Y-119752810D01*
X190901095Y-119848048D01*
X190615381Y-118657572D02*
X190615381Y-118562333D01*
X190663000Y-118467095D01*
X190710619Y-118419476D01*
X190805857Y-118371857D01*
X190996333Y-118324238D01*
X191234429Y-118324238D01*
X191424905Y-118371857D01*
X191520143Y-118419476D01*
X191567762Y-118467095D01*
X191615381Y-118562333D01*
X191615381Y-118657572D01*
X191567762Y-118752810D01*
X191520143Y-118800429D01*
X191424905Y-118848048D01*
X191234429Y-118895667D01*
X190996333Y-118895667D01*
X190805857Y-118848048D01*
X190710619Y-118800429D01*
X190663000Y-118752810D01*
X190615381Y-118657572D01*
X190615381Y-117705191D02*
X190615381Y-117609952D01*
X190663000Y-117514714D01*
X190710619Y-117467095D01*
X190805857Y-117419476D01*
X190996333Y-117371857D01*
X191234429Y-117371857D01*
X191424905Y-117419476D01*
X191520143Y-117467095D01*
X191567762Y-117514714D01*
X191615381Y-117609952D01*
X191615381Y-117705191D01*
X191567762Y-117800429D01*
X191520143Y-117848048D01*
X191424905Y-117895667D01*
X191234429Y-117943286D01*
X190996333Y-117943286D01*
X190805857Y-117895667D01*
X190710619Y-117848048D01*
X190663000Y-117800429D01*
X190615381Y-117705191D01*
X190948714Y-116943286D02*
X191615381Y-116943286D01*
X191043952Y-116943286D02*
X190996333Y-116895667D01*
X190948714Y-116800429D01*
X190948714Y-116657571D01*
X190996333Y-116562333D01*
X191091571Y-116514714D01*
X191615381Y-116514714D01*
X191091571Y-115705190D02*
X191091571Y-116038524D01*
X191615381Y-116038524D02*
X190615381Y-116038524D01*
X190615381Y-115562333D01*
X194770143Y-117895666D02*
X194817762Y-117943285D01*
X194865381Y-118086142D01*
X194865381Y-118181380D01*
X194817762Y-118324238D01*
X194722524Y-118419476D01*
X194627286Y-118467095D01*
X194436810Y-118514714D01*
X194293952Y-118514714D01*
X194103476Y-118467095D01*
X194008238Y-118419476D01*
X193913000Y-118324238D01*
X193865381Y-118181380D01*
X193865381Y-118086142D01*
X193913000Y-117943285D01*
X193960619Y-117895666D01*
X193960619Y-117514714D02*
X193913000Y-117467095D01*
X193865381Y-117371857D01*
X193865381Y-117133761D01*
X193913000Y-117038523D01*
X193960619Y-116990904D01*
X194055857Y-116943285D01*
X194151095Y-116943285D01*
X194293952Y-116990904D01*
X194865381Y-117562333D01*
X194865381Y-116943285D01*
X177490572Y-111704381D02*
X176919143Y-111704381D01*
X177204857Y-111704381D02*
X177204857Y-110704381D01*
X177109619Y-110847238D01*
X177014381Y-110942476D01*
X176919143Y-110990095D01*
X178109619Y-110704381D02*
X178204858Y-110704381D01*
X178300096Y-110752000D01*
X178347715Y-110799619D01*
X178395334Y-110894857D01*
X178442953Y-111085333D01*
X178442953Y-111323429D01*
X178395334Y-111513905D01*
X178347715Y-111609143D01*
X178300096Y-111656762D01*
X178204858Y-111704381D01*
X178109619Y-111704381D01*
X178014381Y-111656762D01*
X177966762Y-111609143D01*
X177919143Y-111513905D01*
X177871524Y-111323429D01*
X177871524Y-111085333D01*
X177919143Y-110894857D01*
X177966762Y-110799619D01*
X178014381Y-110752000D01*
X178109619Y-110704381D01*
X178871524Y-111037714D02*
X178871524Y-111704381D01*
X178871524Y-111132952D02*
X178919143Y-111085333D01*
X179014381Y-111037714D01*
X179157239Y-111037714D01*
X179252477Y-111085333D01*
X179300096Y-111180571D01*
X179300096Y-111704381D01*
X180109620Y-111180571D02*
X179776286Y-111180571D01*
X179776286Y-111704381D02*
X179776286Y-110704381D01*
X180252477Y-110704381D01*
X182078334Y-112982143D02*
X182030715Y-113029762D01*
X181887858Y-113077381D01*
X181792620Y-113077381D01*
X181649762Y-113029762D01*
X181554524Y-112934524D01*
X181506905Y-112839286D01*
X181459286Y-112648810D01*
X181459286Y-112505952D01*
X181506905Y-112315476D01*
X181554524Y-112220238D01*
X181649762Y-112125000D01*
X181792620Y-112077381D01*
X181887858Y-112077381D01*
X182030715Y-112125000D01*
X182078334Y-112172619D01*
X182411667Y-112077381D02*
X183030715Y-112077381D01*
X182697381Y-112458333D01*
X182840239Y-112458333D01*
X182935477Y-112505952D01*
X182983096Y-112553571D01*
X183030715Y-112648810D01*
X183030715Y-112886905D01*
X182983096Y-112982143D01*
X182935477Y-113029762D01*
X182840239Y-113077381D01*
X182554524Y-113077381D01*
X182459286Y-113029762D01*
X182411667Y-112982143D01*
X193647381Y-119276619D02*
X193647381Y-119848048D01*
X193647381Y-119562334D02*
X192647381Y-119562334D01*
X192790238Y-119657572D01*
X192885476Y-119752810D01*
X192933095Y-119848048D01*
X192647381Y-118657572D02*
X192647381Y-118562333D01*
X192695000Y-118467095D01*
X192742619Y-118419476D01*
X192837857Y-118371857D01*
X193028333Y-118324238D01*
X193266429Y-118324238D01*
X193456905Y-118371857D01*
X193552143Y-118419476D01*
X193599762Y-118467095D01*
X193647381Y-118562333D01*
X193647381Y-118657572D01*
X193599762Y-118752810D01*
X193552143Y-118800429D01*
X193456905Y-118848048D01*
X193266429Y-118895667D01*
X193028333Y-118895667D01*
X192837857Y-118848048D01*
X192742619Y-118800429D01*
X192695000Y-118752810D01*
X192647381Y-118657572D01*
X192647381Y-117705191D02*
X192647381Y-117609952D01*
X192695000Y-117514714D01*
X192742619Y-117467095D01*
X192837857Y-117419476D01*
X193028333Y-117371857D01*
X193266429Y-117371857D01*
X193456905Y-117419476D01*
X193552143Y-117467095D01*
X193599762Y-117514714D01*
X193647381Y-117609952D01*
X193647381Y-117705191D01*
X193599762Y-117800429D01*
X193552143Y-117848048D01*
X193456905Y-117895667D01*
X193266429Y-117943286D01*
X193028333Y-117943286D01*
X192837857Y-117895667D01*
X192742619Y-117848048D01*
X192695000Y-117800429D01*
X192647381Y-117705191D01*
X192980714Y-116943286D02*
X193647381Y-116943286D01*
X193075952Y-116943286D02*
X193028333Y-116895667D01*
X192980714Y-116800429D01*
X192980714Y-116657571D01*
X193028333Y-116562333D01*
X193123571Y-116514714D01*
X193647381Y-116514714D01*
X193123571Y-115705190D02*
X193123571Y-116038524D01*
X193647381Y-116038524D02*
X192647381Y-116038524D01*
X192647381Y-115562333D01*
X196802143Y-117895666D02*
X196849762Y-117943285D01*
X196897381Y-118086142D01*
X196897381Y-118181380D01*
X196849762Y-118324238D01*
X196754524Y-118419476D01*
X196659286Y-118467095D01*
X196468810Y-118514714D01*
X196325952Y-118514714D01*
X196135476Y-118467095D01*
X196040238Y-118419476D01*
X195945000Y-118324238D01*
X195897381Y-118181380D01*
X195897381Y-118086142D01*
X195945000Y-117943285D01*
X195992619Y-117895666D01*
X196230714Y-117038523D02*
X196897381Y-117038523D01*
X195849762Y-117276619D02*
X196564048Y-117514714D01*
X196564048Y-116895666D01*
X184761381Y-128496381D02*
X184189952Y-128496381D01*
X184475666Y-128496381D02*
X184475666Y-127496381D01*
X184380428Y-127639238D01*
X184285190Y-127734476D01*
X184189952Y-127782095D01*
X185380428Y-127496381D02*
X185475667Y-127496381D01*
X185570905Y-127544000D01*
X185618524Y-127591619D01*
X185666143Y-127686857D01*
X185713762Y-127877333D01*
X185713762Y-128115429D01*
X185666143Y-128305905D01*
X185618524Y-128401143D01*
X185570905Y-128448762D01*
X185475667Y-128496381D01*
X185380428Y-128496381D01*
X185285190Y-128448762D01*
X185237571Y-128401143D01*
X185189952Y-128305905D01*
X185142333Y-128115429D01*
X185142333Y-127877333D01*
X185189952Y-127686857D01*
X185237571Y-127591619D01*
X185285190Y-127544000D01*
X185380428Y-127496381D01*
X186332809Y-127496381D02*
X186428048Y-127496381D01*
X186523286Y-127544000D01*
X186570905Y-127591619D01*
X186618524Y-127686857D01*
X186666143Y-127877333D01*
X186666143Y-128115429D01*
X186618524Y-128305905D01*
X186570905Y-128401143D01*
X186523286Y-128448762D01*
X186428048Y-128496381D01*
X186332809Y-128496381D01*
X186237571Y-128448762D01*
X186189952Y-128401143D01*
X186142333Y-128305905D01*
X186094714Y-128115429D01*
X186094714Y-127877333D01*
X186142333Y-127686857D01*
X186189952Y-127591619D01*
X186237571Y-127544000D01*
X186332809Y-127496381D01*
X187094714Y-127829714D02*
X187094714Y-128496381D01*
X187094714Y-127924952D02*
X187142333Y-127877333D01*
X187237571Y-127829714D01*
X187380429Y-127829714D01*
X187475667Y-127877333D01*
X187523286Y-127972571D01*
X187523286Y-128496381D01*
X188332810Y-127972571D02*
X187999476Y-127972571D01*
X187999476Y-128496381D02*
X187999476Y-127496381D01*
X188475667Y-127496381D01*
X189063334Y-130151143D02*
X189015715Y-130198762D01*
X188872858Y-130246381D01*
X188777620Y-130246381D01*
X188634762Y-130198762D01*
X188539524Y-130103524D01*
X188491905Y-130008286D01*
X188444286Y-129817810D01*
X188444286Y-129674952D01*
X188491905Y-129484476D01*
X188539524Y-129389238D01*
X188634762Y-129294000D01*
X188777620Y-129246381D01*
X188872858Y-129246381D01*
X189015715Y-129294000D01*
X189063334Y-129341619D01*
X189968096Y-129246381D02*
X189491905Y-129246381D01*
X189444286Y-129722571D01*
X189491905Y-129674952D01*
X189587143Y-129627333D01*
X189825239Y-129627333D01*
X189920477Y-129674952D01*
X189968096Y-129722571D01*
X190015715Y-129817810D01*
X190015715Y-130055905D01*
X189968096Y-130151143D01*
X189920477Y-130198762D01*
X189825239Y-130246381D01*
X189587143Y-130246381D01*
X189491905Y-130198762D01*
X189444286Y-130151143D01*
X181649762Y-111732381D02*
X181078333Y-111732381D01*
X181364047Y-111732381D02*
X181364047Y-110732381D01*
X181268809Y-110875238D01*
X181173571Y-110970476D01*
X181078333Y-111018095D01*
X182506905Y-111065714D02*
X182506905Y-111732381D01*
X182078333Y-111065714D02*
X182078333Y-111589524D01*
X182125952Y-111684762D01*
X182221190Y-111732381D01*
X182364048Y-111732381D01*
X182459286Y-111684762D01*
X182506905Y-111637143D01*
X183316429Y-111208571D02*
X182983095Y-111208571D01*
X182983095Y-111732381D02*
X182983095Y-110732381D01*
X183459286Y-110732381D01*
X178903334Y-113514143D02*
X178855715Y-113561762D01*
X178712858Y-113609381D01*
X178617620Y-113609381D01*
X178474762Y-113561762D01*
X178379524Y-113466524D01*
X178331905Y-113371286D01*
X178284286Y-113180810D01*
X178284286Y-113037952D01*
X178331905Y-112847476D01*
X178379524Y-112752238D01*
X178474762Y-112657000D01*
X178617620Y-112609381D01*
X178712858Y-112609381D01*
X178855715Y-112657000D01*
X178903334Y-112704619D01*
X179760477Y-112609381D02*
X179570000Y-112609381D01*
X179474762Y-112657000D01*
X179427143Y-112704619D01*
X179331905Y-112847476D01*
X179284286Y-113037952D01*
X179284286Y-113418905D01*
X179331905Y-113514143D01*
X179379524Y-113561762D01*
X179474762Y-113609381D01*
X179665239Y-113609381D01*
X179760477Y-113561762D01*
X179808096Y-113514143D01*
X179855715Y-113418905D01*
X179855715Y-113180810D01*
X179808096Y-113085571D01*
X179760477Y-113037952D01*
X179665239Y-112990333D01*
X179474762Y-112990333D01*
X179379524Y-113037952D01*
X179331905Y-113085571D01*
X179284286Y-113180810D01*
X179462714Y-124467761D02*
X180129381Y-124467761D01*
X179081762Y-124705857D02*
X179796048Y-124943952D01*
X179796048Y-124324904D01*
X180034143Y-123943952D02*
X180081762Y-123896333D01*
X180129381Y-123943952D01*
X180081762Y-123991571D01*
X180034143Y-123943952D01*
X180129381Y-123943952D01*
X179129381Y-123563000D02*
X179129381Y-122896333D01*
X180129381Y-123324905D01*
X179462714Y-122086809D02*
X180129381Y-122086809D01*
X179462714Y-122515381D02*
X179986524Y-122515381D01*
X180081762Y-122467762D01*
X180129381Y-122372524D01*
X180129381Y-122229666D01*
X180081762Y-122134428D01*
X180034143Y-122086809D01*
X179605571Y-121277285D02*
X179605571Y-121610619D01*
X180129381Y-121610619D02*
X179129381Y-121610619D01*
X179129381Y-121134428D01*
X176784143Y-123229666D02*
X176831762Y-123277285D01*
X176879381Y-123420142D01*
X176879381Y-123515380D01*
X176831762Y-123658238D01*
X176736524Y-123753476D01*
X176641286Y-123801095D01*
X176450810Y-123848714D01*
X176307952Y-123848714D01*
X176117476Y-123801095D01*
X176022238Y-123753476D01*
X175927000Y-123658238D01*
X175879381Y-123515380D01*
X175879381Y-123420142D01*
X175927000Y-123277285D01*
X175974619Y-123229666D01*
X175879381Y-122896333D02*
X175879381Y-122229666D01*
X176879381Y-122658238D01*
X184904239Y-129734714D02*
X184904239Y-130401381D01*
X184666143Y-129353762D02*
X184428048Y-130068048D01*
X185047096Y-130068048D01*
X185428048Y-130306143D02*
X185475667Y-130353762D01*
X185428048Y-130401381D01*
X185380429Y-130353762D01*
X185428048Y-130306143D01*
X185428048Y-130401381D01*
X185809000Y-129401381D02*
X186475667Y-129401381D01*
X186047095Y-130401381D01*
X187285191Y-129734714D02*
X187285191Y-130401381D01*
X186856619Y-129734714D02*
X186856619Y-130258524D01*
X186904238Y-130353762D01*
X186999476Y-130401381D01*
X187142334Y-130401381D01*
X187237572Y-130353762D01*
X187285191Y-130306143D01*
X188094715Y-129877571D02*
X187761381Y-129877571D01*
X187761381Y-130401381D02*
X187761381Y-129401381D01*
X188237572Y-129401381D01*
X189063334Y-132183143D02*
X189015715Y-132230762D01*
X188872858Y-132278381D01*
X188777620Y-132278381D01*
X188634762Y-132230762D01*
X188539524Y-132135524D01*
X188491905Y-132040286D01*
X188444286Y-131849810D01*
X188444286Y-131706952D01*
X188491905Y-131516476D01*
X188539524Y-131421238D01*
X188634762Y-131326000D01*
X188777620Y-131278381D01*
X188872858Y-131278381D01*
X189015715Y-131326000D01*
X189063334Y-131373619D01*
X189634762Y-131706952D02*
X189539524Y-131659333D01*
X189491905Y-131611714D01*
X189444286Y-131516476D01*
X189444286Y-131468857D01*
X189491905Y-131373619D01*
X189539524Y-131326000D01*
X189634762Y-131278381D01*
X189825239Y-131278381D01*
X189920477Y-131326000D01*
X189968096Y-131373619D01*
X190015715Y-131468857D01*
X190015715Y-131516476D01*
X189968096Y-131611714D01*
X189920477Y-131659333D01*
X189825239Y-131706952D01*
X189634762Y-131706952D01*
X189539524Y-131754571D01*
X189491905Y-131802190D01*
X189444286Y-131897429D01*
X189444286Y-132087905D01*
X189491905Y-132183143D01*
X189539524Y-132230762D01*
X189634762Y-132278381D01*
X189825239Y-132278381D01*
X189920477Y-132230762D01*
X189968096Y-132183143D01*
X190015715Y-132087905D01*
X190015715Y-131897429D01*
X189968096Y-131802190D01*
X189920477Y-131754571D01*
X189825239Y-131706952D01*
X213764953Y-114877381D02*
X213288762Y-114877381D01*
X213288762Y-113877381D01*
X214098286Y-114353571D02*
X214431620Y-114353571D01*
X214574477Y-114877381D02*
X214098286Y-114877381D01*
X214098286Y-113877381D01*
X214574477Y-113877381D01*
X215003048Y-114877381D02*
X215003048Y-113877381D01*
X215241143Y-113877381D01*
X215384001Y-113925000D01*
X215479239Y-114020238D01*
X215526858Y-114115476D01*
X215574477Y-114305952D01*
X215574477Y-114448810D01*
X215526858Y-114639286D01*
X215479239Y-114734524D01*
X215384001Y-114829762D01*
X215241143Y-114877381D01*
X215003048Y-114877381D01*
X216526858Y-114877381D02*
X215955429Y-114877381D01*
X216241143Y-114877381D02*
X216241143Y-113877381D01*
X216145905Y-114020238D01*
X216050667Y-114115476D01*
X215955429Y-114163095D01*
D12*
X214441143Y-111396429D02*
X214441143Y-110796429D01*
X214584000Y-110796429D01*
X214669715Y-110825000D01*
X214726857Y-110882143D01*
X214755429Y-110939286D01*
X214784000Y-111053571D01*
X214784000Y-111139286D01*
X214755429Y-111253571D01*
X214726857Y-111310714D01*
X214669715Y-111367857D01*
X214584000Y-111396429D01*
X214441143Y-111396429D01*
X215355429Y-111396429D02*
X215012572Y-111396429D01*
X215184000Y-111396429D02*
X215184000Y-110796429D01*
X215126857Y-110882143D01*
X215069715Y-110939286D01*
X215012572Y-110967857D01*
D11*
X213764953Y-107384381D02*
X213288762Y-107384381D01*
X213288762Y-106384381D01*
X214098286Y-106860571D02*
X214431620Y-106860571D01*
X214574477Y-107384381D02*
X214098286Y-107384381D01*
X214098286Y-106384381D01*
X214574477Y-106384381D01*
X215003048Y-107384381D02*
X215003048Y-106384381D01*
X215241143Y-106384381D01*
X215384001Y-106432000D01*
X215479239Y-106527238D01*
X215526858Y-106622476D01*
X215574477Y-106812952D01*
X215574477Y-106955810D01*
X215526858Y-107146286D01*
X215479239Y-107241524D01*
X215384001Y-107336762D01*
X215241143Y-107384381D01*
X215003048Y-107384381D01*
X215955429Y-106479619D02*
X216003048Y-106432000D01*
X216098286Y-106384381D01*
X216336382Y-106384381D01*
X216431620Y-106432000D01*
X216479239Y-106479619D01*
X216526858Y-106574857D01*
X216526858Y-106670095D01*
X216479239Y-106812952D01*
X215907810Y-107384381D01*
X216526858Y-107384381D01*
D12*
X214441143Y-103903429D02*
X214441143Y-103303429D01*
X214584000Y-103303429D01*
X214669715Y-103332000D01*
X214726857Y-103389143D01*
X214755429Y-103446286D01*
X214784000Y-103560571D01*
X214784000Y-103646286D01*
X214755429Y-103760571D01*
X214726857Y-103817714D01*
X214669715Y-103874857D01*
X214584000Y-103903429D01*
X214441143Y-103903429D01*
X215012572Y-103360571D02*
X215041143Y-103332000D01*
X215098286Y-103303429D01*
X215241143Y-103303429D01*
X215298286Y-103332000D01*
X215326857Y-103360571D01*
X215355429Y-103417714D01*
X215355429Y-103474857D01*
X215326857Y-103560571D01*
X214984000Y-103903429D01*
X215355429Y-103903429D01*
D11*
X185619285Y-97512143D02*
X185571666Y-97559762D01*
X185428809Y-97607381D01*
X185333571Y-97607381D01*
X185190713Y-97559762D01*
X185095475Y-97464524D01*
X185047856Y-97369286D01*
X185000237Y-97178810D01*
X185000237Y-97035952D01*
X185047856Y-96845476D01*
X185095475Y-96750238D01*
X185190713Y-96655000D01*
X185333571Y-96607381D01*
X185428809Y-96607381D01*
X185571666Y-96655000D01*
X185619285Y-96702619D01*
X186190713Y-97607381D02*
X186095475Y-97559762D01*
X186047856Y-97512143D01*
X186000237Y-97416905D01*
X186000237Y-97131190D01*
X186047856Y-97035952D01*
X186095475Y-96988333D01*
X186190713Y-96940714D01*
X186333571Y-96940714D01*
X186428809Y-96988333D01*
X186476428Y-97035952D01*
X186524047Y-97131190D01*
X186524047Y-97416905D01*
X186476428Y-97512143D01*
X186428809Y-97559762D01*
X186333571Y-97607381D01*
X186190713Y-97607381D01*
X186952618Y-96940714D02*
X186952618Y-97607381D01*
X186952618Y-97035952D02*
X187000237Y-96988333D01*
X187095475Y-96940714D01*
X187238333Y-96940714D01*
X187333571Y-96988333D01*
X187381190Y-97083571D01*
X187381190Y-97607381D01*
X187857380Y-96940714D02*
X187857380Y-97607381D01*
X187857380Y-97035952D02*
X187904999Y-96988333D01*
X188000237Y-96940714D01*
X188143095Y-96940714D01*
X188238333Y-96988333D01*
X188285952Y-97083571D01*
X188285952Y-97607381D01*
X188524047Y-97702619D02*
X189285952Y-97702619D01*
X189714523Y-96607381D02*
X189809762Y-96607381D01*
X189905000Y-96655000D01*
X189952619Y-96702619D01*
X190000238Y-96797857D01*
X190047857Y-96988333D01*
X190047857Y-97226429D01*
X190000238Y-97416905D01*
X189952619Y-97512143D01*
X189905000Y-97559762D01*
X189809762Y-97607381D01*
X189714523Y-97607381D01*
X189619285Y-97559762D01*
X189571666Y-97512143D01*
X189524047Y-97416905D01*
X189476428Y-97226429D01*
X189476428Y-96988333D01*
X189524047Y-96797857D01*
X189571666Y-96702619D01*
X189619285Y-96655000D01*
X189714523Y-96607381D01*
X191000238Y-97607381D02*
X190428809Y-97607381D01*
X190714523Y-97607381D02*
X190714523Y-96607381D01*
X190619285Y-96750238D01*
X190524047Y-96845476D01*
X190428809Y-96893095D01*
X191333571Y-97607381D02*
X191857381Y-96940714D01*
X191333571Y-96940714D02*
X191857381Y-97607381D01*
X192428809Y-96607381D02*
X192524048Y-96607381D01*
X192619286Y-96655000D01*
X192666905Y-96702619D01*
X192714524Y-96797857D01*
X192762143Y-96988333D01*
X192762143Y-97226429D01*
X192714524Y-97416905D01*
X192666905Y-97512143D01*
X192619286Y-97559762D01*
X192524048Y-97607381D01*
X192428809Y-97607381D01*
X192333571Y-97559762D01*
X192285952Y-97512143D01*
X192238333Y-97416905D01*
X192190714Y-97226429D01*
X192190714Y-96988333D01*
X192238333Y-96797857D01*
X192285952Y-96702619D01*
X192333571Y-96655000D01*
X192428809Y-96607381D01*
X193095476Y-96607381D02*
X193762143Y-96607381D01*
X193333571Y-97607381D01*
X193905000Y-97702619D02*
X194666905Y-97702619D01*
X195238334Y-97083571D02*
X194905000Y-97083571D01*
X194905000Y-97607381D02*
X194905000Y-96607381D01*
X195381191Y-96607381D01*
X196143096Y-97559762D02*
X196047858Y-97607381D01*
X195857381Y-97607381D01*
X195762143Y-97559762D01*
X195714524Y-97464524D01*
X195714524Y-97083571D01*
X195762143Y-96988333D01*
X195857381Y-96940714D01*
X196047858Y-96940714D01*
X196143096Y-96988333D01*
X196190715Y-97083571D01*
X196190715Y-97178810D01*
X195714524Y-97274048D01*
X196619286Y-97607381D02*
X196619286Y-96940714D01*
X196619286Y-97035952D02*
X196666905Y-96988333D01*
X196762143Y-96940714D01*
X196905001Y-96940714D01*
X197000239Y-96988333D01*
X197047858Y-97083571D01*
X197047858Y-97607381D01*
X197047858Y-97083571D02*
X197095477Y-96988333D01*
X197190715Y-96940714D01*
X197333572Y-96940714D01*
X197428810Y-96988333D01*
X197476429Y-97083571D01*
X197476429Y-97607381D01*
X198381191Y-97607381D02*
X198381191Y-97083571D01*
X198333572Y-96988333D01*
X198238334Y-96940714D01*
X198047857Y-96940714D01*
X197952619Y-96988333D01*
X198381191Y-97559762D02*
X198285953Y-97607381D01*
X198047857Y-97607381D01*
X197952619Y-97559762D01*
X197905000Y-97464524D01*
X197905000Y-97369286D01*
X197952619Y-97274048D01*
X198047857Y-97226429D01*
X198285953Y-97226429D01*
X198381191Y-97178810D01*
X199000238Y-97607381D02*
X198905000Y-97559762D01*
X198857381Y-97464524D01*
X198857381Y-96607381D01*
X199762144Y-97559762D02*
X199666906Y-97607381D01*
X199476429Y-97607381D01*
X199381191Y-97559762D01*
X199333572Y-97464524D01*
X199333572Y-97083571D01*
X199381191Y-96988333D01*
X199476429Y-96940714D01*
X199666906Y-96940714D01*
X199762144Y-96988333D01*
X199809763Y-97083571D01*
X199809763Y-97178810D01*
X199333572Y-97274048D01*
X184959667Y-101306381D02*
X184959667Y-102020667D01*
X184912047Y-102163524D01*
X184816809Y-102258762D01*
X184673952Y-102306381D01*
X184578714Y-102306381D01*
X185959667Y-102306381D02*
X185388238Y-102306381D01*
X185673952Y-102306381D02*
X185673952Y-101306381D01*
X185578714Y-101449238D01*
X185483476Y-101544476D01*
X185388238Y-101592095D01*
X198314762Y-138517143D02*
X198362381Y-138374286D01*
X198362381Y-138136190D01*
X198314762Y-138040952D01*
X198267143Y-137993333D01*
X198171905Y-137945714D01*
X198076667Y-137945714D01*
X197981429Y-137993333D01*
X197933810Y-138040952D01*
X197886190Y-138136190D01*
X197838571Y-138326667D01*
X197790952Y-138421905D01*
X197743333Y-138469524D01*
X197648095Y-138517143D01*
X197552857Y-138517143D01*
X197457619Y-138469524D01*
X197410000Y-138421905D01*
X197362381Y-138326667D01*
X197362381Y-138088571D01*
X197410000Y-137945714D01*
X197362381Y-137612381D02*
X198362381Y-137374286D01*
X197648095Y-137183809D01*
X198362381Y-136993333D01*
X197362381Y-136755238D01*
X198362381Y-136374286D02*
X197362381Y-136374286D01*
X197362381Y-136136191D01*
X197410000Y-135993333D01*
X197505238Y-135898095D01*
X197600476Y-135850476D01*
X197790952Y-135802857D01*
X197933810Y-135802857D01*
X198124286Y-135850476D01*
X198219524Y-135898095D01*
X198314762Y-135993333D01*
X198362381Y-136136191D01*
X198362381Y-136374286D01*
X191309667Y-133818381D02*
X191309667Y-134532667D01*
X191262047Y-134675524D01*
X191166809Y-134770762D01*
X191023952Y-134818381D01*
X190928714Y-134818381D01*
X191738238Y-133913619D02*
X191785857Y-133866000D01*
X191881095Y-133818381D01*
X192119191Y-133818381D01*
X192214429Y-133866000D01*
X192262048Y-133913619D01*
X192309667Y-134008857D01*
X192309667Y-134104095D01*
X192262048Y-134246952D01*
X191690619Y-134818381D01*
X192309667Y-134818381D01*
X202890667Y-101738571D02*
X203033524Y-101786190D01*
X203081143Y-101833810D01*
X203128762Y-101929048D01*
X203128762Y-102071905D01*
X203081143Y-102167143D01*
X203033524Y-102214762D01*
X202938286Y-102262381D01*
X202557333Y-102262381D01*
X202557333Y-101262381D01*
X202890667Y-101262381D01*
X202985905Y-101310000D01*
X203033524Y-101357619D01*
X203081143Y-101452857D01*
X203081143Y-101548095D01*
X203033524Y-101643333D01*
X202985905Y-101690952D01*
X202890667Y-101738571D01*
X202557333Y-101738571D01*
X203747809Y-101262381D02*
X203938286Y-101262381D01*
X204033524Y-101310000D01*
X204128762Y-101405238D01*
X204176381Y-101595714D01*
X204176381Y-101929048D01*
X204128762Y-102119524D01*
X204033524Y-102214762D01*
X203938286Y-102262381D01*
X203747809Y-102262381D01*
X203652571Y-102214762D01*
X203557333Y-102119524D01*
X203509714Y-101929048D01*
X203509714Y-101595714D01*
X203557333Y-101405238D01*
X203652571Y-101310000D01*
X203747809Y-101262381D01*
X204795428Y-101262381D02*
X204985905Y-101262381D01*
X205081143Y-101310000D01*
X205176381Y-101405238D01*
X205224000Y-101595714D01*
X205224000Y-101929048D01*
X205176381Y-102119524D01*
X205081143Y-102214762D01*
X204985905Y-102262381D01*
X204795428Y-102262381D01*
X204700190Y-102214762D01*
X204604952Y-102119524D01*
X204557333Y-101929048D01*
X204557333Y-101595714D01*
X204604952Y-101405238D01*
X204700190Y-101310000D01*
X204795428Y-101262381D01*
X205509714Y-101262381D02*
X206081143Y-101262381D01*
X205795428Y-102262381D02*
X205795428Y-101262381D01*
X206604952Y-101262381D02*
X206700191Y-101262381D01*
X206795429Y-101310000D01*
X206843048Y-101357619D01*
X206890667Y-101452857D01*
X206938286Y-101643333D01*
X206938286Y-101881429D01*
X206890667Y-102071905D01*
X206843048Y-102167143D01*
X206795429Y-102214762D01*
X206700191Y-102262381D01*
X206604952Y-102262381D01*
X206509714Y-102214762D01*
X206462095Y-102167143D01*
X206414476Y-102071905D01*
X206366857Y-101881429D01*
X206366857Y-101643333D01*
X206414476Y-101452857D01*
X206462095Y-101357619D01*
X206509714Y-101310000D01*
X206604952Y-101262381D01*
X204176381Y-105743333D02*
X204890667Y-105743333D01*
X205033524Y-105790953D01*
X205128762Y-105886191D01*
X205176381Y-106029048D01*
X205176381Y-106124286D01*
X204176381Y-105362381D02*
X204176381Y-104743333D01*
X204557333Y-105076667D01*
X204557333Y-104933809D01*
X204604952Y-104838571D01*
X204652571Y-104790952D01*
X204747810Y-104743333D01*
X204985905Y-104743333D01*
X205081143Y-104790952D01*
X205128762Y-104838571D01*
X205176381Y-104933809D01*
X205176381Y-105219524D01*
X205128762Y-105314762D01*
X205081143Y-105362381D01*
X196040571Y-113875714D02*
X196040571Y-114542381D01*
X196040571Y-113970952D02*
X196088190Y-113923333D01*
X196183428Y-113875714D01*
X196326286Y-113875714D01*
X196421524Y-113923333D01*
X196469143Y-114018571D01*
X196469143Y-114542381D01*
X197516762Y-114542381D02*
X197183428Y-114066190D01*
X196945333Y-114542381D02*
X196945333Y-113542381D01*
X197326286Y-113542381D01*
X197421524Y-113590000D01*
X197469143Y-113637619D01*
X197516762Y-113732857D01*
X197516762Y-113875714D01*
X197469143Y-113970952D01*
X197421524Y-114018571D01*
X197326286Y-114066190D01*
X196945333Y-114066190D01*
X197897714Y-114494762D02*
X198040571Y-114542381D01*
X198278667Y-114542381D01*
X198373905Y-114494762D01*
X198421524Y-114447143D01*
X198469143Y-114351905D01*
X198469143Y-114256667D01*
X198421524Y-114161429D01*
X198373905Y-114113810D01*
X198278667Y-114066190D01*
X198088190Y-114018571D01*
X197992952Y-113970952D01*
X197945333Y-113923333D01*
X197897714Y-113828095D01*
X197897714Y-113732857D01*
X197945333Y-113637619D01*
X197992952Y-113590000D01*
X198088190Y-113542381D01*
X198326286Y-113542381D01*
X198469143Y-113590000D01*
X198754857Y-113542381D02*
X199326286Y-113542381D01*
X199040571Y-114542381D02*
X199040571Y-113542381D01*
X197064381Y-110823333D02*
X197778667Y-110823333D01*
X197921524Y-110870953D01*
X198016762Y-110966191D01*
X198064381Y-111109048D01*
X198064381Y-111204286D01*
X197397714Y-109918571D02*
X198064381Y-109918571D01*
X197016762Y-110156667D02*
X197731048Y-110394762D01*
X197731048Y-109775714D01*
X177823953Y-143327381D02*
X177347762Y-143327381D01*
X177347762Y-142327381D01*
X178109667Y-143279762D02*
X178252524Y-143327381D01*
X178490620Y-143327381D01*
X178585858Y-143279762D01*
X178633477Y-143232143D01*
X178681096Y-143136905D01*
X178681096Y-143041667D01*
X178633477Y-142946429D01*
X178585858Y-142898810D01*
X178490620Y-142851190D01*
X178300143Y-142803571D01*
X178204905Y-142755952D01*
X178157286Y-142708333D01*
X178109667Y-142613095D01*
X178109667Y-142517857D01*
X178157286Y-142422619D01*
X178204905Y-142375000D01*
X178300143Y-142327381D01*
X178538239Y-142327381D01*
X178681096Y-142375000D01*
X179062048Y-143041667D02*
X179538239Y-143041667D01*
X178966810Y-143327381D02*
X179300143Y-142327381D01*
X179633477Y-143327381D01*
X180157286Y-142327381D02*
X180347763Y-142327381D01*
X180443001Y-142375000D01*
X180538239Y-142470238D01*
X180585858Y-142660714D01*
X180585858Y-142994048D01*
X180538239Y-143184524D01*
X180443001Y-143279762D01*
X180347763Y-143327381D01*
X180157286Y-143327381D01*
X180062048Y-143279762D01*
X179966810Y-143184524D01*
X179919191Y-142994048D01*
X179919191Y-142660714D01*
X179966810Y-142470238D01*
X180062048Y-142375000D01*
X180157286Y-142327381D01*
X178609667Y-134326381D02*
X178609667Y-135040667D01*
X178562047Y-135183524D01*
X178466809Y-135278762D01*
X178323952Y-135326381D01*
X178228714Y-135326381D01*
X179562048Y-134326381D02*
X179085857Y-134326381D01*
X179038238Y-134802571D01*
X179085857Y-134754952D01*
X179181095Y-134707333D01*
X179419191Y-134707333D01*
X179514429Y-134754952D01*
X179562048Y-134802571D01*
X179609667Y-134897810D01*
X179609667Y-135135905D01*
X179562048Y-135231143D01*
X179514429Y-135278762D01*
X179419191Y-135326381D01*
X179181095Y-135326381D01*
X179085857Y-135278762D01*
X179038238Y-135231143D01*
X162753381Y-141436190D02*
X163562905Y-141436190D01*
X163658143Y-141388571D01*
X163705762Y-141340952D01*
X163753381Y-141245714D01*
X163753381Y-141055237D01*
X163705762Y-140959999D01*
X163658143Y-140912380D01*
X163562905Y-140864761D01*
X162753381Y-140864761D01*
X163705762Y-140436190D02*
X163753381Y-140293333D01*
X163753381Y-140055237D01*
X163705762Y-139959999D01*
X163658143Y-139912380D01*
X163562905Y-139864761D01*
X163467667Y-139864761D01*
X163372429Y-139912380D01*
X163324810Y-139959999D01*
X163277190Y-140055237D01*
X163229571Y-140245714D01*
X163181952Y-140340952D01*
X163134333Y-140388571D01*
X163039095Y-140436190D01*
X162943857Y-140436190D01*
X162848619Y-140388571D01*
X162801000Y-140340952D01*
X162753381Y-140245714D01*
X162753381Y-140007618D01*
X162801000Y-139864761D01*
X163229571Y-139102856D02*
X163277190Y-138959999D01*
X163324810Y-138912380D01*
X163420048Y-138864761D01*
X163562905Y-138864761D01*
X163658143Y-138912380D01*
X163705762Y-138959999D01*
X163753381Y-139055237D01*
X163753381Y-139436190D01*
X162753381Y-139436190D01*
X162753381Y-139102856D01*
X162801000Y-139007618D01*
X162848619Y-138959999D01*
X162943857Y-138912380D01*
X163039095Y-138912380D01*
X163134333Y-138959999D01*
X163181952Y-139007618D01*
X163229571Y-139102856D01*
X163229571Y-139436190D01*
X163848619Y-138674285D02*
X163848619Y-137912380D01*
X163753381Y-137674285D02*
X162753381Y-137674285D01*
X163467667Y-137340951D01*
X162753381Y-137007618D01*
X163753381Y-137007618D01*
X163753381Y-136531428D02*
X162753381Y-136531428D01*
X163658143Y-135483809D02*
X163705762Y-135531428D01*
X163753381Y-135674285D01*
X163753381Y-135769523D01*
X163705762Y-135912381D01*
X163610524Y-136007619D01*
X163515286Y-136055238D01*
X163324810Y-136102857D01*
X163181952Y-136102857D01*
X162991476Y-136055238D01*
X162896238Y-136007619D01*
X162801000Y-135912381D01*
X162753381Y-135769523D01*
X162753381Y-135674285D01*
X162801000Y-135531428D01*
X162848619Y-135483809D01*
X163753381Y-134483809D02*
X163277190Y-134817143D01*
X163753381Y-135055238D02*
X162753381Y-135055238D01*
X162753381Y-134674285D01*
X162801000Y-134579047D01*
X162848619Y-134531428D01*
X162943857Y-134483809D01*
X163086714Y-134483809D01*
X163181952Y-134531428D01*
X163229571Y-134579047D01*
X163277190Y-134674285D01*
X163277190Y-135055238D01*
X162753381Y-133864762D02*
X162753381Y-133674285D01*
X162801000Y-133579047D01*
X162896238Y-133483809D01*
X163086714Y-133436190D01*
X163420048Y-133436190D01*
X163610524Y-133483809D01*
X163705762Y-133579047D01*
X163753381Y-133674285D01*
X163753381Y-133864762D01*
X163705762Y-133960000D01*
X163610524Y-134055238D01*
X163420048Y-134102857D01*
X163086714Y-134102857D01*
X162896238Y-134055238D01*
X162801000Y-133960000D01*
X162753381Y-133864762D01*
X170140381Y-137493333D02*
X170854667Y-137493333D01*
X170997524Y-137540953D01*
X171092762Y-137636191D01*
X171140381Y-137779048D01*
X171140381Y-137874286D01*
X170140381Y-136588571D02*
X170140381Y-136779048D01*
X170188000Y-136874286D01*
X170235619Y-136921905D01*
X170378476Y-137017143D01*
X170568952Y-137064762D01*
X170949905Y-137064762D01*
X171045143Y-137017143D01*
X171092762Y-136969524D01*
X171140381Y-136874286D01*
X171140381Y-136683809D01*
X171092762Y-136588571D01*
X171045143Y-136540952D01*
X170949905Y-136493333D01*
X170711810Y-136493333D01*
X170616571Y-136540952D01*
X170568952Y-136588571D01*
X170521333Y-136683809D01*
X170521333Y-136874286D01*
X170568952Y-136969524D01*
X170616571Y-137017143D01*
X170711810Y-137064762D01*
X200505381Y-109434238D02*
X200505381Y-110005667D01*
X200505381Y-109719953D02*
X199505381Y-109719953D01*
X199648238Y-109815191D01*
X199743476Y-109910429D01*
X199791095Y-110005667D01*
X199505381Y-108815191D02*
X199505381Y-108719952D01*
X199553000Y-108624714D01*
X199600619Y-108577095D01*
X199695857Y-108529476D01*
X199886333Y-108481857D01*
X200124429Y-108481857D01*
X200314905Y-108529476D01*
X200410143Y-108577095D01*
X200457762Y-108624714D01*
X200505381Y-108719952D01*
X200505381Y-108815191D01*
X200457762Y-108910429D01*
X200410143Y-108958048D01*
X200314905Y-109005667D01*
X200124429Y-109053286D01*
X199886333Y-109053286D01*
X199695857Y-109005667D01*
X199600619Y-108958048D01*
X199553000Y-108910429D01*
X199505381Y-108815191D01*
X200505381Y-108053286D02*
X199505381Y-108053286D01*
X200124429Y-107958048D02*
X200505381Y-107672333D01*
X199838714Y-107672333D02*
X200219667Y-108053286D01*
D13*
X202029190Y-108922333D02*
X201791095Y-109089000D01*
X202029190Y-109208047D02*
X201529190Y-109208047D01*
X201529190Y-109017571D01*
X201553000Y-108969952D01*
X201576810Y-108946143D01*
X201624429Y-108922333D01*
X201695857Y-108922333D01*
X201743476Y-108946143D01*
X201767286Y-108969952D01*
X201791095Y-109017571D01*
X201791095Y-109208047D01*
X202029190Y-108446143D02*
X202029190Y-108731857D01*
X202029190Y-108589000D02*
X201529190Y-108589000D01*
X201600619Y-108636619D01*
X201648238Y-108684238D01*
X201672048Y-108731857D01*
D11*
X177292095Y-133151619D02*
X177339714Y-133104000D01*
X177434952Y-133056381D01*
X177673048Y-133056381D01*
X177768286Y-133104000D01*
X177815905Y-133151619D01*
X177863524Y-133246857D01*
X177863524Y-133342095D01*
X177815905Y-133484952D01*
X177244476Y-134056381D01*
X177863524Y-134056381D01*
X178244476Y-133151619D02*
X178292095Y-133104000D01*
X178387333Y-133056381D01*
X178625429Y-133056381D01*
X178720667Y-133104000D01*
X178768286Y-133151619D01*
X178815905Y-133246857D01*
X178815905Y-133342095D01*
X178768286Y-133484952D01*
X178196857Y-134056381D01*
X178815905Y-134056381D01*
D13*
X173271667Y-134084190D02*
X173105000Y-133846095D01*
X172985953Y-134084190D02*
X172985953Y-133584190D01*
X173176429Y-133584190D01*
X173224048Y-133608000D01*
X173247857Y-133631810D01*
X173271667Y-133679429D01*
X173271667Y-133750857D01*
X173247857Y-133798476D01*
X173224048Y-133822286D01*
X173176429Y-133846095D01*
X172985953Y-133846095D01*
X173462143Y-133631810D02*
X173485953Y-133608000D01*
X173533572Y-133584190D01*
X173652619Y-133584190D01*
X173700238Y-133608000D01*
X173724048Y-133631810D01*
X173747857Y-133679429D01*
X173747857Y-133727048D01*
X173724048Y-133798476D01*
X173438334Y-134084190D01*
X173747857Y-134084190D01*
D11*
X177292095Y-131373619D02*
X177339714Y-131326000D01*
X177434952Y-131278381D01*
X177673048Y-131278381D01*
X177768286Y-131326000D01*
X177815905Y-131373619D01*
X177863524Y-131468857D01*
X177863524Y-131564095D01*
X177815905Y-131706952D01*
X177244476Y-132278381D01*
X177863524Y-132278381D01*
X178244476Y-131373619D02*
X178292095Y-131326000D01*
X178387333Y-131278381D01*
X178625429Y-131278381D01*
X178720667Y-131326000D01*
X178768286Y-131373619D01*
X178815905Y-131468857D01*
X178815905Y-131564095D01*
X178768286Y-131706952D01*
X178196857Y-132278381D01*
X178815905Y-132278381D01*
D13*
X173271667Y-132179190D02*
X173105000Y-131941095D01*
X172985953Y-132179190D02*
X172985953Y-131679190D01*
X173176429Y-131679190D01*
X173224048Y-131703000D01*
X173247857Y-131726810D01*
X173271667Y-131774429D01*
X173271667Y-131845857D01*
X173247857Y-131893476D01*
X173224048Y-131917286D01*
X173176429Y-131941095D01*
X172985953Y-131941095D01*
X173438334Y-131679190D02*
X173747857Y-131679190D01*
X173581191Y-131869667D01*
X173652619Y-131869667D01*
X173700238Y-131893476D01*
X173724048Y-131917286D01*
X173747857Y-131964905D01*
X173747857Y-132083952D01*
X173724048Y-132131571D01*
X173700238Y-132155381D01*
X173652619Y-132179190D01*
X173509762Y-132179190D01*
X173462143Y-132155381D01*
X173438334Y-132131571D01*
D11*
X162202762Y-133309381D02*
X162250381Y-133166524D01*
X162250381Y-132928428D01*
X162202762Y-132833190D01*
X162155143Y-132785571D01*
X162059905Y-132737952D01*
X161964667Y-132737952D01*
X161869429Y-132785571D01*
X161821810Y-132833190D01*
X161774190Y-132928428D01*
X161726571Y-133118905D01*
X161678952Y-133214143D01*
X161631333Y-133261762D01*
X161536095Y-133309381D01*
X161440857Y-133309381D01*
X161345619Y-133261762D01*
X161298000Y-133214143D01*
X161250381Y-133118905D01*
X161250381Y-132880809D01*
X161298000Y-132737952D01*
X161250381Y-132404619D02*
X162250381Y-132166524D01*
X161536095Y-131976047D01*
X162250381Y-131785571D01*
X161250381Y-131547476D01*
X162345619Y-131404619D02*
X162345619Y-130642714D01*
X162250381Y-130404619D02*
X161250381Y-130404619D01*
X161250381Y-130166524D01*
X161298000Y-130023666D01*
X161393238Y-129928428D01*
X161488476Y-129880809D01*
X161678952Y-129833190D01*
X161821810Y-129833190D01*
X162012286Y-129880809D01*
X162107524Y-129928428D01*
X162202762Y-130023666D01*
X162250381Y-130166524D01*
X162250381Y-130404619D01*
X162250381Y-129404619D02*
X161250381Y-129404619D01*
X161250381Y-129023666D01*
X161298000Y-128928428D01*
X161345619Y-128880809D01*
X161440857Y-128833190D01*
X161583714Y-128833190D01*
X161678952Y-128880809D01*
X161726571Y-128928428D01*
X161774190Y-129023666D01*
X161774190Y-129404619D01*
X162202762Y-128452238D02*
X162250381Y-128309381D01*
X162250381Y-128071285D01*
X162202762Y-127976047D01*
X162155143Y-127928428D01*
X162059905Y-127880809D01*
X161964667Y-127880809D01*
X161869429Y-127928428D01*
X161821810Y-127976047D01*
X161774190Y-128071285D01*
X161726571Y-128261762D01*
X161678952Y-128357000D01*
X161631333Y-128404619D01*
X161536095Y-128452238D01*
X161440857Y-128452238D01*
X161345619Y-128404619D01*
X161298000Y-128357000D01*
X161250381Y-128261762D01*
X161250381Y-128023666D01*
X161298000Y-127880809D01*
X161250381Y-127595095D02*
X161250381Y-127023666D01*
X162250381Y-127309381D02*
X161250381Y-127309381D01*
X162345619Y-126928428D02*
X162345619Y-126166523D01*
X161250381Y-125737952D02*
X161250381Y-125547475D01*
X161298000Y-125452237D01*
X161393238Y-125356999D01*
X161583714Y-125309380D01*
X161917048Y-125309380D01*
X162107524Y-125356999D01*
X162202762Y-125452237D01*
X162250381Y-125547475D01*
X162250381Y-125737952D01*
X162202762Y-125833190D01*
X162107524Y-125928428D01*
X161917048Y-125976047D01*
X161583714Y-125976047D01*
X161393238Y-125928428D01*
X161298000Y-125833190D01*
X161250381Y-125737952D01*
X161250381Y-124976047D02*
X161250381Y-124309380D01*
X162250381Y-124976047D01*
X162250381Y-124309380D01*
X162202762Y-123976047D02*
X162250381Y-123833190D01*
X162250381Y-123595094D01*
X162202762Y-123499856D01*
X162155143Y-123452237D01*
X162059905Y-123404618D01*
X161964667Y-123404618D01*
X161869429Y-123452237D01*
X161821810Y-123499856D01*
X161774190Y-123595094D01*
X161726571Y-123785571D01*
X161678952Y-123880809D01*
X161631333Y-123928428D01*
X161536095Y-123976047D01*
X161440857Y-123976047D01*
X161345619Y-123928428D01*
X161298000Y-123880809D01*
X161250381Y-123785571D01*
X161250381Y-123547475D01*
X161298000Y-123404618D01*
X161726571Y-122976047D02*
X161726571Y-122642713D01*
X162250381Y-122499856D02*
X162250381Y-122976047D01*
X161250381Y-122976047D01*
X161250381Y-122499856D01*
X162155143Y-121499856D02*
X162202762Y-121547475D01*
X162250381Y-121690332D01*
X162250381Y-121785570D01*
X162202762Y-121928428D01*
X162107524Y-122023666D01*
X162012286Y-122071285D01*
X161821810Y-122118904D01*
X161678952Y-122118904D01*
X161488476Y-122071285D01*
X161393238Y-122023666D01*
X161298000Y-121928428D01*
X161250381Y-121785570D01*
X161250381Y-121690332D01*
X161298000Y-121547475D01*
X161345619Y-121499856D01*
X162155143Y-120499856D02*
X162202762Y-120547475D01*
X162250381Y-120690332D01*
X162250381Y-120785570D01*
X162202762Y-120928428D01*
X162107524Y-121023666D01*
X162012286Y-121071285D01*
X161821810Y-121118904D01*
X161678952Y-121118904D01*
X161488476Y-121071285D01*
X161393238Y-121023666D01*
X161298000Y-120928428D01*
X161250381Y-120785570D01*
X161250381Y-120690332D01*
X161298000Y-120547475D01*
X161345619Y-120499856D01*
X161250381Y-119880809D02*
X161250381Y-119690332D01*
X161298000Y-119595094D01*
X161393238Y-119499856D01*
X161583714Y-119452237D01*
X161917048Y-119452237D01*
X162107524Y-119499856D01*
X162202762Y-119595094D01*
X162250381Y-119690332D01*
X162250381Y-119880809D01*
X162202762Y-119976047D01*
X162107524Y-120071285D01*
X161917048Y-120118904D01*
X161583714Y-120118904D01*
X161393238Y-120071285D01*
X161298000Y-119976047D01*
X161250381Y-119880809D01*
X162250381Y-119023666D02*
X161250381Y-119023666D01*
X162250381Y-118452237D01*
X161250381Y-118452237D01*
X173320762Y-121580381D02*
X173368381Y-121437524D01*
X173368381Y-121199428D01*
X173320762Y-121104190D01*
X173273143Y-121056571D01*
X173177905Y-121008952D01*
X173082667Y-121008952D01*
X172987429Y-121056571D01*
X172939810Y-121104190D01*
X172892190Y-121199428D01*
X172844571Y-121389905D01*
X172796952Y-121485143D01*
X172749333Y-121532762D01*
X172654095Y-121580381D01*
X172558857Y-121580381D01*
X172463619Y-121532762D01*
X172416000Y-121485143D01*
X172368381Y-121389905D01*
X172368381Y-121151809D01*
X172416000Y-121008952D01*
X172368381Y-120675619D02*
X173368381Y-120437524D01*
X172654095Y-120247047D01*
X173368381Y-120056571D01*
X172368381Y-119818476D01*
X173463619Y-119675619D02*
X173463619Y-118913714D01*
X173368381Y-118675619D02*
X172368381Y-118675619D01*
X172368381Y-118437524D01*
X172416000Y-118294666D01*
X172511238Y-118199428D01*
X172606476Y-118151809D01*
X172796952Y-118104190D01*
X172939810Y-118104190D01*
X173130286Y-118151809D01*
X173225524Y-118199428D01*
X173320762Y-118294666D01*
X173368381Y-118437524D01*
X173368381Y-118675619D01*
X173368381Y-117675619D02*
X172368381Y-117675619D01*
X172368381Y-117294666D01*
X172416000Y-117199428D01*
X172463619Y-117151809D01*
X172558857Y-117104190D01*
X172701714Y-117104190D01*
X172796952Y-117151809D01*
X172844571Y-117199428D01*
X172892190Y-117294666D01*
X172892190Y-117675619D01*
X173320762Y-116723238D02*
X173368381Y-116580381D01*
X173368381Y-116342285D01*
X173320762Y-116247047D01*
X173273143Y-116199428D01*
X173177905Y-116151809D01*
X173082667Y-116151809D01*
X172987429Y-116199428D01*
X172939810Y-116247047D01*
X172892190Y-116342285D01*
X172844571Y-116532762D01*
X172796952Y-116628000D01*
X172749333Y-116675619D01*
X172654095Y-116723238D01*
X172558857Y-116723238D01*
X172463619Y-116675619D01*
X172416000Y-116628000D01*
X172368381Y-116532762D01*
X172368381Y-116294666D01*
X172416000Y-116151809D01*
X172368381Y-115866095D02*
X172368381Y-115294666D01*
X173368381Y-115580381D02*
X172368381Y-115580381D01*
X173463619Y-115199428D02*
X173463619Y-114437523D01*
X172368381Y-114008952D02*
X172368381Y-113818475D01*
X172416000Y-113723237D01*
X172511238Y-113627999D01*
X172701714Y-113580380D01*
X173035048Y-113580380D01*
X173225524Y-113627999D01*
X173320762Y-113723237D01*
X173368381Y-113818475D01*
X173368381Y-114008952D01*
X173320762Y-114104190D01*
X173225524Y-114199428D01*
X173035048Y-114247047D01*
X172701714Y-114247047D01*
X172511238Y-114199428D01*
X172416000Y-114104190D01*
X172368381Y-114008952D01*
X172368381Y-113247047D02*
X172368381Y-112580380D01*
X173368381Y-113247047D01*
X173368381Y-112580380D01*
X173320762Y-112247047D02*
X173368381Y-112104190D01*
X173368381Y-111866094D01*
X173320762Y-111770856D01*
X173273143Y-111723237D01*
X173177905Y-111675618D01*
X173082667Y-111675618D01*
X172987429Y-111723237D01*
X172939810Y-111770856D01*
X172892190Y-111866094D01*
X172844571Y-112056571D01*
X172796952Y-112151809D01*
X172749333Y-112199428D01*
X172654095Y-112247047D01*
X172558857Y-112247047D01*
X172463619Y-112199428D01*
X172416000Y-112151809D01*
X172368381Y-112056571D01*
X172368381Y-111818475D01*
X172416000Y-111675618D01*
X172844571Y-111247047D02*
X172844571Y-110913713D01*
X173368381Y-110770856D02*
X173368381Y-111247047D01*
X172368381Y-111247047D01*
X172368381Y-110770856D01*
X173273143Y-109770856D02*
X173320762Y-109818475D01*
X173368381Y-109961332D01*
X173368381Y-110056570D01*
X173320762Y-110199428D01*
X173225524Y-110294666D01*
X173130286Y-110342285D01*
X172939810Y-110389904D01*
X172796952Y-110389904D01*
X172606476Y-110342285D01*
X172511238Y-110294666D01*
X172416000Y-110199428D01*
X172368381Y-110056570D01*
X172368381Y-109961332D01*
X172416000Y-109818475D01*
X172463619Y-109770856D01*
X173273143Y-108770856D02*
X173320762Y-108818475D01*
X173368381Y-108961332D01*
X173368381Y-109056570D01*
X173320762Y-109199428D01*
X173225524Y-109294666D01*
X173130286Y-109342285D01*
X172939810Y-109389904D01*
X172796952Y-109389904D01*
X172606476Y-109342285D01*
X172511238Y-109294666D01*
X172416000Y-109199428D01*
X172368381Y-109056570D01*
X172368381Y-108961332D01*
X172416000Y-108818475D01*
X172463619Y-108770856D01*
X172368381Y-108151809D02*
X172368381Y-107961332D01*
X172416000Y-107866094D01*
X172511238Y-107770856D01*
X172701714Y-107723237D01*
X173035048Y-107723237D01*
X173225524Y-107770856D01*
X173320762Y-107866094D01*
X173368381Y-107961332D01*
X173368381Y-108151809D01*
X173320762Y-108247047D01*
X173225524Y-108342285D01*
X173035048Y-108389904D01*
X172701714Y-108389904D01*
X172511238Y-108342285D01*
X172416000Y-108247047D01*
X172368381Y-108151809D01*
X173368381Y-107294666D02*
X172368381Y-107294666D01*
X173368381Y-106723237D01*
X172368381Y-106723237D01*
X202775381Y-33680476D02*
X201775381Y-33680476D01*
X202680143Y-32632857D02*
X202727762Y-32680476D01*
X202775381Y-32823333D01*
X202775381Y-32918571D01*
X202727762Y-33061429D01*
X202632524Y-33156667D01*
X202537286Y-33204286D01*
X202346810Y-33251905D01*
X202203952Y-33251905D01*
X202013476Y-33204286D01*
X201918238Y-33156667D01*
X201823000Y-33061429D01*
X201775381Y-32918571D01*
X201775381Y-32823333D01*
X201823000Y-32680476D01*
X201870619Y-32632857D01*
X202680143Y-31632857D02*
X202727762Y-31680476D01*
X202775381Y-31823333D01*
X202775381Y-31918571D01*
X202727762Y-32061429D01*
X202632524Y-32156667D01*
X202537286Y-32204286D01*
X202346810Y-32251905D01*
X202203952Y-32251905D01*
X202013476Y-32204286D01*
X201918238Y-32156667D01*
X201823000Y-32061429D01*
X201775381Y-31918571D01*
X201775381Y-31823333D01*
X201823000Y-31680476D01*
X201870619Y-31632857D01*
X202870619Y-31442381D02*
X202870619Y-30680476D01*
X202775381Y-30442381D02*
X201775381Y-30442381D01*
X201775381Y-30061428D01*
X201823000Y-29966190D01*
X201870619Y-29918571D01*
X201965857Y-29870952D01*
X202108714Y-29870952D01*
X202203952Y-29918571D01*
X202251571Y-29966190D01*
X202299190Y-30061428D01*
X202299190Y-30442381D01*
X202775381Y-29013809D02*
X202251571Y-29013809D01*
X202156333Y-29061428D01*
X202108714Y-29156666D01*
X202108714Y-29347143D01*
X202156333Y-29442381D01*
X202727762Y-29013809D02*
X202775381Y-29109047D01*
X202775381Y-29347143D01*
X202727762Y-29442381D01*
X202632524Y-29490000D01*
X202537286Y-29490000D01*
X202442048Y-29442381D01*
X202394429Y-29347143D01*
X202394429Y-29109047D01*
X202346810Y-29013809D01*
X202775381Y-28109047D02*
X201775381Y-28109047D01*
X202727762Y-28109047D02*
X202775381Y-28204285D01*
X202775381Y-28394762D01*
X202727762Y-28490000D01*
X202680143Y-28537619D01*
X202584905Y-28585238D01*
X202299190Y-28585238D01*
X202203952Y-28537619D01*
X202156333Y-28490000D01*
X202108714Y-28394762D01*
X202108714Y-28204285D01*
X202156333Y-28109047D01*
X202727762Y-27680476D02*
X202775381Y-27585238D01*
X202775381Y-27394762D01*
X202727762Y-27299523D01*
X202632524Y-27251904D01*
X202584905Y-27251904D01*
X202489667Y-27299523D01*
X202442048Y-27394762D01*
X202442048Y-27537619D01*
X202394429Y-27632857D01*
X202299190Y-27680476D01*
X202251571Y-27680476D01*
X202156333Y-27632857D01*
X202108714Y-27537619D01*
X202108714Y-27394762D01*
X202156333Y-27299523D01*
X165536952Y-106584381D02*
X166108381Y-106584381D01*
X165822666Y-107584381D02*
X165822666Y-106584381D01*
X167013143Y-107489143D02*
X166965524Y-107536762D01*
X166822667Y-107584381D01*
X166727429Y-107584381D01*
X166584571Y-107536762D01*
X166489333Y-107441524D01*
X166441714Y-107346286D01*
X166394095Y-107155810D01*
X166394095Y-107012952D01*
X166441714Y-106822476D01*
X166489333Y-106727238D01*
X166584571Y-106632000D01*
X166727429Y-106584381D01*
X166822667Y-106584381D01*
X166965524Y-106632000D01*
X167013143Y-106679619D01*
X167870286Y-106917714D02*
X167870286Y-107584381D01*
X167632190Y-106536762D02*
X167394095Y-107251048D01*
X168013143Y-107251048D01*
X168822667Y-106917714D02*
X168822667Y-107584381D01*
X168584571Y-106536762D02*
X168346476Y-107251048D01*
X168965524Y-107251048D01*
X169298857Y-106679619D02*
X169346476Y-106632000D01*
X169441714Y-106584381D01*
X169679810Y-106584381D01*
X169775048Y-106632000D01*
X169822667Y-106679619D01*
X169870286Y-106774857D01*
X169870286Y-106870095D01*
X169822667Y-107012952D01*
X169251238Y-107584381D01*
X169870286Y-107584381D01*
X170727429Y-106917714D02*
X170727429Y-107584381D01*
X170489333Y-106536762D02*
X170251238Y-107251048D01*
X170870286Y-107251048D01*
X171203619Y-107298667D02*
X171679810Y-107298667D01*
X171108381Y-107584381D02*
X171441714Y-106584381D01*
X171775048Y-107584381D01*
X167894095Y-103084381D02*
X167894095Y-103893905D01*
X167941714Y-103989143D01*
X167989333Y-104036762D01*
X168084571Y-104084381D01*
X168275048Y-104084381D01*
X168370286Y-104036762D01*
X168417905Y-103989143D01*
X168465524Y-103893905D01*
X168465524Y-103084381D01*
X168894095Y-103179619D02*
X168941714Y-103132000D01*
X169036952Y-103084381D01*
X169275048Y-103084381D01*
X169370286Y-103132000D01*
X169417905Y-103179619D01*
X169465524Y-103274857D01*
X169465524Y-103370095D01*
X169417905Y-103512952D01*
X168846476Y-104084381D01*
X169465524Y-104084381D01*
X179031047Y-126134762D02*
X179173904Y-126182381D01*
X179412000Y-126182381D01*
X179507238Y-126134762D01*
X179554857Y-126087143D01*
X179602476Y-125991905D01*
X179602476Y-125896667D01*
X179554857Y-125801429D01*
X179507238Y-125753810D01*
X179412000Y-125706190D01*
X179221523Y-125658571D01*
X179126285Y-125610952D01*
X179078666Y-125563333D01*
X179031047Y-125468095D01*
X179031047Y-125372857D01*
X179078666Y-125277619D01*
X179126285Y-125230000D01*
X179221523Y-125182381D01*
X179459619Y-125182381D01*
X179602476Y-125230000D01*
X179888190Y-125182381D02*
X180459619Y-125182381D01*
X180173904Y-126182381D02*
X180173904Y-125182381D01*
X180792952Y-126182381D02*
X180792952Y-125182381D01*
X181126286Y-125896667D01*
X181459619Y-125182381D01*
X181459619Y-126182381D01*
X181840571Y-125182381D02*
X182459619Y-125182381D01*
X182126285Y-125563333D01*
X182269143Y-125563333D01*
X182364381Y-125610952D01*
X182412000Y-125658571D01*
X182459619Y-125753810D01*
X182459619Y-125991905D01*
X182412000Y-126087143D01*
X182364381Y-126134762D01*
X182269143Y-126182381D01*
X181983428Y-126182381D01*
X181888190Y-126134762D01*
X181840571Y-126087143D01*
X182840571Y-125277619D02*
X182888190Y-125230000D01*
X182983428Y-125182381D01*
X183221524Y-125182381D01*
X183316762Y-125230000D01*
X183364381Y-125277619D01*
X183412000Y-125372857D01*
X183412000Y-125468095D01*
X183364381Y-125610952D01*
X182792952Y-126182381D01*
X183412000Y-126182381D01*
X184173905Y-125658571D02*
X183840571Y-125658571D01*
X183840571Y-126182381D02*
X183840571Y-125182381D01*
X184316762Y-125182381D01*
X184888190Y-125182381D02*
X184983429Y-125182381D01*
X185078667Y-125230000D01*
X185126286Y-125277619D01*
X185173905Y-125372857D01*
X185221524Y-125563333D01*
X185221524Y-125801429D01*
X185173905Y-125991905D01*
X185126286Y-126087143D01*
X185078667Y-126134762D01*
X184983429Y-126182381D01*
X184888190Y-126182381D01*
X184792952Y-126134762D01*
X184745333Y-126087143D01*
X184697714Y-125991905D01*
X184650095Y-125801429D01*
X184650095Y-125563333D01*
X184697714Y-125372857D01*
X184745333Y-125277619D01*
X184792952Y-125230000D01*
X184888190Y-125182381D01*
X186078667Y-125515714D02*
X186078667Y-126182381D01*
X185840571Y-125134762D02*
X185602476Y-125849048D01*
X186221524Y-125849048D01*
X186554857Y-125277619D02*
X186602476Y-125230000D01*
X186697714Y-125182381D01*
X186935810Y-125182381D01*
X187031048Y-125230000D01*
X187078667Y-125277619D01*
X187126286Y-125372857D01*
X187126286Y-125468095D01*
X187078667Y-125610952D01*
X186507238Y-126182381D01*
X187126286Y-126182381D01*
X188126286Y-126087143D02*
X188078667Y-126134762D01*
X187935810Y-126182381D01*
X187840572Y-126182381D01*
X187697714Y-126134762D01*
X187602476Y-126039524D01*
X187554857Y-125944286D01*
X187507238Y-125753810D01*
X187507238Y-125610952D01*
X187554857Y-125420476D01*
X187602476Y-125325238D01*
X187697714Y-125230000D01*
X187840572Y-125182381D01*
X187935810Y-125182381D01*
X188078667Y-125230000D01*
X188126286Y-125277619D01*
X188983429Y-125182381D02*
X188792952Y-125182381D01*
X188697714Y-125230000D01*
X188650095Y-125277619D01*
X188554857Y-125420476D01*
X188507238Y-125610952D01*
X188507238Y-125991905D01*
X188554857Y-126087143D01*
X188602476Y-126134762D01*
X188697714Y-126182381D01*
X188888191Y-126182381D01*
X188983429Y-126134762D01*
X189031048Y-126087143D01*
X189078667Y-125991905D01*
X189078667Y-125753810D01*
X189031048Y-125658571D01*
X188983429Y-125610952D01*
X188888191Y-125563333D01*
X188697714Y-125563333D01*
X188602476Y-125610952D01*
X188554857Y-125658571D01*
X188507238Y-125753810D01*
X189364381Y-125182381D02*
X189935810Y-125182381D01*
X189650095Y-126182381D02*
X189650095Y-125182381D01*
X190697715Y-125182381D02*
X190507238Y-125182381D01*
X190412000Y-125230000D01*
X190364381Y-125277619D01*
X190269143Y-125420476D01*
X190221524Y-125610952D01*
X190221524Y-125991905D01*
X190269143Y-126087143D01*
X190316762Y-126134762D01*
X190412000Y-126182381D01*
X190602477Y-126182381D01*
X190697715Y-126134762D01*
X190745334Y-126087143D01*
X190792953Y-125991905D01*
X190792953Y-125753810D01*
X190745334Y-125658571D01*
X190697715Y-125610952D01*
X190602477Y-125563333D01*
X190412000Y-125563333D01*
X190316762Y-125610952D01*
X190269143Y-125658571D01*
X190221524Y-125753810D01*
X184350134Y-118863904D02*
X184350134Y-119673428D01*
X184397753Y-119768666D01*
X184445372Y-119816285D01*
X184540610Y-119863904D01*
X184731087Y-119863904D01*
X184826325Y-119816285D01*
X184873944Y-119768666D01*
X184921563Y-119673428D01*
X184921563Y-118863904D01*
X185302515Y-118863904D02*
X185921563Y-118863904D01*
X185588229Y-119244856D01*
X185731087Y-119244856D01*
X185826325Y-119292475D01*
X185873944Y-119340094D01*
X185921563Y-119435333D01*
X185921563Y-119673428D01*
X185873944Y-119768666D01*
X185826325Y-119816285D01*
X185731087Y-119863904D01*
X185445372Y-119863904D01*
X185350134Y-119816285D01*
X185302515Y-119768666D01*
X221105571Y-133381763D02*
X221153190Y-133238906D01*
X221200810Y-133191287D01*
X221296048Y-133143668D01*
X221438905Y-133143668D01*
X221534143Y-133191287D01*
X221581762Y-133238906D01*
X221629381Y-133334144D01*
X221629381Y-133715097D01*
X220629381Y-133715097D01*
X220629381Y-133381763D01*
X220677000Y-133286525D01*
X220724619Y-133238906D01*
X220819857Y-133191287D01*
X220915095Y-133191287D01*
X221010333Y-133238906D01*
X221057952Y-133286525D01*
X221105571Y-133381763D01*
X221105571Y-133715097D01*
X221629381Y-132286525D02*
X221105571Y-132286525D01*
X221010333Y-132334144D01*
X220962714Y-132429382D01*
X220962714Y-132619859D01*
X221010333Y-132715097D01*
X221581762Y-132286525D02*
X221629381Y-132381763D01*
X221629381Y-132619859D01*
X221581762Y-132715097D01*
X221486524Y-132762716D01*
X221391286Y-132762716D01*
X221296048Y-132715097D01*
X221248429Y-132619859D01*
X221248429Y-132381763D01*
X221200810Y-132286525D01*
X220962714Y-131953192D02*
X220962714Y-131572240D01*
X220629381Y-131810335D02*
X221486524Y-131810335D01*
X221581762Y-131762716D01*
X221629381Y-131667478D01*
X221629381Y-131572240D01*
X220962714Y-131381763D02*
X220962714Y-131000811D01*
X220629381Y-131238906D02*
X221486524Y-131238906D01*
X221581762Y-131191287D01*
X221629381Y-131096049D01*
X221629381Y-131000811D01*
X221581762Y-130286524D02*
X221629381Y-130381762D01*
X221629381Y-130572239D01*
X221581762Y-130667477D01*
X221486524Y-130715096D01*
X221105571Y-130715096D01*
X221010333Y-130667477D01*
X220962714Y-130572239D01*
X220962714Y-130381762D01*
X221010333Y-130286524D01*
X221105571Y-130238905D01*
X221200810Y-130238905D01*
X221296048Y-130715096D01*
X221629381Y-129810334D02*
X220962714Y-129810334D01*
X221153190Y-129810334D02*
X221057952Y-129762715D01*
X221010333Y-129715096D01*
X220962714Y-129619858D01*
X220962714Y-129524619D01*
X220962714Y-129286524D02*
X221629381Y-129048429D01*
X220962714Y-128810333D02*
X221629381Y-129048429D01*
X221867476Y-129143667D01*
X221915095Y-129191286D01*
X221962714Y-129286524D01*
X221724619Y-128667476D02*
X221724619Y-127905571D01*
X221534143Y-127096047D02*
X221581762Y-127143666D01*
X221629381Y-127286523D01*
X221629381Y-127381761D01*
X221581762Y-127524619D01*
X221486524Y-127619857D01*
X221391286Y-127667476D01*
X221200810Y-127715095D01*
X221057952Y-127715095D01*
X220867476Y-127667476D01*
X220772238Y-127619857D01*
X220677000Y-127524619D01*
X220629381Y-127381761D01*
X220629381Y-127286523D01*
X220677000Y-127143666D01*
X220724619Y-127096047D01*
X221581762Y-126286523D02*
X221629381Y-126381761D01*
X221629381Y-126572238D01*
X221581762Y-126667476D01*
X221486524Y-126715095D01*
X221105571Y-126715095D01*
X221010333Y-126667476D01*
X220962714Y-126572238D01*
X220962714Y-126381761D01*
X221010333Y-126286523D01*
X221105571Y-126238904D01*
X221200810Y-126238904D01*
X221296048Y-126715095D01*
X221629381Y-125667476D02*
X221581762Y-125762714D01*
X221486524Y-125810333D01*
X220629381Y-125810333D01*
X221629381Y-125143666D02*
X221581762Y-125238904D01*
X221486524Y-125286523D01*
X220629381Y-125286523D01*
X206705571Y-130262714D02*
X206753190Y-130119857D01*
X206800810Y-130072238D01*
X206896048Y-130024619D01*
X207038905Y-130024619D01*
X207134143Y-130072238D01*
X207181762Y-130119857D01*
X207229381Y-130215095D01*
X207229381Y-130596048D01*
X206229381Y-130596048D01*
X206229381Y-130262714D01*
X206277000Y-130167476D01*
X206324619Y-130119857D01*
X206419857Y-130072238D01*
X206515095Y-130072238D01*
X206610333Y-130119857D01*
X206657952Y-130167476D01*
X206705571Y-130262714D01*
X206705571Y-130596048D01*
X206229381Y-129738905D02*
X206229381Y-129167476D01*
X207229381Y-129453191D02*
X206229381Y-129453191D01*
X207229381Y-128310333D02*
X207229381Y-128881762D01*
X207229381Y-128596048D02*
X206229381Y-128596048D01*
X206372238Y-128691286D01*
X206467476Y-128786524D01*
X206515095Y-128881762D01*
X214789048Y-108870571D02*
X214455714Y-108870571D01*
X214455714Y-109394381D02*
X214455714Y-108394381D01*
X214931905Y-108394381D01*
X215312857Y-109394381D02*
X215312857Y-108727714D01*
X215312857Y-108394381D02*
X215265238Y-108442000D01*
X215312857Y-108489619D01*
X215360476Y-108442000D01*
X215312857Y-108394381D01*
X215312857Y-108489619D01*
X216217619Y-109394381D02*
X216217619Y-108394381D01*
X216217619Y-109346762D02*
X216122381Y-109394381D01*
X215931904Y-109394381D01*
X215836666Y-109346762D01*
X215789047Y-109299143D01*
X215741428Y-109203905D01*
X215741428Y-108918190D01*
X215789047Y-108822952D01*
X215836666Y-108775333D01*
X215931904Y-108727714D01*
X216122381Y-108727714D01*
X216217619Y-108775333D01*
X217122381Y-108727714D02*
X217122381Y-109394381D01*
X216693809Y-108727714D02*
X216693809Y-109251524D01*
X216741428Y-109346762D01*
X216836666Y-109394381D01*
X216979524Y-109394381D01*
X217074762Y-109346762D01*
X217122381Y-109299143D01*
X218027143Y-109346762D02*
X217931905Y-109394381D01*
X217741428Y-109394381D01*
X217646190Y-109346762D01*
X217598571Y-109299143D01*
X217550952Y-109203905D01*
X217550952Y-108918190D01*
X217598571Y-108822952D01*
X217646190Y-108775333D01*
X217741428Y-108727714D01*
X217931905Y-108727714D01*
X218027143Y-108775333D01*
X218455714Y-109394381D02*
X218455714Y-108727714D01*
X218455714Y-108394381D02*
X218408095Y-108442000D01*
X218455714Y-108489619D01*
X218503333Y-108442000D01*
X218455714Y-108394381D01*
X218455714Y-108489619D01*
X219360476Y-109394381D02*
X219360476Y-108870571D01*
X219312857Y-108775333D01*
X219217619Y-108727714D01*
X219027142Y-108727714D01*
X218931904Y-108775333D01*
X219360476Y-109346762D02*
X219265238Y-109394381D01*
X219027142Y-109394381D01*
X218931904Y-109346762D01*
X218884285Y-109251524D01*
X218884285Y-109156286D01*
X218931904Y-109061048D01*
X219027142Y-109013429D01*
X219265238Y-109013429D01*
X219360476Y-108965810D01*
X219979523Y-109394381D02*
X219884285Y-109346762D01*
X219836666Y-109251524D01*
X219836666Y-108394381D01*
D14*
X216955715Y-107427714D02*
X216889048Y-107427714D01*
X216889048Y-107532476D02*
X216889048Y-107332476D01*
X216984286Y-107332476D01*
X217060477Y-107532476D02*
X217060477Y-107332476D01*
X217155715Y-107532476D02*
X217155715Y-107332476D01*
X217203334Y-107332476D01*
X217231906Y-107342000D01*
X217250953Y-107361048D01*
X217260477Y-107380095D01*
X217270001Y-107418190D01*
X217270001Y-107446762D01*
X217260477Y-107484857D01*
X217250953Y-107503905D01*
X217231906Y-107522952D01*
X217203334Y-107532476D01*
X217155715Y-107532476D01*
X217460477Y-107532476D02*
X217346191Y-107532476D01*
X217403334Y-107532476D02*
X217403334Y-107332476D01*
X217384286Y-107361048D01*
X217365239Y-107380095D01*
X217346191Y-107389619D01*
D11*
X214662048Y-141763571D02*
X214328714Y-141763571D01*
X214328714Y-142287381D02*
X214328714Y-141287381D01*
X214804905Y-141287381D01*
X215185857Y-142287381D02*
X215185857Y-141620714D01*
X215185857Y-141287381D02*
X215138238Y-141335000D01*
X215185857Y-141382619D01*
X215233476Y-141335000D01*
X215185857Y-141287381D01*
X215185857Y-141382619D01*
X216090619Y-142287381D02*
X216090619Y-141287381D01*
X216090619Y-142239762D02*
X215995381Y-142287381D01*
X215804904Y-142287381D01*
X215709666Y-142239762D01*
X215662047Y-142192143D01*
X215614428Y-142096905D01*
X215614428Y-141811190D01*
X215662047Y-141715952D01*
X215709666Y-141668333D01*
X215804904Y-141620714D01*
X215995381Y-141620714D01*
X216090619Y-141668333D01*
X216995381Y-141620714D02*
X216995381Y-142287381D01*
X216566809Y-141620714D02*
X216566809Y-142144524D01*
X216614428Y-142239762D01*
X216709666Y-142287381D01*
X216852524Y-142287381D01*
X216947762Y-142239762D01*
X216995381Y-142192143D01*
X217900143Y-142239762D02*
X217804905Y-142287381D01*
X217614428Y-142287381D01*
X217519190Y-142239762D01*
X217471571Y-142192143D01*
X217423952Y-142096905D01*
X217423952Y-141811190D01*
X217471571Y-141715952D01*
X217519190Y-141668333D01*
X217614428Y-141620714D01*
X217804905Y-141620714D01*
X217900143Y-141668333D01*
X218328714Y-142287381D02*
X218328714Y-141620714D01*
X218328714Y-141287381D02*
X218281095Y-141335000D01*
X218328714Y-141382619D01*
X218376333Y-141335000D01*
X218328714Y-141287381D01*
X218328714Y-141382619D01*
X219233476Y-142287381D02*
X219233476Y-141763571D01*
X219185857Y-141668333D01*
X219090619Y-141620714D01*
X218900142Y-141620714D01*
X218804904Y-141668333D01*
X219233476Y-142239762D02*
X219138238Y-142287381D01*
X218900142Y-142287381D01*
X218804904Y-142239762D01*
X218757285Y-142144524D01*
X218757285Y-142049286D01*
X218804904Y-141954048D01*
X218900142Y-141906429D01*
X219138238Y-141906429D01*
X219233476Y-141858810D01*
X219852523Y-142287381D02*
X219757285Y-142239762D01*
X219709666Y-142144524D01*
X219709666Y-141287381D01*
D14*
X216828715Y-140320714D02*
X216762048Y-140320714D01*
X216762048Y-140425476D02*
X216762048Y-140225476D01*
X216857286Y-140225476D01*
X216933477Y-140425476D02*
X216933477Y-140225476D01*
X217028715Y-140425476D02*
X217028715Y-140225476D01*
X217076334Y-140225476D01*
X217104906Y-140235000D01*
X217123953Y-140254048D01*
X217133477Y-140273095D01*
X217143001Y-140311190D01*
X217143001Y-140339762D01*
X217133477Y-140377857D01*
X217123953Y-140396905D01*
X217104906Y-140415952D01*
X217076334Y-140425476D01*
X217028715Y-140425476D01*
X217219191Y-140244524D02*
X217228715Y-140235000D01*
X217247763Y-140225476D01*
X217295382Y-140225476D01*
X217314429Y-140235000D01*
X217323953Y-140244524D01*
X217333477Y-140263571D01*
X217333477Y-140282619D01*
X217323953Y-140311190D01*
X217209667Y-140425476D01*
X217333477Y-140425476D01*
D11*
X168815048Y-142930571D02*
X168481714Y-142930571D01*
X168481714Y-143454381D02*
X168481714Y-142454381D01*
X168957905Y-142454381D01*
X169338857Y-143454381D02*
X169338857Y-142787714D01*
X169338857Y-142454381D02*
X169291238Y-142502000D01*
X169338857Y-142549619D01*
X169386476Y-142502000D01*
X169338857Y-142454381D01*
X169338857Y-142549619D01*
X170243619Y-143454381D02*
X170243619Y-142454381D01*
X170243619Y-143406762D02*
X170148381Y-143454381D01*
X169957904Y-143454381D01*
X169862666Y-143406762D01*
X169815047Y-143359143D01*
X169767428Y-143263905D01*
X169767428Y-142978190D01*
X169815047Y-142882952D01*
X169862666Y-142835333D01*
X169957904Y-142787714D01*
X170148381Y-142787714D01*
X170243619Y-142835333D01*
X171148381Y-142787714D02*
X171148381Y-143454381D01*
X170719809Y-142787714D02*
X170719809Y-143311524D01*
X170767428Y-143406762D01*
X170862666Y-143454381D01*
X171005524Y-143454381D01*
X171100762Y-143406762D01*
X171148381Y-143359143D01*
X172053143Y-143406762D02*
X171957905Y-143454381D01*
X171767428Y-143454381D01*
X171672190Y-143406762D01*
X171624571Y-143359143D01*
X171576952Y-143263905D01*
X171576952Y-142978190D01*
X171624571Y-142882952D01*
X171672190Y-142835333D01*
X171767428Y-142787714D01*
X171957905Y-142787714D01*
X172053143Y-142835333D01*
X172481714Y-143454381D02*
X172481714Y-142787714D01*
X172481714Y-142454381D02*
X172434095Y-142502000D01*
X172481714Y-142549619D01*
X172529333Y-142502000D01*
X172481714Y-142454381D01*
X172481714Y-142549619D01*
X173386476Y-143454381D02*
X173386476Y-142930571D01*
X173338857Y-142835333D01*
X173243619Y-142787714D01*
X173053142Y-142787714D01*
X172957904Y-142835333D01*
X173386476Y-143406762D02*
X173291238Y-143454381D01*
X173053142Y-143454381D01*
X172957904Y-143406762D01*
X172910285Y-143311524D01*
X172910285Y-143216286D01*
X172957904Y-143121048D01*
X173053142Y-143073429D01*
X173291238Y-143073429D01*
X173386476Y-143025810D01*
X174005523Y-143454381D02*
X173910285Y-143406762D01*
X173862666Y-143311524D01*
X173862666Y-142454381D01*
D14*
X170981715Y-140320714D02*
X170915048Y-140320714D01*
X170915048Y-140425476D02*
X170915048Y-140225476D01*
X171010286Y-140225476D01*
X171086477Y-140425476D02*
X171086477Y-140225476D01*
X171181715Y-140425476D02*
X171181715Y-140225476D01*
X171229334Y-140225476D01*
X171257906Y-140235000D01*
X171276953Y-140254048D01*
X171286477Y-140273095D01*
X171296001Y-140311190D01*
X171296001Y-140339762D01*
X171286477Y-140377857D01*
X171276953Y-140396905D01*
X171257906Y-140415952D01*
X171229334Y-140425476D01*
X171181715Y-140425476D01*
X171362667Y-140225476D02*
X171486477Y-140225476D01*
X171419810Y-140301667D01*
X171448382Y-140301667D01*
X171467429Y-140311190D01*
X171476953Y-140320714D01*
X171486477Y-140339762D01*
X171486477Y-140387381D01*
X171476953Y-140406429D01*
X171467429Y-140415952D01*
X171448382Y-140425476D01*
X171391239Y-140425476D01*
X171372191Y-140415952D01*
X171362667Y-140406429D01*
D11*
X165353952Y-13168571D02*
X165496809Y-13216190D01*
X165544428Y-13263810D01*
X165592047Y-13359048D01*
X165592047Y-13501905D01*
X165544428Y-13597143D01*
X165496809Y-13644762D01*
X165401571Y-13692381D01*
X165020618Y-13692381D01*
X165020618Y-12692381D01*
X165353952Y-12692381D01*
X165449190Y-12740000D01*
X165496809Y-12787619D01*
X165544428Y-12882857D01*
X165544428Y-12978095D01*
X165496809Y-13073333D01*
X165449190Y-13120952D01*
X165353952Y-13168571D01*
X165020618Y-13168571D01*
X166163475Y-13692381D02*
X166068237Y-13644762D01*
X166020618Y-13597143D01*
X165972999Y-13501905D01*
X165972999Y-13216190D01*
X166020618Y-13120952D01*
X166068237Y-13073333D01*
X166163475Y-13025714D01*
X166306333Y-13025714D01*
X166401571Y-13073333D01*
X166449190Y-13120952D01*
X166496809Y-13216190D01*
X166496809Y-13501905D01*
X166449190Y-13597143D01*
X166401571Y-13644762D01*
X166306333Y-13692381D01*
X166163475Y-13692381D01*
X167353952Y-13692381D02*
X167353952Y-13168571D01*
X167306333Y-13073333D01*
X167211095Y-13025714D01*
X167020618Y-13025714D01*
X166925380Y-13073333D01*
X167353952Y-13644762D02*
X167258714Y-13692381D01*
X167020618Y-13692381D01*
X166925380Y-13644762D01*
X166877761Y-13549524D01*
X166877761Y-13454286D01*
X166925380Y-13359048D01*
X167020618Y-13311429D01*
X167258714Y-13311429D01*
X167353952Y-13263810D01*
X167830142Y-13692381D02*
X167830142Y-13025714D01*
X167830142Y-13216190D02*
X167877761Y-13120952D01*
X167925380Y-13073333D01*
X168020618Y-13025714D01*
X168115857Y-13025714D01*
X168877762Y-13692381D02*
X168877762Y-12692381D01*
X168877762Y-13644762D02*
X168782524Y-13692381D01*
X168592047Y-13692381D01*
X168496809Y-13644762D01*
X168449190Y-13597143D01*
X168401571Y-13501905D01*
X168401571Y-13216190D01*
X168449190Y-13120952D01*
X168496809Y-13073333D01*
X168592047Y-13025714D01*
X168782524Y-13025714D01*
X168877762Y-13073333D01*
X169115857Y-13787619D02*
X169877762Y-13787619D01*
X170306333Y-12692381D02*
X170496810Y-12692381D01*
X170592048Y-12740000D01*
X170687286Y-12835238D01*
X170734905Y-13025714D01*
X170734905Y-13359048D01*
X170687286Y-13549524D01*
X170592048Y-13644762D01*
X170496810Y-13692381D01*
X170306333Y-13692381D01*
X170211095Y-13644762D01*
X170115857Y-13549524D01*
X170068238Y-13359048D01*
X170068238Y-13025714D01*
X170115857Y-12835238D01*
X170211095Y-12740000D01*
X170306333Y-12692381D01*
X171592048Y-13025714D02*
X171592048Y-13692381D01*
X171163476Y-13025714D02*
X171163476Y-13549524D01*
X171211095Y-13644762D01*
X171306333Y-13692381D01*
X171449191Y-13692381D01*
X171544429Y-13644762D01*
X171592048Y-13597143D01*
X171925381Y-13025714D02*
X172306333Y-13025714D01*
X172068238Y-12692381D02*
X172068238Y-13549524D01*
X172115857Y-13644762D01*
X172211095Y-13692381D01*
X172306333Y-13692381D01*
X172782524Y-13692381D02*
X172687286Y-13644762D01*
X172639667Y-13549524D01*
X172639667Y-12692381D01*
X173163477Y-13692381D02*
X173163477Y-13025714D01*
X173163477Y-12692381D02*
X173115858Y-12740000D01*
X173163477Y-12787619D01*
X173211096Y-12740000D01*
X173163477Y-12692381D01*
X173163477Y-12787619D01*
X173639667Y-13025714D02*
X173639667Y-13692381D01*
X173639667Y-13120952D02*
X173687286Y-13073333D01*
X173782524Y-13025714D01*
X173925382Y-13025714D01*
X174020620Y-13073333D01*
X174068239Y-13168571D01*
X174068239Y-13692381D01*
X174925382Y-13644762D02*
X174830144Y-13692381D01*
X174639667Y-13692381D01*
X174544429Y-13644762D01*
X174496810Y-13549524D01*
X174496810Y-13168571D01*
X174544429Y-13073333D01*
X174639667Y-13025714D01*
X174830144Y-13025714D01*
X174925382Y-13073333D01*
X174973001Y-13168571D01*
X174973001Y-13263810D01*
X174496810Y-13359048D01*
M02*
