  0
SECTION
  2
HEADER
  9
$ANGBASE
  50
0.0
  9
$ANGDIR
  70
  1
  9
$MEASUREMENT
  70
0
  0
ENDSEC
  0
SECTION
  2
TABLES
  0
TABLE
  2
LTYPE
  70
1
  0
LTYPE
  2
CONTINUOUS
  70
0
  3
Solid line
  72
65
  73
0
  40
0.0
  0
ENDTAB
  0
TABLE
  2
STYLE
  70
4
  0
STYLE
  2
KICAD
  70
0
  40
0
  41
1
  42
1
  50
0
  71
0
  3
isocp.shx
  0
STYLE
  2
KICADB
  70
0
  40
0
  41
1
  42
1
  50
0
  71
0
  3
isocp.shx
  0
STYLE
  2
KICADI
  70
0
  40
0
  41
1
  42
1
  50
15
  71
0
  3
isocp.shx
  0
STYLE
  2
KICADBI
  70
0
  40
0
  41
1
  42
1
  50
15
  71
0
  3
isocp.shx
  0
ENDTAB
  0
TABLE
  2
LAYER
  70
30
  0
LAYER
  2
BLACK
  70
0
  62
7
  6
CONTINUOUS
  0
LAYER
  2
GRAY1
  70
0
  62
251
  6
CONTINUOUS
  0
LAYER
  2
GRAY2
  70
0
  62
8
  6
CONTINUOUS
  0
LAYER
  2
GRAY3
  70
0
  62
9
  6
CONTINUOUS
  0
LAYER
  2
WHITE
  70
0
  62
7
  6
CONTINUOUS
  0
LAYER
  2
LYELLOW
  70
0
  62
51
  6
CONTINUOUS
  0
LAYER
  2
BLUE1
  70
0
  62
178
  6
CONTINUOUS
  0
LAYER
  2
GREEN1
  70
0
  62
98
  6
CONTINUOUS
  0
LAYER
  2
CYAN1
  70
0
  62
138
  6
CONTINUOUS
  0
LAYER
  2
RED1
  70
0
  62
18
  6
CONTINUOUS
  0
LAYER
  2
MAGENTA1
  70
0
  62
228
  6
CONTINUOUS
  0
LAYER
  2
BROWN1
  70
0
  62
58
  6
CONTINUOUS
  0
LAYER
  2
BLUE2
  70
0
  62
5
  6
CONTINUOUS
  0
LAYER
  2
GREEN2
  70
0
  62
3
  6
CONTINUOUS
  0
LAYER
  2
CYAN2
  70
0
  62
4
  6
CONTINUOUS
  0
LAYER
  2
RED2
  70
0
  62
1
  6
CONTINUOUS
  0
LAYER
  2
MAGENTA2
  70
0
  62
6
  6
CONTINUOUS
  0
LAYER
  2
BROWN2
  70
0
  62
54
  6
CONTINUOUS
  0
LAYER
  2
BLUE3
  70
0
  62
171
  6
CONTINUOUS
  0
LAYER
  2
GREEN3
  70
0
  62
91
  6
CONTINUOUS
  0
LAYER
  2
CYAN3
  70
0
  62
131
  6
CONTINUOUS
  0
LAYER
  2
RED3
  70
0
  62
11
  6
CONTINUOUS
  0
LAYER
  2
MAGENTA3
  70
0
  62
221
  6
CONTINUOUS
  0
LAYER
  2
YELLOW3
  70
0
  62
2
  6
CONTINUOUS
  0
LAYER
  2
BLUE4
  70
0
  62
5
  6
CONTINUOUS
  0
LAYER
  2
GREEN4
  70
0
  62
3
  6
CONTINUOUS
  0
LAYER
  2
CYAN4
  70
0
  62
4
  6
CONTINUOUS
  0
LAYER
  2
RED4
  70
0
  62
1
  6
CONTINUOUS
  0
LAYER
  2
MAGENTA4
  70
0
  62
6
  6
CONTINUOUS
  0
LAYER
  2
YELLOW4
  70
0
  62
2
  6
CONTINUOUS
  0
ENDTAB
  0
ENDSEC
  0
SECTION
  2
ENTITIES
0
LINE
8
Black
10
167.313
20
-121.72
11
167.713
21
-122.12
0
LINE
8
Black
10
167.713
20
-121.72
11
167.313
21
-122.12
0
LINE
8
Black
10
168.329
20
-104.575
11
168.729
21
-104.975
0
LINE
8
Black
10
168.729
20
-104.575
11
168.329
21
-104.975
0
LINE
8
Black
10
168.329
20
-108.639
11
168.729
21
-109.039
0
LINE
8
Black
10
168.729
20
-108.639
11
168.329
21
-109.039
0
LINE
8
Black
10
171.631
20
-124.514
11
172.031
21
-124.914
0
LINE
8
Black
10
172.031
20
-124.514
11
171.631
21
-124.914
0
LINE
8
Black
10
172.647
20
-119.307
11
173.047
21
-119.707
0
LINE
8
Black
10
173.047
20
-119.307
11
172.647
21
-119.707
0
LINE
8
Black
10
172.901
20
-101.273
11
173.301
21
-101.673
0
LINE
8
Black
10
173.301
20
-101.273
11
172.901
21
-101.673
0
LINE
8
Black
10
173.536
20
-104.702
11
173.936
21
-105.102
0
LINE
8
Black
10
173.936
20
-104.702
11
173.536
21
-105.102
0
LINE
8
Black
10
173.536
20
-114.227
11
173.936
21
-114.627
0
LINE
8
Black
10
173.936
20
-114.227
11
173.536
21
-114.627
0
LINE
8
Black
10
173.536
20
-121.72
11
173.936
21
-122.12
0
LINE
8
Black
10
173.936
20
-121.72
11
173.536
21
-122.12
0
LINE
8
Black
10
173.79
20
-106.734
11
174.19
21
-107.134
0
LINE
8
Black
10
174.19
20
-106.734
11
173.79
21
-107.134
0
LINE
8
Black
10
174.298
20
-120.069
11
174.698
21
-120.469
0
LINE
8
Black
10
174.698
20
-120.069
11
174.298
21
-120.469
0
LINE
8
Black
10
175.06
20
-123.117
11
175.46
21
-123.517
0
LINE
8
Black
10
175.46
20
-123.117
11
175.06
21
-123.517
0
LINE
8
Black
10
175.06
20
-134.293
11
175.46
21
-134.693
0
LINE
8
Black
10
175.46
20
-134.293
11
175.06
21
-134.693
0
LINE
8
Black
10
175.187
20
-132.896
11
175.587
21
-133.296
0
LINE
8
Black
10
175.587
20
-132.896
11
175.187
21
-133.296
0
LINE
8
Black
10
175.822
20
-124.641
11
176.222
21
-125.041
0
LINE
8
Black
10
176.222
20
-124.641
11
175.822
21
-125.041
0
LINE
8
Black
10
175.949
20
-121.212
11
176.349
21
-121.612
0
LINE
8
Black
10
176.349
20
-121.212
11
175.949
21
-121.612
0
LINE
8
Black
10
176.33
20
-130.229
11
176.73
21
-130.629
0
LINE
8
Black
10
176.73
20
-130.229
11
176.33
21
-130.629
0
LINE
8
Black
10
177.346
20
-103.178
11
177.746
21
-103.578
0
LINE
8
Black
10
177.746
20
-103.178
11
177.346
21
-103.578
0
LINE
8
Black
10
177.346
20
-106.734
11
177.746
21
-107.134
0
LINE
8
Black
10
177.746
20
-106.734
11
177.346
21
-107.134
0
LINE
8
Black
10
177.727
20
-129.213
11
178.127
21
-129.613
0
LINE
8
Black
10
178.127
20
-129.213
11
177.727
21
-129.613
0
LINE
8
Black
10
178.489
20
-120.704
11
178.889
21
-121.104
0
LINE
8
Black
10
178.889
20
-120.704
11
178.489
21
-121.104
0
LINE
8
Black
10
178.87
20
-121.847
11
179.27
21
-122.247
0
LINE
8
Black
10
179.27
20
-121.847
11
178.87
21
-122.247
0
LINE
8
Black
10
178.87
20
-126.8
11
179.27
21
-127.2
0
LINE
8
Black
10
179.27
20
-126.8
11
178.87
21
-127.2
0
LINE
8
Black
10
178.87
20
-130.991
11
179.27
21
-131.391
0
LINE
8
Black
10
179.27
20
-130.991
11
178.87
21
-131.391
0
LINE
8
Black
10
178.997
20
-101.019
11
179.397
21
-101.419
0
LINE
8
Black
10
179.397
20
-101.019
11
178.997
21
-101.419
0
LINE
8
Black
10
180.14
20
-100.765
11
180.54
21
-101.165
0
LINE
8
Black
10
180.54
20
-100.765
11
180.14
21
-101.165
0
LINE
8
Black
10
181.41
20
-109.274
11
181.81
21
-109.674
0
LINE
8
Black
10
181.81
20
-109.274
11
181.41
21
-109.674
0
LINE
8
Black
10
181.41
20
-126.673
11
181.81
21
-127.073
0
LINE
8
Black
10
181.81
20
-126.673
11
181.41
21
-127.073
0
LINE
8
Black
10
182.045
20
-108.131
11
182.445
21
-108.531
0
LINE
8
Black
10
182.445
20
-108.131
11
182.045
21
-108.531
0
LINE
8
Black
10
182.045
20
-118.291
11
182.445
21
-118.691
0
LINE
8
Black
10
182.445
20
-118.291
11
182.045
21
-118.691
0
LINE
8
Black
10
182.299
20
-126.673
11
182.699
21
-127.073
0
LINE
8
Black
10
182.699
20
-126.673
11
182.299
21
-127.073
0
LINE
8
Black
10
182.299
20
-131.626
11
182.699
21
-132.026
0
LINE
8
Black
10
182.699
20
-131.626
11
182.299
21
-132.026
0
LINE
8
Black
10
182.426
20
-127.562
11
182.826
21
-127.962
0
LINE
8
Black
10
182.826
20
-127.562
11
182.426
21
-127.962
0
LINE
8
Black
10
183.061
20
-134.928
11
183.461
21
-135.328
0
LINE
8
Black
10
183.461
20
-134.928
11
183.061
21
-135.328
0
LINE
8
Black
10
183.188
20
-121.72
11
183.588
21
-122.12
0
LINE
8
Black
10
183.588
20
-121.72
11
183.188
21
-122.12
0
LINE
8
Black
10
183.569
20
-109.147
11
183.969
21
-109.547
0
LINE
8
Black
10
183.969
20
-109.147
11
183.569
21
-109.547
0
LINE
8
Black
10
184.458
20
-110.417
11
184.858
21
-110.817
0
LINE
8
Black
10
184.858
20
-110.417
11
184.458
21
-110.817
0
LINE
8
Black
10
184.458
20
-135.055
11
184.858
21
-135.455
0
LINE
8
Black
10
184.858
20
-135.055
11
184.458
21
-135.455
0
LINE
8
Black
10
184.712
20
-116.132
11
185.112
21
-116.532
0
LINE
8
Black
10
185.112
20
-116.132
11
184.712
21
-116.532
0
LINE
8
Black
10
184.779
20
-125.924
11
185.179
21
-126.324
0
LINE
8
Black
10
185.179
20
-125.924
11
184.779
21
-126.324
0
LINE
8
Black
10
185.474
20
-112.195
11
185.874
21
-112.595
0
LINE
8
Black
10
185.874
20
-112.195
11
185.474
21
-112.595
0
LINE
8
Black
10
185.474
20
-119.307
11
185.874
21
-119.707
0
LINE
8
Black
10
185.874
20
-119.307
11
185.474
21
-119.707
0
LINE
8
Black
10
185.728
20
-129.721
11
186.128
21
-130.121
0
LINE
8
Black
10
186.128
20
-129.721
11
185.728
21
-130.121
0
LINE
8
Black
10
186.109
20
-118.799
11
186.509
21
-119.199
0
LINE
8
Black
10
186.509
20
-118.799
11
186.109
21
-119.199
0
LINE
8
Black
10
186.236
20
-131.499
11
186.636
21
-131.899
0
LINE
8
Black
10
186.636
20
-131.499
11
186.236
21
-131.899
0
LINE
8
Black
10
186.617
20
-112.449
11
187.017
21
-112.849
0
LINE
8
Black
10
187.017
20
-112.449
11
186.617
21
-112.849
0
LINE
8
Black
10
186.871
20
-119.942
11
187.271
21
-120.342
0
LINE
8
Black
10
187.271
20
-119.942
11
186.871
21
-120.342
0
LINE
8
Black
10
186.998
20
-122.101
11
187.398
21
-122.501
0
LINE
8
Black
10
187.398
20
-122.101
11
186.998
21
-122.501
0
LINE
8
Black
10
187.379
20
-120.704
11
187.779
21
-121.104
0
LINE
8
Black
10
187.779
20
-120.704
11
187.379
21
-121.104
0
LINE
8
Black
10
187.76
20
-109.401
11
188.16
21
-109.801
0
LINE
8
Black
10
188.16
20
-109.401
11
187.76
21
-109.801
0
LINE
8
Black
10
188.338
20
-127.511
11
188.738
21
-127.911
0
LINE
8
Black
10
188.738
20
-127.511
11
188.338
21
-127.911
0
LINE
8
Black
10
188.522
20
-130.61
11
188.922
21
-131.01
0
LINE
8
Black
10
188.922
20
-130.61
11
188.522
21
-131.01
0
LINE
8
Black
10
189.157
20
-134.928
11
189.557
21
-135.328
0
LINE
8
Black
10
189.557
20
-134.928
11
189.157
21
-135.328
0
LINE
8
Black
10
189.284
20
-130.356
11
189.684
21
-130.756
0
LINE
8
Black
10
189.684
20
-130.356
11
189.284
21
-130.756
0
LINE
8
Black
10
189.792
20
-122.99
11
190.192
21
-123.39
0
LINE
8
Black
10
190.192
20
-122.99
11
189.792
21
-123.39
0
LINE
8
Black
10
190.3
20
-100.892
11
190.7
21
-101.292
0
LINE
8
Black
10
190.7
20
-100.892
11
190.3
21
-101.292
0
LINE
8
Black
10
190.3
20
-115.497
11
190.7
21
-115.897
0
LINE
8
Black
10
190.7
20
-115.497
11
190.3
21
-115.897
0
LINE
8
Black
10
190.554
20
-120.831
11
190.954
21
-121.231
0
LINE
8
Black
10
190.954
20
-120.831
11
190.554
21
-121.231
0
LINE
8
Black
10
190.935
20
-133.531
11
191.335
21
-133.931
0
LINE
8
Black
10
191.335
20
-133.531
11
190.935
21
-133.931
0
LINE
8
Black
10
191.443
20
-100.765
11
191.843
21
-101.165
0
LINE
8
Black
10
191.843
20
-100.765
11
191.443
21
-101.165
0
LINE
8
Black
10
191.57
20
-135.182
11
191.97
21
-135.582
0
LINE
8
Black
10
191.97
20
-135.182
11
191.57
21
-135.582
0
LINE
8
Black
10
191.824
20
-127.181
11
192.224
21
-127.581
0
LINE
8
Black
10
192.224
20
-127.181
11
191.824
21
-127.581
0
LINE
8
Black
10
191.824
20
-134.293
11
192.224
21
-134.693
0
LINE
8
Black
10
192.224
20
-134.293
11
191.824
21
-134.693
0
LINE
8
Black
10
192.713
20
-115.243
11
193.113
21
-115.643
0
LINE
8
Black
10
193.113
20
-115.243
11
192.713
21
-115.643
0
LINE
8
Black
10
196.142
20
-116.513
11
196.542
21
-116.913
0
LINE
8
Black
10
196.542
20
-116.513
11
196.142
21
-116.913
0
LINE
8
Black
10
198.809
20
-139.881
11
199.209
21
-140.281
0
LINE
8
Black
10
199.209
20
-139.881
11
198.809
21
-140.281
0
LINE
8
Black
10
199.444
20
-116.767
11
199.844
21
-117.167
0
LINE
8
Black
10
199.844
20
-116.767
11
199.444
21
-117.167
0
LINE
8
Black
10
200.714
20
-100.511
11
201.114
21
-100.911
0
LINE
8
Black
10
201.114
20
-100.511
11
200.714
21
-100.911
0
LINE
8
Black
10
201.603
20
-113.465
11
202.003
21
-113.865
0
LINE
8
Black
10
202.003
20
-113.465
11
201.603
21
-113.865
0
LINE
8
Black
10
201.984
20
-110.671
11
202.384
21
-111.071
0
LINE
8
Black
10
202.384
20
-110.671
11
201.984
21
-111.071
0
LINE
8
Black
10
204.143
20
-123.244
11
204.543
21
-123.644
0
LINE
8
Black
10
204.543
20
-123.244
11
204.143
21
-123.644
0
LINE
8
Black
10
204.524
20
-116.005
11
204.924
21
-116.405
0
LINE
8
Black
10
204.924
20
-116.005
11
204.524
21
-116.405
0
LINE
8
Black
10
205.413
20
-124.006
11
205.813
21
-124.406
0
LINE
8
Black
10
205.813
20
-124.006
11
205.413
21
-124.406
0
LINE
8
Black
10
205.54
20
-113.465
11
205.94
21
-113.865
0
LINE
8
Black
10
205.94
20
-113.465
11
205.54
21
-113.865
0
LINE
8
Black
10
205.54
20
-116.767
11
205.94
21
-117.167
0
LINE
8
Black
10
205.94
20
-116.767
11
205.54
21
-117.167
0
LINE
8
Black
10
206.175
20
-117.529
11
206.575
21
-117.929
0
LINE
8
Black
10
206.575
20
-117.529
11
206.175
21
-117.929
0
LINE
8
Black
10
206.302
20
-120.704
11
206.702
21
-121.104
0
LINE
8
Black
10
206.702
20
-120.704
11
206.302
21
-121.104
0
LINE
8
Black
10
206.683
20
-124.895
11
207.083
21
-125.295
0
LINE
8
Black
10
207.083
20
-124.895
11
206.683
21
-125.295
0
LINE
8
Black
10
206.937
20
-123.625
11
207.337
21
-124.025
0
LINE
8
Black
10
207.337
20
-123.625
11
206.937
21
-124.025
0
LINE
8
Black
10
207.191
20
-102.797
11
207.591
21
-103.197
0
LINE
8
Black
10
207.591
20
-102.797
11
207.191
21
-103.197
0
LINE
8
Black
10
207.826
20
-103.559
11
208.226
21
-103.959
0
LINE
8
Black
10
208.226
20
-103.559
11
207.826
21
-103.959
0
LINE
8
Black
10
207.826
20
-122.863
11
208.226
21
-123.263
0
LINE
8
Black
10
208.226
20
-122.863
11
207.826
21
-123.263
0
LINE
8
Black
10
208.461
20
-122.101
11
208.861
21
-122.501
0
LINE
8
Black
10
208.861
20
-122.101
11
208.461
21
-122.501
0
LINE
8
Black
10
208.588
20
-104.067
11
208.988
21
-104.467
0
LINE
8
Black
10
208.988
20
-104.067
11
208.588
21
-104.467
0
LINE
8
Black
10
214.557
20
-100.384
11
214.957
21
-100.784
0
LINE
8
Black
10
214.957
20
-100.384
11
214.557
21
-100.784
0
CIRCLE
8
Black
10
166.401
20
-133.66
40
0.3
0
LINE
8
Black
10
166.051
20
-133.96
11
166.751
21
-133.96
0
LINE
8
Black
10
166.051
20
-133.36
11
166.751
21
-133.36
0
ARC
8
Black
10
166.751
20
-133.66
40
0.3
50
270
51
450
0
ARC
8
Black
10
166.051
20
-133.66
40
0.3
50
90
51
270
0
CIRCLE
8
Black
10
166.401
20
-140.66
40
0.3
0
LINE
8
Black
10
166.751
20
-140.36
11
166.051
21
-140.36
0
LINE
8
Black
10
166.751
20
-140.96
11
166.051
21
-140.96
0
ARC
8
Black
10
166.051
20
-140.66
40
0.3
50
450
51
630
0
ARC
8
Black
10
166.751
20
-140.66
40
0.3
50
270
51
450
0
LINE
8
Black
10
192.248
20
-73.159
11
192.248
21
-73.921
0
LINE
8
Black
10
191.867
20
-73.54
11
192.629
21
-73.54
0
LINE
8
Black
10
193.948
20
-100.859
11
193.948
21
-101.621
0
LINE
8
Black
10
193.567
20
-101.24
11
194.329
21
-101.24
0
LINE
8
Black
10
195.948
20
-100.859
11
195.948
21
-101.621
0
LINE
8
Black
10
195.567
20
-101.24
11
196.329
21
-101.24
0
LINE
8
Black
10
169.402
20
-134.961
11
169.402
21
-134.359
0
LINE
8
Black
10
169.402
20
-134.359
11
168.8
21
-134.359
0
LINE
8
Black
10
168.8
20
-134.359
11
168.8
21
-134.961
0
LINE
8
Black
10
168.8
20
-134.961
11
169.402
21
-134.961
0
LINE
8
Black
10
169.402
20
-139.961
11
169.402
21
-139.359
0
LINE
8
Black
10
169.402
20
-139.359
11
168.8
21
-139.359
0
LINE
8
Black
10
168.8
20
-139.359
11
168.8
21
-139.961
0
LINE
8
Black
10
168.8
20
-139.961
11
169.402
21
-139.961
0
LINE
8
Black
10
173.99
20
-137.66
11
174.49
21
-137.16
0
LINE
8
Black
10
174.49
20
-137.16
11
173.99
21
-136.66
0
LINE
8
Black
10
173.99
20
-136.66
11
173.49
21
-137.16
0
LINE
8
Black
10
173.49
20
-137.16
11
173.99
21
-137.66
0
LINE
8
Black
10
173.99
20
-140.2
11
174.49
21
-139.7
0
LINE
8
Black
10
174.49
20
-139.7
11
173.99
21
-139.2
0
LINE
8
Black
10
173.99
20
-139.2
11
173.49
21
-139.7
0
LINE
8
Black
10
173.49
20
-139.7
11
173.99
21
-140.2
0
LINE
8
Black
10
176.53
20
-137.66
11
177.03
21
-137.16
0
LINE
8
Black
10
177.03
20
-137.16
11
176.53
21
-136.66
0
LINE
8
Black
10
176.53
20
-136.66
11
176.03
21
-137.16
0
LINE
8
Black
10
176.03
20
-137.16
11
176.53
21
-137.66
0
LINE
8
Black
10
176.53
20
-140.2
11
177.03
21
-139.7
0
LINE
8
Black
10
177.03
20
-139.7
11
176.53
21
-139.2
0
LINE
8
Black
10
176.53
20
-139.2
11
176.03
21
-139.7
0
LINE
8
Black
10
176.03
20
-139.7
11
176.53
21
-140.2
0
LINE
8
Black
10
179.07
20
-137.66
11
179.57
21
-137.16
0
LINE
8
Black
10
179.57
20
-137.16
11
179.07
21
-136.66
0
LINE
8
Black
10
179.07
20
-136.66
11
178.57
21
-137.16
0
LINE
8
Black
10
178.57
20
-137.16
11
179.07
21
-137.66
0
LINE
8
Black
10
179.07
20
-140.2
11
179.57
21
-139.7
0
LINE
8
Black
10
179.57
20
-139.7
11
179.07
21
-139.2
0
LINE
8
Black
10
179.07
20
-139.2
11
178.57
21
-139.7
0
LINE
8
Black
10
178.57
20
-139.7
11
179.07
21
-140.2
0
LINE
8
Black
10
181.61
20
-137.66
11
182.11
21
-137.16
0
LINE
8
Black
10
182.11
20
-137.16
11
181.61
21
-136.66
0
LINE
8
Black
10
181.61
20
-136.66
11
181.11
21
-137.16
0
LINE
8
Black
10
181.11
20
-137.16
11
181.61
21
-137.66
0
LINE
8
Black
10
181.61
20
-140.2
11
182.11
21
-139.7
0
LINE
8
Black
10
182.11
20
-139.7
11
181.61
21
-139.2
0
LINE
8
Black
10
181.61
20
-139.2
11
181.11
21
-139.7
0
LINE
8
Black
10
181.11
20
-139.7
11
181.61
21
-140.2
0
LINE
8
Black
10
184.15
20
-137.66
11
184.65
21
-137.16
0
LINE
8
Black
10
184.65
20
-137.16
11
184.15
21
-136.66
0
LINE
8
Black
10
184.15
20
-136.66
11
183.65
21
-137.16
0
LINE
8
Black
10
183.65
20
-137.16
11
184.15
21
-137.66
0
LINE
8
Black
10
184.15
20
-140.2
11
184.65
21
-139.7
0
LINE
8
Black
10
184.65
20
-139.7
11
184.15
21
-139.2
0
LINE
8
Black
10
184.15
20
-139.2
11
183.65
21
-139.7
0
LINE
8
Black
10
183.65
20
-139.7
11
184.15
21
-140.2
0
LINE
8
Black
10
185.42
20
-104.64
11
185.92
21
-104.14
0
LINE
8
Black
10
185.92
20
-104.14
11
185.42
21
-103.64
0
LINE
8
Black
10
185.42
20
-103.64
11
184.92
21
-104.14
0
LINE
8
Black
10
184.92
20
-104.14
11
185.42
21
-104.64
0
LINE
8
Black
10
187.96
20
-105.91
11
188.46
21
-105.41
0
LINE
8
Black
10
188.46
20
-105.41
11
187.96
21
-104.91
0
LINE
8
Black
10
187.96
20
-104.91
11
187.46
21
-105.41
0
LINE
8
Black
10
187.46
20
-105.41
11
187.96
21
-105.91
0
LINE
8
Black
10
187.96
20
-137.66
11
188.46
21
-137.16
0
LINE
8
Black
10
188.46
20
-137.16
11
187.96
21
-136.66
0
LINE
8
Black
10
187.96
20
-136.66
11
187.46
21
-137.16
0
LINE
8
Black
10
187.46
20
-137.16
11
187.96
21
-137.66
0
LINE
8
Black
10
190.5
20
-104.64
11
191
21
-104.14
0
LINE
8
Black
10
191
20
-104.14
11
190.5
21
-103.64
0
LINE
8
Black
10
190.5
20
-103.64
11
190
21
-104.14
0
LINE
8
Black
10
190
20
-104.14
11
190.5
21
-104.64
0
LINE
8
Black
10
190.5
20
-137.66
11
191
21
-137.16
0
LINE
8
Black
10
191
20
-137.16
11
190.5
21
-136.66
0
LINE
8
Black
10
190.5
20
-136.66
11
190
21
-137.16
0
LINE
8
Black
10
190
20
-137.16
11
190.5
21
-137.66
0
LINE
8
Black
10
193.04
20
-105.91
11
193.54
21
-105.41
0
LINE
8
Black
10
193.54
20
-105.41
11
193.04
21
-104.91
0
LINE
8
Black
10
193.04
20
-104.91
11
192.54
21
-105.41
0
LINE
8
Black
10
192.54
20
-105.41
11
193.04
21
-105.91
0
LINE
8
Black
10
193.04
20
-137.66
11
193.54
21
-137.16
0
LINE
8
Black
10
193.54
20
-137.16
11
193.04
21
-136.66
0
LINE
8
Black
10
193.04
20
-136.66
11
192.54
21
-137.16
0
LINE
8
Black
10
192.54
20
-137.16
11
193.04
21
-137.66
0
LINE
8
Black
10
195.58
20
-104.64
11
196.08
21
-104.14
0
LINE
8
Black
10
196.08
20
-104.14
11
195.58
21
-103.64
0
LINE
8
Black
10
195.58
20
-103.64
11
195.08
21
-104.14
0
LINE
8
Black
10
195.08
20
-104.14
11
195.58
21
-104.64
0
LINE
8
Black
10
195.58
20
-137.66
11
196.08
21
-137.16
0
LINE
8
Black
10
196.08
20
-137.16
11
195.58
21
-136.66
0
LINE
8
Black
10
195.58
20
-136.66
11
195.08
21
-137.16
0
LINE
8
Black
10
195.08
20
-137.16
11
195.58
21
-137.66
0
LINE
8
Black
10
197.612
20
-109.72
11
198.112
21
-109.22
0
LINE
8
Black
10
198.112
20
-109.22
11
197.612
21
-108.72
0
LINE
8
Black
10
197.612
20
-108.72
11
197.112
21
-109.22
0
LINE
8
Black
10
197.112
20
-109.22
11
197.612
21
-109.72
0
LINE
8
Black
10
197.612
20
-112.26
11
198.112
21
-111.76
0
LINE
8
Black
10
198.112
20
-111.76
11
197.612
21
-111.26
0
LINE
8
Black
10
197.612
20
-111.26
11
197.112
21
-111.76
0
LINE
8
Black
10
197.112
20
-111.76
11
197.612
21
-112.26
0
LINE
8
Black
10
198.12
20
-105.91
11
198.62
21
-105.41
0
LINE
8
Black
10
198.62
20
-105.41
11
198.12
21
-104.91
0
LINE
8
Black
10
198.12
20
-104.91
11
197.62
21
-105.41
0
LINE
8
Black
10
197.62
20
-105.41
11
198.12
21
-105.91
0
LINE
8
Black
10
200.66
20
-104.64
11
201.16
21
-104.14
0
LINE
8
Black
10
201.16
20
-104.14
11
200.66
21
-103.64
0
LINE
8
Black
10
200.66
20
-103.64
11
200.16
21
-104.14
0
LINE
8
Black
10
200.16
20
-104.14
11
200.66
21
-104.64
0
LINE
8
Black
10
204.724
20
-104.64
11
205.224
21
-104.14
0
LINE
8
Black
10
205.224
20
-104.14
11
204.724
21
-103.64
0
LINE
8
Black
10
204.724
20
-103.64
11
204.224
21
-104.14
0
LINE
8
Black
10
204.224
20
-104.14
11
204.724
21
-104.64
0
LINE
8
Black
10
204.724
20
-107.18
11
205.224
21
-106.68
0
LINE
8
Black
10
205.224
20
-106.68
11
204.724
21
-106.18
0
LINE
8
Black
10
204.724
20
-106.18
11
204.224
21
-106.68
0
LINE
8
Black
10
204.224
20
-106.68
11
204.724
21
-107.18
0
LINE
8
Black
10
2.71429
20
-4.65714
11
2.71429
21
-1.65714
0
LINE
8
Black
10
2.71429
20
-1.65714
11
3.42857
21
-1.65714
0
LINE
8
Black
10
3.42857
20
-1.65714
11
3.85714
21
-1.8
0
LINE
8
Black
10
3.85714
20
-1.8
11
4.14286
21
-2.08571
0
LINE
8
Black
10
4.14286
20
-2.08571
11
4.28571
21
-2.37143
0
LINE
8
Black
10
4.28571
20
-2.37143
11
4.42857
21
-2.94286
0
LINE
8
Black
10
4.42857
20
-2.94286
11
4.42857
21
-3.37143
0
LINE
8
Black
10
4.42857
20
-3.37143
11
4.28571
21
-3.94286
0
LINE
8
Black
10
4.28571
20
-3.94286
11
4.14286
21
-4.22857
0
LINE
8
Black
10
4.14286
20
-4.22857
11
3.85714
21
-4.51429
0
LINE
8
Black
10
3.85714
20
-4.51429
11
3.42857
21
-4.65714
0
LINE
8
Black
10
3.42857
20
-4.65714
11
2.71429
21
-4.65714
0
LINE
8
Black
10
5.71429
20
-4.65714
11
5.71429
21
-2.65714
0
LINE
8
Black
10
5.71429
20
-3.22857
11
5.85714
21
-2.94286
0
LINE
8
Black
10
5.85714
20
-2.94286
11
6
21
-2.8
0
LINE
8
Black
10
6
20
-2.8
11
6.28571
21
-2.65714
0
LINE
8
Black
10
6.28571
20
-2.65714
11
6.57143
21
-2.65714
0
LINE
8
Black
10
7.57143
20
-4.65714
11
7.57143
21
-2.65714
0
LINE
8
Black
10
7.57143
20
-1.65714
11
7.42857
21
-1.8
0
LINE
8
Black
10
7.42857
20
-1.8
11
7.57143
21
-1.94286
0
LINE
8
Black
10
7.57143
20
-1.94286
11
7.71429
21
-1.8
0
LINE
8
Black
10
7.71429
20
-1.8
11
7.57143
21
-1.65714
0
LINE
8
Black
10
7.57143
20
-1.65714
11
7.57143
21
-1.94286
0
LINE
8
Black
10
9.42857
20
-4.65714
11
9.14286
21
-4.51429
0
LINE
8
Black
10
9.14286
20
-4.51429
11
9
21
-4.22857
0
LINE
8
Black
10
9
20
-4.22857
11
9
21
-1.65714
0
LINE
8
Black
10
11
20
-4.65714
11
10.7143
21
-4.51429
0
LINE
8
Black
10
10.7143
20
-4.51429
11
10.5714
21
-4.22857
0
LINE
8
Black
10
10.5714
20
-4.22857
11
10.5714
21
-1.65714
0
LINE
8
Black
10
14.4286
20
-4.65714
11
14.4286
21
-1.65714
0
LINE
8
Black
10
14.4286
20
-1.65714
11
15.4286
21
-3.8
0
LINE
8
Black
10
15.4286
20
-3.8
11
16.4286
21
-1.65714
0
LINE
8
Black
10
16.4286
20
-1.65714
11
16.4286
21
-4.65714
0
LINE
8
Black
10
19.1429
20
-4.65714
11
19.1429
21
-3.08571
0
LINE
8
Black
10
19.1429
20
-3.08571
11
19
21
-2.8
0
LINE
8
Black
10
19
20
-2.8
11
18.7143
21
-2.65714
0
LINE
8
Black
10
18.7143
20
-2.65714
11
18.1429
21
-2.65714
0
LINE
8
Black
10
18.1429
20
-2.65714
11
17.8571
21
-2.8
0
LINE
8
Black
10
19.1429
20
-4.51429
11
18.8571
21
-4.65714
0
LINE
8
Black
10
18.8571
20
-4.65714
11
18.1429
21
-4.65714
0
LINE
8
Black
10
18.1429
20
-4.65714
11
17.8571
21
-4.51429
0
LINE
8
Black
10
17.8571
20
-4.51429
11
17.7143
21
-4.22857
0
LINE
8
Black
10
17.7143
20
-4.22857
11
17.7143
21
-3.94286
0
LINE
8
Black
10
17.7143
20
-3.94286
11
17.8571
21
-3.65714
0
LINE
8
Black
10
17.8571
20
-3.65714
11
18.1429
21
-3.51429
0
LINE
8
Black
10
18.1429
20
-3.51429
11
18.8571
21
-3.51429
0
LINE
8
Black
10
18.8571
20
-3.51429
11
19.1429
21
-3.37143
0
LINE
8
Black
10
20.5714
20
-2.65714
11
20.5714
21
-5.65714
0
LINE
8
Black
10
20.5714
20
-2.8
11
20.8571
21
-2.65714
0
LINE
8
Black
10
20.8571
20
-2.65714
11
21.4286
21
-2.65714
0
LINE
8
Black
10
21.4286
20
-2.65714
11
21.7143
21
-2.8
0
LINE
8
Black
10
21.7143
20
-2.8
11
21.8571
21
-2.94286
0
LINE
8
Black
10
21.8571
20
-2.94286
11
22
21
-3.22857
0
LINE
8
Black
10
22
20
-3.22857
11
22
21
-4.08571
0
LINE
8
Black
10
22
20
-4.08571
11
21.8571
21
-4.37143
0
LINE
8
Black
10
21.8571
20
-4.37143
11
21.7143
21
-4.51429
0
LINE
8
Black
10
21.7143
20
-4.51429
11
21.4286
21
-4.65714
0
LINE
8
Black
10
21.4286
20
-4.65714
11
20.8571
21
-4.65714
0
LINE
8
Black
10
20.8571
20
-4.65714
11
20.5714
21
-4.51429
0
LINE
8
Black
10
23.2857
20
-4.37143
11
23.4286
21
-4.51429
0
LINE
8
Black
10
23.4286
20
-4.51429
11
23.2857
21
-4.65714
0
LINE
8
Black
10
23.2857
20
-4.65714
11
23.1429
21
-4.51429
0
LINE
8
Black
10
23.1429
20
-4.51429
11
23.2857
21
-4.37143
0
LINE
8
Black
10
23.2857
20
-4.37143
11
23.2857
21
-4.65714
0
LINE
8
Black
10
23.2857
20
-2.8
11
23.4286
21
-2.94286
0
LINE
8
Black
10
23.4286
20
-2.94286
11
23.2857
21
-3.08571
0
LINE
8
Black
10
23.2857
20
-3.08571
11
23.1429
21
-2.94286
0
LINE
8
Black
10
23.1429
20
-2.94286
11
23.2857
21
-2.8
0
LINE
8
Black
10
23.2857
20
-2.8
11
23.2857
21
-3.08571
0
LINE
8
Black
10
-0.4
20
-9.4
11
0
21
-9.8
0
LINE
8
Black
10
0
20
-9.4
11
-0.4
21
-9.8
0
LINE
8
Black
10
3.28571
20
-7.95714
11
3.57143
21
-7.95714
0
LINE
8
Black
10
3.57143
20
-7.95714
11
3.85714
21
-8.1
0
LINE
8
Black
10
3.85714
20
-8.1
11
4
21
-8.24286
0
LINE
8
Black
10
4
20
-8.24286
11
4.14286
21
-8.52857
0
LINE
8
Black
10
4.14286
20
-8.52857
11
4.28571
21
-9.1
0
LINE
8
Black
10
4.28571
20
-9.1
11
4.28571
21
-9.81429
0
LINE
8
Black
10
4.28571
20
-9.81429
11
4.14286
21
-10.3857
0
LINE
8
Black
10
4.14286
20
-10.3857
11
4
21
-10.6714
0
LINE
8
Black
10
4
20
-10.6714
11
3.85714
21
-10.8143
0
LINE
8
Black
10
3.85714
20
-10.8143
11
3.57143
21
-10.9571
0
LINE
8
Black
10
3.57143
20
-10.9571
11
3.28571
21
-10.9571
0
LINE
8
Black
10
3.28571
20
-10.9571
11
3
21
-10.8143
0
LINE
8
Black
10
3
20
-10.8143
11
2.85714
21
-10.6714
0
LINE
8
Black
10
2.85714
20
-10.6714
11
2.71429
21
-10.3857
0
LINE
8
Black
10
2.71429
20
-10.3857
11
2.57143
21
-9.81429
0
LINE
8
Black
10
2.57143
20
-9.81429
11
2.57143
21
-9.1
0
LINE
8
Black
10
2.57143
20
-9.1
11
2.71429
21
-8.52857
0
LINE
8
Black
10
2.71429
20
-8.52857
11
2.85714
21
-8.24286
0
LINE
8
Black
10
2.85714
20
-8.24286
11
3
21
-8.1
0
LINE
8
Black
10
3
20
-8.1
11
3.28571
21
-7.95714
0
LINE
8
Black
10
5.57143
20
-10.6714
11
5.71429
21
-10.8143
0
LINE
8
Black
10
5.71429
20
-10.8143
11
5.57143
21
-10.9571
0
LINE
8
Black
10
5.57143
20
-10.9571
11
5.42857
21
-10.8143
0
LINE
8
Black
10
5.42857
20
-10.8143
11
5.57143
21
-10.6714
0
LINE
8
Black
10
5.57143
20
-10.6714
11
5.57143
21
-10.9571
0
LINE
8
Black
10
8.28571
20
-8.95714
11
8.28571
21
-10.9571
0
LINE
8
Black
10
7.57143
20
-7.81429
11
6.85714
21
-9.95714
0
LINE
8
Black
10
6.85714
20
-9.95714
11
8.71429
21
-9.95714
0
LINE
8
Black
10
10.4286
20
-7.95714
11
10.7143
21
-7.95714
0
LINE
8
Black
10
10.7143
20
-7.95714
11
11
21
-8.1
0
LINE
8
Black
10
11
20
-8.1
11
11.1429
21
-8.24286
0
LINE
8
Black
10
11.1429
20
-8.24286
11
11.2857
21
-8.52857
0
LINE
8
Black
10
11.2857
20
-8.52857
11
11.4286
21
-9.1
0
LINE
8
Black
10
11.4286
20
-9.1
11
11.4286
21
-9.81429
0
LINE
8
Black
10
11.4286
20
-9.81429
11
11.2857
21
-10.3857
0
LINE
8
Black
10
11.2857
20
-10.3857
11
11.1429
21
-10.6714
0
LINE
8
Black
10
11.1429
20
-10.6714
11
11
21
-10.8143
0
LINE
8
Black
10
11
20
-10.8143
11
10.7143
21
-10.9571
0
LINE
8
Black
10
10.7143
20
-10.9571
11
10.4286
21
-10.9571
0
LINE
8
Black
10
10.4286
20
-10.9571
11
10.1429
21
-10.8143
0
LINE
8
Black
10
10.1429
20
-10.8143
11
10
21
-10.6714
0
LINE
8
Black
10
10
20
-10.6714
11
9.85714
21
-10.3857
0
LINE
8
Black
10
9.85714
20
-10.3857
11
9.71429
21
-9.81429
0
LINE
8
Black
10
9.71429
20
-9.81429
11
9.71429
21
-9.1
0
LINE
8
Black
10
9.71429
20
-9.1
11
9.85714
21
-8.52857
0
LINE
8
Black
10
9.85714
20
-8.52857
11
10
21
-8.24286
0
LINE
8
Black
10
10
20
-8.24286
11
10.1429
21
-8.1
0
LINE
8
Black
10
10.1429
20
-8.1
11
10.4286
21
-7.95714
0
LINE
8
Black
10
12.7143
20
-10.9571
11
12.7143
21
-8.95714
0
LINE
8
Black
10
12.7143
20
-9.24286
11
12.8571
21
-9.1
0
LINE
8
Black
10
12.8571
20
-9.1
11
13.1429
21
-8.95714
0
LINE
8
Black
10
13.1429
20
-8.95714
11
13.5714
21
-8.95714
0
LINE
8
Black
10
13.5714
20
-8.95714
11
13.8571
21
-9.1
0
LINE
8
Black
10
13.8571
20
-9.1
11
14
21
-9.38571
0
LINE
8
Black
10
14
20
-9.38571
11
14
21
-10.9571
0
LINE
8
Black
10
14
20
-9.38571
11
14.1429
21
-9.1
0
LINE
8
Black
10
14.1429
20
-9.1
11
14.4286
21
-8.95714
0
LINE
8
Black
10
14.4286
20
-8.95714
11
14.8571
21
-8.95714
0
LINE
8
Black
10
14.8571
20
-8.95714
11
15.1429
21
-9.1
0
LINE
8
Black
10
15.1429
20
-9.1
11
15.2857
21
-9.38571
0
LINE
8
Black
10
15.2857
20
-9.38571
11
15.2857
21
-10.9571
0
LINE
8
Black
10
16.7143
20
-10.9571
11
16.7143
21
-8.95714
0
LINE
8
Black
10
16.7143
20
-9.24286
11
16.8571
21
-9.1
0
LINE
8
Black
10
16.8571
20
-9.1
11
17.1429
21
-8.95714
0
LINE
8
Black
10
17.1429
20
-8.95714
11
17.5714
21
-8.95714
0
LINE
8
Black
10
17.5714
20
-8.95714
11
17.8571
21
-9.1
0
LINE
8
Black
10
17.8571
20
-9.1
11
18
21
-9.38571
0
LINE
8
Black
10
18
20
-9.38571
11
18
21
-10.9571
0
LINE
8
Black
10
18
20
-9.38571
11
18.1429
21
-9.1
0
LINE
8
Black
10
18.1429
20
-9.1
11
18.4286
21
-8.95714
0
LINE
8
Black
10
18.4286
20
-8.95714
11
18.8571
21
-8.95714
0
LINE
8
Black
10
18.8571
20
-8.95714
11
19.1429
21
-9.1
0
LINE
8
Black
10
19.1429
20
-9.1
11
19.2857
21
-9.38571
0
LINE
8
Black
10
19.2857
20
-9.38571
11
19.2857
21
-10.9571
0
LINE
8
Black
10
25.1429
20
-7.81429
11
22.5714
21
-11.6714
0
LINE
8
Black
10
29
20
-7.95714
11
29.2857
21
-7.95714
0
LINE
8
Black
10
29.2857
20
-7.95714
11
29.5714
21
-8.1
0
LINE
8
Black
10
29.5714
20
-8.1
11
29.7143
21
-8.24286
0
LINE
8
Black
10
29.7143
20
-8.24286
11
29.8571
21
-8.52857
0
LINE
8
Black
10
29.8571
20
-8.52857
11
30
21
-9.1
0
LINE
8
Black
10
30
20
-9.1
11
30
21
-9.81429
0
LINE
8
Black
10
30
20
-9.81429
11
29.8571
21
-10.3857
0
LINE
8
Black
10
29.8571
20
-10.3857
11
29.7143
21
-10.6714
0
LINE
8
Black
10
29.7143
20
-10.6714
11
29.5714
21
-10.8143
0
LINE
8
Black
10
29.5714
20
-10.8143
11
29.2857
21
-10.9571
0
LINE
8
Black
10
29.2857
20
-10.9571
11
29
21
-10.9571
0
LINE
8
Black
10
29
20
-10.9571
11
28.7143
21
-10.8143
0
LINE
8
Black
10
28.7143
20
-10.8143
11
28.5714
21
-10.6714
0
LINE
8
Black
10
28.5714
20
-10.6714
11
28.4286
21
-10.3857
0
LINE
8
Black
10
28.4286
20
-10.3857
11
28.2857
21
-9.81429
0
LINE
8
Black
10
28.2857
20
-9.81429
11
28.2857
21
-9.1
0
LINE
8
Black
10
28.2857
20
-9.1
11
28.4286
21
-8.52857
0
LINE
8
Black
10
28.4286
20
-8.52857
11
28.5714
21
-8.24286
0
LINE
8
Black
10
28.5714
20
-8.24286
11
28.7143
21
-8.1
0
LINE
8
Black
10
28.7143
20
-8.1
11
29
21
-7.95714
0
LINE
8
Black
10
31.2857
20
-10.6714
11
31.4286
21
-10.8143
0
LINE
8
Black
10
31.4286
20
-10.8143
11
31.2857
21
-10.9571
0
LINE
8
Black
10
31.2857
20
-10.9571
11
31.1429
21
-10.8143
0
LINE
8
Black
10
31.1429
20
-10.8143
11
31.2857
21
-10.6714
0
LINE
8
Black
10
31.2857
20
-10.6714
11
31.2857
21
-10.9571
0
LINE
8
Black
10
33.2857
20
-7.95714
11
33.5714
21
-7.95714
0
LINE
8
Black
10
33.5714
20
-7.95714
11
33.8571
21
-8.1
0
LINE
8
Black
10
33.8571
20
-8.1
11
34
21
-8.24286
0
LINE
8
Black
10
34
20
-8.24286
11
34.1429
21
-8.52857
0
LINE
8
Black
10
34.1429
20
-8.52857
11
34.2857
21
-9.1
0
LINE
8
Black
10
34.2857
20
-9.1
11
34.2857
21
-9.81429
0
LINE
8
Black
10
34.2857
20
-9.81429
11
34.1429
21
-10.3857
0
LINE
8
Black
10
34.1429
20
-10.3857
11
34
21
-10.6714
0
LINE
8
Black
10
34
20
-10.6714
11
33.8571
21
-10.8143
0
LINE
8
Black
10
33.8571
20
-10.8143
11
33.5714
21
-10.9571
0
LINE
8
Black
10
33.5714
20
-10.9571
11
33.2857
21
-10.9571
0
LINE
8
Black
10
33.2857
20
-10.9571
11
33
21
-10.8143
0
LINE
8
Black
10
33
20
-10.8143
11
32.8571
21
-10.6714
0
LINE
8
Black
10
32.8571
20
-10.6714
11
32.7143
21
-10.3857
0
LINE
8
Black
10
32.7143
20
-10.3857
11
32.5714
21
-9.81429
0
LINE
8
Black
10
32.5714
20
-9.81429
11
32.5714
21
-9.1
0
LINE
8
Black
10
32.5714
20
-9.1
11
32.7143
21
-8.52857
0
LINE
8
Black
10
32.7143
20
-8.52857
11
32.8571
21
-8.24286
0
LINE
8
Black
10
32.8571
20
-8.24286
11
33
21
-8.1
0
LINE
8
Black
10
33
20
-8.1
11
33.2857
21
-7.95714
0
LINE
8
Black
10
37.1429
20
-10.9571
11
35.4286
21
-10.9571
0
LINE
8
Black
10
36.2857
20
-10.9571
11
36.2857
21
-7.95714
0
LINE
8
Black
10
36.2857
20
-7.95714
11
36
21
-8.38571
0
LINE
8
Black
10
36
20
-8.38571
11
35.7143
21
-8.67143
0
LINE
8
Black
10
35.7143
20
-8.67143
11
35.4286
21
-8.81429
0
LINE
8
Black
10
39.7143
20
-7.95714
11
39.1429
21
-7.95714
0
LINE
8
Black
10
39.1429
20
-7.95714
11
38.8571
21
-8.1
0
LINE
8
Black
10
38.8571
20
-8.1
11
38.7143
21
-8.24286
0
LINE
8
Black
10
38.7143
20
-8.24286
11
38.4286
21
-8.67143
0
LINE
8
Black
10
38.4286
20
-8.67143
11
38.2857
21
-9.24286
0
LINE
8
Black
10
38.2857
20
-9.24286
11
38.2857
21
-10.3857
0
LINE
8
Black
10
38.2857
20
-10.3857
11
38.4286
21
-10.6714
0
LINE
8
Black
10
38.4286
20
-10.6714
11
38.5714
21
-10.8143
0
LINE
8
Black
10
38.5714
20
-10.8143
11
38.8571
21
-10.9571
0
LINE
8
Black
10
38.8571
20
-10.9571
11
39.4286
21
-10.9571
0
LINE
8
Black
10
39.4286
20
-10.9571
11
39.7143
21
-10.8143
0
LINE
8
Black
10
39.7143
20
-10.8143
11
39.8571
21
-10.6714
0
LINE
8
Black
10
39.8571
20
-10.6714
11
40
21
-10.3857
0
LINE
8
Black
10
40
20
-10.3857
11
40
21
-9.67143
0
LINE
8
Black
10
40
20
-9.67143
11
39.8571
21
-9.38571
0
LINE
8
Black
10
39.8571
20
-9.38571
11
39.7143
21
-9.24286
0
LINE
8
Black
10
39.7143
20
-9.24286
11
39.4286
21
-9.1
0
LINE
8
Black
10
39.4286
20
-9.1
11
38.8571
21
-9.1
0
LINE
8
Black
10
38.8571
20
-9.1
11
38.5714
21
-9.24286
0
LINE
8
Black
10
38.5714
20
-9.24286
11
38.4286
21
-9.38571
0
LINE
8
Black
10
38.4286
20
-9.38571
11
38.2857
21
-9.67143
0
LINE
8
Black
10
41.1429
20
-7.95714
11
41.1429
21
-8.52857
0
LINE
8
Black
10
42.2857
20
-7.95714
11
42.2857
21
-8.52857
0
LINE
8
Black
10
46.7143
20
-12.1
11
46.5714
21
-11.9571
0
LINE
8
Black
10
46.5714
20
-11.9571
11
46.2857
21
-11.5286
0
LINE
8
Black
10
46.2857
20
-11.5286
11
46.1429
21
-11.2429
0
LINE
8
Black
10
46.1429
20
-11.2429
11
46
21
-10.8143
0
LINE
8
Black
10
46
20
-10.8143
11
45.8571
21
-10.1
0
LINE
8
Black
10
45.8571
20
-10.1
11
45.8571
21
-9.52857
0
LINE
8
Black
10
45.8571
20
-9.52857
11
46
21
-8.81429
0
LINE
8
Black
10
46
20
-8.81429
11
46.1429
21
-8.38571
0
LINE
8
Black
10
46.1429
20
-8.38571
11
46.2857
21
-8.1
0
LINE
8
Black
10
46.2857
20
-8.1
11
46.5714
21
-7.67143
0
LINE
8
Black
10
46.5714
20
-7.67143
11
46.7143
21
-7.52857
0
LINE
8
Black
10
48.2857
20
-9.24286
11
48
21
-9.1
0
LINE
8
Black
10
48
20
-9.1
11
47.8571
21
-8.95714
0
LINE
8
Black
10
47.8571
20
-8.95714
11
47.7143
21
-8.67143
0
LINE
8
Black
10
47.7143
20
-8.67143
11
47.7143
21
-8.52857
0
LINE
8
Black
10
47.7143
20
-8.52857
11
47.8571
21
-8.24286
0
LINE
8
Black
10
47.8571
20
-8.24286
11
48
21
-8.1
0
LINE
8
Black
10
48
20
-8.1
11
48.2857
21
-7.95714
0
LINE
8
Black
10
48.2857
20
-7.95714
11
48.8571
21
-7.95714
0
LINE
8
Black
10
48.8571
20
-7.95714
11
49.1429
21
-8.1
0
LINE
8
Black
10
49.1429
20
-8.1
11
49.2857
21
-8.24286
0
LINE
8
Black
10
49.2857
20
-8.24286
11
49.4286
21
-8.52857
0
LINE
8
Black
10
49.4286
20
-8.52857
11
49.4286
21
-8.67143
0
LINE
8
Black
10
49.4286
20
-8.67143
11
49.2857
21
-8.95714
0
LINE
8
Black
10
49.2857
20
-8.95714
11
49.1429
21
-9.1
0
LINE
8
Black
10
49.1429
20
-9.1
11
48.8571
21
-9.24286
0
LINE
8
Black
10
48.8571
20
-9.24286
11
48.2857
21
-9.24286
0
LINE
8
Black
10
48.2857
20
-9.24286
11
48
21
-9.38571
0
LINE
8
Black
10
48
20
-9.38571
11
47.8571
21
-9.52857
0
LINE
8
Black
10
47.8571
20
-9.52857
11
47.7143
21
-9.81429
0
LINE
8
Black
10
47.7143
20
-9.81429
11
47.7143
21
-10.3857
0
LINE
8
Black
10
47.7143
20
-10.3857
11
47.8571
21
-10.6714
0
LINE
8
Black
10
47.8571
20
-10.6714
11
48
21
-10.8143
0
LINE
8
Black
10
48
20
-10.8143
11
48.2857
21
-10.9571
0
LINE
8
Black
10
48.2857
20
-10.9571
11
48.8571
21
-10.9571
0
LINE
8
Black
10
48.8571
20
-10.9571
11
49.1429
21
-10.8143
0
LINE
8
Black
10
49.1429
20
-10.8143
11
49.2857
21
-10.6714
0
LINE
8
Black
10
49.2857
20
-10.6714
11
49.4286
21
-10.3857
0
LINE
8
Black
10
49.4286
20
-10.3857
11
49.4286
21
-9.81429
0
LINE
8
Black
10
49.4286
20
-9.81429
11
49.2857
21
-9.52857
0
LINE
8
Black
10
49.2857
20
-9.52857
11
49.1429
21
-9.38571
0
LINE
8
Black
10
49.1429
20
-9.38571
11
48.8571
21
-9.24286
0
LINE
8
Black
10
52.1429
20
-7.95714
11
50.7143
21
-7.95714
0
LINE
8
Black
10
50.7143
20
-7.95714
11
50.5714
21
-9.38571
0
LINE
8
Black
10
50.5714
20
-9.38571
11
50.7143
21
-9.24286
0
LINE
8
Black
10
50.7143
20
-9.24286
11
51
21
-9.1
0
LINE
8
Black
10
51
20
-9.1
11
51.7143
21
-9.1
0
LINE
8
Black
10
51.7143
20
-9.1
11
52
21
-9.24286
0
LINE
8
Black
10
52
20
-9.24286
11
52.1429
21
-9.38571
0
LINE
8
Black
10
52.1429
20
-9.38571
11
52.2857
21
-9.67143
0
LINE
8
Black
10
52.2857
20
-9.67143
11
52.2857
21
-10.3857
0
LINE
8
Black
10
52.2857
20
-10.3857
11
52.1429
21
-10.6714
0
LINE
8
Black
10
52.1429
20
-10.6714
11
52
21
-10.8143
0
LINE
8
Black
10
52
20
-10.8143
11
51.7143
21
-10.9571
0
LINE
8
Black
10
51.7143
20
-10.9571
11
51
21
-10.9571
0
LINE
8
Black
10
51
20
-10.9571
11
50.7143
21
-10.8143
0
LINE
8
Black
10
50.7143
20
-10.8143
11
50.5714
21
-10.6714
0
LINE
8
Black
10
55.8571
20
-10.9571
11
55.8571
21
-7.95714
0
LINE
8
Black
10
57.1429
20
-10.9571
11
57.1429
21
-9.38571
0
LINE
8
Black
10
57.1429
20
-9.38571
11
57
21
-9.1
0
LINE
8
Black
10
57
20
-9.1
11
56.7143
21
-8.95714
0
LINE
8
Black
10
56.7143
20
-8.95714
11
56.2857
21
-8.95714
0
LINE
8
Black
10
56.2857
20
-8.95714
11
56
21
-9.1
0
LINE
8
Black
10
56
20
-9.1
11
55.8571
21
-9.24286
0
LINE
8
Black
10
59
20
-10.9571
11
58.7143
21
-10.8143
0
LINE
8
Black
10
58.7143
20
-10.8143
11
58.5714
21
-10.6714
0
LINE
8
Black
10
58.5714
20
-10.6714
11
58.4286
21
-10.3857
0
LINE
8
Black
10
58.4286
20
-10.3857
11
58.4286
21
-9.52857
0
LINE
8
Black
10
58.4286
20
-9.52857
11
58.5714
21
-9.24286
0
LINE
8
Black
10
58.5714
20
-9.24286
11
58.7143
21
-9.1
0
LINE
8
Black
10
58.7143
20
-9.1
11
59
21
-8.95714
0
LINE
8
Black
10
59
20
-8.95714
11
59.4286
21
-8.95714
0
LINE
8
Black
10
59.4286
20
-8.95714
11
59.7143
21
-9.1
0
LINE
8
Black
10
59.7143
20
-9.1
11
59.8571
21
-9.24286
0
LINE
8
Black
10
59.8571
20
-9.24286
11
60
21
-9.52857
0
LINE
8
Black
10
60
20
-9.52857
11
60
21
-10.3857
0
LINE
8
Black
10
60
20
-10.3857
11
59.8571
21
-10.6714
0
LINE
8
Black
10
59.8571
20
-10.6714
11
59.7143
21
-10.8143
0
LINE
8
Black
10
59.7143
20
-10.8143
11
59.4286
21
-10.9571
0
LINE
8
Black
10
59.4286
20
-10.9571
11
59
21
-10.9571
0
LINE
8
Black
10
61.7143
20
-10.9571
11
61.4286
21
-10.8143
0
LINE
8
Black
10
61.4286
20
-10.8143
11
61.2857
21
-10.5286
0
LINE
8
Black
10
61.2857
20
-10.5286
11
61.2857
21
-7.95714
0
LINE
8
Black
10
64
20
-10.8143
11
63.7143
21
-10.9571
0
LINE
8
Black
10
63.7143
20
-10.9571
11
63.1429
21
-10.9571
0
LINE
8
Black
10
63.1429
20
-10.9571
11
62.8571
21
-10.8143
0
LINE
8
Black
10
62.8571
20
-10.8143
11
62.7143
21
-10.5286
0
LINE
8
Black
10
62.7143
20
-10.5286
11
62.7143
21
-9.38571
0
LINE
8
Black
10
62.7143
20
-9.38571
11
62.8571
21
-9.1
0
LINE
8
Black
10
62.8571
20
-9.1
11
63.1429
21
-8.95714
0
LINE
8
Black
10
63.1429
20
-8.95714
11
63.7143
21
-8.95714
0
LINE
8
Black
10
63.7143
20
-8.95714
11
64
21
-9.1
0
LINE
8
Black
10
64
20
-9.1
11
64.1429
21
-9.38571
0
LINE
8
Black
10
64.1429
20
-9.38571
11
64.1429
21
-9.67143
0
LINE
8
Black
10
64.1429
20
-9.67143
11
62.7143
21
-9.95714
0
LINE
8
Black
10
65.2857
20
-10.8143
11
65.5714
21
-10.9571
0
LINE
8
Black
10
65.5714
20
-10.9571
11
66.1429
21
-10.9571
0
LINE
8
Black
10
66.1429
20
-10.9571
11
66.4286
21
-10.8143
0
LINE
8
Black
10
66.4286
20
-10.8143
11
66.5714
21
-10.5286
0
LINE
8
Black
10
66.5714
20
-10.5286
11
66.5714
21
-10.3857
0
LINE
8
Black
10
66.5714
20
-10.3857
11
66.4286
21
-10.1
0
LINE
8
Black
10
66.4286
20
-10.1
11
66.1429
21
-9.95714
0
LINE
8
Black
10
66.1429
20
-9.95714
11
65.7143
21
-9.95714
0
LINE
8
Black
10
65.7143
20
-9.95714
11
65.4286
21
-9.81429
0
LINE
8
Black
10
65.4286
20
-9.81429
11
65.2857
21
-9.52857
0
LINE
8
Black
10
65.2857
20
-9.52857
11
65.2857
21
-9.38571
0
LINE
8
Black
10
65.2857
20
-9.38571
11
65.4286
21
-9.1
0
LINE
8
Black
10
65.4286
20
-9.1
11
65.7143
21
-8.95714
0
LINE
8
Black
10
65.7143
20
-8.95714
11
66.1429
21
-8.95714
0
LINE
8
Black
10
66.1429
20
-8.95714
11
66.4286
21
-9.1
0
LINE
8
Black
10
67.5714
20
-12.1
11
67.7143
21
-11.9571
0
LINE
8
Black
10
67.7143
20
-11.9571
11
68
21
-11.5286
0
LINE
8
Black
10
68
20
-11.5286
11
68.1429
21
-11.2429
0
LINE
8
Black
10
68.1429
20
-11.2429
11
68.2857
21
-10.8143
0
LINE
8
Black
10
68.2857
20
-10.8143
11
68.4286
21
-10.1
0
LINE
8
Black
10
68.4286
20
-10.1
11
68.4286
21
-9.52857
0
LINE
8
Black
10
68.4286
20
-9.52857
11
68.2857
21
-8.81429
0
LINE
8
Black
10
68.2857
20
-8.81429
11
68.1429
21
-8.38571
0
LINE
8
Black
10
68.1429
20
-8.38571
11
68
21
-8.1
0
LINE
8
Black
10
68
20
-8.1
11
67.7143
21
-7.67143
0
LINE
8
Black
10
67.7143
20
-7.67143
11
67.5714
21
-7.52857
0
CIRCLE
8
Black
10
-0.3
20
-13.56
40
0.3
0
LINE
8
Black
10
3.28571
20
-11.9171
11
3.57143
21
-11.9171
0
LINE
8
Black
10
3.57143
20
-11.9171
11
3.85714
21
-12.06
0
LINE
8
Black
10
3.85714
20
-12.06
11
4
21
-12.2029
0
LINE
8
Black
10
4
20
-12.2029
11
4.14286
21
-12.4886
0
LINE
8
Black
10
4.14286
20
-12.4886
11
4.28571
21
-13.06
0
LINE
8
Black
10
4.28571
20
-13.06
11
4.28571
21
-13.7743
0
LINE
8
Black
10
4.28571
20
-13.7743
11
4.14286
21
-14.3457
0
LINE
8
Black
10
4.14286
20
-14.3457
11
4
21
-14.6314
0
LINE
8
Black
10
4
20
-14.6314
11
3.85714
21
-14.7743
0
LINE
8
Black
10
3.85714
20
-14.7743
11
3.57143
21
-14.9171
0
LINE
8
Black
10
3.57143
20
-14.9171
11
3.28571
21
-14.9171
0
LINE
8
Black
10
3.28571
20
-14.9171
11
3
21
-14.7743
0
LINE
8
Black
10
3
20
-14.7743
11
2.85714
21
-14.6314
0
LINE
8
Black
10
2.85714
20
-14.6314
11
2.71429
21
-14.3457
0
LINE
8
Black
10
2.71429
20
-14.3457
11
2.57143
21
-13.7743
0
LINE
8
Black
10
2.57143
20
-13.7743
11
2.57143
21
-13.06
0
LINE
8
Black
10
2.57143
20
-13.06
11
2.71429
21
-12.4886
0
LINE
8
Black
10
2.71429
20
-12.4886
11
2.85714
21
-12.2029
0
LINE
8
Black
10
2.85714
20
-12.2029
11
3
21
-12.06
0
LINE
8
Black
10
3
20
-12.06
11
3.28571
21
-11.9171
0
LINE
8
Black
10
5.57143
20
-14.6314
11
5.71429
21
-14.7743
0
LINE
8
Black
10
5.71429
20
-14.7743
11
5.57143
21
-14.9171
0
LINE
8
Black
10
5.57143
20
-14.9171
11
5.42857
21
-14.7743
0
LINE
8
Black
10
5.42857
20
-14.7743
11
5.57143
21
-14.6314
0
LINE
8
Black
10
5.57143
20
-14.6314
11
5.57143
21
-14.9171
0
LINE
8
Black
10
8.28571
20
-11.9171
11
7.71428
21
-11.9171
0
LINE
8
Black
10
7.71428
20
-11.9171
11
7.42857
21
-12.06
0
LINE
8
Black
10
7.42857
20
-12.06
11
7.28571
21
-12.2029
0
LINE
8
Black
10
7.28571
20
-12.2029
11
7
21
-12.6314
0
LINE
8
Black
10
7
20
-12.6314
11
6.85714
21
-13.2029
0
LINE
8
Black
10
6.85714
20
-13.2029
11
6.85714
21
-14.3457
0
LINE
8
Black
10
6.85714
20
-14.3457
11
7
21
-14.6314
0
LINE
8
Black
10
7
20
-14.6314
11
7.14286
21
-14.7743
0
LINE
8
Black
10
7.14286
20
-14.7743
11
7.42857
21
-14.9171
0
LINE
8
Black
10
7.42857
20
-14.9171
11
8
21
-14.9171
0
LINE
8
Black
10
8
20
-14.9171
11
8.28571
21
-14.7743
0
LINE
8
Black
10
8.28571
20
-14.7743
11
8.42857
21
-14.6314
0
LINE
8
Black
10
8.42857
20
-14.6314
11
8.57143
21
-14.3457
0
LINE
8
Black
10
8.57143
20
-14.3457
11
8.57143
21
-13.6314
0
LINE
8
Black
10
8.57143
20
-13.6314
11
8.42857
21
-13.3457
0
LINE
8
Black
10
8.42857
20
-13.3457
11
8.28571
21
-13.2029
0
LINE
8
Black
10
8.28571
20
-13.2029
11
8
21
-13.06
0
LINE
8
Black
10
8
20
-13.06
11
7.42857
21
-13.06
0
LINE
8
Black
10
7.42857
20
-13.06
11
7.14286
21
-13.2029
0
LINE
8
Black
10
7.14286
20
-13.2029
11
7
21
-13.3457
0
LINE
8
Black
10
7
20
-13.3457
11
6.85714
21
-13.6314
0
LINE
8
Black
10
10.4286
20
-11.9171
11
10.7143
21
-11.9171
0
LINE
8
Black
10
10.7143
20
-11.9171
11
11
21
-12.06
0
LINE
8
Black
10
11
20
-12.06
11
11.1429
21
-12.2029
0
LINE
8
Black
10
11.1429
20
-12.2029
11
11.2857
21
-12.4886
0
LINE
8
Black
10
11.2857
20
-12.4886
11
11.4286
21
-13.06
0
LINE
8
Black
10
11.4286
20
-13.06
11
11.4286
21
-13.7743
0
LINE
8
Black
10
11.4286
20
-13.7743
11
11.2857
21
-14.3457
0
LINE
8
Black
10
11.2857
20
-14.3457
11
11.1429
21
-14.6314
0
LINE
8
Black
10
11.1429
20
-14.6314
11
11
21
-14.7743
0
LINE
8
Black
10
11
20
-14.7743
11
10.7143
21
-14.9171
0
LINE
8
Black
10
10.7143
20
-14.9171
11
10.4286
21
-14.9171
0
LINE
8
Black
10
10.4286
20
-14.9171
11
10.1429
21
-14.7743
0
LINE
8
Black
10
10.1429
20
-14.7743
11
10
21
-14.6314
0
LINE
8
Black
10
10
20
-14.6314
11
9.85714
21
-14.3457
0
LINE
8
Black
10
9.85714
20
-14.3457
11
9.71429
21
-13.7743
0
LINE
8
Black
10
9.71429
20
-13.7743
11
9.71429
21
-13.06
0
LINE
8
Black
10
9.71429
20
-13.06
11
9.85714
21
-12.4886
0
LINE
8
Black
10
9.85714
20
-12.4886
11
10
21
-12.2029
0
LINE
8
Black
10
10
20
-12.2029
11
10.1429
21
-12.06
0
LINE
8
Black
10
10.1429
20
-12.06
11
10.4286
21
-11.9171
0
LINE
8
Black
10
12.7143
20
-14.9171
11
12.7143
21
-12.9171
0
LINE
8
Black
10
12.7143
20
-13.2029
11
12.8571
21
-13.06
0
LINE
8
Black
10
12.8571
20
-13.06
11
13.1429
21
-12.9171
0
LINE
8
Black
10
13.1429
20
-12.9171
11
13.5714
21
-12.9171
0
LINE
8
Black
10
13.5714
20
-12.9171
11
13.8571
21
-13.06
0
LINE
8
Black
10
13.8571
20
-13.06
11
14
21
-13.3457
0
LINE
8
Black
10
14
20
-13.3457
11
14
21
-14.9171
0
LINE
8
Black
10
14
20
-13.3457
11
14.1429
21
-13.06
0
LINE
8
Black
10
14.1429
20
-13.06
11
14.4286
21
-12.9171
0
LINE
8
Black
10
14.4286
20
-12.9171
11
14.8571
21
-12.9171
0
LINE
8
Black
10
14.8571
20
-12.9171
11
15.1429
21
-13.06
0
LINE
8
Black
10
15.1429
20
-13.06
11
15.2857
21
-13.3457
0
LINE
8
Black
10
15.2857
20
-13.3457
11
15.2857
21
-14.9171
0
LINE
8
Black
10
16.7143
20
-14.9171
11
16.7143
21
-12.9171
0
LINE
8
Black
10
16.7143
20
-13.2029
11
16.8571
21
-13.06
0
LINE
8
Black
10
16.8571
20
-13.06
11
17.1429
21
-12.9171
0
LINE
8
Black
10
17.1429
20
-12.9171
11
17.5714
21
-12.9171
0
LINE
8
Black
10
17.5714
20
-12.9171
11
17.8571
21
-13.06
0
LINE
8
Black
10
17.8571
20
-13.06
11
18
21
-13.3457
0
LINE
8
Black
10
18
20
-13.3457
11
18
21
-14.9171
0
LINE
8
Black
10
18
20
-13.3457
11
18.1429
21
-13.06
0
LINE
8
Black
10
18.1429
20
-13.06
11
18.4286
21
-12.9171
0
LINE
8
Black
10
18.4286
20
-12.9171
11
18.8571
21
-12.9171
0
LINE
8
Black
10
18.8571
20
-12.9171
11
19.1429
21
-13.06
0
LINE
8
Black
10
19.1429
20
-13.06
11
19.2857
21
-13.3457
0
LINE
8
Black
10
19.2857
20
-13.3457
11
19.2857
21
-14.9171
0
LINE
8
Black
10
25.1429
20
-11.7743
11
22.5714
21
-15.6314
0
LINE
8
Black
10
29
20
-11.9171
11
29.2857
21
-11.9171
0
LINE
8
Black
10
29.2857
20
-11.9171
11
29.5714
21
-12.06
0
LINE
8
Black
10
29.5714
20
-12.06
11
29.7143
21
-12.2029
0
LINE
8
Black
10
29.7143
20
-12.2029
11
29.8571
21
-12.4886
0
LINE
8
Black
10
29.8571
20
-12.4886
11
30
21
-13.06
0
LINE
8
Black
10
30
20
-13.06
11
30
21
-13.7743
0
LINE
8
Black
10
30
20
-13.7743
11
29.8571
21
-14.3457
0
LINE
8
Black
10
29.8571
20
-14.3457
11
29.7143
21
-14.6314
0
LINE
8
Black
10
29.7143
20
-14.6314
11
29.5714
21
-14.7743
0
LINE
8
Black
10
29.5714
20
-14.7743
11
29.2857
21
-14.9171
0
LINE
8
Black
10
29.2857
20
-14.9171
11
29
21
-14.9171
0
LINE
8
Black
10
29
20
-14.9171
11
28.7143
21
-14.7743
0
LINE
8
Black
10
28.7143
20
-14.7743
11
28.5714
21
-14.6314
0
LINE
8
Black
10
28.5714
20
-14.6314
11
28.4286
21
-14.3457
0
LINE
8
Black
10
28.4286
20
-14.3457
11
28.2857
21
-13.7743
0
LINE
8
Black
10
28.2857
20
-13.7743
11
28.2857
21
-13.06
0
LINE
8
Black
10
28.2857
20
-13.06
11
28.4286
21
-12.4886
0
LINE
8
Black
10
28.4286
20
-12.4886
11
28.5714
21
-12.2029
0
LINE
8
Black
10
28.5714
20
-12.2029
11
28.7143
21
-12.06
0
LINE
8
Black
10
28.7143
20
-12.06
11
29
21
-11.9171
0
LINE
8
Black
10
31.2857
20
-14.6314
11
31.4286
21
-14.7743
0
LINE
8
Black
10
31.4286
20
-14.7743
11
31.2857
21
-14.9171
0
LINE
8
Black
10
31.2857
20
-14.9171
11
31.1429
21
-14.7743
0
LINE
8
Black
10
31.1429
20
-14.7743
11
31.2857
21
-14.6314
0
LINE
8
Black
10
31.2857
20
-14.6314
11
31.2857
21
-14.9171
0
LINE
8
Black
10
33.2857
20
-11.9171
11
33.5714
21
-11.9171
0
LINE
8
Black
10
33.5714
20
-11.9171
11
33.8571
21
-12.06
0
LINE
8
Black
10
33.8571
20
-12.06
11
34
21
-12.2029
0
LINE
8
Black
10
34
20
-12.2029
11
34.1429
21
-12.4886
0
LINE
8
Black
10
34.1429
20
-12.4886
11
34.2857
21
-13.06
0
LINE
8
Black
10
34.2857
20
-13.06
11
34.2857
21
-13.7743
0
LINE
8
Black
10
34.2857
20
-13.7743
11
34.1429
21
-14.3457
0
LINE
8
Black
10
34.1429
20
-14.3457
11
34
21
-14.6314
0
LINE
8
Black
10
34
20
-14.6314
11
33.8571
21
-14.7743
0
LINE
8
Black
10
33.8571
20
-14.7743
11
33.5714
21
-14.9171
0
LINE
8
Black
10
33.5714
20
-14.9171
11
33.2857
21
-14.9171
0
LINE
8
Black
10
33.2857
20
-14.9171
11
33
21
-14.7743
0
LINE
8
Black
10
33
20
-14.7743
11
32.8571
21
-14.6314
0
LINE
8
Black
10
32.8571
20
-14.6314
11
32.7143
21
-14.3457
0
LINE
8
Black
10
32.7143
20
-14.3457
11
32.5714
21
-13.7743
0
LINE
8
Black
10
32.5714
20
-13.7743
11
32.5714
21
-13.06
0
LINE
8
Black
10
32.5714
20
-13.06
11
32.7143
21
-12.4886
0
LINE
8
Black
10
32.7143
20
-12.4886
11
32.8571
21
-12.2029
0
LINE
8
Black
10
32.8571
20
-12.2029
11
33
21
-12.06
0
LINE
8
Black
10
33
20
-12.06
11
33.2857
21
-11.9171
0
LINE
8
Black
10
35.4286
20
-12.2029
11
35.5714
21
-12.06
0
LINE
8
Black
10
35.5714
20
-12.06
11
35.8571
21
-11.9171
0
LINE
8
Black
10
35.8571
20
-11.9171
11
36.5714
21
-11.9171
0
LINE
8
Black
10
36.5714
20
-11.9171
11
36.8571
21
-12.06
0
LINE
8
Black
10
36.8571
20
-12.06
11
37
21
-12.2029
0
LINE
8
Black
10
37
20
-12.2029
11
37.1429
21
-12.4886
0
LINE
8
Black
10
37.1429
20
-12.4886
11
37.1429
21
-12.7743
0
LINE
8
Black
10
37.1429
20
-12.7743
11
37
21
-13.2029
0
LINE
8
Black
10
37
20
-13.2029
11
35.2857
21
-14.9171
0
LINE
8
Black
10
35.2857
20
-14.9171
11
37.1429
21
-14.9171
0
LINE
8
Black
10
39.7143
20
-12.9171
11
39.7143
21
-14.9171
0
LINE
8
Black
10
39
20
-11.7743
11
38.2857
21
-13.9171
0
LINE
8
Black
10
38.2857
20
-13.9171
11
40.1429
21
-13.9171
0
LINE
8
Black
10
41.1429
20
-11.9171
11
41.1429
21
-12.4886
0
LINE
8
Black
10
42.2857
20
-11.9171
11
42.2857
21
-12.4886
0
LINE
8
Black
10
46.7143
20
-16.06
11
46.5714
21
-15.9171
0
LINE
8
Black
10
46.5714
20
-15.9171
11
46.2857
21
-15.4886
0
LINE
8
Black
10
46.2857
20
-15.4886
11
46.1429
21
-15.2029
0
LINE
8
Black
10
46.1429
20
-15.2029
11
46
21
-14.7743
0
LINE
8
Black
10
46
20
-14.7743
11
45.8571
21
-14.06
0
LINE
8
Black
10
45.8571
20
-14.06
11
45.8571
21
-13.4886
0
LINE
8
Black
10
45.8571
20
-13.4886
11
46
21
-12.7743
0
LINE
8
Black
10
46
20
-12.7743
11
46.1429
21
-12.3457
0
LINE
8
Black
10
46.1429
20
-12.3457
11
46.2857
21
-12.06
0
LINE
8
Black
10
46.2857
20
-12.06
11
46.5714
21
-11.6314
0
LINE
8
Black
10
46.5714
20
-11.6314
11
46.7143
21
-11.4886
0
LINE
8
Black
10
48.4286
20
-11.9171
11
48.7143
21
-11.9171
0
LINE
8
Black
10
48.7143
20
-11.9171
11
49
21
-12.06
0
LINE
8
Black
10
49
20
-12.06
11
49.1429
21
-12.2029
0
LINE
8
Black
10
49.1429
20
-12.2029
11
49.2857
21
-12.4886
0
LINE
8
Black
10
49.2857
20
-12.4886
11
49.4286
21
-13.06
0
LINE
8
Black
10
49.4286
20
-13.06
11
49.4286
21
-13.7743
0
LINE
8
Black
10
49.4286
20
-13.7743
11
49.2857
21
-14.3457
0
LINE
8
Black
10
49.2857
20
-14.3457
11
49.1429
21
-14.6314
0
LINE
8
Black
10
49.1429
20
-14.6314
11
49
21
-14.7743
0
LINE
8
Black
10
49
20
-14.7743
11
48.7143
21
-14.9171
0
LINE
8
Black
10
48.7143
20
-14.9171
11
48.4286
21
-14.9171
0
LINE
8
Black
10
48.4286
20
-14.9171
11
48.1429
21
-14.7743
0
LINE
8
Black
10
48.1429
20
-14.7743
11
48
21
-14.6314
0
LINE
8
Black
10
48
20
-14.6314
11
47.8571
21
-14.3457
0
LINE
8
Black
10
47.8571
20
-14.3457
11
47.7143
21
-13.7743
0
LINE
8
Black
10
47.7143
20
-13.7743
11
47.7143
21
-13.06
0
LINE
8
Black
10
47.7143
20
-13.06
11
47.8571
21
-12.4886
0
LINE
8
Black
10
47.8571
20
-12.4886
11
48
21
-12.2029
0
LINE
8
Black
10
48
20
-12.2029
11
48.1429
21
-12.06
0
LINE
8
Black
10
48.1429
20
-12.06
11
48.4286
21
-11.9171
0
LINE
8
Black
10
53
20
-14.9171
11
53
21
-11.9171
0
LINE
8
Black
10
54.2857
20
-14.9171
11
54.2857
21
-13.3457
0
LINE
8
Black
10
54.2857
20
-13.3457
11
54.1429
21
-13.06
0
LINE
8
Black
10
54.1429
20
-13.06
11
53.8571
21
-12.9171
0
LINE
8
Black
10
53.8571
20
-12.9171
11
53.4286
21
-12.9171
0
LINE
8
Black
10
53.4286
20
-12.9171
11
53.1429
21
-13.06
0
LINE
8
Black
10
53.1429
20
-13.06
11
53
21
-13.2029
0
LINE
8
Black
10
56.1429
20
-14.9171
11
55.8571
21
-14.7743
0
LINE
8
Black
10
55.8571
20
-14.7743
11
55.7143
21
-14.6314
0
LINE
8
Black
10
55.7143
20
-14.6314
11
55.5714
21
-14.3457
0
LINE
8
Black
10
55.5714
20
-14.3457
11
55.5714
21
-13.4886
0
LINE
8
Black
10
55.5714
20
-13.4886
11
55.7143
21
-13.2029
0
LINE
8
Black
10
55.7143
20
-13.2029
11
55.8571
21
-13.06
0
LINE
8
Black
10
55.8571
20
-13.06
11
56.1429
21
-12.9171
0
LINE
8
Black
10
56.1429
20
-12.9171
11
56.5714
21
-12.9171
0
LINE
8
Black
10
56.5714
20
-12.9171
11
56.8571
21
-13.06
0
LINE
8
Black
10
56.8571
20
-13.06
11
57
21
-13.2029
0
LINE
8
Black
10
57
20
-13.2029
11
57.1429
21
-13.4886
0
LINE
8
Black
10
57.1429
20
-13.4886
11
57.1429
21
-14.3457
0
LINE
8
Black
10
57.1429
20
-14.3457
11
57
21
-14.6314
0
LINE
8
Black
10
57
20
-14.6314
11
56.8571
21
-14.7743
0
LINE
8
Black
10
56.8571
20
-14.7743
11
56.5714
21
-14.9171
0
LINE
8
Black
10
56.5714
20
-14.9171
11
56.1429
21
-14.9171
0
LINE
8
Black
10
58.8571
20
-14.9171
11
58.5714
21
-14.7743
0
LINE
8
Black
10
58.5714
20
-14.7743
11
58.4286
21
-14.4886
0
LINE
8
Black
10
58.4286
20
-14.4886
11
58.4286
21
-11.9171
0
LINE
8
Black
10
61.1429
20
-14.7743
11
60.8571
21
-14.9171
0
LINE
8
Black
10
60.8571
20
-14.9171
11
60.2857
21
-14.9171
0
LINE
8
Black
10
60.2857
20
-14.9171
11
60
21
-14.7743
0
LINE
8
Black
10
60
20
-14.7743
11
59.8571
21
-14.4886
0
LINE
8
Black
10
59.8571
20
-14.4886
11
59.8571
21
-13.3457
0
LINE
8
Black
10
59.8571
20
-13.3457
11
60
21
-13.06
0
LINE
8
Black
10
60
20
-13.06
11
60.2857
21
-12.9171
0
LINE
8
Black
10
60.2857
20
-12.9171
11
60.8571
21
-12.9171
0
LINE
8
Black
10
60.8571
20
-12.9171
11
61.1429
21
-13.06
0
LINE
8
Black
10
61.1429
20
-13.06
11
61.2857
21
-13.3457
0
LINE
8
Black
10
61.2857
20
-13.3457
11
61.2857
21
-13.6314
0
LINE
8
Black
10
61.2857
20
-13.6314
11
59.8571
21
-13.9171
0
LINE
8
Black
10
62.4286
20
-14.7743
11
62.7143
21
-14.9171
0
LINE
8
Black
10
62.7143
20
-14.9171
11
63.2857
21
-14.9171
0
LINE
8
Black
10
63.2857
20
-14.9171
11
63.5714
21
-14.7743
0
LINE
8
Black
10
63.5714
20
-14.7743
11
63.7143
21
-14.4886
0
LINE
8
Black
10
63.7143
20
-14.4886
11
63.7143
21
-14.3457
0
LINE
8
Black
10
63.7143
20
-14.3457
11
63.5714
21
-14.06
0
LINE
8
Black
10
63.5714
20
-14.06
11
63.2857
21
-13.9171
0
LINE
8
Black
10
63.2857
20
-13.9171
11
62.8571
21
-13.9171
0
LINE
8
Black
10
62.8571
20
-13.9171
11
62.5714
21
-13.7743
0
LINE
8
Black
10
62.5714
20
-13.7743
11
62.4286
21
-13.4886
0
LINE
8
Black
10
62.4286
20
-13.4886
11
62.4286
21
-13.3457
0
LINE
8
Black
10
62.4286
20
-13.3457
11
62.5714
21
-13.06
0
LINE
8
Black
10
62.5714
20
-13.06
11
62.8571
21
-12.9171
0
LINE
8
Black
10
62.8571
20
-12.9171
11
63.2857
21
-12.9171
0
LINE
8
Black
10
63.2857
20
-12.9171
11
63.5714
21
-13.06
0
LINE
8
Black
10
67.2857
20
-13.7743
11
69.5714
21
-13.7743
0
LINE
8
Black
10
68.4286
20
-14.9171
11
68.4286
21
-12.6314
0
LINE
8
Black
10
73.1429
20
-12.2029
11
73.2857
21
-12.06
0
LINE
8
Black
10
73.2857
20
-12.06
11
73.5714
21
-11.9171
0
LINE
8
Black
10
73.5714
20
-11.9171
11
74.2857
21
-11.9171
0
LINE
8
Black
10
74.2857
20
-11.9171
11
74.5714
21
-12.06
0
LINE
8
Black
10
74.5714
20
-12.06
11
74.7143
21
-12.2029
0
LINE
8
Black
10
74.7143
20
-12.2029
11
74.8571
21
-12.4886
0
LINE
8
Black
10
74.8571
20
-12.4886
11
74.8571
21
-12.7743
0
LINE
8
Black
10
74.8571
20
-12.7743
11
74.7143
21
-13.2029
0
LINE
8
Black
10
74.7143
20
-13.2029
11
73
21
-14.9171
0
LINE
8
Black
10
73
20
-14.9171
11
74.8571
21
-14.9171
0
LINE
8
Black
10
78.2857
20
-14.7743
11
78.5714
21
-14.9171
0
LINE
8
Black
10
78.5714
20
-14.9171
11
79.1429
21
-14.9171
0
LINE
8
Black
10
79.1429
20
-14.9171
11
79.4286
21
-14.7743
0
LINE
8
Black
10
79.4286
20
-14.7743
11
79.5714
21
-14.4886
0
LINE
8
Black
10
79.5714
20
-14.4886
11
79.5714
21
-14.3457
0
LINE
8
Black
10
79.5714
20
-14.3457
11
79.4286
21
-14.06
0
LINE
8
Black
10
79.4286
20
-14.06
11
79.1429
21
-13.9171
0
LINE
8
Black
10
79.1429
20
-13.9171
11
78.7143
21
-13.9171
0
LINE
8
Black
10
78.7143
20
-13.9171
11
78.4286
21
-13.7743
0
LINE
8
Black
10
78.4286
20
-13.7743
11
78.2857
21
-13.4886
0
LINE
8
Black
10
78.2857
20
-13.4886
11
78.2857
21
-13.3457
0
LINE
8
Black
10
78.2857
20
-13.3457
11
78.4286
21
-13.06
0
LINE
8
Black
10
78.4286
20
-13.06
11
78.7143
21
-12.9171
0
LINE
8
Black
10
78.7143
20
-12.9171
11
79.1429
21
-12.9171
0
LINE
8
Black
10
79.1429
20
-12.9171
11
79.4286
21
-13.06
0
LINE
8
Black
10
81.2857
20
-14.9171
11
81
21
-14.7743
0
LINE
8
Black
10
81
20
-14.7743
11
80.8571
21
-14.4886
0
LINE
8
Black
10
80.8571
20
-14.4886
11
80.8571
21
-11.9171
0
LINE
8
Black
10
82.8571
20
-14.9171
11
82.5714
21
-14.7743
0
LINE
8
Black
10
82.5714
20
-14.7743
11
82.4286
21
-14.6314
0
LINE
8
Black
10
82.4286
20
-14.6314
11
82.2857
21
-14.3457
0
LINE
8
Black
10
82.2857
20
-14.3457
11
82.2857
21
-13.4886
0
LINE
8
Black
10
82.2857
20
-13.4886
11
82.4286
21
-13.2029
0
LINE
8
Black
10
82.4286
20
-13.2029
11
82.5714
21
-13.06
0
LINE
8
Black
10
82.5714
20
-13.06
11
82.8571
21
-12.9171
0
LINE
8
Black
10
82.8571
20
-12.9171
11
83.2857
21
-12.9171
0
LINE
8
Black
10
83.2857
20
-12.9171
11
83.5714
21
-13.06
0
LINE
8
Black
10
83.5714
20
-13.06
11
83.7143
21
-13.2029
0
LINE
8
Black
10
83.7143
20
-13.2029
11
83.8571
21
-13.4886
0
LINE
8
Black
10
83.8571
20
-13.4886
11
83.8571
21
-14.3457
0
LINE
8
Black
10
83.8571
20
-14.3457
11
83.7143
21
-14.6314
0
LINE
8
Black
10
83.7143
20
-14.6314
11
83.5714
21
-14.7743
0
LINE
8
Black
10
83.5714
20
-14.7743
11
83.2857
21
-14.9171
0
LINE
8
Black
10
83.2857
20
-14.9171
11
82.8571
21
-14.9171
0
LINE
8
Black
10
84.7143
20
-12.9171
11
85.8571
21
-12.9171
0
LINE
8
Black
10
85.1429
20
-11.9171
11
85.1429
21
-14.4886
0
LINE
8
Black
10
85.1429
20
-14.4886
11
85.2857
21
-14.7743
0
LINE
8
Black
10
85.2857
20
-14.7743
11
85.5714
21
-14.9171
0
LINE
8
Black
10
85.5714
20
-14.9171
11
85.8571
21
-14.9171
0
LINE
8
Black
10
86.7143
20
-14.7743
11
87
21
-14.9171
0
LINE
8
Black
10
87
20
-14.9171
11
87.5714
21
-14.9171
0
LINE
8
Black
10
87.5714
20
-14.9171
11
87.8571
21
-14.7743
0
LINE
8
Black
10
87.8571
20
-14.7743
11
88
21
-14.4886
0
LINE
8
Black
10
88
20
-14.4886
11
88
21
-14.3457
0
LINE
8
Black
10
88
20
-14.3457
11
87.8571
21
-14.06
0
LINE
8
Black
10
87.8571
20
-14.06
11
87.5714
21
-13.9171
0
LINE
8
Black
10
87.5714
20
-13.9171
11
87.1429
21
-13.9171
0
LINE
8
Black
10
87.1429
20
-13.9171
11
86.8571
21
-13.7743
0
LINE
8
Black
10
86.8571
20
-13.7743
11
86.7143
21
-13.4886
0
LINE
8
Black
10
86.7143
20
-13.4886
11
86.7143
21
-13.3457
0
LINE
8
Black
10
86.7143
20
-13.3457
11
86.8571
21
-13.06
0
LINE
8
Black
10
86.8571
20
-13.06
11
87.1429
21
-12.9171
0
LINE
8
Black
10
87.1429
20
-12.9171
11
87.5714
21
-12.9171
0
LINE
8
Black
10
87.5714
20
-12.9171
11
87.8571
21
-13.06
0
LINE
8
Black
10
89
20
-16.06
11
89.1429
21
-15.9171
0
LINE
8
Black
10
89.1429
20
-15.9171
11
89.4286
21
-15.4886
0
LINE
8
Black
10
89.4286
20
-15.4886
11
89.5714
21
-15.2029
0
LINE
8
Black
10
89.5714
20
-15.2029
11
89.7143
21
-14.7743
0
LINE
8
Black
10
89.7143
20
-14.7743
11
89.8571
21
-14.06
0
LINE
8
Black
10
89.8571
20
-14.06
11
89.8571
21
-13.4886
0
LINE
8
Black
10
89.8571
20
-13.4886
11
89.7143
21
-12.7743
0
LINE
8
Black
10
89.7143
20
-12.7743
11
89.5714
21
-12.3457
0
LINE
8
Black
10
89.5714
20
-12.3457
11
89.4286
21
-12.06
0
LINE
8
Black
10
89.4286
20
-12.06
11
89.1429
21
-11.6314
0
LINE
8
Black
10
89.1429
20
-11.6314
11
89
21
-11.4886
0
LINE
8
Black
10
-0.381
20
-17.139
11
-0.381
21
-17.901
0
LINE
8
Black
10
-0.762
20
-17.52
11
0
21
-17.52
0
LINE
8
Black
10
3.28571
20
-15.8771
11
3.57143
21
-15.8771
0
LINE
8
Black
10
3.57143
20
-15.8771
11
3.85714
21
-16.02
0
LINE
8
Black
10
3.85714
20
-16.02
11
4
21
-16.1629
0
LINE
8
Black
10
4
20
-16.1629
11
4.14286
21
-16.4486
0
LINE
8
Black
10
4.14286
20
-16.4486
11
4.28571
21
-17.02
0
LINE
8
Black
10
4.28571
20
-17.02
11
4.28571
21
-17.7343
0
LINE
8
Black
10
4.28571
20
-17.7343
11
4.14286
21
-18.3057
0
LINE
8
Black
10
4.14286
20
-18.3057
11
4
21
-18.5914
0
LINE
8
Black
10
4
20
-18.5914
11
3.85714
21
-18.7343
0
LINE
8
Black
10
3.85714
20
-18.7343
11
3.57143
21
-18.8771
0
LINE
8
Black
10
3.57143
20
-18.8771
11
3.28571
21
-18.8771
0
LINE
8
Black
10
3.28571
20
-18.8771
11
3
21
-18.7343
0
LINE
8
Black
10
3
20
-18.7343
11
2.85714
21
-18.5914
0
LINE
8
Black
10
2.85714
20
-18.5914
11
2.71429
21
-18.3057
0
LINE
8
Black
10
2.71429
20
-18.3057
11
2.57143
21
-17.7343
0
LINE
8
Black
10
2.57143
20
-17.7343
11
2.57143
21
-17.02
0
LINE
8
Black
10
2.57143
20
-17.02
11
2.71429
21
-16.4486
0
LINE
8
Black
10
2.71429
20
-16.4486
11
2.85714
21
-16.1629
0
LINE
8
Black
10
2.85714
20
-16.1629
11
3
21
-16.02
0
LINE
8
Black
10
3
20
-16.02
11
3.28571
21
-15.8771
0
LINE
8
Black
10
5.57143
20
-18.5914
11
5.71429
21
-18.7343
0
LINE
8
Black
10
5.71429
20
-18.7343
11
5.57143
21
-18.8771
0
LINE
8
Black
10
5.57143
20
-18.8771
11
5.42857
21
-18.7343
0
LINE
8
Black
10
5.42857
20
-18.7343
11
5.57143
21
-18.5914
0
LINE
8
Black
10
5.57143
20
-18.5914
11
5.57143
21
-18.8771
0
LINE
8
Black
10
6.71428
20
-15.8771
11
8.71429
21
-15.8771
0
LINE
8
Black
10
8.71429
20
-15.8771
11
7.42857
21
-18.8771
0
LINE
8
Black
10
11.1429
20
-15.8771
11
10.5714
21
-15.8771
0
LINE
8
Black
10
10.5714
20
-15.8771
11
10.2857
21
-16.02
0
LINE
8
Black
10
10.2857
20
-16.02
11
10.1429
21
-16.1629
0
LINE
8
Black
10
10.1429
20
-16.1629
11
9.85714
21
-16.5914
0
LINE
8
Black
10
9.85714
20
-16.5914
11
9.71429
21
-17.1629
0
LINE
8
Black
10
9.71429
20
-17.1629
11
9.71429
21
-18.3057
0
LINE
8
Black
10
9.71429
20
-18.3057
11
9.85714
21
-18.5914
0
LINE
8
Black
10
9.85714
20
-18.5914
11
10
21
-18.7343
0
LINE
8
Black
10
10
20
-18.7343
11
10.2857
21
-18.8771
0
LINE
8
Black
10
10.2857
20
-18.8771
11
10.8571
21
-18.8771
0
LINE
8
Black
10
10.8571
20
-18.8771
11
11.1429
21
-18.7343
0
LINE
8
Black
10
11.1429
20
-18.7343
11
11.2857
21
-18.5914
0
LINE
8
Black
10
11.2857
20
-18.5914
11
11.4286
21
-18.3057
0
LINE
8
Black
10
11.4286
20
-18.3057
11
11.4286
21
-17.5914
0
LINE
8
Black
10
11.4286
20
-17.5914
11
11.2857
21
-17.3057
0
LINE
8
Black
10
11.2857
20
-17.3057
11
11.1429
21
-17.1629
0
LINE
8
Black
10
11.1429
20
-17.1629
11
10.8571
21
-17.02
0
LINE
8
Black
10
10.8571
20
-17.02
11
10.2857
21
-17.02
0
LINE
8
Black
10
10.2857
20
-17.02
11
10
21
-17.1629
0
LINE
8
Black
10
10
20
-17.1629
11
9.85714
21
-17.3057
0
LINE
8
Black
10
9.85714
20
-17.3057
11
9.71429
21
-17.5914
0
LINE
8
Black
10
12.7143
20
-18.8771
11
12.7143
21
-16.8771
0
LINE
8
Black
10
12.7143
20
-17.1629
11
12.8571
21
-17.02
0
LINE
8
Black
10
12.8571
20
-17.02
11
13.1429
21
-16.8771
0
LINE
8
Black
10
13.1429
20
-16.8771
11
13.5714
21
-16.8771
0
LINE
8
Black
10
13.5714
20
-16.8771
11
13.8571
21
-17.02
0
LINE
8
Black
10
13.8571
20
-17.02
11
14
21
-17.3057
0
LINE
8
Black
10
14
20
-17.3057
11
14
21
-18.8771
0
LINE
8
Black
10
14
20
-17.3057
11
14.1429
21
-17.02
0
LINE
8
Black
10
14.1429
20
-17.02
11
14.4286
21
-16.8771
0
LINE
8
Black
10
14.4286
20
-16.8771
11
14.8571
21
-16.8771
0
LINE
8
Black
10
14.8571
20
-16.8771
11
15.1429
21
-17.02
0
LINE
8
Black
10
15.1429
20
-17.02
11
15.2857
21
-17.3057
0
LINE
8
Black
10
15.2857
20
-17.3057
11
15.2857
21
-18.8771
0
LINE
8
Black
10
16.7143
20
-18.8771
11
16.7143
21
-16.8771
0
LINE
8
Black
10
16.7143
20
-17.1629
11
16.8571
21
-17.02
0
LINE
8
Black
10
16.8571
20
-17.02
11
17.1429
21
-16.8771
0
LINE
8
Black
10
17.1429
20
-16.8771
11
17.5714
21
-16.8771
0
LINE
8
Black
10
17.5714
20
-16.8771
11
17.8571
21
-17.02
0
LINE
8
Black
10
17.8571
20
-17.02
11
18
21
-17.3057
0
LINE
8
Black
10
18
20
-17.3057
11
18
21
-18.8771
0
LINE
8
Black
10
18
20
-17.3057
11
18.1429
21
-17.02
0
LINE
8
Black
10
18.1429
20
-17.02
11
18.4286
21
-16.8771
0
LINE
8
Black
10
18.4286
20
-16.8771
11
18.8571
21
-16.8771
0
LINE
8
Black
10
18.8571
20
-16.8771
11
19.1429
21
-17.02
0
LINE
8
Black
10
19.1429
20
-17.02
11
19.2857
21
-17.3057
0
LINE
8
Black
10
19.2857
20
-17.3057
11
19.2857
21
-18.8771
0
LINE
8
Black
10
25.1429
20
-15.7343
11
22.5714
21
-19.5914
0
LINE
8
Black
10
29
20
-15.8771
11
29.2857
21
-15.8771
0
LINE
8
Black
10
29.2857
20
-15.8771
11
29.5714
21
-16.02
0
LINE
8
Black
10
29.5714
20
-16.02
11
29.7143
21
-16.1629
0
LINE
8
Black
10
29.7143
20
-16.1629
11
29.8571
21
-16.4486
0
LINE
8
Black
10
29.8571
20
-16.4486
11
30
21
-17.02
0
LINE
8
Black
10
30
20
-17.02
11
30
21
-17.7343
0
LINE
8
Black
10
30
20
-17.7343
11
29.8571
21
-18.3057
0
LINE
8
Black
10
29.8571
20
-18.3057
11
29.7143
21
-18.5914
0
LINE
8
Black
10
29.7143
20
-18.5914
11
29.5714
21
-18.7343
0
LINE
8
Black
10
29.5714
20
-18.7343
11
29.2857
21
-18.8771
0
LINE
8
Black
10
29.2857
20
-18.8771
11
29
21
-18.8771
0
LINE
8
Black
10
29
20
-18.8771
11
28.7143
21
-18.7343
0
LINE
8
Black
10
28.7143
20
-18.7343
11
28.5714
21
-18.5914
0
LINE
8
Black
10
28.5714
20
-18.5914
11
28.4286
21
-18.3057
0
LINE
8
Black
10
28.4286
20
-18.3057
11
28.2857
21
-17.7343
0
LINE
8
Black
10
28.2857
20
-17.7343
11
28.2857
21
-17.02
0
LINE
8
Black
10
28.2857
20
-17.02
11
28.4286
21
-16.4486
0
LINE
8
Black
10
28.4286
20
-16.4486
11
28.5714
21
-16.1629
0
LINE
8
Black
10
28.5714
20
-16.1629
11
28.7143
21
-16.02
0
LINE
8
Black
10
28.7143
20
-16.02
11
29
21
-15.8771
0
LINE
8
Black
10
31.2857
20
-18.5914
11
31.4286
21
-18.7343
0
LINE
8
Black
10
31.4286
20
-18.7343
11
31.2857
21
-18.8771
0
LINE
8
Black
10
31.2857
20
-18.8771
11
31.1429
21
-18.7343
0
LINE
8
Black
10
31.1429
20
-18.7343
11
31.2857
21
-18.5914
0
LINE
8
Black
10
31.2857
20
-18.5914
11
31.2857
21
-18.8771
0
LINE
8
Black
10
33.2857
20
-15.8771
11
33.5714
21
-15.8771
0
LINE
8
Black
10
33.5714
20
-15.8771
11
33.8571
21
-16.02
0
LINE
8
Black
10
33.8571
20
-16.02
11
34
21
-16.1629
0
LINE
8
Black
10
34
20
-16.1629
11
34.1429
21
-16.4486
0
LINE
8
Black
10
34.1429
20
-16.4486
11
34.2857
21
-17.02
0
LINE
8
Black
10
34.2857
20
-17.02
11
34.2857
21
-17.7343
0
LINE
8
Black
10
34.2857
20
-17.7343
11
34.1429
21
-18.3057
0
LINE
8
Black
10
34.1429
20
-18.3057
11
34
21
-18.5914
0
LINE
8
Black
10
34
20
-18.5914
11
33.8571
21
-18.7343
0
LINE
8
Black
10
33.8571
20
-18.7343
11
33.5714
21
-18.8771
0
LINE
8
Black
10
33.5714
20
-18.8771
11
33.2857
21
-18.8771
0
LINE
8
Black
10
33.2857
20
-18.8771
11
33
21
-18.7343
0
LINE
8
Black
10
33
20
-18.7343
11
32.8571
21
-18.5914
0
LINE
8
Black
10
32.8571
20
-18.5914
11
32.7143
21
-18.3057
0
LINE
8
Black
10
32.7143
20
-18.3057
11
32.5714
21
-17.7343
0
LINE
8
Black
10
32.5714
20
-17.7343
11
32.5714
21
-17.02
0
LINE
8
Black
10
32.5714
20
-17.02
11
32.7143
21
-16.4486
0
LINE
8
Black
10
32.7143
20
-16.4486
11
32.8571
21
-16.1629
0
LINE
8
Black
10
32.8571
20
-16.1629
11
33
21
-16.02
0
LINE
8
Black
10
33
20
-16.02
11
33.2857
21
-15.8771
0
LINE
8
Black
10
35.2857
20
-15.8771
11
37.1429
21
-15.8771
0
LINE
8
Black
10
37.1429
20
-15.8771
11
36.1429
21
-17.02
0
LINE
8
Black
10
36.1429
20
-17.02
11
36.5714
21
-17.02
0
LINE
8
Black
10
36.5714
20
-17.02
11
36.8571
21
-17.1629
0
LINE
8
Black
10
36.8571
20
-17.1629
11
37
21
-17.3057
0
LINE
8
Black
10
37
20
-17.3057
11
37.1429
21
-17.5914
0
LINE
8
Black
10
37.1429
20
-17.5914
11
37.1429
21
-18.3057
0
LINE
8
Black
10
37.1429
20
-18.3057
11
37
21
-18.5914
0
LINE
8
Black
10
37
20
-18.5914
11
36.8571
21
-18.7343
0
LINE
8
Black
10
36.8571
20
-18.7343
11
36.5714
21
-18.8771
0
LINE
8
Black
10
36.5714
20
-18.8771
11
35.7143
21
-18.8771
0
LINE
8
Black
10
35.7143
20
-18.8771
11
35.4286
21
-18.7343
0
LINE
8
Black
10
35.4286
20
-18.7343
11
35.2857
21
-18.5914
0
LINE
8
Black
10
39
20
-15.8771
11
39.2857
21
-15.8771
0
LINE
8
Black
10
39.2857
20
-15.8771
11
39.5714
21
-16.02
0
LINE
8
Black
10
39.5714
20
-16.02
11
39.7143
21
-16.1629
0
LINE
8
Black
10
39.7143
20
-16.1629
11
39.8571
21
-16.4486
0
LINE
8
Black
10
39.8571
20
-16.4486
11
40
21
-17.02
0
LINE
8
Black
10
40
20
-17.02
11
40
21
-17.7343
0
LINE
8
Black
10
40
20
-17.7343
11
39.8571
21
-18.3057
0
LINE
8
Black
10
39.8571
20
-18.3057
11
39.7143
21
-18.5914
0
LINE
8
Black
10
39.7143
20
-18.5914
11
39.5714
21
-18.7343
0
LINE
8
Black
10
39.5714
20
-18.7343
11
39.2857
21
-18.8771
0
LINE
8
Black
10
39.2857
20
-18.8771
11
39
21
-18.8771
0
LINE
8
Black
10
39
20
-18.8771
11
38.7143
21
-18.7343
0
LINE
8
Black
10
38.7143
20
-18.7343
11
38.5714
21
-18.5914
0
LINE
8
Black
10
38.5714
20
-18.5914
11
38.4286
21
-18.3057
0
LINE
8
Black
10
38.4286
20
-18.3057
11
38.2857
21
-17.7343
0
LINE
8
Black
10
38.2857
20
-17.7343
11
38.2857
21
-17.02
0
LINE
8
Black
10
38.2857
20
-17.02
11
38.4286
21
-16.4486
0
LINE
8
Black
10
38.4286
20
-16.4486
11
38.5714
21
-16.1629
0
LINE
8
Black
10
38.5714
20
-16.1629
11
38.7143
21
-16.02
0
LINE
8
Black
10
38.7143
20
-16.02
11
39
21
-15.8771
0
LINE
8
Black
10
41.1429
20
-15.8771
11
41.1429
21
-16.4486
0
LINE
8
Black
10
42.2857
20
-15.8771
11
42.2857
21
-16.4486
0
LINE
8
Black
10
46.7143
20
-20.02
11
46.5714
21
-19.8771
0
LINE
8
Black
10
46.5714
20
-19.8771
11
46.2857
21
-19.4486
0
LINE
8
Black
10
46.2857
20
-19.4486
11
46.1429
21
-19.1629
0
LINE
8
Black
10
46.1429
20
-19.1629
11
46
21
-18.7343
0
LINE
8
Black
10
46
20
-18.7343
11
45.8571
21
-18.02
0
LINE
8
Black
10
45.8571
20
-18.02
11
45.8571
21
-17.4486
0
LINE
8
Black
10
45.8571
20
-17.4486
11
46
21
-16.7343
0
LINE
8
Black
10
46
20
-16.7343
11
46.1429
21
-16.3057
0
LINE
8
Black
10
46.1429
20
-16.3057
11
46.2857
21
-16.02
0
LINE
8
Black
10
46.2857
20
-16.02
11
46.5714
21
-15.5914
0
LINE
8
Black
10
46.5714
20
-15.5914
11
46.7143
21
-15.4486
0
LINE
8
Black
10
47.5714
20
-15.8771
11
49.4286
21
-15.8771
0
LINE
8
Black
10
49.4286
20
-15.8771
11
48.4286
21
-17.02
0
LINE
8
Black
10
48.4286
20
-17.02
11
48.8571
21
-17.02
0
LINE
8
Black
10
48.8571
20
-17.02
11
49.1429
21
-17.1629
0
LINE
8
Black
10
49.1429
20
-17.1629
11
49.2857
21
-17.3057
0
LINE
8
Black
10
49.2857
20
-17.3057
11
49.4286
21
-17.5914
0
LINE
8
Black
10
49.4286
20
-17.5914
11
49.4286
21
-18.3057
0
LINE
8
Black
10
49.4286
20
-18.3057
11
49.2857
21
-18.5914
0
LINE
8
Black
10
49.2857
20
-18.5914
11
49.1429
21
-18.7343
0
LINE
8
Black
10
49.1429
20
-18.7343
11
48.8571
21
-18.8771
0
LINE
8
Black
10
48.8571
20
-18.8771
11
48
21
-18.8771
0
LINE
8
Black
10
48
20
-18.8771
11
47.7143
21
-18.7343
0
LINE
8
Black
10
47.7143
20
-18.7343
11
47.5714
21
-18.5914
0
LINE
8
Black
10
53
20
-18.8771
11
53
21
-15.8771
0
LINE
8
Black
10
54.2857
20
-18.8771
11
54.2857
21
-17.3057
0
LINE
8
Black
10
54.2857
20
-17.3057
11
54.1429
21
-17.02
0
LINE
8
Black
10
54.1429
20
-17.02
11
53.8571
21
-16.8771
0
LINE
8
Black
10
53.8571
20
-16.8771
11
53.4286
21
-16.8771
0
LINE
8
Black
10
53.4286
20
-16.8771
11
53.1429
21
-17.02
0
LINE
8
Black
10
53.1429
20
-17.02
11
53
21
-17.1629
0
LINE
8
Black
10
56.1429
20
-18.8771
11
55.8571
21
-18.7343
0
LINE
8
Black
10
55.8571
20
-18.7343
11
55.7143
21
-18.5914
0
LINE
8
Black
10
55.7143
20
-18.5914
11
55.5714
21
-18.3057
0
LINE
8
Black
10
55.5714
20
-18.3057
11
55.5714
21
-17.4486
0
LINE
8
Black
10
55.5714
20
-17.4486
11
55.7143
21
-17.1629
0
LINE
8
Black
10
55.7143
20
-17.1629
11
55.8571
21
-17.02
0
LINE
8
Black
10
55.8571
20
-17.02
11
56.1429
21
-16.8771
0
LINE
8
Black
10
56.1429
20
-16.8771
11
56.5714
21
-16.8771
0
LINE
8
Black
10
56.5714
20
-16.8771
11
56.8571
21
-17.02
0
LINE
8
Black
10
56.8571
20
-17.02
11
57
21
-17.1629
0
LINE
8
Black
10
57
20
-17.1629
11
57.1429
21
-17.4486
0
LINE
8
Black
10
57.1429
20
-17.4486
11
57.1429
21
-18.3057
0
LINE
8
Black
10
57.1429
20
-18.3057
11
57
21
-18.5914
0
LINE
8
Black
10
57
20
-18.5914
11
56.8571
21
-18.7343
0
LINE
8
Black
10
56.8571
20
-18.7343
11
56.5714
21
-18.8771
0
LINE
8
Black
10
56.5714
20
-18.8771
11
56.1429
21
-18.8771
0
LINE
8
Black
10
58.8571
20
-18.8771
11
58.5714
21
-18.7343
0
LINE
8
Black
10
58.5714
20
-18.7343
11
58.4286
21
-18.4486
0
LINE
8
Black
10
58.4286
20
-18.4486
11
58.4286
21
-15.8771
0
LINE
8
Black
10
61.1429
20
-18.7343
11
60.8571
21
-18.8771
0
LINE
8
Black
10
60.8571
20
-18.8771
11
60.2857
21
-18.8771
0
LINE
8
Black
10
60.2857
20
-18.8771
11
60
21
-18.7343
0
LINE
8
Black
10
60
20
-18.7343
11
59.8571
21
-18.4486
0
LINE
8
Black
10
59.8571
20
-18.4486
11
59.8571
21
-17.3057
0
LINE
8
Black
10
59.8571
20
-17.3057
11
60
21
-17.02
0
LINE
8
Black
10
60
20
-17.02
11
60.2857
21
-16.8771
0
LINE
8
Black
10
60.2857
20
-16.8771
11
60.8571
21
-16.8771
0
LINE
8
Black
10
60.8571
20
-16.8771
11
61.1429
21
-17.02
0
LINE
8
Black
10
61.1429
20
-17.02
11
61.2857
21
-17.3057
0
LINE
8
Black
10
61.2857
20
-17.3057
11
61.2857
21
-17.5914
0
LINE
8
Black
10
61.2857
20
-17.5914
11
59.8571
21
-17.8771
0
LINE
8
Black
10
62.4286
20
-18.7343
11
62.7143
21
-18.8771
0
LINE
8
Black
10
62.7143
20
-18.8771
11
63.2857
21
-18.8771
0
LINE
8
Black
10
63.2857
20
-18.8771
11
63.5714
21
-18.7343
0
LINE
8
Black
10
63.5714
20
-18.7343
11
63.7143
21
-18.4486
0
LINE
8
Black
10
63.7143
20
-18.4486
11
63.7143
21
-18.3057
0
LINE
8
Black
10
63.7143
20
-18.3057
11
63.5714
21
-18.02
0
LINE
8
Black
10
63.5714
20
-18.02
11
63.2857
21
-17.8771
0
LINE
8
Black
10
63.2857
20
-17.8771
11
62.8571
21
-17.8771
0
LINE
8
Black
10
62.8571
20
-17.8771
11
62.5714
21
-17.7343
0
LINE
8
Black
10
62.5714
20
-17.7343
11
62.4286
21
-17.4486
0
LINE
8
Black
10
62.4286
20
-17.4486
11
62.4286
21
-17.3057
0
LINE
8
Black
10
62.4286
20
-17.3057
11
62.5714
21
-17.02
0
LINE
8
Black
10
62.5714
20
-17.02
11
62.8571
21
-16.8771
0
LINE
8
Black
10
62.8571
20
-16.8771
11
63.2857
21
-16.8771
0
LINE
8
Black
10
63.2857
20
-16.8771
11
63.5714
21
-17.02
0
LINE
8
Black
10
64.7143
20
-20.02
11
64.8571
21
-19.8771
0
LINE
8
Black
10
64.8571
20
-19.8771
11
65.1429
21
-19.4486
0
LINE
8
Black
10
65.1429
20
-19.4486
11
65.2857
21
-19.1629
0
LINE
8
Black
10
65.2857
20
-19.1629
11
65.4286
21
-18.7343
0
LINE
8
Black
10
65.4286
20
-18.7343
11
65.5714
21
-18.02
0
LINE
8
Black
10
65.5714
20
-18.02
11
65.5714
21
-17.4486
0
LINE
8
Black
10
65.5714
20
-17.4486
11
65.4286
21
-16.7343
0
LINE
8
Black
10
65.4286
20
-16.7343
11
65.2857
21
-16.3057
0
LINE
8
Black
10
65.2857
20
-16.3057
11
65.1429
21
-16.02
0
LINE
8
Black
10
65.1429
20
-16.02
11
64.8571
21
-15.5914
0
LINE
8
Black
10
64.8571
20
-15.5914
11
64.7143
21
-15.4486
0
LINE
8
Black
10
-0.124477
20
-21.7805
11
-0.124477
21
-21.1795
0
LINE
8
Black
10
-0.124477
20
-21.1795
11
-0.725523
21
-21.1795
0
LINE
8
Black
10
-0.725523
20
-21.1795
11
-0.725523
21
-21.7805
0
LINE
8
Black
10
-0.725523
20
-21.7805
11
-0.124477
21
-21.7805
0
LINE
8
Black
10
3.28571
20
-19.8371
11
3.57143
21
-19.8371
0
LINE
8
Black
10
3.57143
20
-19.8371
11
3.85714
21
-19.98
0
LINE
8
Black
10
3.85714
20
-19.98
11
4
21
-20.1229
0
LINE
8
Black
10
4
20
-20.1229
11
4.14286
21
-20.4086
0
LINE
8
Black
10
4.14286
20
-20.4086
11
4.28571
21
-20.98
0
LINE
8
Black
10
4.28571
20
-20.98
11
4.28571
21
-21.6943
0
LINE
8
Black
10
4.28571
20
-21.6943
11
4.14286
21
-22.2657
0
LINE
8
Black
10
4.14286
20
-22.2657
11
4
21
-22.5514
0
LINE
8
Black
10
4
20
-22.5514
11
3.85714
21
-22.6943
0
LINE
8
Black
10
3.85714
20
-22.6943
11
3.57143
21
-22.8371
0
LINE
8
Black
10
3.57143
20
-22.8371
11
3.28571
21
-22.8371
0
LINE
8
Black
10
3.28571
20
-22.8371
11
3
21
-22.6943
0
LINE
8
Black
10
3
20
-22.6943
11
2.85714
21
-22.5514
0
LINE
8
Black
10
2.85714
20
-22.5514
11
2.71429
21
-22.2657
0
LINE
8
Black
10
2.71429
20
-22.2657
11
2.57143
21
-21.6943
0
LINE
8
Black
10
2.57143
20
-21.6943
11
2.57143
21
-20.98
0
LINE
8
Black
10
2.57143
20
-20.98
11
2.71429
21
-20.4086
0
LINE
8
Black
10
2.71429
20
-20.4086
11
2.85714
21
-20.1229
0
LINE
8
Black
10
2.85714
20
-20.1229
11
3
21
-19.98
0
LINE
8
Black
10
3
20
-19.98
11
3.28571
21
-19.8371
0
LINE
8
Black
10
5.57143
20
-22.5514
11
5.71429
21
-22.6943
0
LINE
8
Black
10
5.71429
20
-22.6943
11
5.57143
21
-22.8371
0
LINE
8
Black
10
5.57143
20
-22.8371
11
5.42857
21
-22.6943
0
LINE
8
Black
10
5.42857
20
-22.6943
11
5.57143
21
-22.5514
0
LINE
8
Black
10
5.57143
20
-22.5514
11
5.57143
21
-22.8371
0
LINE
8
Black
10
7.42857
20
-21.1229
11
7.14286
21
-20.98
0
LINE
8
Black
10
7.14286
20
-20.98
11
7
21
-20.8371
0
LINE
8
Black
10
7
20
-20.8371
11
6.85714
21
-20.5514
0
LINE
8
Black
10
6.85714
20
-20.5514
11
6.85714
21
-20.4086
0
LINE
8
Black
10
6.85714
20
-20.4086
11
7
21
-20.1229
0
LINE
8
Black
10
7
20
-20.1229
11
7.14286
21
-19.98
0
LINE
8
Black
10
7.14286
20
-19.98
11
7.42857
21
-19.8371
0
LINE
8
Black
10
7.42857
20
-19.8371
11
8
21
-19.8371
0
LINE
8
Black
10
8
20
-19.8371
11
8.28571
21
-19.98
0
LINE
8
Black
10
8.28571
20
-19.98
11
8.42857
21
-20.1229
0
LINE
8
Black
10
8.42857
20
-20.1229
11
8.57143
21
-20.4086
0
LINE
8
Black
10
8.57143
20
-20.4086
11
8.57143
21
-20.5514
0
LINE
8
Black
10
8.57143
20
-20.5514
11
8.42857
21
-20.8371
0
LINE
8
Black
10
8.42857
20
-20.8371
11
8.28571
21
-20.98
0
LINE
8
Black
10
8.28571
20
-20.98
11
8
21
-21.1229
0
LINE
8
Black
10
8
20
-21.1229
11
7.42857
21
-21.1229
0
LINE
8
Black
10
7.42857
20
-21.1229
11
7.14286
21
-21.2657
0
LINE
8
Black
10
7.14286
20
-21.2657
11
7
21
-21.4086
0
LINE
8
Black
10
7
20
-21.4086
11
6.85714
21
-21.6943
0
LINE
8
Black
10
6.85714
20
-21.6943
11
6.85714
21
-22.2657
0
LINE
8
Black
10
6.85714
20
-22.2657
11
7
21
-22.5514
0
LINE
8
Black
10
7
20
-22.5514
11
7.14286
21
-22.6943
0
LINE
8
Black
10
7.14286
20
-22.6943
11
7.42857
21
-22.8371
0
LINE
8
Black
10
7.42857
20
-22.8371
11
8
21
-22.8371
0
LINE
8
Black
10
8
20
-22.8371
11
8.28571
21
-22.6943
0
LINE
8
Black
10
8.28571
20
-22.6943
11
8.42857
21
-22.5514
0
LINE
8
Black
10
8.42857
20
-22.5514
11
8.57143
21
-22.2657
0
LINE
8
Black
10
8.57143
20
-22.2657
11
8.57143
21
-21.6943
0
LINE
8
Black
10
8.57143
20
-21.6943
11
8.42857
21
-21.4086
0
LINE
8
Black
10
8.42857
20
-21.4086
11
8.28571
21
-21.2657
0
LINE
8
Black
10
8.28571
20
-21.2657
11
8
21
-21.1229
0
LINE
8
Black
10
11.2857
20
-19.8371
11
9.85714
21
-19.8371
0
LINE
8
Black
10
9.85714
20
-19.8371
11
9.71429
21
-21.2657
0
LINE
8
Black
10
9.71429
20
-21.2657
11
9.85714
21
-21.1229
0
LINE
8
Black
10
9.85714
20
-21.1229
11
10.1429
21
-20.98
0
LINE
8
Black
10
10.1429
20
-20.98
11
10.8571
21
-20.98
0
LINE
8
Black
10
10.8571
20
-20.98
11
11.1429
21
-21.1229
0
LINE
8
Black
10
11.1429
20
-21.1229
11
11.2857
21
-21.2657
0
LINE
8
Black
10
11.2857
20
-21.2657
11
11.4286
21
-21.5514
0
LINE
8
Black
10
11.4286
20
-21.5514
11
11.4286
21
-22.2657
0
LINE
8
Black
10
11.4286
20
-22.2657
11
11.2857
21
-22.5514
0
LINE
8
Black
10
11.2857
20
-22.5514
11
11.1429
21
-22.6943
0
LINE
8
Black
10
11.1429
20
-22.6943
11
10.8571
21
-22.8371
0
LINE
8
Black
10
10.8571
20
-22.8371
11
10.1429
21
-22.8371
0
LINE
8
Black
10
10.1429
20
-22.8371
11
9.85714
21
-22.6943
0
LINE
8
Black
10
9.85714
20
-22.6943
11
9.71429
21
-22.5514
0
LINE
8
Black
10
12.7143
20
-22.8371
11
12.7143
21
-20.8371
0
LINE
8
Black
10
12.7143
20
-21.1229
11
12.8571
21
-20.98
0
LINE
8
Black
10
12.8571
20
-20.98
11
13.1429
21
-20.8371
0
LINE
8
Black
10
13.1429
20
-20.8371
11
13.5714
21
-20.8371
0
LINE
8
Black
10
13.5714
20
-20.8371
11
13.8571
21
-20.98
0
LINE
8
Black
10
13.8571
20
-20.98
11
14
21
-21.2657
0
LINE
8
Black
10
14
20
-21.2657
11
14
21
-22.8371
0
LINE
8
Black
10
14
20
-21.2657
11
14.1429
21
-20.98
0
LINE
8
Black
10
14.1429
20
-20.98
11
14.4286
21
-20.8371
0
LINE
8
Black
10
14.4286
20
-20.8371
11
14.8571
21
-20.8371
0
LINE
8
Black
10
14.8571
20
-20.8371
11
15.1429
21
-20.98
0
LINE
8
Black
10
15.1429
20
-20.98
11
15.2857
21
-21.2657
0
LINE
8
Black
10
15.2857
20
-21.2657
11
15.2857
21
-22.8371
0
LINE
8
Black
10
16.7143
20
-22.8371
11
16.7143
21
-20.8371
0
LINE
8
Black
10
16.7143
20
-21.1229
11
16.8571
21
-20.98
0
LINE
8
Black
10
16.8571
20
-20.98
11
17.1429
21
-20.8371
0
LINE
8
Black
10
17.1429
20
-20.8371
11
17.5714
21
-20.8371
0
LINE
8
Black
10
17.5714
20
-20.8371
11
17.8571
21
-20.98
0
LINE
8
Black
10
17.8571
20
-20.98
11
18
21
-21.2657
0
LINE
8
Black
10
18
20
-21.2657
11
18
21
-22.8371
0
LINE
8
Black
10
18
20
-21.2657
11
18.1429
21
-20.98
0
LINE
8
Black
10
18.1429
20
-20.98
11
18.4286
21
-20.8371
0
LINE
8
Black
10
18.4286
20
-20.8371
11
18.8571
21
-20.8371
0
LINE
8
Black
10
18.8571
20
-20.8371
11
19.1429
21
-20.98
0
LINE
8
Black
10
19.1429
20
-20.98
11
19.2857
21
-21.2657
0
LINE
8
Black
10
19.2857
20
-21.2657
11
19.2857
21
-22.8371
0
LINE
8
Black
10
25.1429
20
-19.6943
11
22.5714
21
-23.5514
0
LINE
8
Black
10
29
20
-19.8371
11
29.2857
21
-19.8371
0
LINE
8
Black
10
29.2857
20
-19.8371
11
29.5714
21
-19.98
0
LINE
8
Black
10
29.5714
20
-19.98
11
29.7143
21
-20.1229
0
LINE
8
Black
10
29.7143
20
-20.1229
11
29.8571
21
-20.4086
0
LINE
8
Black
10
29.8571
20
-20.4086
11
30
21
-20.98
0
LINE
8
Black
10
30
20
-20.98
11
30
21
-21.6943
0
LINE
8
Black
10
30
20
-21.6943
11
29.8571
21
-22.2657
0
LINE
8
Black
10
29.8571
20
-22.2657
11
29.7143
21
-22.5514
0
LINE
8
Black
10
29.7143
20
-22.5514
11
29.5714
21
-22.6943
0
LINE
8
Black
10
29.5714
20
-22.6943
11
29.2857
21
-22.8371
0
LINE
8
Black
10
29.2857
20
-22.8371
11
29
21
-22.8371
0
LINE
8
Black
10
29
20
-22.8371
11
28.7143
21
-22.6943
0
LINE
8
Black
10
28.7143
20
-22.6943
11
28.5714
21
-22.5514
0
LINE
8
Black
10
28.5714
20
-22.5514
11
28.4286
21
-22.2657
0
LINE
8
Black
10
28.4286
20
-22.2657
11
28.2857
21
-21.6943
0
LINE
8
Black
10
28.2857
20
-21.6943
11
28.2857
21
-20.98
0
LINE
8
Black
10
28.2857
20
-20.98
11
28.4286
21
-20.4086
0
LINE
8
Black
10
28.4286
20
-20.4086
11
28.5714
21
-20.1229
0
LINE
8
Black
10
28.5714
20
-20.1229
11
28.7143
21
-19.98
0
LINE
8
Black
10
28.7143
20
-19.98
11
29
21
-19.8371
0
LINE
8
Black
10
31.2857
20
-22.5514
11
31.4286
21
-22.6943
0
LINE
8
Black
10
31.4286
20
-22.6943
11
31.2857
21
-22.8371
0
LINE
8
Black
10
31.2857
20
-22.8371
11
31.1429
21
-22.6943
0
LINE
8
Black
10
31.1429
20
-22.6943
11
31.2857
21
-22.5514
0
LINE
8
Black
10
31.2857
20
-22.5514
11
31.2857
21
-22.8371
0
LINE
8
Black
10
33.2857
20
-19.8371
11
33.5714
21
-19.8371
0
LINE
8
Black
10
33.5714
20
-19.8371
11
33.8571
21
-19.98
0
LINE
8
Black
10
33.8571
20
-19.98
11
34
21
-20.1229
0
LINE
8
Black
10
34
20
-20.1229
11
34.1429
21
-20.4086
0
LINE
8
Black
10
34.1429
20
-20.4086
11
34.2857
21
-20.98
0
LINE
8
Black
10
34.2857
20
-20.98
11
34.2857
21
-21.6943
0
LINE
8
Black
10
34.2857
20
-21.6943
11
34.1429
21
-22.2657
0
LINE
8
Black
10
34.1429
20
-22.2657
11
34
21
-22.5514
0
LINE
8
Black
10
34
20
-22.5514
11
33.8571
21
-22.6943
0
LINE
8
Black
10
33.8571
20
-22.6943
11
33.5714
21
-22.8371
0
LINE
8
Black
10
33.5714
20
-22.8371
11
33.2857
21
-22.8371
0
LINE
8
Black
10
33.2857
20
-22.8371
11
33
21
-22.6943
0
LINE
8
Black
10
33
20
-22.6943
11
32.8571
21
-22.5514
0
LINE
8
Black
10
32.8571
20
-22.5514
11
32.7143
21
-22.2657
0
LINE
8
Black
10
32.7143
20
-22.2657
11
32.5714
21
-21.6943
0
LINE
8
Black
10
32.5714
20
-21.6943
11
32.5714
21
-20.98
0
LINE
8
Black
10
32.5714
20
-20.98
11
32.7143
21
-20.4086
0
LINE
8
Black
10
32.7143
20
-20.4086
11
32.8571
21
-20.1229
0
LINE
8
Black
10
32.8571
20
-20.1229
11
33
21
-19.98
0
LINE
8
Black
10
33
20
-19.98
11
33.2857
21
-19.8371
0
LINE
8
Black
10
35.2857
20
-19.8371
11
37.1429
21
-19.8371
0
LINE
8
Black
10
37.1429
20
-19.8371
11
36.1429
21
-20.98
0
LINE
8
Black
10
36.1429
20
-20.98
11
36.5714
21
-20.98
0
LINE
8
Black
10
36.5714
20
-20.98
11
36.8571
21
-21.1229
0
LINE
8
Black
10
36.8571
20
-21.1229
11
37
21
-21.2657
0
LINE
8
Black
10
37
20
-21.2657
11
37.1429
21
-21.5514
0
LINE
8
Black
10
37.1429
20
-21.5514
11
37.1429
21
-22.2657
0
LINE
8
Black
10
37.1429
20
-22.2657
11
37
21
-22.5514
0
LINE
8
Black
10
37
20
-22.5514
11
36.8571
21
-22.6943
0
LINE
8
Black
10
36.8571
20
-22.6943
11
36.5714
21
-22.8371
0
LINE
8
Black
10
36.5714
20
-22.8371
11
35.7143
21
-22.8371
0
LINE
8
Black
10
35.7143
20
-22.8371
11
35.4286
21
-22.6943
0
LINE
8
Black
10
35.4286
20
-22.6943
11
35.2857
21
-22.5514
0
LINE
8
Black
10
38.1429
20
-19.8371
11
40
21
-19.8371
0
LINE
8
Black
10
40
20
-19.8371
11
39
21
-20.98
0
LINE
8
Black
10
39
20
-20.98
11
39.4286
21
-20.98
0
LINE
8
Black
10
39.4286
20
-20.98
11
39.7143
21
-21.1229
0
LINE
8
Black
10
39.7143
20
-21.1229
11
39.8571
21
-21.2657
0
LINE
8
Black
10
39.8571
20
-21.2657
11
40
21
-21.5514
0
LINE
8
Black
10
40
20
-21.5514
11
40
21
-22.2657
0
LINE
8
Black
10
40
20
-22.2657
11
39.8571
21
-22.5514
0
LINE
8
Black
10
39.8571
20
-22.5514
11
39.7143
21
-22.6943
0
LINE
8
Black
10
39.7143
20
-22.6943
11
39.4286
21
-22.8371
0
LINE
8
Black
10
39.4286
20
-22.8371
11
38.5714
21
-22.8371
0
LINE
8
Black
10
38.5714
20
-22.8371
11
38.2857
21
-22.6943
0
LINE
8
Black
10
38.2857
20
-22.6943
11
38.1429
21
-22.5514
0
LINE
8
Black
10
41.1429
20
-19.8371
11
41.1429
21
-20.4086
0
LINE
8
Black
10
42.2857
20
-19.8371
11
42.2857
21
-20.4086
0
LINE
8
Black
10
46.7143
20
-23.98
11
46.5714
21
-23.8371
0
LINE
8
Black
10
46.5714
20
-23.8371
11
46.2857
21
-23.4086
0
LINE
8
Black
10
46.2857
20
-23.4086
11
46.1429
21
-23.1229
0
LINE
8
Black
10
46.1429
20
-23.1229
11
46
21
-22.6943
0
LINE
8
Black
10
46
20
-22.6943
11
45.8571
21
-21.98
0
LINE
8
Black
10
45.8571
20
-21.98
11
45.8571
21
-21.4086
0
LINE
8
Black
10
45.8571
20
-21.4086
11
46
21
-20.6943
0
LINE
8
Black
10
46
20
-20.6943
11
46.1429
21
-20.2657
0
LINE
8
Black
10
46.1429
20
-20.2657
11
46.2857
21
-19.98
0
LINE
8
Black
10
46.2857
20
-19.98
11
46.5714
21
-19.5514
0
LINE
8
Black
10
46.5714
20
-19.5514
11
46.7143
21
-19.4086
0
LINE
8
Black
10
47.7143
20
-20.1229
11
47.8571
21
-19.98
0
LINE
8
Black
10
47.8571
20
-19.98
11
48.1429
21
-19.8371
0
LINE
8
Black
10
48.1429
20
-19.8371
11
48.8571
21
-19.8371
0
LINE
8
Black
10
48.8571
20
-19.8371
11
49.1429
21
-19.98
0
LINE
8
Black
10
49.1429
20
-19.98
11
49.2857
21
-20.1229
0
LINE
8
Black
10
49.2857
20
-20.1229
11
49.4286
21
-20.4086
0
LINE
8
Black
10
49.4286
20
-20.4086
11
49.4286
21
-20.6943
0
LINE
8
Black
10
49.4286
20
-20.6943
11
49.2857
21
-21.1229
0
LINE
8
Black
10
49.2857
20
-21.1229
11
47.5714
21
-22.8371
0
LINE
8
Black
10
47.5714
20
-22.8371
11
49.4286
21
-22.8371
0
LINE
8
Black
10
53
20
-22.8371
11
53
21
-19.8371
0
LINE
8
Black
10
54.2857
20
-22.8371
11
54.2857
21
-21.2657
0
LINE
8
Black
10
54.2857
20
-21.2657
11
54.1429
21
-20.98
0
LINE
8
Black
10
54.1429
20
-20.98
11
53.8571
21
-20.8371
0
LINE
8
Black
10
53.8571
20
-20.8371
11
53.4286
21
-20.8371
0
LINE
8
Black
10
53.4286
20
-20.8371
11
53.1429
21
-20.98
0
LINE
8
Black
10
53.1429
20
-20.98
11
53
21
-21.1229
0
LINE
8
Black
10
56.1429
20
-22.8371
11
55.8571
21
-22.6943
0
LINE
8
Black
10
55.8571
20
-22.6943
11
55.7143
21
-22.5514
0
LINE
8
Black
10
55.7143
20
-22.5514
11
55.5714
21
-22.2657
0
LINE
8
Black
10
55.5714
20
-22.2657
11
55.5714
21
-21.4086
0
LINE
8
Black
10
55.5714
20
-21.4086
11
55.7143
21
-21.1229
0
LINE
8
Black
10
55.7143
20
-21.1229
11
55.8571
21
-20.98
0
LINE
8
Black
10
55.8571
20
-20.98
11
56.1429
21
-20.8371
0
LINE
8
Black
10
56.1429
20
-20.8371
11
56.5714
21
-20.8371
0
LINE
8
Black
10
56.5714
20
-20.8371
11
56.8571
21
-20.98
0
LINE
8
Black
10
56.8571
20
-20.98
11
57
21
-21.1229
0
LINE
8
Black
10
57
20
-21.1229
11
57.1429
21
-21.4086
0
LINE
8
Black
10
57.1429
20
-21.4086
11
57.1429
21
-22.2657
0
LINE
8
Black
10
57.1429
20
-22.2657
11
57
21
-22.5514
0
LINE
8
Black
10
57
20
-22.5514
11
56.8571
21
-22.6943
0
LINE
8
Black
10
56.8571
20
-22.6943
11
56.5714
21
-22.8371
0
LINE
8
Black
10
56.5714
20
-22.8371
11
56.1429
21
-22.8371
0
LINE
8
Black
10
58.8571
20
-22.8371
11
58.5714
21
-22.6943
0
LINE
8
Black
10
58.5714
20
-22.6943
11
58.4286
21
-22.4086
0
LINE
8
Black
10
58.4286
20
-22.4086
11
58.4286
21
-19.8371
0
LINE
8
Black
10
61.1429
20
-22.6943
11
60.8571
21
-22.8371
0
LINE
8
Black
10
60.8571
20
-22.8371
11
60.2857
21
-22.8371
0
LINE
8
Black
10
60.2857
20
-22.8371
11
60
21
-22.6943
0
LINE
8
Black
10
60
20
-22.6943
11
59.8571
21
-22.4086
0
LINE
8
Black
10
59.8571
20
-22.4086
11
59.8571
21
-21.2657
0
LINE
8
Black
10
59.8571
20
-21.2657
11
60
21
-20.98
0
LINE
8
Black
10
60
20
-20.98
11
60.2857
21
-20.8371
0
LINE
8
Black
10
60.2857
20
-20.8371
11
60.8571
21
-20.8371
0
LINE
8
Black
10
60.8571
20
-20.8371
11
61.1429
21
-20.98
0
LINE
8
Black
10
61.1429
20
-20.98
11
61.2857
21
-21.2657
0
LINE
8
Black
10
61.2857
20
-21.2657
11
61.2857
21
-21.5514
0
LINE
8
Black
10
61.2857
20
-21.5514
11
59.8571
21
-21.8371
0
LINE
8
Black
10
62.4286
20
-22.6943
11
62.7143
21
-22.8371
0
LINE
8
Black
10
62.7143
20
-22.8371
11
63.2857
21
-22.8371
0
LINE
8
Black
10
63.2857
20
-22.8371
11
63.5714
21
-22.6943
0
LINE
8
Black
10
63.5714
20
-22.6943
11
63.7143
21
-22.4086
0
LINE
8
Black
10
63.7143
20
-22.4086
11
63.7143
21
-22.2657
0
LINE
8
Black
10
63.7143
20
-22.2657
11
63.5714
21
-21.98
0
LINE
8
Black
10
63.5714
20
-21.98
11
63.2857
21
-21.8371
0
LINE
8
Black
10
63.2857
20
-21.8371
11
62.8571
21
-21.8371
0
LINE
8
Black
10
62.8571
20
-21.8371
11
62.5714
21
-21.6943
0
LINE
8
Black
10
62.5714
20
-21.6943
11
62.4286
21
-21.4086
0
LINE
8
Black
10
62.4286
20
-21.4086
11
62.4286
21
-21.2657
0
LINE
8
Black
10
62.4286
20
-21.2657
11
62.5714
21
-20.98
0
LINE
8
Black
10
62.5714
20
-20.98
11
62.8571
21
-20.8371
0
LINE
8
Black
10
62.8571
20
-20.8371
11
63.2857
21
-20.8371
0
LINE
8
Black
10
63.2857
20
-20.8371
11
63.5714
21
-20.98
0
LINE
8
Black
10
64.7143
20
-23.98
11
64.8571
21
-23.8371
0
LINE
8
Black
10
64.8571
20
-23.8371
11
65.1429
21
-23.4086
0
LINE
8
Black
10
65.1429
20
-23.4086
11
65.2857
21
-23.1229
0
LINE
8
Black
10
65.2857
20
-23.1229
11
65.4286
21
-22.6943
0
LINE
8
Black
10
65.4286
20
-22.6943
11
65.5714
21
-21.98
0
LINE
8
Black
10
65.5714
20
-21.98
11
65.5714
21
-21.4086
0
LINE
8
Black
10
65.5714
20
-21.4086
11
65.4286
21
-20.6943
0
LINE
8
Black
10
65.4286
20
-20.6943
11
65.2857
21
-20.2657
0
LINE
8
Black
10
65.2857
20
-20.2657
11
65.1429
21
-19.98
0
LINE
8
Black
10
65.1429
20
-19.98
11
64.8571
21
-19.5514
0
LINE
8
Black
10
64.8571
20
-19.5514
11
64.7143
21
-19.4086
0
LINE
8
Black
10
-0.5
20
-25.94
11
0
21
-25.44
0
LINE
8
Black
10
0
20
-25.44
11
-0.5
21
-24.94
0
LINE
8
Black
10
-0.5
20
-24.94
11
-1
21
-25.44
0
LINE
8
Black
10
-1
20
-25.44
11
-0.5
21
-25.94
0
LINE
8
Black
10
4.28571
20
-26.7971
11
2.57143
21
-26.7971
0
LINE
8
Black
10
3.42857
20
-26.7971
11
3.42857
21
-23.7971
0
LINE
8
Black
10
3.42857
20
-23.7971
11
3.14286
21
-24.2257
0
LINE
8
Black
10
3.14286
20
-24.2257
11
2.85714
21
-24.5114
0
LINE
8
Black
10
2.85714
20
-24.5114
11
2.57143
21
-24.6543
0
LINE
8
Black
10
5.57143
20
-26.5114
11
5.71429
21
-26.6543
0
LINE
8
Black
10
5.71429
20
-26.6543
11
5.57143
21
-26.7971
0
LINE
8
Black
10
5.57143
20
-26.7971
11
5.42857
21
-26.6543
0
LINE
8
Black
10
5.42857
20
-26.6543
11
5.57143
21
-26.5114
0
LINE
8
Black
10
5.57143
20
-26.5114
11
5.57143
21
-26.7971
0
LINE
8
Black
10
7.57143
20
-23.7971
11
7.85714
21
-23.7971
0
LINE
8
Black
10
7.85714
20
-23.7971
11
8.14286
21
-23.94
0
LINE
8
Black
10
8.14286
20
-23.94
11
8.28571
21
-24.0829
0
LINE
8
Black
10
8.28571
20
-24.0829
11
8.42857
21
-24.3686
0
LINE
8
Black
10
8.42857
20
-24.3686
11
8.57143
21
-24.94
0
LINE
8
Black
10
8.57143
20
-24.94
11
8.57143
21
-25.6543
0
LINE
8
Black
10
8.57143
20
-25.6543
11
8.42857
21
-26.2257
0
LINE
8
Black
10
8.42857
20
-26.2257
11
8.28571
21
-26.5114
0
LINE
8
Black
10
8.28571
20
-26.5114
11
8.14286
21
-26.6543
0
LINE
8
Black
10
8.14286
20
-26.6543
11
7.85714
21
-26.7971
0
LINE
8
Black
10
7.85714
20
-26.7971
11
7.57143
21
-26.7971
0
LINE
8
Black
10
7.57143
20
-26.7971
11
7.28571
21
-26.6543
0
LINE
8
Black
10
7.28571
20
-26.6543
11
7.14286
21
-26.5114
0
LINE
8
Black
10
7.14286
20
-26.5114
11
7
21
-26.2257
0
LINE
8
Black
10
7
20
-26.2257
11
6.85714
21
-25.6543
0
LINE
8
Black
10
6.85714
20
-25.6543
11
6.85714
21
-24.94
0
LINE
8
Black
10
6.85714
20
-24.94
11
7
21
-24.3686
0
LINE
8
Black
10
7
20
-24.3686
11
7.14286
21
-24.0829
0
LINE
8
Black
10
7.14286
20
-24.0829
11
7.28571
21
-23.94
0
LINE
8
Black
10
7.28571
20
-23.94
11
7.57143
21
-23.7971
0
LINE
8
Black
10
10.4286
20
-23.7971
11
10.7143
21
-23.7971
0
LINE
8
Black
10
10.7143
20
-23.7971
11
11
21
-23.94
0
LINE
8
Black
10
11
20
-23.94
11
11.1429
21
-24.0829
0
LINE
8
Black
10
11.1429
20
-24.0829
11
11.2857
21
-24.3686
0
LINE
8
Black
10
11.2857
20
-24.3686
11
11.4286
21
-24.94
0
LINE
8
Black
10
11.4286
20
-24.94
11
11.4286
21
-25.6543
0
LINE
8
Black
10
11.4286
20
-25.6543
11
11.2857
21
-26.2257
0
LINE
8
Black
10
11.2857
20
-26.2257
11
11.1429
21
-26.5114
0
LINE
8
Black
10
11.1429
20
-26.5114
11
11
21
-26.6543
0
LINE
8
Black
10
11
20
-26.6543
11
10.7143
21
-26.7971
0
LINE
8
Black
10
10.7143
20
-26.7971
11
10.4286
21
-26.7971
0
LINE
8
Black
10
10.4286
20
-26.7971
11
10.1429
21
-26.6543
0
LINE
8
Black
10
10.1429
20
-26.6543
11
10
21
-26.5114
0
LINE
8
Black
10
10
20
-26.5114
11
9.85714
21
-26.2257
0
LINE
8
Black
10
9.85714
20
-26.2257
11
9.71429
21
-25.6543
0
LINE
8
Black
10
9.71429
20
-25.6543
11
9.71429
21
-24.94
0
LINE
8
Black
10
9.71429
20
-24.94
11
9.85714
21
-24.3686
0
LINE
8
Black
10
9.85714
20
-24.3686
11
10
21
-24.0829
0
LINE
8
Black
10
10
20
-24.0829
11
10.1429
21
-23.94
0
LINE
8
Black
10
10.1429
20
-23.94
11
10.4286
21
-23.7971
0
LINE
8
Black
10
12.7143
20
-26.7971
11
12.7143
21
-24.7971
0
LINE
8
Black
10
12.7143
20
-25.0829
11
12.8571
21
-24.94
0
LINE
8
Black
10
12.8571
20
-24.94
11
13.1429
21
-24.7971
0
LINE
8
Black
10
13.1429
20
-24.7971
11
13.5714
21
-24.7971
0
LINE
8
Black
10
13.5714
20
-24.7971
11
13.8571
21
-24.94
0
LINE
8
Black
10
13.8571
20
-24.94
11
14
21
-25.2257
0
LINE
8
Black
10
14
20
-25.2257
11
14
21
-26.7971
0
LINE
8
Black
10
14
20
-25.2257
11
14.1429
21
-24.94
0
LINE
8
Black
10
14.1429
20
-24.94
11
14.4286
21
-24.7971
0
LINE
8
Black
10
14.4286
20
-24.7971
11
14.8571
21
-24.7971
0
LINE
8
Black
10
14.8571
20
-24.7971
11
15.1429
21
-24.94
0
LINE
8
Black
10
15.1429
20
-24.94
11
15.2857
21
-25.2257
0
LINE
8
Black
10
15.2857
20
-25.2257
11
15.2857
21
-26.7971
0
LINE
8
Black
10
16.7143
20
-26.7971
11
16.7143
21
-24.7971
0
LINE
8
Black
10
16.7143
20
-25.0829
11
16.8571
21
-24.94
0
LINE
8
Black
10
16.8571
20
-24.94
11
17.1429
21
-24.7971
0
LINE
8
Black
10
17.1429
20
-24.7971
11
17.5714
21
-24.7971
0
LINE
8
Black
10
17.5714
20
-24.7971
11
17.8571
21
-24.94
0
LINE
8
Black
10
17.8571
20
-24.94
11
18
21
-25.2257
0
LINE
8
Black
10
18
20
-25.2257
11
18
21
-26.7971
0
LINE
8
Black
10
18
20
-25.2257
11
18.1429
21
-24.94
0
LINE
8
Black
10
18.1429
20
-24.94
11
18.4286
21
-24.7971
0
LINE
8
Black
10
18.4286
20
-24.7971
11
18.8571
21
-24.7971
0
LINE
8
Black
10
18.8571
20
-24.7971
11
19.1429
21
-24.94
0
LINE
8
Black
10
19.1429
20
-24.94
11
19.2857
21
-25.2257
0
LINE
8
Black
10
19.2857
20
-25.2257
11
19.2857
21
-26.7971
0
LINE
8
Black
10
25.1429
20
-23.6543
11
22.5714
21
-27.5114
0
LINE
8
Black
10
29
20
-23.7971
11
29.2857
21
-23.7971
0
LINE
8
Black
10
29.2857
20
-23.7971
11
29.5714
21
-23.94
0
LINE
8
Black
10
29.5714
20
-23.94
11
29.7143
21
-24.0829
0
LINE
8
Black
10
29.7143
20
-24.0829
11
29.8571
21
-24.3686
0
LINE
8
Black
10
29.8571
20
-24.3686
11
30
21
-24.94
0
LINE
8
Black
10
30
20
-24.94
11
30
21
-25.6543
0
LINE
8
Black
10
30
20
-25.6543
11
29.8571
21
-26.2257
0
LINE
8
Black
10
29.8571
20
-26.2257
11
29.7143
21
-26.5114
0
LINE
8
Black
10
29.7143
20
-26.5114
11
29.5714
21
-26.6543
0
LINE
8
Black
10
29.5714
20
-26.6543
11
29.2857
21
-26.7971
0
LINE
8
Black
10
29.2857
20
-26.7971
11
29
21
-26.7971
0
LINE
8
Black
10
29
20
-26.7971
11
28.7143
21
-26.6543
0
LINE
8
Black
10
28.7143
20
-26.6543
11
28.5714
21
-26.5114
0
LINE
8
Black
10
28.5714
20
-26.5114
11
28.4286
21
-26.2257
0
LINE
8
Black
10
28.4286
20
-26.2257
11
28.2857
21
-25.6543
0
LINE
8
Black
10
28.2857
20
-25.6543
11
28.2857
21
-24.94
0
LINE
8
Black
10
28.2857
20
-24.94
11
28.4286
21
-24.3686
0
LINE
8
Black
10
28.4286
20
-24.3686
11
28.5714
21
-24.0829
0
LINE
8
Black
10
28.5714
20
-24.0829
11
28.7143
21
-23.94
0
LINE
8
Black
10
28.7143
20
-23.94
11
29
21
-23.7971
0
LINE
8
Black
10
31.2857
20
-26.5114
11
31.4286
21
-26.6543
0
LINE
8
Black
10
31.4286
20
-26.6543
11
31.2857
21
-26.7971
0
LINE
8
Black
10
31.2857
20
-26.7971
11
31.1429
21
-26.6543
0
LINE
8
Black
10
31.1429
20
-26.6543
11
31.2857
21
-26.5114
0
LINE
8
Black
10
31.2857
20
-26.5114
11
31.2857
21
-26.7971
0
LINE
8
Black
10
33.2857
20
-23.7971
11
33.5714
21
-23.7971
0
LINE
8
Black
10
33.5714
20
-23.7971
11
33.8571
21
-23.94
0
LINE
8
Black
10
33.8571
20
-23.94
11
34
21
-24.0829
0
LINE
8
Black
10
34
20
-24.0829
11
34.1429
21
-24.3686
0
LINE
8
Black
10
34.1429
20
-24.3686
11
34.2857
21
-24.94
0
LINE
8
Black
10
34.2857
20
-24.94
11
34.2857
21
-25.6543
0
LINE
8
Black
10
34.2857
20
-25.6543
11
34.1429
21
-26.2257
0
LINE
8
Black
10
34.1429
20
-26.2257
11
34
21
-26.5114
0
LINE
8
Black
10
34
20
-26.5114
11
33.8571
21
-26.6543
0
LINE
8
Black
10
33.8571
20
-26.6543
11
33.5714
21
-26.7971
0
LINE
8
Black
10
33.5714
20
-26.7971
11
33.2857
21
-26.7971
0
LINE
8
Black
10
33.2857
20
-26.7971
11
33
21
-26.6543
0
LINE
8
Black
10
33
20
-26.6543
11
32.8571
21
-26.5114
0
LINE
8
Black
10
32.8571
20
-26.5114
11
32.7143
21
-26.2257
0
LINE
8
Black
10
32.7143
20
-26.2257
11
32.5714
21
-25.6543
0
LINE
8
Black
10
32.5714
20
-25.6543
11
32.5714
21
-24.94
0
LINE
8
Black
10
32.5714
20
-24.94
11
32.7143
21
-24.3686
0
LINE
8
Black
10
32.7143
20
-24.3686
11
32.8571
21
-24.0829
0
LINE
8
Black
10
32.8571
20
-24.0829
11
33
21
-23.94
0
LINE
8
Black
10
33
20
-23.94
11
33.2857
21
-23.7971
0
LINE
8
Black
10
35.2857
20
-23.7971
11
37.1429
21
-23.7971
0
LINE
8
Black
10
37.1429
20
-23.7971
11
36.1429
21
-24.94
0
LINE
8
Black
10
36.1429
20
-24.94
11
36.5714
21
-24.94
0
LINE
8
Black
10
36.5714
20
-24.94
11
36.8571
21
-25.0829
0
LINE
8
Black
10
36.8571
20
-25.0829
11
37
21
-25.2257
0
LINE
8
Black
10
37
20
-25.2257
11
37.1429
21
-25.5114
0
LINE
8
Black
10
37.1429
20
-25.5114
11
37.1429
21
-26.2257
0
LINE
8
Black
10
37.1429
20
-26.2257
11
37
21
-26.5114
0
LINE
8
Black
10
37
20
-26.5114
11
36.8571
21
-26.6543
0
LINE
8
Black
10
36.8571
20
-26.6543
11
36.5714
21
-26.7971
0
LINE
8
Black
10
36.5714
20
-26.7971
11
35.7143
21
-26.7971
0
LINE
8
Black
10
35.7143
20
-26.7971
11
35.4286
21
-26.6543
0
LINE
8
Black
10
35.4286
20
-26.6543
11
35.2857
21
-26.5114
0
LINE
8
Black
10
38.5714
20
-26.7971
11
39.1429
21
-26.7971
0
LINE
8
Black
10
39.1429
20
-26.7971
11
39.4286
21
-26.6543
0
LINE
8
Black
10
39.4286
20
-26.6543
11
39.5714
21
-26.5114
0
LINE
8
Black
10
39.5714
20
-26.5114
11
39.8571
21
-26.0829
0
LINE
8
Black
10
39.8571
20
-26.0829
11
40
21
-25.5114
0
LINE
8
Black
10
40
20
-25.5114
11
40
21
-24.3686
0
LINE
8
Black
10
40
20
-24.3686
11
39.8571
21
-24.0829
0
LINE
8
Black
10
39.8571
20
-24.0829
11
39.7143
21
-23.94
0
LINE
8
Black
10
39.7143
20
-23.94
11
39.4286
21
-23.7971
0
LINE
8
Black
10
39.4286
20
-23.7971
11
38.8571
21
-23.7971
0
LINE
8
Black
10
38.8571
20
-23.7971
11
38.5714
21
-23.94
0
LINE
8
Black
10
38.5714
20
-23.94
11
38.4286
21
-24.0829
0
LINE
8
Black
10
38.4286
20
-24.0829
11
38.2857
21
-24.3686
0
LINE
8
Black
10
38.2857
20
-24.3686
11
38.2857
21
-25.0829
0
LINE
8
Black
10
38.2857
20
-25.0829
11
38.4286
21
-25.3686
0
LINE
8
Black
10
38.4286
20
-25.3686
11
38.5714
21
-25.5114
0
LINE
8
Black
10
38.5714
20
-25.5114
11
38.8571
21
-25.6543
0
LINE
8
Black
10
38.8571
20
-25.6543
11
39.4286
21
-25.6543
0
LINE
8
Black
10
39.4286
20
-25.6543
11
39.7143
21
-25.5114
0
LINE
8
Black
10
39.7143
20
-25.5114
11
39.8571
21
-25.3686
0
LINE
8
Black
10
39.8571
20
-25.3686
11
40
21
-25.0829
0
LINE
8
Black
10
41.1429
20
-23.7971
11
41.1429
21
-24.3686
0
LINE
8
Black
10
42.2857
20
-23.7971
11
42.2857
21
-24.3686
0
LINE
8
Black
10
46.7143
20
-27.94
11
46.5714
21
-27.7971
0
LINE
8
Black
10
46.5714
20
-27.7971
11
46.2857
21
-27.3686
0
LINE
8
Black
10
46.2857
20
-27.3686
11
46.1429
21
-27.0829
0
LINE
8
Black
10
46.1429
20
-27.0829
11
46
21
-26.6543
0
LINE
8
Black
10
46
20
-26.6543
11
45.8571
21
-25.94
0
LINE
8
Black
10
45.8571
20
-25.94
11
45.8571
21
-25.3686
0
LINE
8
Black
10
45.8571
20
-25.3686
11
46
21
-24.6543
0
LINE
8
Black
10
46
20
-24.6543
11
46.1429
21
-24.2257
0
LINE
8
Black
10
46.1429
20
-24.2257
11
46.2857
21
-23.94
0
LINE
8
Black
10
46.2857
20
-23.94
11
46.5714
21
-23.5114
0
LINE
8
Black
10
46.5714
20
-23.5114
11
46.7143
21
-23.3686
0
LINE
8
Black
10
47.7143
20
-24.0829
11
47.8571
21
-23.94
0
LINE
8
Black
10
47.8571
20
-23.94
11
48.1429
21
-23.7971
0
LINE
8
Black
10
48.1429
20
-23.7971
11
48.8571
21
-23.7971
0
LINE
8
Black
10
48.8571
20
-23.7971
11
49.1429
21
-23.94
0
LINE
8
Black
10
49.1429
20
-23.94
11
49.2857
21
-24.0829
0
LINE
8
Black
10
49.2857
20
-24.0829
11
49.4286
21
-24.3686
0
LINE
8
Black
10
49.4286
20
-24.3686
11
49.4286
21
-24.6543
0
LINE
8
Black
10
49.4286
20
-24.6543
11
49.2857
21
-25.0829
0
LINE
8
Black
10
49.2857
20
-25.0829
11
47.5714
21
-26.7971
0
LINE
8
Black
10
47.5714
20
-26.7971
11
49.4286
21
-26.7971
0
LINE
8
Black
10
52.1429
20
-23.7971
11
50.7143
21
-23.7971
0
LINE
8
Black
10
50.7143
20
-23.7971
11
50.5714
21
-25.2257
0
LINE
8
Black
10
50.5714
20
-25.2257
11
50.7143
21
-25.0829
0
LINE
8
Black
10
50.7143
20
-25.0829
11
51
21
-24.94
0
LINE
8
Black
10
51
20
-24.94
11
51.7143
21
-24.94
0
LINE
8
Black
10
51.7143
20
-24.94
11
52
21
-25.0829
0
LINE
8
Black
10
52
20
-25.0829
11
52.1429
21
-25.2257
0
LINE
8
Black
10
52.1429
20
-25.2257
11
52.2857
21
-25.5114
0
LINE
8
Black
10
52.2857
20
-25.5114
11
52.2857
21
-26.2257
0
LINE
8
Black
10
52.2857
20
-26.2257
11
52.1429
21
-26.5114
0
LINE
8
Black
10
52.1429
20
-26.5114
11
52
21
-26.6543
0
LINE
8
Black
10
52
20
-26.6543
11
51.7143
21
-26.7971
0
LINE
8
Black
10
51.7143
20
-26.7971
11
51
21
-26.7971
0
LINE
8
Black
10
51
20
-26.7971
11
50.7143
21
-26.6543
0
LINE
8
Black
10
50.7143
20
-26.6543
11
50.5714
21
-26.5114
0
LINE
8
Black
10
55.8571
20
-26.7971
11
55.8571
21
-23.7971
0
LINE
8
Black
10
57.1429
20
-26.7971
11
57.1429
21
-25.2257
0
LINE
8
Black
10
57.1429
20
-25.2257
11
57
21
-24.94
0
LINE
8
Black
10
57
20
-24.94
11
56.7143
21
-24.7971
0
LINE
8
Black
10
56.7143
20
-24.7971
11
56.2857
21
-24.7971
0
LINE
8
Black
10
56.2857
20
-24.7971
11
56
21
-24.94
0
LINE
8
Black
10
56
20
-24.94
11
55.8571
21
-25.0829
0
LINE
8
Black
10
59
20
-26.7971
11
58.7143
21
-26.6543
0
LINE
8
Black
10
58.7143
20
-26.6543
11
58.5714
21
-26.5114
0
LINE
8
Black
10
58.5714
20
-26.5114
11
58.4286
21
-26.2257
0
LINE
8
Black
10
58.4286
20
-26.2257
11
58.4286
21
-25.3686
0
LINE
8
Black
10
58.4286
20
-25.3686
11
58.5714
21
-25.0829
0
LINE
8
Black
10
58.5714
20
-25.0829
11
58.7143
21
-24.94
0
LINE
8
Black
10
58.7143
20
-24.94
11
59
21
-24.7971
0
LINE
8
Black
10
59
20
-24.7971
11
59.4286
21
-24.7971
0
LINE
8
Black
10
59.4286
20
-24.7971
11
59.7143
21
-24.94
0
LINE
8
Black
10
59.7143
20
-24.94
11
59.8571
21
-25.0829
0
LINE
8
Black
10
59.8571
20
-25.0829
11
60
21
-25.3686
0
LINE
8
Black
10
60
20
-25.3686
11
60
21
-26.2257
0
LINE
8
Black
10
60
20
-26.2257
11
59.8571
21
-26.5114
0
LINE
8
Black
10
59.8571
20
-26.5114
11
59.7143
21
-26.6543
0
LINE
8
Black
10
59.7143
20
-26.6543
11
59.4286
21
-26.7971
0
LINE
8
Black
10
59.4286
20
-26.7971
11
59
21
-26.7971
0
LINE
8
Black
10
61.7143
20
-26.7971
11
61.4286
21
-26.6543
0
LINE
8
Black
10
61.4286
20
-26.6543
11
61.2857
21
-26.3686
0
LINE
8
Black
10
61.2857
20
-26.3686
11
61.2857
21
-23.7971
0
LINE
8
Black
10
64
20
-26.6543
11
63.7143
21
-26.7971
0
LINE
8
Black
10
63.7143
20
-26.7971
11
63.1429
21
-26.7971
0
LINE
8
Black
10
63.1429
20
-26.7971
11
62.8571
21
-26.6543
0
LINE
8
Black
10
62.8571
20
-26.6543
11
62.7143
21
-26.3686
0
LINE
8
Black
10
62.7143
20
-26.3686
11
62.7143
21
-25.2257
0
LINE
8
Black
10
62.7143
20
-25.2257
11
62.8571
21
-24.94
0
LINE
8
Black
10
62.8571
20
-24.94
11
63.1429
21
-24.7971
0
LINE
8
Black
10
63.1429
20
-24.7971
11
63.7143
21
-24.7971
0
LINE
8
Black
10
63.7143
20
-24.7971
11
64
21
-24.94
0
LINE
8
Black
10
64
20
-24.94
11
64.1429
21
-25.2257
0
LINE
8
Black
10
64.1429
20
-25.2257
11
64.1429
21
-25.5114
0
LINE
8
Black
10
64.1429
20
-25.5114
11
62.7143
21
-25.7971
0
LINE
8
Black
10
65.2857
20
-26.6543
11
65.5714
21
-26.7971
0
LINE
8
Black
10
65.5714
20
-26.7971
11
66.1429
21
-26.7971
0
LINE
8
Black
10
66.1429
20
-26.7971
11
66.4286
21
-26.6543
0
LINE
8
Black
10
66.4286
20
-26.6543
11
66.5714
21
-26.3686
0
LINE
8
Black
10
66.5714
20
-26.3686
11
66.5714
21
-26.2257
0
LINE
8
Black
10
66.5714
20
-26.2257
11
66.4286
21
-25.94
0
LINE
8
Black
10
66.4286
20
-25.94
11
66.1429
21
-25.7971
0
LINE
8
Black
10
66.1429
20
-25.7971
11
65.7143
21
-25.7971
0
LINE
8
Black
10
65.7143
20
-25.7971
11
65.4286
21
-25.6543
0
LINE
8
Black
10
65.4286
20
-25.6543
11
65.2857
21
-25.3686
0
LINE
8
Black
10
65.2857
20
-25.3686
11
65.2857
21
-25.2257
0
LINE
8
Black
10
65.2857
20
-25.2257
11
65.4286
21
-24.94
0
LINE
8
Black
10
65.4286
20
-24.94
11
65.7143
21
-24.7971
0
LINE
8
Black
10
65.7143
20
-24.7971
11
66.1429
21
-24.7971
0
LINE
8
Black
10
66.1429
20
-24.7971
11
66.4286
21
-24.94
0
LINE
8
Black
10
67.5714
20
-27.94
11
67.7143
21
-27.7971
0
LINE
8
Black
10
67.7143
20
-27.7971
11
68
21
-27.3686
0
LINE
8
Black
10
68
20
-27.3686
11
68.1429
21
-27.0829
0
LINE
8
Black
10
68.1429
20
-27.0829
11
68.2857
21
-26.6543
0
LINE
8
Black
10
68.2857
20
-26.6543
11
68.4286
21
-25.94
0
LINE
8
Black
10
68.4286
20
-25.94
11
68.4286
21
-25.3686
0
LINE
8
Black
10
68.4286
20
-25.3686
11
68.2857
21
-24.6543
0
LINE
8
Black
10
68.2857
20
-24.6543
11
68.1429
21
-24.2257
0
LINE
8
Black
10
68.1429
20
-24.2257
11
68
21
-23.94
0
LINE
8
Black
10
68
20
-23.94
11
67.7143
21
-23.5114
0
LINE
8
Black
10
67.7143
20
-23.5114
11
67.5714
21
-23.3686
  0
ENDSEC
  0
EOF
