G04 #@! TF.FileFunction,Other,Fab,Top*
%FSLAX46Y46*%
G04 Gerber Fmt 4.6, Leading zero omitted, Abs format (unit mm)*
G04 Created by KiCad (PCBNEW 4.0.7-e2-6376~58~ubuntu16.04.1) date Thu May  2 13:28:59 2019*
%MOMM*%
%LPD*%
G01*
G04 APERTURE LIST*
%ADD10C,0.100000*%
%ADD11C,0.150000*%
%ADD12C,0.060000*%
%ADD13C,0.075000*%
%ADD14C,0.040000*%
G04 APERTURE END LIST*
D10*
X178954412Y-105537000D02*
G75*
G03X178954412Y-105537000I-3059412J0D01*
G01*
X179045000Y-102387000D02*
X172745000Y-102387000D01*
X179045000Y-108017000D02*
X179045000Y-102387000D01*
X178375000Y-108687000D02*
X179045000Y-108017000D01*
X173415000Y-108687000D02*
X178375000Y-108687000D01*
X172745000Y-108017000D02*
X173415000Y-108687000D01*
X172745000Y-102387000D02*
X172745000Y-108017000D01*
X192293000Y-116729000D02*
X193533000Y-116729000D01*
X192293000Y-118729000D02*
X192293000Y-116729000D01*
X193533000Y-118729000D02*
X192293000Y-118729000D01*
X193533000Y-116729000D02*
X193533000Y-118729000D01*
X183245000Y-110505000D02*
X183245000Y-111745000D01*
X181245000Y-110505000D02*
X183245000Y-110505000D01*
X181245000Y-111745000D02*
X181245000Y-110505000D01*
X183245000Y-111745000D02*
X181245000Y-111745000D01*
X194325000Y-116729000D02*
X195565000Y-116729000D01*
X194325000Y-118729000D02*
X194325000Y-116729000D01*
X195565000Y-118729000D02*
X194325000Y-118729000D01*
X195565000Y-116729000D02*
X195565000Y-118729000D01*
X187309000Y-129174000D02*
X187309000Y-130414000D01*
X185309000Y-129174000D02*
X187309000Y-129174000D01*
X185309000Y-130414000D02*
X185309000Y-129174000D01*
X187309000Y-130414000D02*
X185309000Y-130414000D01*
X183245000Y-112410000D02*
X183245000Y-113650000D01*
X181245000Y-112410000D02*
X183245000Y-112410000D01*
X181245000Y-113650000D02*
X181245000Y-112410000D01*
X183245000Y-113650000D02*
X181245000Y-113650000D01*
X178547000Y-124063000D02*
X177307000Y-124063000D01*
X178547000Y-122063000D02*
X178547000Y-124063000D01*
X177307000Y-122063000D02*
X178547000Y-122063000D01*
X177307000Y-124063000D02*
X177307000Y-122063000D01*
X187309000Y-131079000D02*
X187309000Y-132319000D01*
X185309000Y-131079000D02*
X187309000Y-131079000D01*
X185309000Y-132319000D02*
X185309000Y-131079000D01*
X187309000Y-132319000D02*
X185309000Y-132319000D01*
X212384000Y-109225000D02*
X212984000Y-108625000D01*
X217384000Y-108625000D02*
X212384000Y-108625000D01*
X217384000Y-113625000D02*
X217384000Y-108625000D01*
X212384000Y-113625000D02*
X217384000Y-113625000D01*
X212384000Y-108625000D02*
X212384000Y-113625000D01*
X216784000Y-111125000D02*
G75*
G03X216784000Y-111125000I-1900000J0D01*
G01*
X212384000Y-101732000D02*
X212984000Y-101132000D01*
X217384000Y-101132000D02*
X212384000Y-101132000D01*
X217384000Y-106132000D02*
X217384000Y-101132000D01*
X212384000Y-106132000D02*
X217384000Y-106132000D01*
X212384000Y-101132000D02*
X212384000Y-106132000D01*
X216784000Y-103632000D02*
G75*
G03X216784000Y-103632000I-1900000J0D01*
G01*
X184150000Y-104775000D02*
X184150000Y-106045000D01*
X201930000Y-105410000D02*
X201930000Y-106680000D01*
X184150000Y-104775000D02*
X184150000Y-102870000D01*
X184150000Y-102870000D02*
X201930000Y-102870000D01*
X201930000Y-102870000D02*
X201930000Y-105410000D01*
X201930000Y-106680000D02*
X184785000Y-106680000D01*
X184785000Y-106680000D02*
X184150000Y-106045000D01*
X186690000Y-137795000D02*
X186690000Y-135890000D01*
X186690000Y-135890000D02*
X196850000Y-135890000D01*
X196850000Y-135890000D02*
X196850000Y-138430000D01*
X196850000Y-138430000D02*
X187325000Y-138430000D01*
X187325000Y-138430000D02*
X186690000Y-137795000D01*
X205359000Y-107950000D02*
X203454000Y-107950000D01*
X203454000Y-107950000D02*
X203454000Y-102870000D01*
X203454000Y-102870000D02*
X205994000Y-102870000D01*
X205994000Y-102870000D02*
X205994000Y-107315000D01*
X205994000Y-107315000D02*
X205359000Y-107950000D01*
X196977000Y-107950000D02*
X198882000Y-107950000D01*
X198882000Y-107950000D02*
X198882000Y-113030000D01*
X198882000Y-113030000D02*
X196342000Y-113030000D01*
X196342000Y-113030000D02*
X196342000Y-108585000D01*
X196342000Y-108585000D02*
X196977000Y-107950000D01*
X172720000Y-139700000D02*
X172720000Y-135890000D01*
X172720000Y-135890000D02*
X185420000Y-135890000D01*
X185420000Y-135890000D02*
X185420000Y-140970000D01*
X185420000Y-140970000D02*
X173990000Y-140970000D01*
X173990000Y-140970000D02*
X172720000Y-139700000D01*
X164251000Y-140910000D02*
X169251000Y-140910000D01*
X164949296Y-134160000D02*
X164949296Y-140160000D01*
X164249296Y-133410000D02*
X164249296Y-140910000D01*
X169251000Y-133410000D02*
X169251000Y-140910000D01*
X164251000Y-133410000D02*
X169251000Y-133410000D01*
X169351000Y-135860000D02*
X169551000Y-135660000D01*
X169551000Y-136060000D02*
X169351000Y-135860000D01*
X169761000Y-135660000D02*
X169761000Y-136060000D01*
X169761000Y-135660000D02*
X169551000Y-135660000D01*
X169761000Y-136060000D02*
X169551000Y-136060000D01*
X201183000Y-107839000D02*
X202423000Y-107839000D01*
X201183000Y-109839000D02*
X201183000Y-107839000D01*
X202423000Y-109839000D02*
X201183000Y-109839000D01*
X202423000Y-107839000D02*
X202423000Y-109839000D01*
X174355000Y-133238000D02*
X174355000Y-134478000D01*
X172355000Y-133238000D02*
X174355000Y-133238000D01*
X172355000Y-134478000D02*
X172355000Y-133238000D01*
X174355000Y-134478000D02*
X172355000Y-134478000D01*
X174355000Y-131333000D02*
X174355000Y-132573000D01*
X172355000Y-131333000D02*
X174355000Y-131333000D01*
X172355000Y-132573000D02*
X172355000Y-131333000D01*
X174355000Y-132573000D02*
X172355000Y-132573000D01*
X167706000Y-101182000D02*
X170606000Y-101182000D01*
X170606000Y-101182000D02*
X170606000Y-106082000D01*
X170606000Y-106082000D02*
X166706000Y-106082000D01*
X166706000Y-106082000D02*
X166706000Y-102182000D01*
X166706000Y-102182000D02*
X167706000Y-101182000D01*
D11*
X188612039Y-116911523D02*
X188612039Y-122911523D01*
X188612039Y-122911523D02*
X181612039Y-122911523D01*
X181612039Y-122911523D02*
X181612039Y-115911523D01*
X181612039Y-115911523D02*
X187612039Y-115911523D01*
X187612039Y-115911523D02*
X188612039Y-116911523D01*
D10*
X217207000Y-138667000D02*
X213277000Y-140107000D01*
X213277000Y-140107000D02*
X204277000Y-140107000D01*
X204277000Y-140107000D02*
X202287000Y-138117000D01*
X202287000Y-138117000D02*
X202287000Y-120837000D01*
X202287000Y-120837000D02*
X204277000Y-118847000D01*
X204277000Y-118847000D02*
X213277000Y-118847000D01*
X213277000Y-118847000D02*
X217207000Y-120287000D01*
X217205882Y-120296274D02*
G75*
G02X218107000Y-123377000I-678882J-1870726D01*
G01*
X218103043Y-135571852D02*
G75*
G02X218107000Y-123377000I7933957J6094852D01*
G01*
X218115508Y-135573145D02*
G75*
G02X217207000Y-138667000I-1588508J-1213855D01*
G01*
X217670000Y-107442000D02*
G75*
G03X217670000Y-107442000I-500000J0D01*
G01*
X217543000Y-140335000D02*
G75*
G03X217543000Y-140335000I-500000J0D01*
G01*
X171696000Y-140335000D02*
G75*
G03X171696000Y-140335000I-500000J0D01*
G01*
D11*
X175906429Y-107707952D02*
X175906429Y-106946047D01*
X176287381Y-107326999D02*
X175525476Y-107326999D01*
X175741034Y-105868743D02*
X175693415Y-105916362D01*
X175550558Y-105963981D01*
X175455320Y-105963981D01*
X175312462Y-105916362D01*
X175217224Y-105821124D01*
X175169605Y-105725886D01*
X175121986Y-105535410D01*
X175121986Y-105392552D01*
X175169605Y-105202076D01*
X175217224Y-105106838D01*
X175312462Y-105011600D01*
X175455320Y-104963981D01*
X175550558Y-104963981D01*
X175693415Y-105011600D01*
X175741034Y-105059219D01*
X176693415Y-105963981D02*
X176121986Y-105963981D01*
X176407700Y-105963981D02*
X176407700Y-104963981D01*
X176312462Y-105106838D01*
X176217224Y-105202076D01*
X176121986Y-105249695D01*
X193320943Y-118035366D02*
X193368562Y-118082985D01*
X193416181Y-118225842D01*
X193416181Y-118321080D01*
X193368562Y-118463938D01*
X193273324Y-118559176D01*
X193178086Y-118606795D01*
X192987610Y-118654414D01*
X192844752Y-118654414D01*
X192654276Y-118606795D01*
X192559038Y-118559176D01*
X192463800Y-118463938D01*
X192416181Y-118321080D01*
X192416181Y-118225842D01*
X192463800Y-118082985D01*
X192511419Y-118035366D01*
X192511419Y-117654414D02*
X192463800Y-117606795D01*
X192416181Y-117511557D01*
X192416181Y-117273461D01*
X192463800Y-117178223D01*
X192511419Y-117130604D01*
X192606657Y-117082985D01*
X192701895Y-117082985D01*
X192844752Y-117130604D01*
X193416181Y-117702033D01*
X193416181Y-117082985D01*
X182091034Y-111444043D02*
X182043415Y-111491662D01*
X181900558Y-111539281D01*
X181805320Y-111539281D01*
X181662462Y-111491662D01*
X181567224Y-111396424D01*
X181519605Y-111301186D01*
X181471986Y-111110710D01*
X181471986Y-110967852D01*
X181519605Y-110777376D01*
X181567224Y-110682138D01*
X181662462Y-110586900D01*
X181805320Y-110539281D01*
X181900558Y-110539281D01*
X182043415Y-110586900D01*
X182091034Y-110634519D01*
X182424367Y-110539281D02*
X183043415Y-110539281D01*
X182710081Y-110920233D01*
X182852939Y-110920233D01*
X182948177Y-110967852D01*
X182995796Y-111015471D01*
X183043415Y-111110710D01*
X183043415Y-111348805D01*
X182995796Y-111444043D01*
X182948177Y-111491662D01*
X182852939Y-111539281D01*
X182567224Y-111539281D01*
X182471986Y-111491662D01*
X182424367Y-111444043D01*
X195340243Y-117908366D02*
X195387862Y-117955985D01*
X195435481Y-118098842D01*
X195435481Y-118194080D01*
X195387862Y-118336938D01*
X195292624Y-118432176D01*
X195197386Y-118479795D01*
X195006910Y-118527414D01*
X194864052Y-118527414D01*
X194673576Y-118479795D01*
X194578338Y-118432176D01*
X194483100Y-118336938D01*
X194435481Y-118194080D01*
X194435481Y-118098842D01*
X194483100Y-117955985D01*
X194530719Y-117908366D01*
X194768814Y-117051223D02*
X195435481Y-117051223D01*
X194387862Y-117289319D02*
X195102148Y-117527414D01*
X195102148Y-116908366D01*
X186091534Y-130138443D02*
X186043915Y-130186062D01*
X185901058Y-130233681D01*
X185805820Y-130233681D01*
X185662962Y-130186062D01*
X185567724Y-130090824D01*
X185520105Y-129995586D01*
X185472486Y-129805110D01*
X185472486Y-129662252D01*
X185520105Y-129471776D01*
X185567724Y-129376538D01*
X185662962Y-129281300D01*
X185805820Y-129233681D01*
X185901058Y-129233681D01*
X186043915Y-129281300D01*
X186091534Y-129328919D01*
X186996296Y-129233681D02*
X186520105Y-129233681D01*
X186472486Y-129709871D01*
X186520105Y-129662252D01*
X186615343Y-129614633D01*
X186853439Y-129614633D01*
X186948677Y-129662252D01*
X186996296Y-129709871D01*
X187043915Y-129805110D01*
X187043915Y-130043205D01*
X186996296Y-130138443D01*
X186948677Y-130186062D01*
X186853439Y-130233681D01*
X186615343Y-130233681D01*
X186520105Y-130186062D01*
X186472486Y-130138443D01*
X182091034Y-113450643D02*
X182043415Y-113498262D01*
X181900558Y-113545881D01*
X181805320Y-113545881D01*
X181662462Y-113498262D01*
X181567224Y-113403024D01*
X181519605Y-113307786D01*
X181471986Y-113117310D01*
X181471986Y-112974452D01*
X181519605Y-112783976D01*
X181567224Y-112688738D01*
X181662462Y-112593500D01*
X181805320Y-112545881D01*
X181900558Y-112545881D01*
X182043415Y-112593500D01*
X182091034Y-112641119D01*
X182948177Y-112545881D02*
X182757700Y-112545881D01*
X182662462Y-112593500D01*
X182614843Y-112641119D01*
X182519605Y-112783976D01*
X182471986Y-112974452D01*
X182471986Y-113355405D01*
X182519605Y-113450643D01*
X182567224Y-113498262D01*
X182662462Y-113545881D01*
X182852939Y-113545881D01*
X182948177Y-113498262D01*
X182995796Y-113450643D01*
X183043415Y-113355405D01*
X183043415Y-113117310D01*
X182995796Y-113022071D01*
X182948177Y-112974452D01*
X182852939Y-112926833D01*
X182662462Y-112926833D01*
X182567224Y-112974452D01*
X182519605Y-113022071D01*
X182471986Y-113117310D01*
X178347643Y-123280466D02*
X178395262Y-123328085D01*
X178442881Y-123470942D01*
X178442881Y-123566180D01*
X178395262Y-123709038D01*
X178300024Y-123804276D01*
X178204786Y-123851895D01*
X178014310Y-123899514D01*
X177871452Y-123899514D01*
X177680976Y-123851895D01*
X177585738Y-123804276D01*
X177490500Y-123709038D01*
X177442881Y-123566180D01*
X177442881Y-123470942D01*
X177490500Y-123328085D01*
X177538119Y-123280466D01*
X177442881Y-122947133D02*
X177442881Y-122280466D01*
X178442881Y-122709038D01*
X186091534Y-132081543D02*
X186043915Y-132129162D01*
X185901058Y-132176781D01*
X185805820Y-132176781D01*
X185662962Y-132129162D01*
X185567724Y-132033924D01*
X185520105Y-131938686D01*
X185472486Y-131748210D01*
X185472486Y-131605352D01*
X185520105Y-131414876D01*
X185567724Y-131319638D01*
X185662962Y-131224400D01*
X185805820Y-131176781D01*
X185901058Y-131176781D01*
X186043915Y-131224400D01*
X186091534Y-131272019D01*
X186662962Y-131605352D02*
X186567724Y-131557733D01*
X186520105Y-131510114D01*
X186472486Y-131414876D01*
X186472486Y-131367257D01*
X186520105Y-131272019D01*
X186567724Y-131224400D01*
X186662962Y-131176781D01*
X186853439Y-131176781D01*
X186948677Y-131224400D01*
X186996296Y-131272019D01*
X187043915Y-131367257D01*
X187043915Y-131414876D01*
X186996296Y-131510114D01*
X186948677Y-131557733D01*
X186853439Y-131605352D01*
X186662962Y-131605352D01*
X186567724Y-131652971D01*
X186520105Y-131700590D01*
X186472486Y-131795829D01*
X186472486Y-131986305D01*
X186520105Y-132081543D01*
X186567724Y-132129162D01*
X186662962Y-132176781D01*
X186853439Y-132176781D01*
X186948677Y-132129162D01*
X186996296Y-132081543D01*
X187043915Y-131986305D01*
X187043915Y-131795829D01*
X186996296Y-131700590D01*
X186948677Y-131652971D01*
X186853439Y-131605352D01*
D12*
X214441143Y-111396429D02*
X214441143Y-110796429D01*
X214584000Y-110796429D01*
X214669715Y-110825000D01*
X214726857Y-110882143D01*
X214755429Y-110939286D01*
X214784000Y-111053571D01*
X214784000Y-111139286D01*
X214755429Y-111253571D01*
X214726857Y-111310714D01*
X214669715Y-111367857D01*
X214584000Y-111396429D01*
X214441143Y-111396429D01*
X215355429Y-111396429D02*
X215012572Y-111396429D01*
X215184000Y-111396429D02*
X215184000Y-110796429D01*
X215126857Y-110882143D01*
X215069715Y-110939286D01*
X215012572Y-110967857D01*
X214441143Y-103903429D02*
X214441143Y-103303429D01*
X214584000Y-103303429D01*
X214669715Y-103332000D01*
X214726857Y-103389143D01*
X214755429Y-103446286D01*
X214784000Y-103560571D01*
X214784000Y-103646286D01*
X214755429Y-103760571D01*
X214726857Y-103817714D01*
X214669715Y-103874857D01*
X214584000Y-103903429D01*
X214441143Y-103903429D01*
X215012572Y-103360571D02*
X215041143Y-103332000D01*
X215098286Y-103303429D01*
X215241143Y-103303429D01*
X215298286Y-103332000D01*
X215326857Y-103360571D01*
X215355429Y-103417714D01*
X215355429Y-103474857D01*
X215326857Y-103560571D01*
X214984000Y-103903429D01*
X215355429Y-103903429D01*
D11*
X166381181Y-137480633D02*
X167095467Y-137480633D01*
X167238324Y-137528253D01*
X167333562Y-137623491D01*
X167381181Y-137766348D01*
X167381181Y-137861586D01*
X166381181Y-136575871D02*
X166381181Y-136766348D01*
X166428800Y-136861586D01*
X166476419Y-136909205D01*
X166619276Y-137004443D01*
X166809752Y-137052062D01*
X167190705Y-137052062D01*
X167285943Y-137004443D01*
X167333562Y-136956824D01*
X167381181Y-136861586D01*
X167381181Y-136671109D01*
X167333562Y-136575871D01*
X167285943Y-136528252D01*
X167190705Y-136480633D01*
X166952610Y-136480633D01*
X166857371Y-136528252D01*
X166809752Y-136575871D01*
X166762133Y-136671109D01*
X166762133Y-136861586D01*
X166809752Y-136956824D01*
X166857371Y-137004443D01*
X166952610Y-137052062D01*
D13*
X202029190Y-108922333D02*
X201791095Y-109089000D01*
X202029190Y-109208047D02*
X201529190Y-109208047D01*
X201529190Y-109017571D01*
X201553000Y-108969952D01*
X201576810Y-108946143D01*
X201624429Y-108922333D01*
X201695857Y-108922333D01*
X201743476Y-108946143D01*
X201767286Y-108969952D01*
X201791095Y-109017571D01*
X201791095Y-109208047D01*
X202029190Y-108446143D02*
X202029190Y-108731857D01*
X202029190Y-108589000D02*
X201529190Y-108589000D01*
X201600619Y-108636619D01*
X201648238Y-108684238D01*
X201672048Y-108731857D01*
X173271667Y-134084190D02*
X173105000Y-133846095D01*
X172985953Y-134084190D02*
X172985953Y-133584190D01*
X173176429Y-133584190D01*
X173224048Y-133608000D01*
X173247857Y-133631810D01*
X173271667Y-133679429D01*
X173271667Y-133750857D01*
X173247857Y-133798476D01*
X173224048Y-133822286D01*
X173176429Y-133846095D01*
X172985953Y-133846095D01*
X173462143Y-133631810D02*
X173485953Y-133608000D01*
X173533572Y-133584190D01*
X173652619Y-133584190D01*
X173700238Y-133608000D01*
X173724048Y-133631810D01*
X173747857Y-133679429D01*
X173747857Y-133727048D01*
X173724048Y-133798476D01*
X173438334Y-134084190D01*
X173747857Y-134084190D01*
X173271667Y-132179190D02*
X173105000Y-131941095D01*
X172985953Y-132179190D02*
X172985953Y-131679190D01*
X173176429Y-131679190D01*
X173224048Y-131703000D01*
X173247857Y-131726810D01*
X173271667Y-131774429D01*
X173271667Y-131845857D01*
X173247857Y-131893476D01*
X173224048Y-131917286D01*
X173176429Y-131941095D01*
X172985953Y-131941095D01*
X173438334Y-131679190D02*
X173747857Y-131679190D01*
X173581191Y-131869667D01*
X173652619Y-131869667D01*
X173700238Y-131893476D01*
X173724048Y-131917286D01*
X173747857Y-131964905D01*
X173747857Y-132083952D01*
X173724048Y-132131571D01*
X173700238Y-132155381D01*
X173652619Y-132179190D01*
X173509762Y-132179190D01*
X173462143Y-132155381D01*
X173438334Y-132131571D01*
D11*
X167894095Y-103084381D02*
X167894095Y-103893905D01*
X167941714Y-103989143D01*
X167989333Y-104036762D01*
X168084571Y-104084381D01*
X168275048Y-104084381D01*
X168370286Y-104036762D01*
X168417905Y-103989143D01*
X168465524Y-103893905D01*
X168465524Y-103084381D01*
X168894095Y-103179619D02*
X168941714Y-103132000D01*
X169036952Y-103084381D01*
X169275048Y-103084381D01*
X169370286Y-103132000D01*
X169417905Y-103179619D01*
X169465524Y-103274857D01*
X169465524Y-103370095D01*
X169417905Y-103512952D01*
X168846476Y-104084381D01*
X169465524Y-104084381D01*
X184350134Y-118863904D02*
X184350134Y-119673428D01*
X184397753Y-119768666D01*
X184445372Y-119816285D01*
X184540610Y-119863904D01*
X184731087Y-119863904D01*
X184826325Y-119816285D01*
X184873944Y-119768666D01*
X184921563Y-119673428D01*
X184921563Y-118863904D01*
X185302515Y-118863904D02*
X185921563Y-118863904D01*
X185588229Y-119244856D01*
X185731087Y-119244856D01*
X185826325Y-119292475D01*
X185873944Y-119340094D01*
X185921563Y-119435333D01*
X185921563Y-119673428D01*
X185873944Y-119768666D01*
X185826325Y-119816285D01*
X185731087Y-119863904D01*
X185445372Y-119863904D01*
X185350134Y-119816285D01*
X185302515Y-119768666D01*
X206705571Y-130262714D02*
X206753190Y-130119857D01*
X206800810Y-130072238D01*
X206896048Y-130024619D01*
X207038905Y-130024619D01*
X207134143Y-130072238D01*
X207181762Y-130119857D01*
X207229381Y-130215095D01*
X207229381Y-130596048D01*
X206229381Y-130596048D01*
X206229381Y-130262714D01*
X206277000Y-130167476D01*
X206324619Y-130119857D01*
X206419857Y-130072238D01*
X206515095Y-130072238D01*
X206610333Y-130119857D01*
X206657952Y-130167476D01*
X206705571Y-130262714D01*
X206705571Y-130596048D01*
X206229381Y-129738905D02*
X206229381Y-129167476D01*
X207229381Y-129453191D02*
X206229381Y-129453191D01*
X207229381Y-128310333D02*
X207229381Y-128881762D01*
X207229381Y-128596048D02*
X206229381Y-128596048D01*
X206372238Y-128691286D01*
X206467476Y-128786524D01*
X206515095Y-128881762D01*
D14*
X216955715Y-107427714D02*
X216889048Y-107427714D01*
X216889048Y-107532476D02*
X216889048Y-107332476D01*
X216984286Y-107332476D01*
X217060477Y-107532476D02*
X217060477Y-107332476D01*
X217155715Y-107532476D02*
X217155715Y-107332476D01*
X217203334Y-107332476D01*
X217231906Y-107342000D01*
X217250953Y-107361048D01*
X217260477Y-107380095D01*
X217270001Y-107418190D01*
X217270001Y-107446762D01*
X217260477Y-107484857D01*
X217250953Y-107503905D01*
X217231906Y-107522952D01*
X217203334Y-107532476D01*
X217155715Y-107532476D01*
X217460477Y-107532476D02*
X217346191Y-107532476D01*
X217403334Y-107532476D02*
X217403334Y-107332476D01*
X217384286Y-107361048D01*
X217365239Y-107380095D01*
X217346191Y-107389619D01*
X216828715Y-140320714D02*
X216762048Y-140320714D01*
X216762048Y-140425476D02*
X216762048Y-140225476D01*
X216857286Y-140225476D01*
X216933477Y-140425476D02*
X216933477Y-140225476D01*
X217028715Y-140425476D02*
X217028715Y-140225476D01*
X217076334Y-140225476D01*
X217104906Y-140235000D01*
X217123953Y-140254048D01*
X217133477Y-140273095D01*
X217143001Y-140311190D01*
X217143001Y-140339762D01*
X217133477Y-140377857D01*
X217123953Y-140396905D01*
X217104906Y-140415952D01*
X217076334Y-140425476D01*
X217028715Y-140425476D01*
X217219191Y-140244524D02*
X217228715Y-140235000D01*
X217247763Y-140225476D01*
X217295382Y-140225476D01*
X217314429Y-140235000D01*
X217323953Y-140244524D01*
X217333477Y-140263571D01*
X217333477Y-140282619D01*
X217323953Y-140311190D01*
X217209667Y-140425476D01*
X217333477Y-140425476D01*
X170981715Y-140320714D02*
X170915048Y-140320714D01*
X170915048Y-140425476D02*
X170915048Y-140225476D01*
X171010286Y-140225476D01*
X171086477Y-140425476D02*
X171086477Y-140225476D01*
X171181715Y-140425476D02*
X171181715Y-140225476D01*
X171229334Y-140225476D01*
X171257906Y-140235000D01*
X171276953Y-140254048D01*
X171286477Y-140273095D01*
X171296001Y-140311190D01*
X171296001Y-140339762D01*
X171286477Y-140377857D01*
X171276953Y-140396905D01*
X171257906Y-140415952D01*
X171229334Y-140425476D01*
X171181715Y-140425476D01*
X171362667Y-140225476D02*
X171486477Y-140225476D01*
X171419810Y-140301667D01*
X171448382Y-140301667D01*
X171467429Y-140311190D01*
X171476953Y-140320714D01*
X171486477Y-140339762D01*
X171486477Y-140387381D01*
X171476953Y-140406429D01*
X171467429Y-140415952D01*
X171448382Y-140425476D01*
X171391239Y-140425476D01*
X171372191Y-140415952D01*
X171362667Y-140406429D01*
M02*
