M48
;DRILL file {KiCad 4.0.7-e2-6376~58~ubuntu16.04.1} date Thu May  2 14:05:21 2019
;FORMAT={-:-/ absolute / inch / decimal}
FMAT,2
INCH,TZ
T1C0.016
T2C0.024
T3C0.030
T4C0.033
T5C0.039
%
G90
G05
M72
T1
X6.595Y-4.8
X6.635Y-4.125
X6.635Y-4.285
X6.765Y-4.91
X6.805Y-4.705
X6.815Y-3.995
X6.84Y-4.13
X6.84Y-4.505
X6.84Y-4.8
X6.85Y-4.21
X6.87Y-4.735
X6.9Y-4.855
X6.9Y-5.295
X6.905Y-5.24
X6.93Y-4.915
X6.935Y-4.78
X6.95Y-5.135
X6.99Y-4.07
X6.99Y-4.21
X7.005Y-5.095
X7.035Y-4.76
X7.05Y-4.805
X7.05Y-5.
X7.05Y-5.165
X7.055Y-3.985
X7.1Y-3.975
X7.15Y-4.31
X7.15Y-4.995
X7.175Y-4.265
X7.175Y-4.665
X7.185Y-4.995
X7.185Y-5.19
X7.19Y-5.03
X7.215Y-5.32
X7.22Y-4.8
X7.235Y-4.305
X7.27Y-4.355
X7.27Y-5.325
X7.28Y-4.58
X7.2827Y-4.9655
X7.31Y-4.425
X7.31Y-4.705
X7.32Y-5.115
X7.335Y-4.685
X7.34Y-5.185
X7.355Y-4.435
X7.365Y-4.73
X7.37Y-4.815
X7.385Y-4.76
X7.4Y-4.315
X7.4228Y-5.028
X7.43Y-5.15
X7.455Y-5.32
X7.46Y-5.14
X7.48Y-4.85
X7.5Y-3.98
X7.5Y-4.555
X7.51Y-4.765
X7.525Y-5.265
X7.545Y-3.975
X7.55Y-5.33
X7.56Y-5.015
X7.56Y-5.295
X7.595Y-4.545
X7.73Y-4.595
X7.835Y-5.515
X7.86Y-4.605
X7.91Y-3.965
X7.945Y-4.475
X7.96Y-4.365
X8.045Y-4.86
X8.06Y-4.575
X8.095Y-4.89
X8.1Y-4.475
X8.1Y-4.605
X8.125Y-4.635
X8.13Y-4.76
X8.145Y-4.925
X8.155Y-4.875
X8.165Y-4.055
X8.19Y-4.085
X8.19Y-4.845
X8.215Y-4.815
X8.22Y-4.105
X8.455Y-3.96
T3
X7.5688Y-2.8953
X7.6357Y-3.9858
X7.7145Y-3.9858
T4
X6.6575Y-5.3016
X6.6575Y-5.4984
T5
X6.85Y-5.4
X6.85Y-5.5
X6.95Y-5.4
X6.95Y-5.5
X7.05Y-5.4
X7.05Y-5.5
X7.15Y-5.4
X7.15Y-5.5
X7.25Y-5.4
X7.25Y-5.5
X7.3Y-4.1
X7.4Y-4.15
X7.4Y-5.4
X7.5Y-4.1
X7.5Y-5.4
X7.6Y-4.15
X7.6Y-5.4
X7.7Y-4.1
X7.7Y-5.4
X7.78Y-4.3
X7.78Y-4.4
X7.8Y-4.15
X7.9Y-4.1
X8.06Y-4.1
X8.06Y-4.2
T2
X6.5374Y-5.2622G85X6.565Y-5.2622
G05
X6.565Y-5.5378G85X6.5374Y-5.5378
G05
T0
M30
