G04 #@! TF.FileFunction,Copper,L1,Top,Signal*
%FSLAX46Y46*%
G04 Gerber Fmt 4.6, Leading zero omitted, Abs format (unit mm)*
G04 Created by KiCad (PCBNEW 4.0.7-e2-6376~58~ubuntu16.04.1) date Mon Apr 29 13:57:36 2019*
%MOMM*%
%LPD*%
G01*
G04 APERTURE LIST*
%ADD10C,0.100000*%
%ADD11C,0.150000*%
%ADD12R,1.600000X3.500000*%
%ADD13R,1.250000X1.000000*%
%ADD14R,1.000000X1.250000*%
%ADD15R,2.000000X1.100000*%
%ADD16R,1.700000X1.700000*%
%ADD17O,1.700000X1.700000*%
%ADD18R,1.900000X1.500000*%
%ADD19C,1.450000*%
%ADD20R,1.350000X0.400000*%
%ADD21O,1.900000X1.200000*%
%ADD22R,1.900000X1.200000*%
%ADD23R,1.300000X0.700000*%
%ADD24R,0.700000X1.300000*%
%ADD25R,1.400000X2.100000*%
%ADD26R,1.680000X2.000000*%
%ADD27R,1.550000X0.600000*%
%ADD28R,0.250000X1.300000*%
%ADD29R,1.300000X0.250000*%
%ADD30R,3.960000X3.960000*%
%ADD31R,5.080000X1.270000*%
%ADD32C,0.500000*%
%ADD33C,1.524000*%
%ADD34C,0.600000*%
%ADD35C,0.250000*%
%ADD36C,1.000000*%
%ADD37C,0.500000*%
%ADD38C,0.254000*%
G04 APERTURE END LIST*
D10*
D11*
G36*
X199523000Y-33090000D02*
X199523000Y-28890000D01*
X199523000Y-28890000D01*
X190323000Y-28890000D01*
X190323000Y-28890000D01*
X190323000Y-31890000D01*
X190323000Y-31890000D01*
X197923000Y-31890000D01*
X197923000Y-31890000D01*
X197923000Y-33090000D01*
X197923000Y-33090000D01*
X199523000Y-33090000D01*
X199523000Y-33090000D01*
G37*
X199523000Y-33090000D02*
X199523000Y-28890000D01*
X199523000Y-28890000D01*
X190323000Y-28890000D01*
X190323000Y-28890000D01*
X190323000Y-31890000D01*
X190323000Y-31890000D01*
X197923000Y-31890000D01*
X197923000Y-31890000D01*
X197923000Y-33090000D01*
X197923000Y-33090000D01*
X199523000Y-33090000D01*
X195948000Y-101240000D02*
X195948000Y-73240000D01*
X195948000Y-73240000D02*
X191948000Y-73240000D01*
D12*
X175895000Y-108237000D03*
X175895000Y-102837000D03*
D13*
X192913000Y-116729000D03*
X192913000Y-118729000D03*
D14*
X183245000Y-111125000D03*
X181245000Y-111125000D03*
D13*
X194945000Y-116729000D03*
X194945000Y-118729000D03*
D14*
X187309000Y-129794000D03*
X185309000Y-129794000D03*
X183245000Y-113030000D03*
X181245000Y-113030000D03*
D13*
X177927000Y-124063000D03*
X177927000Y-122063000D03*
D14*
X187309000Y-131699000D03*
X185309000Y-131699000D03*
D15*
X212484000Y-109425000D03*
X212484000Y-111125000D03*
X212484000Y-112825000D03*
X217284000Y-112825000D03*
X217284000Y-111125000D03*
X217284000Y-109425000D03*
X212484000Y-101932000D03*
X212484000Y-103632000D03*
X212484000Y-105332000D03*
X217284000Y-105332000D03*
X217284000Y-103632000D03*
X217284000Y-101932000D03*
D16*
X185420000Y-104140000D03*
D17*
X187960000Y-105410000D03*
X190500000Y-104140000D03*
X193040000Y-105410000D03*
X195580000Y-104140000D03*
X198120000Y-105410000D03*
X200660000Y-104140000D03*
D16*
X187960000Y-137160000D03*
D17*
X190500000Y-137160000D03*
X193040000Y-137160000D03*
X195580000Y-137160000D03*
D16*
X204724000Y-106680000D03*
D17*
X204724000Y-104140000D03*
D16*
X197612000Y-109220000D03*
D17*
X197612000Y-111760000D03*
D16*
X173990000Y-139700000D03*
D17*
X173990000Y-137160000D03*
X176530000Y-139700000D03*
X176530000Y-137160000D03*
X179070000Y-139700000D03*
X179070000Y-137160000D03*
X181610000Y-139700000D03*
X181610000Y-137160000D03*
X184150000Y-139700000D03*
X184150000Y-137160000D03*
D18*
X166401000Y-138160000D03*
D19*
X169101000Y-134660000D03*
D20*
X169101000Y-136510000D03*
X169101000Y-135860000D03*
X169101000Y-138460000D03*
X169101000Y-137810000D03*
X169101000Y-137160000D03*
D19*
X169101000Y-139660000D03*
D18*
X166401000Y-136160000D03*
D21*
X166401000Y-133660000D03*
X166401000Y-140660000D03*
D22*
X166401000Y-140060000D03*
X166401000Y-134260000D03*
D23*
X201803000Y-107889000D03*
X201803000Y-109789000D03*
D24*
X174305000Y-133858000D03*
X172405000Y-133858000D03*
X174305000Y-131953000D03*
X172405000Y-131953000D03*
D25*
X170576000Y-131020000D03*
X166116000Y-131020000D03*
X170576000Y-121920000D03*
X166116000Y-121920000D03*
X170576000Y-118828000D03*
X166116000Y-118828000D03*
X170576000Y-109728000D03*
X166116000Y-109728000D03*
D26*
X198723000Y-34110000D03*
X196183000Y-34110000D03*
X193643000Y-34110000D03*
X191183000Y-34110000D03*
X191103000Y-26490000D03*
X193643000Y-26490000D03*
X196183000Y-26490000D03*
X198723000Y-26490000D03*
D27*
X165956000Y-101727000D03*
X165956000Y-102997000D03*
X165956000Y-104267000D03*
X165956000Y-105537000D03*
X171356000Y-105537000D03*
X171356000Y-104267000D03*
X171356000Y-102997000D03*
X171356000Y-101727000D03*
D28*
X187862039Y-115061523D03*
X187362039Y-115061523D03*
X186862039Y-115061523D03*
X186362039Y-115061523D03*
X185862039Y-115061523D03*
X185362039Y-115061523D03*
X184862039Y-115061523D03*
X184362039Y-115061523D03*
X183862039Y-115061523D03*
X183362039Y-115061523D03*
X182862039Y-115061523D03*
X182362039Y-115061523D03*
D29*
X180762039Y-116661523D03*
X180762039Y-117161523D03*
X180762039Y-117661523D03*
X180762039Y-118161523D03*
X180762039Y-118661523D03*
X180762039Y-119161523D03*
X180762039Y-119661523D03*
X180762039Y-120161523D03*
X180762039Y-120661523D03*
X180762039Y-121161523D03*
X180762039Y-121661523D03*
X180762039Y-122161523D03*
D28*
X182362039Y-123761523D03*
X182862039Y-123761523D03*
X183362039Y-123761523D03*
X183862039Y-123761523D03*
X184362039Y-123761523D03*
X184862039Y-123761523D03*
X185362039Y-123761523D03*
X185862039Y-123761523D03*
X186362039Y-123761523D03*
X186862039Y-123761523D03*
X187362039Y-123761523D03*
X187862039Y-123761523D03*
D29*
X189462039Y-122161523D03*
X189462039Y-121661523D03*
X189462039Y-121161523D03*
X189462039Y-120661523D03*
X189462039Y-120161523D03*
X189462039Y-119661523D03*
X189462039Y-119161523D03*
X189462039Y-118661523D03*
X189462039Y-118161523D03*
X189462039Y-117661523D03*
X189462039Y-117161523D03*
X189462039Y-116661523D03*
D30*
X209677000Y-129477000D03*
D31*
X209677000Y-118492000D03*
X209677000Y-140462000D03*
D32*
X217170000Y-107442000D03*
X217043000Y-140335000D03*
X171196000Y-140335000D03*
D33*
X192248000Y-73540000D03*
X193948000Y-101240000D03*
X195948000Y-101240000D03*
D34*
X187960000Y-109601000D03*
X196342000Y-116713000D03*
X199644000Y-116967000D03*
X182499000Y-131826000D03*
X175387000Y-133096000D03*
X176022000Y-124841000D03*
X205740000Y-113665000D03*
X199009000Y-140081000D03*
X173736000Y-104902000D03*
X177546000Y-106934000D03*
X192913000Y-115443000D03*
X187198000Y-122301000D03*
X184658000Y-135255000D03*
X186436000Y-131699000D03*
X179070000Y-122047000D03*
X171831000Y-124714000D03*
X167513000Y-121920000D03*
X175260000Y-123317000D03*
X177546000Y-103378000D03*
X202184000Y-110871000D03*
X201803000Y-113665000D03*
X184912000Y-116332000D03*
X182245000Y-118491000D03*
X184658000Y-110617000D03*
X181610000Y-109474000D03*
X168529000Y-104775000D03*
X168529000Y-108839000D03*
X185928000Y-129921000D03*
X200914000Y-100711000D03*
X186309000Y-118999000D03*
X186817000Y-112649000D03*
X185674000Y-112395000D03*
X185674000Y-119507000D03*
X182626000Y-127762000D03*
X188722000Y-130810000D03*
X207137000Y-123825000D03*
X207391000Y-102997000D03*
X184979325Y-126123855D03*
X188538462Y-127710577D03*
X208026000Y-123063000D03*
X208026000Y-103759000D03*
X208661000Y-122301000D03*
X208788000Y-104267000D03*
X190500000Y-115697000D03*
X173101000Y-101473000D03*
X172847000Y-119507000D03*
X190500000Y-101092000D03*
X173990000Y-106934000D03*
X174498000Y-120269000D03*
X183769000Y-109347000D03*
X182245000Y-108331000D03*
X189992000Y-123190000D03*
X206375000Y-117729000D03*
X206502000Y-120904000D03*
X206883000Y-125095000D03*
X175260000Y-134493000D03*
X191135000Y-133731000D03*
X190754000Y-121031000D03*
X176530000Y-130429000D03*
X181610000Y-126873000D03*
X187071000Y-120142000D03*
X176149000Y-121412000D03*
X179070000Y-131191000D03*
X182499000Y-126873000D03*
X187579000Y-120904000D03*
X192024000Y-134493000D03*
X192024000Y-127381000D03*
X204343000Y-123444000D03*
X204724000Y-116205000D03*
X205613000Y-124206000D03*
X205740000Y-116967000D03*
X189357000Y-135128000D03*
X189484000Y-130556000D03*
X173736000Y-121920000D03*
X173736000Y-114427000D03*
X183388000Y-121920000D03*
X191643000Y-100965000D03*
X178689000Y-120904000D03*
X180340000Y-100965000D03*
X177927000Y-129413000D03*
X179197000Y-101219000D03*
X179070000Y-127000000D03*
X183261000Y-135128000D03*
X191770000Y-135382000D03*
X214757000Y-100584000D03*
D35*
X193948000Y-101240000D02*
X192765000Y-101240000D01*
X173355000Y-102997000D02*
X171356000Y-102997000D01*
X173355000Y-103505000D02*
X173355000Y-102997000D01*
X174936998Y-105086998D02*
X173355000Y-103505000D01*
X177165000Y-105086998D02*
X174936998Y-105086998D01*
X180143998Y-102108000D02*
X177165000Y-105086998D01*
X191897000Y-102108000D02*
X180143998Y-102108000D01*
X192765000Y-101240000D02*
X191897000Y-102108000D01*
X180467000Y-102616000D02*
X193548000Y-102616000D01*
X193548000Y-102616000D02*
X194572000Y-102616000D01*
X194572000Y-102616000D02*
X195948000Y-101240000D01*
X171356000Y-105537000D02*
X177546000Y-105537000D01*
X177546000Y-105537000D02*
X180467000Y-102616000D01*
D36*
X187309000Y-129794000D02*
X187309000Y-131699000D01*
D35*
X184912000Y-109347000D02*
X183245000Y-111014000D01*
X187706000Y-109347000D02*
X184912000Y-109347000D01*
X187960000Y-109601000D02*
X187706000Y-109347000D01*
X183245000Y-111014000D02*
X183245000Y-111125000D01*
X205740000Y-113665000D02*
X202946000Y-113665000D01*
X196326000Y-116729000D02*
X194945000Y-116729000D01*
X196342000Y-116713000D02*
X196326000Y-116729000D01*
X202946000Y-113665000D02*
X199644000Y-116967000D01*
X177927000Y-124063000D02*
X176800000Y-124063000D01*
X181483000Y-132842000D02*
X182499000Y-131826000D01*
X180213000Y-132842000D02*
X181483000Y-132842000D01*
X179705000Y-133350000D02*
X180213000Y-132842000D01*
X175641000Y-133350000D02*
X179705000Y-133350000D01*
X175387000Y-133096000D02*
X175641000Y-133350000D01*
X176800000Y-124063000D02*
X176022000Y-124841000D01*
X209677000Y-118492000D02*
X209677000Y-117602000D01*
X209677000Y-117602000D02*
X205740000Y-113665000D01*
X209677000Y-140462000D02*
X199390000Y-140462000D01*
X199390000Y-140462000D02*
X199009000Y-140081000D01*
X175895000Y-108237000D02*
X176243000Y-108237000D01*
X176243000Y-108237000D02*
X177546000Y-106934000D01*
X173101000Y-104267000D02*
X171356000Y-104267000D01*
X173736000Y-104902000D02*
X173101000Y-104267000D01*
X187862039Y-115061523D02*
X187862039Y-116174563D01*
X183862039Y-116806039D02*
X183862039Y-115061523D01*
X184267521Y-117211521D02*
X183862039Y-116806039D01*
X186825081Y-117211521D02*
X184267521Y-117211521D01*
X187862039Y-116174563D02*
X186825081Y-117211521D01*
X192913000Y-115443000D02*
X192913000Y-114935000D01*
X188468477Y-115061523D02*
X187862039Y-115061523D01*
X188976000Y-114554000D02*
X188468477Y-115061523D01*
X192532000Y-114554000D02*
X188976000Y-114554000D01*
X192913000Y-114935000D02*
X192532000Y-114554000D01*
X187862039Y-123761523D02*
X187862039Y-122965039D01*
X192913000Y-115443000D02*
X192913000Y-116729000D01*
X187862039Y-122965039D02*
X187198000Y-122301000D01*
X181610000Y-139700000D02*
X181610000Y-139573000D01*
X181610000Y-139573000D02*
X182880000Y-138303000D01*
X184277000Y-135255000D02*
X184658000Y-135255000D01*
X182880000Y-136652000D02*
X184277000Y-135255000D01*
X182880000Y-138303000D02*
X182880000Y-136652000D01*
X186436000Y-131699000D02*
X187309000Y-131699000D01*
X183245000Y-111125000D02*
X183245000Y-113030000D01*
X183245000Y-113030000D02*
X183245000Y-113268000D01*
X183245000Y-113268000D02*
X183862039Y-113885039D01*
X183862039Y-113885039D02*
X183862039Y-115061523D01*
X175895000Y-108237000D02*
X175420000Y-108237000D01*
X189462039Y-116661523D02*
X192845523Y-116661523D01*
X192845523Y-116661523D02*
X192913000Y-116729000D01*
X192913000Y-116729000D02*
X194945000Y-116729000D01*
X180762039Y-122161523D02*
X180762039Y-122259961D01*
X180762039Y-122259961D02*
X178959000Y-124063000D01*
X178959000Y-124063000D02*
X177927000Y-124063000D01*
X195580000Y-137160000D02*
X195580000Y-135001000D01*
X192278000Y-131699000D02*
X187309000Y-131699000D01*
X195580000Y-135001000D02*
X192278000Y-131699000D01*
X187862039Y-123761523D02*
X187862039Y-128367961D01*
X187309000Y-128921000D02*
X187309000Y-131699000D01*
X187862039Y-128367961D02*
X187309000Y-128921000D01*
D36*
X185309000Y-131699000D02*
X185309000Y-129794000D01*
X194945000Y-118729000D02*
X192913000Y-118729000D01*
D37*
X184150000Y-139700000D02*
X185420000Y-139700000D01*
X184150000Y-139700000D02*
X185674000Y-138176000D01*
X185674000Y-138176000D02*
X185928000Y-138176000D01*
X185928000Y-138176000D02*
X186944000Y-137160000D01*
X186944000Y-137160000D02*
X187960000Y-137160000D01*
X184150000Y-139700000D02*
X185420000Y-139700000D01*
X185420000Y-139700000D02*
X187960000Y-137160000D01*
D36*
X169101000Y-139660000D02*
X166801000Y-139660000D01*
X166801000Y-139660000D02*
X166401000Y-140060000D01*
X166401000Y-140060000D02*
X166401000Y-140660000D01*
X169101000Y-134660000D02*
X166801000Y-134660000D01*
X166801000Y-134660000D02*
X166401000Y-134260000D01*
X166401000Y-134260000D02*
X166401000Y-133660000D01*
X166401000Y-140660000D02*
X166401000Y-133660000D01*
X166401000Y-133660000D02*
X166116000Y-133375000D01*
X166116000Y-133375000D02*
X166116000Y-131020000D01*
X166116000Y-118828000D02*
X166116000Y-109728000D01*
X166116000Y-121920000D02*
X166116000Y-118828000D01*
X166116000Y-131020000D02*
X166116000Y-121920000D01*
D37*
X209677000Y-129477000D02*
X209677000Y-126365000D01*
X217284000Y-121298000D02*
X217284000Y-112825000D01*
X215392000Y-123190000D02*
X217284000Y-121298000D01*
X212852000Y-123190000D02*
X215392000Y-123190000D01*
X209677000Y-126365000D02*
X212852000Y-123190000D01*
X202184000Y-110871000D02*
X203073000Y-110871000D01*
X208788000Y-110236000D02*
X211836000Y-107188000D01*
X203708000Y-110236000D02*
X208788000Y-110236000D01*
X203073000Y-110871000D02*
X203708000Y-110236000D01*
X215138000Y-107188000D02*
X211836000Y-107188000D01*
D35*
X211836000Y-107188000D02*
X209235000Y-109789000D01*
X209235000Y-109789000D02*
X201803000Y-109789000D01*
D37*
X217284000Y-109425000D02*
X216613000Y-109425000D01*
X216613000Y-109425000D02*
X215138000Y-107950000D01*
X215978000Y-105332000D02*
X217284000Y-105332000D01*
X215138000Y-106172000D02*
X215978000Y-105332000D01*
X215138000Y-107950000D02*
X215138000Y-107188000D01*
X215138000Y-107188000D02*
X215138000Y-106172000D01*
D36*
X217284000Y-105332000D02*
X217284000Y-101932000D01*
X217284000Y-112825000D02*
X217284000Y-109425000D01*
D35*
X169101000Y-139660000D02*
X169101000Y-138460000D01*
X169101000Y-138460000D02*
X167501000Y-140060000D01*
X167501000Y-140060000D02*
X166401000Y-140060000D01*
X166401000Y-140060000D02*
X166401000Y-138160000D01*
X166401000Y-138160000D02*
X166401000Y-136160000D01*
X166401000Y-136160000D02*
X166401000Y-133660000D01*
X166401000Y-133660000D02*
X167401000Y-134660000D01*
X167401000Y-134660000D02*
X169101000Y-134660000D01*
X217284000Y-111125000D02*
X217284000Y-109425000D01*
X217284000Y-111125000D02*
X217284000Y-112825000D01*
X217284000Y-103632000D02*
X217284000Y-105332000D01*
X217284000Y-101932000D02*
X217284000Y-103632000D01*
X179070000Y-122047000D02*
X179054000Y-122063000D01*
X175260000Y-123317000D02*
X173228000Y-123317000D01*
X173228000Y-123317000D02*
X171831000Y-124714000D01*
X167513000Y-121920000D02*
X166116000Y-121920000D01*
X175895000Y-102837000D02*
X177005000Y-102837000D01*
X176514000Y-122063000D02*
X177927000Y-122063000D01*
X175260000Y-123317000D02*
X176514000Y-122063000D01*
X177005000Y-102837000D02*
X177546000Y-103378000D01*
X217284000Y-112825000D02*
X217284000Y-121425000D01*
X217284000Y-121425000D02*
X209677000Y-129032000D01*
X209677000Y-129032000D02*
X209677000Y-129477000D01*
X194945000Y-118729000D02*
X196739000Y-118729000D01*
X201803000Y-110490000D02*
X201803000Y-109789000D01*
X202184000Y-110871000D02*
X201803000Y-110490000D01*
X196739000Y-118729000D02*
X201803000Y-113665000D01*
X189462039Y-117161523D02*
X188527477Y-117161523D01*
X184362039Y-116290039D02*
X184362039Y-115111521D01*
X184404000Y-116332000D02*
X184362039Y-116290039D01*
X184912000Y-116332000D02*
X184404000Y-116332000D01*
X182499000Y-118237000D02*
X182245000Y-118491000D01*
X187452000Y-118237000D02*
X182499000Y-118237000D01*
X188527477Y-117161523D02*
X187452000Y-118237000D01*
X184362039Y-115111521D02*
X184412037Y-115061523D01*
X184412037Y-115061523D02*
X184362039Y-115061523D01*
X184362039Y-110912961D02*
X184362039Y-115061523D01*
X184658000Y-110617000D02*
X184362039Y-110912961D01*
X181245000Y-111125000D02*
X181245000Y-109839000D01*
X181245000Y-109839000D02*
X181610000Y-109474000D01*
X175895000Y-102837000D02*
X174846000Y-102837000D01*
X168529000Y-103759000D02*
X168529000Y-104775000D01*
X169926000Y-102362000D02*
X168529000Y-103759000D01*
X174371000Y-102362000D02*
X169926000Y-102362000D01*
X174846000Y-102837000D02*
X174371000Y-102362000D01*
X165956000Y-104267000D02*
X168021000Y-104267000D01*
X167640000Y-109728000D02*
X166116000Y-109728000D01*
X168529000Y-108839000D02*
X167640000Y-109728000D01*
X168021000Y-104267000D02*
X168529000Y-104775000D01*
X185928000Y-129921000D02*
X185801000Y-129794000D01*
X185801000Y-129794000D02*
X185309000Y-129794000D01*
X187960000Y-137160000D02*
X187833000Y-137160000D01*
X187833000Y-137160000D02*
X185293000Y-139700000D01*
X185293000Y-139700000D02*
X184150000Y-139700000D01*
X167290000Y-133660000D02*
X167290000Y-132194000D01*
X167290000Y-132194000D02*
X166116000Y-131020000D01*
X166116000Y-131020000D02*
X166116000Y-118828000D01*
X167290000Y-140660000D02*
X167290000Y-138160000D01*
X167290000Y-138160000D02*
X167290000Y-136160000D01*
X167290000Y-136160000D02*
X167290000Y-133660000D01*
X168804000Y-140060000D02*
X167290000Y-140060000D01*
X169204000Y-139660000D02*
X168804000Y-140060000D01*
X167290000Y-140060000D02*
X167290000Y-140660000D01*
X198723000Y-34110000D02*
X198723000Y-35084000D01*
X198723000Y-35084000D02*
X196850000Y-36957000D01*
X196850000Y-36957000D02*
X196850000Y-96647000D01*
X196850000Y-96647000D02*
X200914000Y-100711000D01*
X181245000Y-111125000D02*
X181245000Y-113030000D01*
X201803000Y-109789000D02*
X200594000Y-109789000D01*
X200594000Y-109789000D02*
X200025000Y-109220000D01*
X200025000Y-109220000D02*
X197612000Y-109220000D01*
X189462039Y-117161523D02*
X191345523Y-117161523D01*
X191345523Y-117161523D02*
X192913000Y-118729000D01*
X180762039Y-121661523D02*
X179455477Y-121661523D01*
X179455477Y-121661523D02*
X179054000Y-122063000D01*
X179054000Y-122063000D02*
X177927000Y-122063000D01*
X187362039Y-123761523D02*
X187362039Y-127978961D01*
X187362039Y-127978961D02*
X186817000Y-128524000D01*
X186817000Y-128524000D02*
X185674000Y-128524000D01*
X185674000Y-128524000D02*
X185309000Y-128889000D01*
X185309000Y-128889000D02*
X185309000Y-131699000D01*
X189462039Y-121661523D02*
X214761477Y-121661523D01*
X213565000Y-109425000D02*
X212484000Y-109425000D01*
X215519000Y-111379000D02*
X213565000Y-109425000D01*
X215519000Y-120904000D02*
X215519000Y-111379000D01*
X214761477Y-121661523D02*
X215519000Y-120904000D01*
X186817000Y-112522000D02*
X186817000Y-112649000D01*
X187071000Y-112268000D02*
X186817000Y-112522000D01*
X212484000Y-111125000D02*
X211180998Y-111125000D01*
X194691000Y-113030000D02*
X193929000Y-112268000D01*
X199193998Y-113030000D02*
X194691000Y-113030000D01*
X199955998Y-112268000D02*
X199193998Y-113030000D01*
X210037998Y-112268000D02*
X199955998Y-112268000D01*
X211180998Y-111125000D02*
X210037998Y-112268000D01*
X193929000Y-112268000D02*
X187071000Y-112268000D01*
X182844477Y-119161523D02*
X180762039Y-119161523D01*
X183134000Y-118872000D02*
X182844477Y-119161523D01*
X186182000Y-118872000D02*
X183134000Y-118872000D01*
X186309000Y-118999000D02*
X186182000Y-118872000D01*
X194437000Y-113538000D02*
X194056000Y-113538000D01*
X185674000Y-119507000D02*
X185469479Y-119711521D01*
X185469479Y-119711521D02*
X180762039Y-119711521D01*
X186563000Y-113284000D02*
X185674000Y-112395000D01*
X187198000Y-113284000D02*
X186563000Y-113284000D01*
X187763998Y-112718002D02*
X187198000Y-113284000D01*
X193236002Y-112718002D02*
X187763998Y-112718002D01*
X194056000Y-113538000D02*
X193236002Y-112718002D01*
X212484000Y-112825000D02*
X200230000Y-112825000D01*
X199517000Y-113538000D02*
X194437000Y-113538000D01*
X194437000Y-113538000D02*
X194367998Y-113538000D01*
X200230000Y-112825000D02*
X199517000Y-113538000D01*
X180762039Y-119711521D02*
X180762039Y-119661523D01*
X207137000Y-123825000D02*
X199517000Y-131445000D01*
X199517000Y-131445000D02*
X192660410Y-131445000D01*
X192660410Y-131445000D02*
X192406410Y-131191000D01*
X192406410Y-131191000D02*
X189103000Y-131191000D01*
X189103000Y-131191000D02*
X188722000Y-130810000D01*
X212484000Y-101932000D02*
X208456000Y-101932000D01*
X184362039Y-126025961D02*
X184362039Y-123761523D01*
X182626000Y-127762000D02*
X184362039Y-126025961D01*
X208456000Y-101932000D02*
X207391000Y-102997000D01*
X184979325Y-126123855D02*
X184862039Y-126006569D01*
X184862039Y-126006569D02*
X184862039Y-123761523D01*
X191516000Y-128143000D02*
X188723410Y-128143000D01*
X188723410Y-128143000D02*
X188538462Y-127958052D01*
X188538462Y-127958052D02*
X188538462Y-127710577D01*
X212484000Y-103632000D02*
X208153000Y-103632000D01*
X200660000Y-128143000D02*
X191516000Y-128143000D01*
X205740000Y-123063000D02*
X200660000Y-128143000D01*
X208026000Y-123063000D02*
X205740000Y-123063000D01*
X208153000Y-103632000D02*
X208026000Y-103759000D01*
X205299284Y-122799001D02*
X196088000Y-122799001D01*
X189611000Y-123952000D02*
X194935001Y-123952000D01*
X194935001Y-123952000D02*
X196088000Y-122799001D01*
X188585001Y-122926001D02*
X189611000Y-123952000D01*
X188585001Y-122799001D02*
X188585001Y-122926001D01*
X208661000Y-122301000D02*
X208661000Y-122772998D01*
X208661000Y-122772998D02*
X208326001Y-122437999D01*
X208326001Y-122437999D02*
X205660286Y-122437999D01*
X205660286Y-122437999D02*
X205299284Y-122799001D01*
X188585001Y-122799001D02*
X186690000Y-120904000D01*
X186690000Y-120904000D02*
X186055000Y-120904000D01*
X186055000Y-120904000D02*
X185362039Y-121596961D01*
X185362039Y-121596961D02*
X185362039Y-123761523D01*
X212484000Y-105332000D02*
X209853000Y-105332000D01*
X209853000Y-105332000D02*
X208788000Y-104267000D01*
X189230000Y-101092000D02*
X190500000Y-101092000D01*
X188849000Y-101473000D02*
X189230000Y-101092000D01*
X180015588Y-101600000D02*
X188849000Y-101600000D01*
X188849000Y-101600000D02*
X188849000Y-101473000D01*
X178618588Y-102997000D02*
X180015588Y-101600000D01*
X178308000Y-102870000D02*
X178435000Y-102997000D01*
X178435000Y-102997000D02*
X178618588Y-102997000D01*
X177419000Y-102108000D02*
X178181000Y-102870000D01*
X178181000Y-102870000D02*
X178308000Y-102870000D01*
X169545000Y-100711000D02*
X177419000Y-100711000D01*
X177419000Y-100711000D02*
X177419000Y-102108000D01*
X187011477Y-117661523D02*
X180762039Y-117661523D01*
X188722000Y-115951000D02*
X187011477Y-117661523D01*
X190246000Y-115951000D02*
X188722000Y-115951000D01*
X190500000Y-115697000D02*
X190246000Y-115951000D01*
X173101000Y-101473000D02*
X173101000Y-100711000D01*
X173101000Y-100711000D02*
X173101000Y-100838000D01*
X180762039Y-117661523D02*
X177613477Y-117661523D01*
X175768000Y-119507000D02*
X172847000Y-119507000D01*
X177613477Y-117661523D02*
X175768000Y-119507000D01*
X165956000Y-102997000D02*
X167259000Y-102997000D01*
X167259000Y-102997000D02*
X169545000Y-100711000D01*
X180762039Y-118661523D02*
X177375477Y-118661523D01*
X175768000Y-120269000D02*
X174498000Y-120269000D01*
X177375477Y-118661523D02*
X175768000Y-120269000D01*
X165956000Y-105537000D02*
X167132000Y-105537000D01*
X185928000Y-106045000D02*
X186595001Y-105377999D01*
X191262000Y-105410000D02*
X193040000Y-105410000D01*
X167132000Y-105537000D02*
X168529000Y-106934000D01*
X168529000Y-106934000D02*
X173990000Y-106934000D01*
X174879000Y-106045000D02*
X185928000Y-106045000D01*
X190232082Y-105611084D02*
X190754000Y-105611084D01*
X173990000Y-106934000D02*
X174879000Y-106045000D01*
X186595001Y-105377999D02*
X186595001Y-104869999D01*
X186595001Y-104869999D02*
X187325000Y-104140000D01*
X187325000Y-104140000D02*
X188760998Y-104140000D01*
X188760998Y-104140000D02*
X190232082Y-105611084D01*
X190754000Y-105611084D02*
X191262000Y-105410000D01*
X182362039Y-115061523D02*
X182362039Y-109610961D01*
X182362039Y-109610961D02*
X183642000Y-108331000D01*
X183642000Y-108331000D02*
X193546590Y-108331000D01*
X193546590Y-108331000D02*
X195580000Y-106297590D01*
X195580000Y-106297590D02*
X195580000Y-105664000D01*
X195580000Y-105664000D02*
X195580000Y-104140000D01*
X181737705Y-108458705D02*
X181909999Y-108630999D01*
X181909999Y-108630999D02*
X181945001Y-108630999D01*
X181945001Y-108630999D02*
X182245000Y-108331000D01*
X180213000Y-109983410D02*
X181737705Y-108458705D01*
X180213000Y-110363000D02*
X180213000Y-109983410D01*
X182862039Y-115061523D02*
X182862039Y-116095961D01*
X197231000Y-106299000D02*
X198120000Y-105410000D01*
X196215000Y-106299000D02*
X197231000Y-106299000D01*
X193732998Y-108781002D02*
X196215000Y-106299000D01*
X184334998Y-108781002D02*
X193732998Y-108781002D01*
X183769000Y-109347000D02*
X184334998Y-108781002D01*
X180213000Y-114173000D02*
X180213000Y-110363000D01*
X182118000Y-116078000D02*
X180213000Y-114173000D01*
X182844078Y-116078000D02*
X182118000Y-116078000D01*
X182862039Y-116095961D02*
X182844078Y-116078000D01*
X180762039Y-116661523D02*
X180542523Y-116661523D01*
X180542523Y-116661523D02*
X178943000Y-115062000D01*
X178943000Y-115062000D02*
X173482000Y-115062000D01*
X173482000Y-115062000D02*
X172974000Y-114554000D01*
X172974000Y-114554000D02*
X172974000Y-114046000D01*
X172974000Y-114046000D02*
X173609000Y-113411000D01*
X173609000Y-113411000D02*
X179705000Y-113411000D01*
X179705000Y-113411000D02*
X179705000Y-110236000D01*
X179705000Y-110236000D02*
X179705000Y-109855000D01*
X179705000Y-109855000D02*
X181864000Y-107696000D01*
X181864000Y-107696000D02*
X193294000Y-107696000D01*
X193294000Y-107696000D02*
X195072000Y-105918000D01*
X195072000Y-105918000D02*
X195072000Y-105410000D01*
X195072000Y-105410000D02*
X194310000Y-104648000D01*
X194310000Y-104648000D02*
X194310000Y-103632000D01*
X194310000Y-103632000D02*
X195199000Y-102743000D01*
X195199000Y-102743000D02*
X199263000Y-102743000D01*
X199263000Y-102743000D02*
X200660000Y-104140000D01*
X189992000Y-123190000D02*
X189992000Y-122691484D01*
X189992000Y-122691484D02*
X189462039Y-122161523D01*
X189474516Y-122174000D02*
X189462039Y-122161523D01*
X186862039Y-123761523D02*
X186862039Y-127589961D01*
X193040000Y-134620000D02*
X193040000Y-137160000D01*
X191389000Y-132969000D02*
X193040000Y-134620000D01*
X184658000Y-132969000D02*
X191389000Y-132969000D01*
X184150000Y-132461000D02*
X184658000Y-132969000D01*
X184150000Y-129159000D02*
X184150000Y-132461000D01*
X185420000Y-127889000D02*
X184150000Y-129159000D01*
X186563000Y-127889000D02*
X185420000Y-127889000D01*
X186862039Y-127589961D02*
X186563000Y-127889000D01*
X196088000Y-120650000D02*
X201549000Y-120650000D01*
X204470000Y-117729000D02*
X206375000Y-117729000D01*
X201549000Y-120650000D02*
X204470000Y-117729000D01*
X189462039Y-118661523D02*
X190601521Y-118661523D01*
X191894204Y-120650000D02*
X196088000Y-120650000D01*
X196088000Y-120650000D02*
X196215000Y-120650000D01*
X190881000Y-119636796D02*
X191894204Y-120650000D01*
X190881000Y-118941002D02*
X190881000Y-119636796D01*
X190601521Y-118661523D02*
X190881000Y-118941002D01*
X204724000Y-104140000D02*
X203708000Y-104140000D01*
X203708000Y-104140000D02*
X201803000Y-106045000D01*
X201803000Y-106045000D02*
X201803000Y-107889000D01*
X197612000Y-111760000D02*
X185293000Y-111760000D01*
X184862039Y-112190961D02*
X184862039Y-115061523D01*
X185293000Y-111760000D02*
X184862039Y-112190961D01*
X206883000Y-131572000D02*
X199898000Y-138557000D01*
X199898000Y-138557000D02*
X197104000Y-138557000D01*
X206883000Y-125095000D02*
X206883000Y-131572000D01*
X206248000Y-121158000D02*
X206502000Y-120904000D01*
X185547000Y-141478000D02*
X175768000Y-141478000D01*
X173990000Y-139700000D02*
X175768000Y-141478000D01*
X190269329Y-119661523D02*
X189462039Y-119661523D01*
X191765806Y-121158000D02*
X196215000Y-121158000D01*
X190269329Y-119661523D02*
X191765806Y-121158000D01*
X196215000Y-121158000D02*
X206248000Y-121158000D01*
X186436000Y-140589000D02*
X185547000Y-141478000D01*
X186436000Y-139700000D02*
X186436000Y-140589000D01*
X187452000Y-138684000D02*
X186436000Y-139700000D01*
X196977000Y-138684000D02*
X187452000Y-138684000D01*
X197104000Y-138557000D02*
X196977000Y-138684000D01*
X189462039Y-119161523D02*
X188249523Y-119161523D01*
X173355000Y-136525000D02*
X173990000Y-137160000D01*
X173355000Y-129540000D02*
X173355000Y-136525000D01*
X177419000Y-125476000D02*
X173355000Y-129540000D01*
X179197000Y-125476000D02*
X177419000Y-125476000D01*
X182245000Y-122428000D02*
X179197000Y-125476000D01*
X182245000Y-121920000D02*
X182245000Y-122428000D01*
X183388000Y-120777000D02*
X182245000Y-121920000D01*
X185545602Y-120777000D02*
X183388000Y-120777000D01*
X187196602Y-119126000D02*
X185545602Y-120777000D01*
X188214000Y-119126000D02*
X187196602Y-119126000D01*
X188249523Y-119161523D02*
X188214000Y-119126000D01*
X189462039Y-121161523D02*
X190623477Y-121161523D01*
X181737000Y-134493000D02*
X175260000Y-134493000D01*
X182753000Y-133477000D02*
X181737000Y-134493000D01*
X190881000Y-133477000D02*
X182753000Y-133477000D01*
X191135000Y-133731000D02*
X190881000Y-133477000D01*
X190623477Y-121161523D02*
X190754000Y-121031000D01*
X189462039Y-120161523D02*
X187090523Y-120161523D01*
X178054000Y-130429000D02*
X176530000Y-130429000D01*
X181610000Y-126873000D02*
X178054000Y-130429000D01*
X187090523Y-120161523D02*
X187071000Y-120142000D01*
X180762039Y-120161523D02*
X178034477Y-120161523D01*
X176530000Y-121031000D02*
X176149000Y-121412000D01*
X177165000Y-121031000D02*
X176530000Y-121031000D01*
X178034477Y-120161523D02*
X177165000Y-121031000D01*
X189462039Y-120661523D02*
X187821477Y-120661523D01*
X179070000Y-130302000D02*
X179070000Y-131191000D01*
X182499000Y-126873000D02*
X179070000Y-130302000D01*
X187821477Y-120661523D02*
X187579000Y-120904000D01*
X196215000Y-119634000D02*
X200406000Y-119634000D01*
X191194523Y-117661523D02*
X191897000Y-118364000D01*
X191897000Y-118364000D02*
X191897000Y-119380000D01*
X191897000Y-119380000D02*
X192151000Y-119634000D01*
X192151000Y-119634000D02*
X196215000Y-119634000D01*
X189462039Y-117661523D02*
X191194523Y-117661523D01*
X181610000Y-135636000D02*
X181610000Y-137160000D01*
X183261000Y-133985000D02*
X181610000Y-135636000D01*
X190246000Y-133985000D02*
X183261000Y-133985000D01*
X190754000Y-134493000D02*
X190246000Y-133985000D01*
X192024000Y-134493000D02*
X190754000Y-134493000D01*
X200406000Y-127381000D02*
X192024000Y-127381000D01*
X204343000Y-123444000D02*
X200406000Y-127381000D01*
X203835000Y-116205000D02*
X204724000Y-116205000D01*
X200406000Y-119634000D02*
X203835000Y-116205000D01*
X201352998Y-120084002D02*
X204470000Y-116967000D01*
X204470000Y-116967000D02*
X205740000Y-116967000D01*
X196088000Y-120084002D02*
X201352998Y-120084002D01*
X186055000Y-135255000D02*
X184150000Y-137160000D01*
X189230000Y-135255000D02*
X186055000Y-135255000D01*
X189357000Y-135128000D02*
X189230000Y-135255000D01*
X199263000Y-130556000D02*
X189484000Y-130556000D01*
X205613000Y-124206000D02*
X199263000Y-130556000D01*
X189462039Y-118161523D02*
X190932523Y-118161523D01*
X191964604Y-120084002D02*
X196088000Y-120084002D01*
X196088000Y-120084002D02*
X196215000Y-120084002D01*
X191389000Y-119508398D02*
X191964604Y-120084002D01*
X191389000Y-118618000D02*
X191389000Y-119508398D01*
X190932523Y-118161523D02*
X191389000Y-118618000D01*
X169101000Y-136510000D02*
X169990000Y-136510000D01*
X170703000Y-136510000D02*
X171704000Y-135509000D01*
X171704000Y-135509000D02*
X171704000Y-132654000D01*
X171704000Y-132654000D02*
X172405000Y-131953000D01*
X169990000Y-136510000D02*
X170703000Y-136510000D01*
X169101000Y-137160000D02*
X169990000Y-137160000D01*
X171069000Y-137160000D02*
X172405000Y-135824000D01*
X172405000Y-135824000D02*
X172405000Y-133858000D01*
X169990000Y-137160000D02*
X171069000Y-137160000D01*
X186362039Y-123761523D02*
X186362039Y-127200961D01*
X181610000Y-133858000D02*
X174305000Y-133858000D01*
X183388000Y-132080000D02*
X181610000Y-133858000D01*
X183388000Y-129159000D02*
X183388000Y-132080000D01*
X185293000Y-127254000D02*
X183388000Y-129159000D01*
X186309000Y-127254000D02*
X185293000Y-127254000D01*
X186362039Y-127200961D02*
X186309000Y-127254000D01*
X185862039Y-123761523D02*
X185862039Y-126684961D01*
X181102000Y-131953000D02*
X177419000Y-131953000D01*
X185862039Y-126684961D02*
X185801000Y-126746000D01*
X185801000Y-126746000D02*
X185039000Y-126746000D01*
X177231953Y-131887549D02*
X177184450Y-131840046D01*
X176489290Y-132617418D02*
X176453549Y-132674299D01*
X176548709Y-131288582D02*
X176526521Y-131351991D01*
X176631953Y-131184198D02*
X176584450Y-131231701D01*
X185039000Y-126746000D02*
X182626000Y-129159000D01*
X176349165Y-132757543D02*
X176285756Y-132779731D01*
X175446639Y-131953000D02*
X174305000Y-131953000D01*
X177126521Y-131719756D02*
X177119000Y-131653000D01*
X177288834Y-131923290D02*
X177231953Y-131887549D01*
X177419000Y-131953000D02*
X177352243Y-131945478D01*
X177148709Y-131783165D02*
X177126521Y-131719756D01*
X182626000Y-129159000D02*
X182626000Y-130429000D01*
X176688834Y-131148457D02*
X176631953Y-131184198D01*
X182626000Y-130429000D02*
X181102000Y-131953000D01*
X177352243Y-131945478D02*
X177288834Y-131923290D01*
X177184450Y-131840046D02*
X177148709Y-131783165D01*
X177111478Y-131351991D02*
X177089290Y-131288582D01*
X177119000Y-131653000D02*
X177119000Y-131418748D01*
X175685756Y-131960522D02*
X175619000Y-131953000D01*
X176519000Y-131418748D02*
X176519000Y-132487252D01*
X177119000Y-131418748D02*
X177111478Y-131351991D01*
X177053549Y-131231701D02*
X177006046Y-131184198D01*
X175911478Y-132186244D02*
X175889290Y-132122835D01*
X177089290Y-131288582D02*
X177053549Y-131231701D01*
X175926521Y-132554009D02*
X175919000Y-132487252D01*
X176511478Y-132554009D02*
X176489290Y-132617418D01*
X177006046Y-131184198D02*
X176949165Y-131148457D01*
X176949165Y-131148457D02*
X176885756Y-131126269D01*
X176752243Y-131126269D02*
X176688834Y-131148457D01*
X175889290Y-132122835D02*
X175853549Y-132065954D01*
X176885756Y-131126269D02*
X176819000Y-131118748D01*
X176406046Y-132721802D02*
X176349165Y-132757543D01*
X176819000Y-131118748D02*
X176752243Y-131126269D01*
X176584450Y-131231701D02*
X176548709Y-131288582D01*
X175749165Y-131982710D02*
X175685756Y-131960522D01*
X176526521Y-131351991D02*
X176519000Y-131418748D01*
X176285756Y-132779731D02*
X176219000Y-132787252D01*
X175919000Y-132487252D02*
X175919000Y-132253000D01*
X176519000Y-132487252D02*
X176511478Y-132554009D01*
X176219000Y-132787252D02*
X176152243Y-132779731D01*
X176453549Y-132674299D02*
X176406046Y-132721802D01*
X176152243Y-132779731D02*
X176088834Y-132757543D01*
X176088834Y-132757543D02*
X176031953Y-132721802D01*
X176031953Y-132721802D02*
X175984450Y-132674299D01*
X175984450Y-132674299D02*
X175948709Y-132617418D01*
X175948709Y-132617418D02*
X175926521Y-132554009D01*
X175919000Y-132253000D02*
X175911478Y-132186244D01*
X175853549Y-132065954D02*
X175806046Y-132018451D01*
X175806046Y-132018451D02*
X175749165Y-131982710D01*
X175619000Y-131953000D02*
X175446639Y-131953000D01*
X170576000Y-121920000D02*
X170576000Y-131020000D01*
X183362039Y-115061523D02*
X183362039Y-116357961D01*
X173736000Y-121920000D02*
X170576000Y-121920000D01*
X179830602Y-114427000D02*
X173736000Y-114427000D01*
X181989602Y-116586000D02*
X179830602Y-114427000D01*
X183134000Y-116586000D02*
X181989602Y-116586000D01*
X183362039Y-116357961D02*
X183134000Y-116586000D01*
X170576000Y-118828000D02*
X170576000Y-109728000D01*
X170576000Y-118828000D02*
X175558000Y-118828000D01*
X177224477Y-117161523D02*
X180762039Y-117161523D01*
X175558000Y-118828000D02*
X177224477Y-117161523D01*
X193643000Y-34110000D02*
X193643000Y-36735000D01*
X183412037Y-121944037D02*
X183412037Y-123711525D01*
X183388000Y-121920000D02*
X183412037Y-121944037D01*
X187706000Y-97028000D02*
X191643000Y-100965000D01*
X187706000Y-42672000D02*
X187706000Y-97028000D01*
X193643000Y-36735000D02*
X187706000Y-42672000D01*
X183412037Y-123711525D02*
X183362039Y-123761523D01*
X186944000Y-21463000D02*
X186182000Y-21463000D01*
X193643000Y-25114000D02*
X189992000Y-21463000D01*
X189992000Y-21463000D02*
X186944000Y-21463000D01*
X193643000Y-26490000D02*
X193643000Y-25114000D01*
X178931477Y-120661523D02*
X180762039Y-120661523D01*
X178689000Y-120904000D02*
X178931477Y-120661523D01*
X180340000Y-27305000D02*
X180340000Y-100965000D01*
X186182000Y-21463000D02*
X180340000Y-27305000D01*
X186944000Y-19939000D02*
X186690000Y-19939000D01*
X179705000Y-127635000D02*
X179832000Y-127635000D01*
X177927000Y-129413000D02*
X179705000Y-127635000D01*
X179197000Y-27432000D02*
X179197000Y-101219000D01*
X186690000Y-19939000D02*
X179197000Y-27432000D01*
X196183000Y-26490000D02*
X196183000Y-25241000D01*
X190881000Y-19939000D02*
X186944000Y-19939000D01*
X186944000Y-19939000D02*
X186817000Y-19939000D01*
X196183000Y-25241000D02*
X190881000Y-19939000D01*
X183862039Y-123761523D02*
X183862039Y-125128961D01*
X181356000Y-126111000D02*
X179832000Y-127635000D01*
X182880000Y-126111000D02*
X181356000Y-126111000D01*
X183862039Y-125128961D02*
X182880000Y-126111000D01*
X179832000Y-127635000D02*
X179705000Y-127762000D01*
X212344000Y-23368000D02*
X212344000Y-98171000D01*
X198723000Y-23273000D02*
X201041000Y-20955000D01*
X201041000Y-20955000D02*
X209931000Y-20955000D01*
X209931000Y-20955000D02*
X212344000Y-23368000D01*
X198723000Y-26490000D02*
X198723000Y-23273000D01*
X179578000Y-126365000D02*
X180975000Y-124968000D01*
X179578000Y-126492000D02*
X179578000Y-126365000D01*
X179070000Y-127000000D02*
X179578000Y-126492000D01*
X183896000Y-134493000D02*
X183261000Y-135128000D01*
X189865000Y-134493000D02*
X183896000Y-134493000D01*
X190373000Y-135001000D02*
X189865000Y-134493000D01*
X191389000Y-135001000D02*
X190373000Y-135001000D01*
X191770000Y-135382000D02*
X191389000Y-135001000D01*
X212344000Y-98171000D02*
X214757000Y-100584000D01*
X182862039Y-123761523D02*
X182862039Y-124731961D01*
X180975000Y-124968000D02*
X179387500Y-126555500D01*
X179387500Y-126555500D02*
X179324000Y-126619000D01*
X182626000Y-124968000D02*
X180975000Y-124968000D01*
X182862039Y-124731961D02*
X182626000Y-124968000D01*
D38*
G36*
X218243000Y-142244936D02*
X218191955Y-142501556D01*
X165752072Y-142617317D01*
X165683000Y-142270073D01*
X165683000Y-141827977D01*
X166019948Y-141895000D01*
X166782052Y-141895000D01*
X167254666Y-141800991D01*
X167655329Y-141533277D01*
X167923043Y-141132614D01*
X167945234Y-141021050D01*
X167992148Y-140950839D01*
X168018174Y-140820000D01*
X168348208Y-140820000D01*
X168829292Y-141019763D01*
X169370334Y-141020236D01*
X169870372Y-140813624D01*
X170253280Y-140431384D01*
X170311037Y-140292289D01*
X170310847Y-140510265D01*
X170445296Y-140835657D01*
X170694033Y-141084829D01*
X171019190Y-141219846D01*
X171371265Y-141220153D01*
X171696657Y-141085704D01*
X171945829Y-140836967D01*
X172080846Y-140511810D01*
X172081153Y-140159735D01*
X171946704Y-139834343D01*
X171697967Y-139585171D01*
X171372810Y-139450154D01*
X171020735Y-139449847D01*
X170695343Y-139584296D01*
X170460862Y-139818368D01*
X170461236Y-139390666D01*
X170304493Y-139011320D01*
X170372431Y-138911890D01*
X170423440Y-138660000D01*
X170423440Y-138260000D01*
X170399056Y-138130411D01*
X170423440Y-138010000D01*
X170423440Y-137920000D01*
X171069000Y-137920000D01*
X171359839Y-137862148D01*
X171606401Y-137697401D01*
X172587463Y-136716339D01*
X172505000Y-137130907D01*
X172505000Y-137189093D01*
X172618039Y-137757378D01*
X172939946Y-138239147D01*
X172941179Y-138239971D01*
X172904683Y-138246838D01*
X172688559Y-138385910D01*
X172543569Y-138598110D01*
X172492560Y-138850000D01*
X172492560Y-140550000D01*
X172536838Y-140785317D01*
X172675910Y-141001441D01*
X172888110Y-141146431D01*
X173140000Y-141197440D01*
X174412638Y-141197440D01*
X175230599Y-142015401D01*
X175477161Y-142180148D01*
X175768000Y-142238000D01*
X185547000Y-142238000D01*
X185837839Y-142180148D01*
X186084401Y-142015401D01*
X186973401Y-141126401D01*
X187018029Y-141059611D01*
X187051938Y-141141476D01*
X187066094Y-141175651D01*
X187372657Y-141634455D01*
X187422103Y-141683901D01*
X187460954Y-141742046D01*
X187519099Y-141780897D01*
X187568545Y-141830343D01*
X187633152Y-141857104D01*
X187691295Y-141895954D01*
X187759877Y-141909596D01*
X187824486Y-141936358D01*
X187894416Y-141936358D01*
X187963000Y-141950000D01*
X195963000Y-141950000D01*
X196031584Y-141936358D01*
X196101514Y-141936358D01*
X196166123Y-141909596D01*
X196234705Y-141895954D01*
X196292848Y-141857104D01*
X196357455Y-141830343D01*
X196406901Y-141780897D01*
X196465046Y-141742046D01*
X196503897Y-141683901D01*
X196553343Y-141634455D01*
X196859907Y-141175651D01*
X196957268Y-140940599D01*
X196965920Y-140919711D01*
X197000125Y-140747750D01*
X206502000Y-140747750D01*
X206502000Y-141223309D01*
X206598673Y-141456698D01*
X206777301Y-141635327D01*
X207010690Y-141732000D01*
X209391250Y-141732000D01*
X209550000Y-141573250D01*
X209550000Y-140589000D01*
X209804000Y-140589000D01*
X209804000Y-141573250D01*
X209962750Y-141732000D01*
X212343310Y-141732000D01*
X212576699Y-141635327D01*
X212755327Y-141456698D01*
X212852000Y-141223309D01*
X212852000Y-140747750D01*
X212693250Y-140589000D01*
X209804000Y-140589000D01*
X209550000Y-140589000D01*
X206660750Y-140589000D01*
X206502000Y-140747750D01*
X197000125Y-140747750D01*
X197047363Y-140510265D01*
X216157847Y-140510265D01*
X216292296Y-140835657D01*
X216541033Y-141084829D01*
X216866190Y-141219846D01*
X217218265Y-141220153D01*
X217543657Y-141085704D01*
X217792829Y-140836967D01*
X217927846Y-140511810D01*
X217928153Y-140159735D01*
X217793704Y-139834343D01*
X217544967Y-139585171D01*
X217219810Y-139450154D01*
X216867735Y-139449847D01*
X216542343Y-139584296D01*
X216293171Y-139833033D01*
X216158154Y-140158190D01*
X216157847Y-140510265D01*
X197047363Y-140510265D01*
X197073571Y-140378514D01*
X197073571Y-140101485D01*
X196993848Y-139700691D01*
X206502000Y-139700691D01*
X206502000Y-140176250D01*
X206660750Y-140335000D01*
X209550000Y-140335000D01*
X209550000Y-139350750D01*
X209804000Y-139350750D01*
X209804000Y-140335000D01*
X212693250Y-140335000D01*
X212852000Y-140176250D01*
X212852000Y-139700691D01*
X212755327Y-139467302D01*
X212576699Y-139288673D01*
X212343310Y-139192000D01*
X209962750Y-139192000D01*
X209804000Y-139350750D01*
X209550000Y-139350750D01*
X209391250Y-139192000D01*
X207010690Y-139192000D01*
X206777301Y-139288673D01*
X206598673Y-139467302D01*
X206502000Y-139700691D01*
X196993848Y-139700691D01*
X196965920Y-139560289D01*
X196934869Y-139485327D01*
X196917752Y-139444000D01*
X196977000Y-139444000D01*
X197267839Y-139386148D01*
X197371327Y-139317000D01*
X199898000Y-139317000D01*
X200188839Y-139259148D01*
X200435401Y-139094401D01*
X207420401Y-132109401D01*
X207456287Y-132055694D01*
X207697000Y-132104440D01*
X211657000Y-132104440D01*
X211892317Y-132060162D01*
X212108441Y-131921090D01*
X212253431Y-131708890D01*
X212304440Y-131457000D01*
X212304440Y-127497000D01*
X212301647Y-127482155D01*
X215867777Y-123916025D01*
X216017790Y-123815790D01*
X217909787Y-121923792D01*
X217909790Y-121923790D01*
X218101633Y-121636675D01*
X218126910Y-121509599D01*
X218169001Y-121298000D01*
X218169000Y-121297995D01*
X218169000Y-114022440D01*
X218243000Y-114022440D01*
X218243000Y-142244936D01*
X218243000Y-142244936D01*
G37*
X218243000Y-142244936D02*
X218191955Y-142501556D01*
X165752072Y-142617317D01*
X165683000Y-142270073D01*
X165683000Y-141827977D01*
X166019948Y-141895000D01*
X166782052Y-141895000D01*
X167254666Y-141800991D01*
X167655329Y-141533277D01*
X167923043Y-141132614D01*
X167945234Y-141021050D01*
X167992148Y-140950839D01*
X168018174Y-140820000D01*
X168348208Y-140820000D01*
X168829292Y-141019763D01*
X169370334Y-141020236D01*
X169870372Y-140813624D01*
X170253280Y-140431384D01*
X170311037Y-140292289D01*
X170310847Y-140510265D01*
X170445296Y-140835657D01*
X170694033Y-141084829D01*
X171019190Y-141219846D01*
X171371265Y-141220153D01*
X171696657Y-141085704D01*
X171945829Y-140836967D01*
X172080846Y-140511810D01*
X172081153Y-140159735D01*
X171946704Y-139834343D01*
X171697967Y-139585171D01*
X171372810Y-139450154D01*
X171020735Y-139449847D01*
X170695343Y-139584296D01*
X170460862Y-139818368D01*
X170461236Y-139390666D01*
X170304493Y-139011320D01*
X170372431Y-138911890D01*
X170423440Y-138660000D01*
X170423440Y-138260000D01*
X170399056Y-138130411D01*
X170423440Y-138010000D01*
X170423440Y-137920000D01*
X171069000Y-137920000D01*
X171359839Y-137862148D01*
X171606401Y-137697401D01*
X172587463Y-136716339D01*
X172505000Y-137130907D01*
X172505000Y-137189093D01*
X172618039Y-137757378D01*
X172939946Y-138239147D01*
X172941179Y-138239971D01*
X172904683Y-138246838D01*
X172688559Y-138385910D01*
X172543569Y-138598110D01*
X172492560Y-138850000D01*
X172492560Y-140550000D01*
X172536838Y-140785317D01*
X172675910Y-141001441D01*
X172888110Y-141146431D01*
X173140000Y-141197440D01*
X174412638Y-141197440D01*
X175230599Y-142015401D01*
X175477161Y-142180148D01*
X175768000Y-142238000D01*
X185547000Y-142238000D01*
X185837839Y-142180148D01*
X186084401Y-142015401D01*
X186973401Y-141126401D01*
X187018029Y-141059611D01*
X187051938Y-141141476D01*
X187066094Y-141175651D01*
X187372657Y-141634455D01*
X187422103Y-141683901D01*
X187460954Y-141742046D01*
X187519099Y-141780897D01*
X187568545Y-141830343D01*
X187633152Y-141857104D01*
X187691295Y-141895954D01*
X187759877Y-141909596D01*
X187824486Y-141936358D01*
X187894416Y-141936358D01*
X187963000Y-141950000D01*
X195963000Y-141950000D01*
X196031584Y-141936358D01*
X196101514Y-141936358D01*
X196166123Y-141909596D01*
X196234705Y-141895954D01*
X196292848Y-141857104D01*
X196357455Y-141830343D01*
X196406901Y-141780897D01*
X196465046Y-141742046D01*
X196503897Y-141683901D01*
X196553343Y-141634455D01*
X196859907Y-141175651D01*
X196957268Y-140940599D01*
X196965920Y-140919711D01*
X197000125Y-140747750D01*
X206502000Y-140747750D01*
X206502000Y-141223309D01*
X206598673Y-141456698D01*
X206777301Y-141635327D01*
X207010690Y-141732000D01*
X209391250Y-141732000D01*
X209550000Y-141573250D01*
X209550000Y-140589000D01*
X209804000Y-140589000D01*
X209804000Y-141573250D01*
X209962750Y-141732000D01*
X212343310Y-141732000D01*
X212576699Y-141635327D01*
X212755327Y-141456698D01*
X212852000Y-141223309D01*
X212852000Y-140747750D01*
X212693250Y-140589000D01*
X209804000Y-140589000D01*
X209550000Y-140589000D01*
X206660750Y-140589000D01*
X206502000Y-140747750D01*
X197000125Y-140747750D01*
X197047363Y-140510265D01*
X216157847Y-140510265D01*
X216292296Y-140835657D01*
X216541033Y-141084829D01*
X216866190Y-141219846D01*
X217218265Y-141220153D01*
X217543657Y-141085704D01*
X217792829Y-140836967D01*
X217927846Y-140511810D01*
X217928153Y-140159735D01*
X217793704Y-139834343D01*
X217544967Y-139585171D01*
X217219810Y-139450154D01*
X216867735Y-139449847D01*
X216542343Y-139584296D01*
X216293171Y-139833033D01*
X216158154Y-140158190D01*
X216157847Y-140510265D01*
X197047363Y-140510265D01*
X197073571Y-140378514D01*
X197073571Y-140101485D01*
X196993848Y-139700691D01*
X206502000Y-139700691D01*
X206502000Y-140176250D01*
X206660750Y-140335000D01*
X209550000Y-140335000D01*
X209550000Y-139350750D01*
X209804000Y-139350750D01*
X209804000Y-140335000D01*
X212693250Y-140335000D01*
X212852000Y-140176250D01*
X212852000Y-139700691D01*
X212755327Y-139467302D01*
X212576699Y-139288673D01*
X212343310Y-139192000D01*
X209962750Y-139192000D01*
X209804000Y-139350750D01*
X209550000Y-139350750D01*
X209391250Y-139192000D01*
X207010690Y-139192000D01*
X206777301Y-139288673D01*
X206598673Y-139467302D01*
X206502000Y-139700691D01*
X196993848Y-139700691D01*
X196965920Y-139560289D01*
X196934869Y-139485327D01*
X196917752Y-139444000D01*
X196977000Y-139444000D01*
X197267839Y-139386148D01*
X197371327Y-139317000D01*
X199898000Y-139317000D01*
X200188839Y-139259148D01*
X200435401Y-139094401D01*
X207420401Y-132109401D01*
X207456287Y-132055694D01*
X207697000Y-132104440D01*
X211657000Y-132104440D01*
X211892317Y-132060162D01*
X212108441Y-131921090D01*
X212253431Y-131708890D01*
X212304440Y-131457000D01*
X212304440Y-127497000D01*
X212301647Y-127482155D01*
X215867777Y-123916025D01*
X216017790Y-123815790D01*
X217909787Y-121923792D01*
X217909790Y-121923790D01*
X218101633Y-121636675D01*
X218126910Y-121509599D01*
X218169001Y-121298000D01*
X218169000Y-121297995D01*
X218169000Y-114022440D01*
X218243000Y-114022440D01*
X218243000Y-142244936D01*
G36*
X181737000Y-139573000D02*
X181757000Y-139573000D01*
X181757000Y-139827000D01*
X181737000Y-139827000D01*
X181737000Y-139847000D01*
X181483000Y-139847000D01*
X181483000Y-139827000D01*
X181463000Y-139827000D01*
X181463000Y-139573000D01*
X181483000Y-139573000D01*
X181483000Y-139553000D01*
X181737000Y-139553000D01*
X181737000Y-139573000D01*
X181737000Y-139573000D01*
G37*
X181737000Y-139573000D02*
X181757000Y-139573000D01*
X181757000Y-139827000D01*
X181737000Y-139827000D01*
X181737000Y-139847000D01*
X181483000Y-139847000D01*
X181483000Y-139827000D01*
X181463000Y-139827000D01*
X181463000Y-139573000D01*
X181483000Y-139573000D01*
X181483000Y-139553000D01*
X181737000Y-139553000D01*
X181737000Y-139573000D01*
G36*
X183099946Y-138239147D02*
X183385578Y-138430000D01*
X183099946Y-138620853D01*
X182872298Y-138961553D01*
X182805183Y-138818642D01*
X182376924Y-138428355D01*
X182376899Y-138428345D01*
X182660054Y-138239147D01*
X182880000Y-137909974D01*
X183099946Y-138239147D01*
X183099946Y-138239147D01*
G37*
X183099946Y-138239147D02*
X183385578Y-138430000D01*
X183099946Y-138620853D01*
X182872298Y-138961553D01*
X182805183Y-138818642D01*
X182376924Y-138428355D01*
X182376899Y-138428345D01*
X182660054Y-138239147D01*
X182880000Y-137909974D01*
X183099946Y-138239147D01*
G36*
X206123000Y-131257198D02*
X199583198Y-137797000D01*
X197104000Y-137797000D01*
X196867883Y-137843967D01*
X197021486Y-137516892D01*
X196900819Y-137287000D01*
X195707000Y-137287000D01*
X195707000Y-137307000D01*
X195453000Y-137307000D01*
X195453000Y-137287000D01*
X195433000Y-137287000D01*
X195433000Y-137033000D01*
X195453000Y-137033000D01*
X195453000Y-135839845D01*
X195707000Y-135839845D01*
X195707000Y-137033000D01*
X196900819Y-137033000D01*
X197021486Y-136803108D01*
X196775183Y-136278642D01*
X196346924Y-135888355D01*
X195936890Y-135718524D01*
X195707000Y-135839845D01*
X195453000Y-135839845D01*
X195223110Y-135718524D01*
X194813076Y-135888355D01*
X194384817Y-136278642D01*
X194317702Y-136421553D01*
X194090054Y-136080853D01*
X193800000Y-135887046D01*
X193800000Y-134620000D01*
X193742148Y-134329161D01*
X193577401Y-134082599D01*
X191926401Y-132431599D01*
X191679839Y-132266852D01*
X191389000Y-132209000D01*
X188444000Y-132209000D01*
X188444000Y-131984750D01*
X188285252Y-131826002D01*
X188444000Y-131826002D01*
X188444000Y-131706968D01*
X188535201Y-131744838D01*
X188590270Y-131744886D01*
X188812160Y-131893148D01*
X189103000Y-131951000D01*
X192091608Y-131951000D01*
X192123009Y-131982401D01*
X192369570Y-132147148D01*
X192660410Y-132205000D01*
X199517000Y-132205000D01*
X199807839Y-132147148D01*
X200054401Y-131982401D01*
X206123000Y-125913802D01*
X206123000Y-131257198D01*
X206123000Y-131257198D01*
G37*
X206123000Y-131257198D02*
X199583198Y-137797000D01*
X197104000Y-137797000D01*
X196867883Y-137843967D01*
X197021486Y-137516892D01*
X196900819Y-137287000D01*
X195707000Y-137287000D01*
X195707000Y-137307000D01*
X195453000Y-137307000D01*
X195453000Y-137287000D01*
X195433000Y-137287000D01*
X195433000Y-137033000D01*
X195453000Y-137033000D01*
X195453000Y-135839845D01*
X195707000Y-135839845D01*
X195707000Y-137033000D01*
X196900819Y-137033000D01*
X197021486Y-136803108D01*
X196775183Y-136278642D01*
X196346924Y-135888355D01*
X195936890Y-135718524D01*
X195707000Y-135839845D01*
X195453000Y-135839845D01*
X195223110Y-135718524D01*
X194813076Y-135888355D01*
X194384817Y-136278642D01*
X194317702Y-136421553D01*
X194090054Y-136080853D01*
X193800000Y-135887046D01*
X193800000Y-134620000D01*
X193742148Y-134329161D01*
X193577401Y-134082599D01*
X191926401Y-132431599D01*
X191679839Y-132266852D01*
X191389000Y-132209000D01*
X188444000Y-132209000D01*
X188444000Y-131984750D01*
X188285252Y-131826002D01*
X188444000Y-131826002D01*
X188444000Y-131706968D01*
X188535201Y-131744838D01*
X188590270Y-131744886D01*
X188812160Y-131893148D01*
X189103000Y-131951000D01*
X192091608Y-131951000D01*
X192123009Y-131982401D01*
X192369570Y-132147148D01*
X192660410Y-132205000D01*
X199517000Y-132205000D01*
X199807839Y-132147148D01*
X200054401Y-131982401D01*
X206123000Y-125913802D01*
X206123000Y-131257198D01*
G36*
X184516408Y-135718790D02*
X184150000Y-135645907D01*
X184044640Y-135666865D01*
X184053192Y-135658327D01*
X184195838Y-135314799D01*
X184195879Y-135267923D01*
X184210802Y-135253000D01*
X184982198Y-135253000D01*
X184516408Y-135718790D01*
X184516408Y-135718790D01*
G37*
X184516408Y-135718790D02*
X184150000Y-135645907D01*
X184044640Y-135666865D01*
X184053192Y-135658327D01*
X184195838Y-135314799D01*
X184195879Y-135267923D01*
X184210802Y-135253000D01*
X184982198Y-135253000D01*
X184516408Y-135718790D01*
G36*
X182628000Y-131765198D02*
X181295198Y-133098000D01*
X177078760Y-133098000D01*
X177097058Y-133078646D01*
X177132799Y-133021765D01*
X177152705Y-132969616D01*
X177155697Y-132965139D01*
X177157093Y-132958123D01*
X177163253Y-132941984D01*
X177172032Y-132927102D01*
X177176646Y-132921638D01*
X177178281Y-132916509D01*
X177206641Y-132868432D01*
X177228829Y-132805023D01*
X177236632Y-132749754D01*
X177238551Y-132744726D01*
X177238351Y-132737579D01*
X177240766Y-132720466D01*
X177248919Y-132694889D01*
X177267147Y-132700699D01*
X177333903Y-132708221D01*
X177376789Y-132704604D01*
X177419000Y-132713000D01*
X181102000Y-132713000D01*
X181392839Y-132655148D01*
X181639401Y-132490401D01*
X182628000Y-131501802D01*
X182628000Y-131765198D01*
X182628000Y-131765198D01*
G37*
X182628000Y-131765198D02*
X181295198Y-133098000D01*
X177078760Y-133098000D01*
X177097058Y-133078646D01*
X177132799Y-133021765D01*
X177152705Y-132969616D01*
X177155697Y-132965139D01*
X177157093Y-132958123D01*
X177163253Y-132941984D01*
X177172032Y-132927102D01*
X177176646Y-132921638D01*
X177178281Y-132916509D01*
X177206641Y-132868432D01*
X177228829Y-132805023D01*
X177236632Y-132749754D01*
X177238551Y-132744726D01*
X177238351Y-132737579D01*
X177240766Y-132720466D01*
X177248919Y-132694889D01*
X177267147Y-132700699D01*
X177333903Y-132708221D01*
X177376789Y-132704604D01*
X177419000Y-132713000D01*
X181102000Y-132713000D01*
X181392839Y-132655148D01*
X181639401Y-132490401D01*
X182628000Y-131501802D01*
X182628000Y-131765198D01*
G36*
X188432571Y-128845148D02*
X188723410Y-128903000D01*
X199841198Y-128903000D01*
X198948198Y-129796000D01*
X190046463Y-129796000D01*
X190014327Y-129763808D01*
X189670799Y-129621162D01*
X189298833Y-129620838D01*
X188955057Y-129762883D01*
X188842640Y-129875104D01*
X188536833Y-129874838D01*
X188326143Y-129961893D01*
X188285250Y-129921000D01*
X187436000Y-129921000D01*
X187436000Y-131572000D01*
X187456000Y-131572000D01*
X187456000Y-131826000D01*
X187436000Y-131826000D01*
X187436000Y-131846000D01*
X187182000Y-131846000D01*
X187182000Y-131826000D01*
X187162000Y-131826000D01*
X187162000Y-131572000D01*
X187182000Y-131572000D01*
X187182000Y-129921000D01*
X187162000Y-129921000D01*
X187162000Y-129667000D01*
X187182000Y-129667000D01*
X187182000Y-129647000D01*
X187436000Y-129647000D01*
X187436000Y-129667000D01*
X188285250Y-129667000D01*
X188444000Y-129508250D01*
X188444000Y-129042690D01*
X188347327Y-128809301D01*
X188283705Y-128745679D01*
X188432571Y-128845148D01*
X188432571Y-128845148D01*
G37*
X188432571Y-128845148D02*
X188723410Y-128903000D01*
X199841198Y-128903000D01*
X198948198Y-129796000D01*
X190046463Y-129796000D01*
X190014327Y-129763808D01*
X189670799Y-129621162D01*
X189298833Y-129620838D01*
X188955057Y-129762883D01*
X188842640Y-129875104D01*
X188536833Y-129874838D01*
X188326143Y-129961893D01*
X188285250Y-129921000D01*
X187436000Y-129921000D01*
X187436000Y-131572000D01*
X187456000Y-131572000D01*
X187456000Y-131826000D01*
X187436000Y-131826000D01*
X187436000Y-131846000D01*
X187182000Y-131846000D01*
X187182000Y-131826000D01*
X187162000Y-131826000D01*
X187162000Y-131572000D01*
X187182000Y-131572000D01*
X187182000Y-129921000D01*
X187162000Y-129921000D01*
X187162000Y-129667000D01*
X187182000Y-129667000D01*
X187182000Y-129647000D01*
X187436000Y-129647000D01*
X187436000Y-129667000D01*
X188285250Y-129667000D01*
X188444000Y-129508250D01*
X188444000Y-129042690D01*
X188347327Y-128809301D01*
X188283705Y-128745679D01*
X188432571Y-128845148D01*
G36*
X179752341Y-122824850D02*
X179985730Y-122921523D01*
X180476289Y-122921523D01*
X180635037Y-122762775D01*
X180635037Y-122921523D01*
X180676675Y-122921523D01*
X179187000Y-124411198D01*
X179187000Y-124348750D01*
X179028250Y-124190000D01*
X178054000Y-124190000D01*
X178054000Y-124210000D01*
X177800000Y-124210000D01*
X177800000Y-124190000D01*
X176825750Y-124190000D01*
X176667000Y-124348750D01*
X176667000Y-124689309D01*
X176763673Y-124922698D01*
X176830586Y-124989612D01*
X172817599Y-129002599D01*
X172652852Y-129249161D01*
X172595000Y-129540000D01*
X172595000Y-130655560D01*
X172055000Y-130655560D01*
X171923440Y-130680315D01*
X171923440Y-129970000D01*
X171879162Y-129734683D01*
X171740090Y-129518559D01*
X171527890Y-129373569D01*
X171336000Y-129334710D01*
X171336000Y-125520861D01*
X171644201Y-125648838D01*
X172016167Y-125649162D01*
X172359943Y-125507117D01*
X172623192Y-125244327D01*
X172765838Y-124900799D01*
X172765879Y-124853923D01*
X173542802Y-124077000D01*
X174697537Y-124077000D01*
X174729673Y-124109192D01*
X175073201Y-124251838D01*
X175445167Y-124252162D01*
X175788943Y-124110117D01*
X176052192Y-123847327D01*
X176194838Y-123503799D01*
X176194879Y-123456923D01*
X176759388Y-122892414D01*
X176837910Y-123014441D01*
X176906006Y-123060969D01*
X176763673Y-123203302D01*
X176667000Y-123436691D01*
X176667000Y-123777250D01*
X176825750Y-123936000D01*
X177800000Y-123936000D01*
X177800000Y-123916000D01*
X178054000Y-123916000D01*
X178054000Y-123936000D01*
X179028250Y-123936000D01*
X179187000Y-123777250D01*
X179187000Y-123436691D01*
X179090327Y-123203302D01*
X178949090Y-123062064D01*
X179003441Y-123027090D01*
X179034270Y-122981970D01*
X179255167Y-122982162D01*
X179598943Y-122840117D01*
X179683349Y-122755858D01*
X179752341Y-122824850D01*
X179752341Y-122824850D01*
G37*
X179752341Y-122824850D02*
X179985730Y-122921523D01*
X180476289Y-122921523D01*
X180635037Y-122762775D01*
X180635037Y-122921523D01*
X180676675Y-122921523D01*
X179187000Y-124411198D01*
X179187000Y-124348750D01*
X179028250Y-124190000D01*
X178054000Y-124190000D01*
X178054000Y-124210000D01*
X177800000Y-124210000D01*
X177800000Y-124190000D01*
X176825750Y-124190000D01*
X176667000Y-124348750D01*
X176667000Y-124689309D01*
X176763673Y-124922698D01*
X176830586Y-124989612D01*
X172817599Y-129002599D01*
X172652852Y-129249161D01*
X172595000Y-129540000D01*
X172595000Y-130655560D01*
X172055000Y-130655560D01*
X171923440Y-130680315D01*
X171923440Y-129970000D01*
X171879162Y-129734683D01*
X171740090Y-129518559D01*
X171527890Y-129373569D01*
X171336000Y-129334710D01*
X171336000Y-125520861D01*
X171644201Y-125648838D01*
X172016167Y-125649162D01*
X172359943Y-125507117D01*
X172623192Y-125244327D01*
X172765838Y-124900799D01*
X172765879Y-124853923D01*
X173542802Y-124077000D01*
X174697537Y-124077000D01*
X174729673Y-124109192D01*
X175073201Y-124251838D01*
X175445167Y-124252162D01*
X175788943Y-124110117D01*
X176052192Y-123847327D01*
X176194838Y-123503799D01*
X176194879Y-123456923D01*
X176759388Y-122892414D01*
X176837910Y-123014441D01*
X176906006Y-123060969D01*
X176763673Y-123203302D01*
X176667000Y-123436691D01*
X176667000Y-123777250D01*
X176825750Y-123936000D01*
X177800000Y-123936000D01*
X177800000Y-123916000D01*
X178054000Y-123916000D01*
X178054000Y-123936000D01*
X179028250Y-123936000D01*
X179187000Y-123777250D01*
X179187000Y-123436691D01*
X179090327Y-123203302D01*
X178949090Y-123062064D01*
X179003441Y-123027090D01*
X179034270Y-122981970D01*
X179255167Y-122982162D01*
X179598943Y-122840117D01*
X179683349Y-122755858D01*
X179752341Y-122824850D01*
G36*
X214759000Y-111693802D02*
X214759000Y-120589198D01*
X214446675Y-120901523D01*
X207437003Y-120901523D01*
X207437162Y-120718833D01*
X207295117Y-120375057D01*
X207032327Y-120111808D01*
X206688799Y-119969162D01*
X206316833Y-119968838D01*
X205973057Y-120110883D01*
X205709808Y-120373673D01*
X205699706Y-120398000D01*
X202875802Y-120398000D01*
X204784802Y-118489000D01*
X205812537Y-118489000D01*
X205844673Y-118521192D01*
X206188201Y-118663838D01*
X206560167Y-118664162D01*
X206654612Y-118625138D01*
X206502000Y-118777750D01*
X206502000Y-119253309D01*
X206598673Y-119486698D01*
X206777301Y-119665327D01*
X207010690Y-119762000D01*
X209391250Y-119762000D01*
X209550000Y-119603250D01*
X209550000Y-118619000D01*
X209804000Y-118619000D01*
X209804000Y-119603250D01*
X209962750Y-119762000D01*
X212343310Y-119762000D01*
X212576699Y-119665327D01*
X212755327Y-119486698D01*
X212852000Y-119253309D01*
X212852000Y-118777750D01*
X212693250Y-118619000D01*
X209804000Y-118619000D01*
X209550000Y-118619000D01*
X209530000Y-118619000D01*
X209530000Y-118365000D01*
X209550000Y-118365000D01*
X209550000Y-117380750D01*
X209804000Y-117380750D01*
X209804000Y-118365000D01*
X212693250Y-118365000D01*
X212852000Y-118206250D01*
X212852000Y-117730691D01*
X212755327Y-117497302D01*
X212576699Y-117318673D01*
X212343310Y-117222000D01*
X209962750Y-117222000D01*
X209804000Y-117380750D01*
X209550000Y-117380750D01*
X209391250Y-117222000D01*
X207177184Y-117222000D01*
X207168117Y-117200057D01*
X206905327Y-116936808D01*
X206675110Y-116841213D01*
X206675162Y-116781833D01*
X206533117Y-116438057D01*
X206270327Y-116174808D01*
X205926799Y-116032162D01*
X205659151Y-116031929D01*
X205659162Y-116019833D01*
X205517117Y-115676057D01*
X205254327Y-115412808D01*
X204910799Y-115270162D01*
X204538833Y-115269838D01*
X204195057Y-115411883D01*
X204161882Y-115445000D01*
X203835000Y-115445000D01*
X203544160Y-115502852D01*
X203297599Y-115667599D01*
X200091198Y-118874000D01*
X197668802Y-118874000D01*
X201942680Y-114600122D01*
X201988167Y-114600162D01*
X202331943Y-114458117D01*
X202595192Y-114195327D01*
X202737838Y-113851799D01*
X202738070Y-113585000D01*
X210876074Y-113585000D01*
X210880838Y-113610317D01*
X211019910Y-113826441D01*
X211232110Y-113971431D01*
X211484000Y-114022440D01*
X213484000Y-114022440D01*
X213719317Y-113978162D01*
X213935441Y-113839090D01*
X214080431Y-113626890D01*
X214131440Y-113375000D01*
X214131440Y-112275000D01*
X214087162Y-112039683D01*
X214046519Y-111976522D01*
X214080431Y-111926890D01*
X214131440Y-111675000D01*
X214131440Y-111066242D01*
X214759000Y-111693802D01*
X214759000Y-111693802D01*
G37*
X214759000Y-111693802D02*
X214759000Y-120589198D01*
X214446675Y-120901523D01*
X207437003Y-120901523D01*
X207437162Y-120718833D01*
X207295117Y-120375057D01*
X207032327Y-120111808D01*
X206688799Y-119969162D01*
X206316833Y-119968838D01*
X205973057Y-120110883D01*
X205709808Y-120373673D01*
X205699706Y-120398000D01*
X202875802Y-120398000D01*
X204784802Y-118489000D01*
X205812537Y-118489000D01*
X205844673Y-118521192D01*
X206188201Y-118663838D01*
X206560167Y-118664162D01*
X206654612Y-118625138D01*
X206502000Y-118777750D01*
X206502000Y-119253309D01*
X206598673Y-119486698D01*
X206777301Y-119665327D01*
X207010690Y-119762000D01*
X209391250Y-119762000D01*
X209550000Y-119603250D01*
X209550000Y-118619000D01*
X209804000Y-118619000D01*
X209804000Y-119603250D01*
X209962750Y-119762000D01*
X212343310Y-119762000D01*
X212576699Y-119665327D01*
X212755327Y-119486698D01*
X212852000Y-119253309D01*
X212852000Y-118777750D01*
X212693250Y-118619000D01*
X209804000Y-118619000D01*
X209550000Y-118619000D01*
X209530000Y-118619000D01*
X209530000Y-118365000D01*
X209550000Y-118365000D01*
X209550000Y-117380750D01*
X209804000Y-117380750D01*
X209804000Y-118365000D01*
X212693250Y-118365000D01*
X212852000Y-118206250D01*
X212852000Y-117730691D01*
X212755327Y-117497302D01*
X212576699Y-117318673D01*
X212343310Y-117222000D01*
X209962750Y-117222000D01*
X209804000Y-117380750D01*
X209550000Y-117380750D01*
X209391250Y-117222000D01*
X207177184Y-117222000D01*
X207168117Y-117200057D01*
X206905327Y-116936808D01*
X206675110Y-116841213D01*
X206675162Y-116781833D01*
X206533117Y-116438057D01*
X206270327Y-116174808D01*
X205926799Y-116032162D01*
X205659151Y-116031929D01*
X205659162Y-116019833D01*
X205517117Y-115676057D01*
X205254327Y-115412808D01*
X204910799Y-115270162D01*
X204538833Y-115269838D01*
X204195057Y-115411883D01*
X204161882Y-115445000D01*
X203835000Y-115445000D01*
X203544160Y-115502852D01*
X203297599Y-115667599D01*
X200091198Y-118874000D01*
X197668802Y-118874000D01*
X201942680Y-114600122D01*
X201988167Y-114600162D01*
X202331943Y-114458117D01*
X202595192Y-114195327D01*
X202737838Y-113851799D01*
X202738070Y-113585000D01*
X210876074Y-113585000D01*
X210880838Y-113610317D01*
X211019910Y-113826441D01*
X211232110Y-113971431D01*
X211484000Y-114022440D01*
X213484000Y-114022440D01*
X213719317Y-113978162D01*
X213935441Y-113839090D01*
X214080431Y-113626890D01*
X214131440Y-113375000D01*
X214131440Y-112275000D01*
X214087162Y-112039683D01*
X214046519Y-111976522D01*
X214080431Y-111926890D01*
X214131440Y-111675000D01*
X214131440Y-111066242D01*
X214759000Y-111693802D01*
G36*
X188087000Y-105283000D02*
X188107000Y-105283000D01*
X188107000Y-105537000D01*
X188087000Y-105537000D01*
X188087000Y-106730155D01*
X188316890Y-106851476D01*
X188726924Y-106681645D01*
X189155183Y-106291358D01*
X189373238Y-105827042D01*
X189694681Y-106148485D01*
X189941243Y-106313232D01*
X190232082Y-106371084D01*
X190754000Y-106371084D01*
X190893630Y-106343310D01*
X191033718Y-106317737D01*
X191406946Y-106170000D01*
X191776699Y-106170000D01*
X191989946Y-106489147D01*
X192471715Y-106811054D01*
X192999217Y-106915981D01*
X192979198Y-106936000D01*
X181864000Y-106936000D01*
X181573161Y-106993852D01*
X181326599Y-107158599D01*
X179167599Y-109317599D01*
X179002852Y-109564161D01*
X178945000Y-109855000D01*
X178945000Y-112651000D01*
X173609000Y-112651000D01*
X173318161Y-112708852D01*
X173071599Y-112873599D01*
X172436599Y-113508599D01*
X172271852Y-113755161D01*
X172214000Y-114046000D01*
X172214000Y-114554000D01*
X172271852Y-114844839D01*
X172436599Y-115091401D01*
X172944599Y-115599401D01*
X173191161Y-115764148D01*
X173482000Y-115822000D01*
X178628198Y-115822000D01*
X179207721Y-116401523D01*
X177224477Y-116401523D01*
X176933637Y-116459375D01*
X176687076Y-116624122D01*
X175243198Y-118068000D01*
X171923440Y-118068000D01*
X171923440Y-117778000D01*
X171879162Y-117542683D01*
X171740090Y-117326559D01*
X171527890Y-117181569D01*
X171336000Y-117142710D01*
X171336000Y-111414150D01*
X171511317Y-111381162D01*
X171727441Y-111242090D01*
X171872431Y-111029890D01*
X171923440Y-110778000D01*
X171923440Y-108678000D01*
X171894228Y-108522750D01*
X174460000Y-108522750D01*
X174460000Y-110113309D01*
X174556673Y-110346698D01*
X174735301Y-110525327D01*
X174968690Y-110622000D01*
X175609250Y-110622000D01*
X175768000Y-110463250D01*
X175768000Y-108364000D01*
X176022000Y-108364000D01*
X176022000Y-110463250D01*
X176180750Y-110622000D01*
X176821310Y-110622000D01*
X177054699Y-110525327D01*
X177233327Y-110346698D01*
X177330000Y-110113309D01*
X177330000Y-108522750D01*
X177171250Y-108364000D01*
X176022000Y-108364000D01*
X175768000Y-108364000D01*
X174618750Y-108364000D01*
X174460000Y-108522750D01*
X171894228Y-108522750D01*
X171879162Y-108442683D01*
X171740090Y-108226559D01*
X171527890Y-108081569D01*
X171276000Y-108030560D01*
X169876000Y-108030560D01*
X169640683Y-108074838D01*
X169424559Y-108213910D01*
X169335965Y-108343572D01*
X169322117Y-108310057D01*
X169059327Y-108046808D01*
X168715799Y-107904162D01*
X168343833Y-107903838D01*
X168000057Y-108045883D01*
X167736808Y-108308673D01*
X167594162Y-108652201D01*
X167594121Y-108699077D01*
X167463440Y-108829758D01*
X167463440Y-108678000D01*
X167419162Y-108442683D01*
X167280090Y-108226559D01*
X167067890Y-108081569D01*
X166816000Y-108030560D01*
X165683000Y-108030560D01*
X165683000Y-106484440D01*
X166731000Y-106484440D01*
X166961303Y-106441105D01*
X167991599Y-107471401D01*
X168238160Y-107636148D01*
X168529000Y-107694000D01*
X173427537Y-107694000D01*
X173459673Y-107726192D01*
X173803201Y-107868838D01*
X174175167Y-107869162D01*
X174460000Y-107751472D01*
X174460000Y-107951250D01*
X174618750Y-108110000D01*
X175768000Y-108110000D01*
X175768000Y-108090000D01*
X176022000Y-108090000D01*
X176022000Y-108110000D01*
X177171250Y-108110000D01*
X177330000Y-107951250D01*
X177330000Y-106805000D01*
X185928000Y-106805000D01*
X186218839Y-106747148D01*
X186465401Y-106582401D01*
X186762141Y-106285661D01*
X186764817Y-106291358D01*
X187193076Y-106681645D01*
X187603110Y-106851476D01*
X187833000Y-106730155D01*
X187833000Y-105537000D01*
X187813000Y-105537000D01*
X187813000Y-105283000D01*
X187833000Y-105283000D01*
X187833000Y-105263000D01*
X188087000Y-105263000D01*
X188087000Y-105283000D01*
X188087000Y-105283000D01*
G37*
X188087000Y-105283000D02*
X188107000Y-105283000D01*
X188107000Y-105537000D01*
X188087000Y-105537000D01*
X188087000Y-106730155D01*
X188316890Y-106851476D01*
X188726924Y-106681645D01*
X189155183Y-106291358D01*
X189373238Y-105827042D01*
X189694681Y-106148485D01*
X189941243Y-106313232D01*
X190232082Y-106371084D01*
X190754000Y-106371084D01*
X190893630Y-106343310D01*
X191033718Y-106317737D01*
X191406946Y-106170000D01*
X191776699Y-106170000D01*
X191989946Y-106489147D01*
X192471715Y-106811054D01*
X192999217Y-106915981D01*
X192979198Y-106936000D01*
X181864000Y-106936000D01*
X181573161Y-106993852D01*
X181326599Y-107158599D01*
X179167599Y-109317599D01*
X179002852Y-109564161D01*
X178945000Y-109855000D01*
X178945000Y-112651000D01*
X173609000Y-112651000D01*
X173318161Y-112708852D01*
X173071599Y-112873599D01*
X172436599Y-113508599D01*
X172271852Y-113755161D01*
X172214000Y-114046000D01*
X172214000Y-114554000D01*
X172271852Y-114844839D01*
X172436599Y-115091401D01*
X172944599Y-115599401D01*
X173191161Y-115764148D01*
X173482000Y-115822000D01*
X178628198Y-115822000D01*
X179207721Y-116401523D01*
X177224477Y-116401523D01*
X176933637Y-116459375D01*
X176687076Y-116624122D01*
X175243198Y-118068000D01*
X171923440Y-118068000D01*
X171923440Y-117778000D01*
X171879162Y-117542683D01*
X171740090Y-117326559D01*
X171527890Y-117181569D01*
X171336000Y-117142710D01*
X171336000Y-111414150D01*
X171511317Y-111381162D01*
X171727441Y-111242090D01*
X171872431Y-111029890D01*
X171923440Y-110778000D01*
X171923440Y-108678000D01*
X171894228Y-108522750D01*
X174460000Y-108522750D01*
X174460000Y-110113309D01*
X174556673Y-110346698D01*
X174735301Y-110525327D01*
X174968690Y-110622000D01*
X175609250Y-110622000D01*
X175768000Y-110463250D01*
X175768000Y-108364000D01*
X176022000Y-108364000D01*
X176022000Y-110463250D01*
X176180750Y-110622000D01*
X176821310Y-110622000D01*
X177054699Y-110525327D01*
X177233327Y-110346698D01*
X177330000Y-110113309D01*
X177330000Y-108522750D01*
X177171250Y-108364000D01*
X176022000Y-108364000D01*
X175768000Y-108364000D01*
X174618750Y-108364000D01*
X174460000Y-108522750D01*
X171894228Y-108522750D01*
X171879162Y-108442683D01*
X171740090Y-108226559D01*
X171527890Y-108081569D01*
X171276000Y-108030560D01*
X169876000Y-108030560D01*
X169640683Y-108074838D01*
X169424559Y-108213910D01*
X169335965Y-108343572D01*
X169322117Y-108310057D01*
X169059327Y-108046808D01*
X168715799Y-107904162D01*
X168343833Y-107903838D01*
X168000057Y-108045883D01*
X167736808Y-108308673D01*
X167594162Y-108652201D01*
X167594121Y-108699077D01*
X167463440Y-108829758D01*
X167463440Y-108678000D01*
X167419162Y-108442683D01*
X167280090Y-108226559D01*
X167067890Y-108081569D01*
X166816000Y-108030560D01*
X165683000Y-108030560D01*
X165683000Y-106484440D01*
X166731000Y-106484440D01*
X166961303Y-106441105D01*
X167991599Y-107471401D01*
X168238160Y-107636148D01*
X168529000Y-107694000D01*
X173427537Y-107694000D01*
X173459673Y-107726192D01*
X173803201Y-107868838D01*
X174175167Y-107869162D01*
X174460000Y-107751472D01*
X174460000Y-107951250D01*
X174618750Y-108110000D01*
X175768000Y-108110000D01*
X175768000Y-108090000D01*
X176022000Y-108090000D01*
X176022000Y-108110000D01*
X177171250Y-108110000D01*
X177330000Y-107951250D01*
X177330000Y-106805000D01*
X185928000Y-106805000D01*
X186218839Y-106747148D01*
X186465401Y-106582401D01*
X186762141Y-106285661D01*
X186764817Y-106291358D01*
X187193076Y-106681645D01*
X187603110Y-106851476D01*
X187833000Y-106730155D01*
X187833000Y-105537000D01*
X187813000Y-105537000D01*
X187813000Y-105283000D01*
X187833000Y-105283000D01*
X187833000Y-105263000D01*
X188087000Y-105263000D01*
X188087000Y-105283000D01*
G36*
X193518599Y-114075401D02*
X193765160Y-114240148D01*
X194056000Y-114298000D01*
X199517000Y-114298000D01*
X199807839Y-114240148D01*
X200054401Y-114075401D01*
X200544802Y-113585000D01*
X200808198Y-113585000D01*
X196424198Y-117969000D01*
X196157279Y-117969000D01*
X196034090Y-117777559D01*
X195965994Y-117731031D01*
X196108327Y-117588698D01*
X196205000Y-117355309D01*
X196205000Y-117014750D01*
X196046250Y-116856000D01*
X195072000Y-116856000D01*
X195072000Y-116876000D01*
X194818000Y-116876000D01*
X194818000Y-116856000D01*
X193040000Y-116856000D01*
X193040000Y-116876000D01*
X192786000Y-116876000D01*
X192786000Y-116856000D01*
X192766000Y-116856000D01*
X192766000Y-116602000D01*
X192786000Y-116602000D01*
X192786000Y-115752750D01*
X193040000Y-115752750D01*
X193040000Y-116602000D01*
X194818000Y-116602000D01*
X194818000Y-115752750D01*
X195072000Y-115752750D01*
X195072000Y-116602000D01*
X196046250Y-116602000D01*
X196205000Y-116443250D01*
X196205000Y-116102691D01*
X196108327Y-115869302D01*
X195929699Y-115690673D01*
X195696310Y-115594000D01*
X195230750Y-115594000D01*
X195072000Y-115752750D01*
X194818000Y-115752750D01*
X194659250Y-115594000D01*
X194193690Y-115594000D01*
X193960301Y-115690673D01*
X193929000Y-115721974D01*
X193897699Y-115690673D01*
X193664310Y-115594000D01*
X193198750Y-115594000D01*
X193040000Y-115752750D01*
X192786000Y-115752750D01*
X192627250Y-115594000D01*
X192161690Y-115594000D01*
X191928301Y-115690673D01*
X191749673Y-115869302D01*
X191653000Y-116102691D01*
X191653000Y-116443250D01*
X191735098Y-116525348D01*
X191636362Y-116459375D01*
X191345523Y-116401523D01*
X191117692Y-116401523D01*
X191292192Y-116227327D01*
X191434838Y-115883799D01*
X191435162Y-115511833D01*
X191293117Y-115168057D01*
X191030327Y-114904808D01*
X190686799Y-114762162D01*
X190314833Y-114761838D01*
X189971057Y-114903883D01*
X189707808Y-115166673D01*
X189697706Y-115191000D01*
X188722000Y-115191000D01*
X188508278Y-115233512D01*
X188463289Y-115188523D01*
X188134479Y-115188523D01*
X188134479Y-114934523D01*
X188463289Y-114934523D01*
X188622039Y-114775773D01*
X188622039Y-114285214D01*
X188525366Y-114051825D01*
X188346738Y-113873196D01*
X188113349Y-113776523D01*
X188083289Y-113776523D01*
X187924539Y-113935273D01*
X187924539Y-113941914D01*
X187740581Y-113816221D01*
X188078800Y-113478002D01*
X192921200Y-113478002D01*
X193518599Y-114075401D01*
X193518599Y-114075401D01*
G37*
X193518599Y-114075401D02*
X193765160Y-114240148D01*
X194056000Y-114298000D01*
X199517000Y-114298000D01*
X199807839Y-114240148D01*
X200054401Y-114075401D01*
X200544802Y-113585000D01*
X200808198Y-113585000D01*
X196424198Y-117969000D01*
X196157279Y-117969000D01*
X196034090Y-117777559D01*
X195965994Y-117731031D01*
X196108327Y-117588698D01*
X196205000Y-117355309D01*
X196205000Y-117014750D01*
X196046250Y-116856000D01*
X195072000Y-116856000D01*
X195072000Y-116876000D01*
X194818000Y-116876000D01*
X194818000Y-116856000D01*
X193040000Y-116856000D01*
X193040000Y-116876000D01*
X192786000Y-116876000D01*
X192786000Y-116856000D01*
X192766000Y-116856000D01*
X192766000Y-116602000D01*
X192786000Y-116602000D01*
X192786000Y-115752750D01*
X193040000Y-115752750D01*
X193040000Y-116602000D01*
X194818000Y-116602000D01*
X194818000Y-115752750D01*
X195072000Y-115752750D01*
X195072000Y-116602000D01*
X196046250Y-116602000D01*
X196205000Y-116443250D01*
X196205000Y-116102691D01*
X196108327Y-115869302D01*
X195929699Y-115690673D01*
X195696310Y-115594000D01*
X195230750Y-115594000D01*
X195072000Y-115752750D01*
X194818000Y-115752750D01*
X194659250Y-115594000D01*
X194193690Y-115594000D01*
X193960301Y-115690673D01*
X193929000Y-115721974D01*
X193897699Y-115690673D01*
X193664310Y-115594000D01*
X193198750Y-115594000D01*
X193040000Y-115752750D01*
X192786000Y-115752750D01*
X192627250Y-115594000D01*
X192161690Y-115594000D01*
X191928301Y-115690673D01*
X191749673Y-115869302D01*
X191653000Y-116102691D01*
X191653000Y-116443250D01*
X191735098Y-116525348D01*
X191636362Y-116459375D01*
X191345523Y-116401523D01*
X191117692Y-116401523D01*
X191292192Y-116227327D01*
X191434838Y-115883799D01*
X191435162Y-115511833D01*
X191293117Y-115168057D01*
X191030327Y-114904808D01*
X190686799Y-114762162D01*
X190314833Y-114761838D01*
X189971057Y-114903883D01*
X189707808Y-115166673D01*
X189697706Y-115191000D01*
X188722000Y-115191000D01*
X188508278Y-115233512D01*
X188463289Y-115188523D01*
X188134479Y-115188523D01*
X188134479Y-114934523D01*
X188463289Y-114934523D01*
X188622039Y-114775773D01*
X188622039Y-114285214D01*
X188525366Y-114051825D01*
X188346738Y-113873196D01*
X188113349Y-113776523D01*
X188083289Y-113776523D01*
X187924539Y-113935273D01*
X187924539Y-113941914D01*
X187740581Y-113816221D01*
X188078800Y-113478002D01*
X192921200Y-113478002D01*
X193518599Y-114075401D01*
G36*
X183372000Y-110998000D02*
X183392000Y-110998000D01*
X183392000Y-111252000D01*
X183372000Y-111252000D01*
X183372000Y-112903000D01*
X183392000Y-112903000D01*
X183392000Y-113157000D01*
X183372000Y-113157000D01*
X183372000Y-113177000D01*
X183122039Y-113177000D01*
X183122039Y-110978000D01*
X183372000Y-110978000D01*
X183372000Y-110998000D01*
X183372000Y-110998000D01*
G37*
X183372000Y-110998000D02*
X183392000Y-110998000D01*
X183392000Y-111252000D01*
X183372000Y-111252000D01*
X183372000Y-112903000D01*
X183392000Y-112903000D01*
X183392000Y-113157000D01*
X183372000Y-113157000D01*
X183372000Y-113177000D01*
X183122039Y-113177000D01*
X183122039Y-110978000D01*
X183372000Y-110978000D01*
X183372000Y-110998000D01*
G36*
X199609946Y-105219147D02*
X200091715Y-105541054D01*
X200660000Y-105654093D01*
X201228285Y-105541054D01*
X201255311Y-105522996D01*
X201100852Y-105754161D01*
X201043000Y-106045000D01*
X201043000Y-106912258D01*
X200917683Y-106935838D01*
X200701559Y-107074910D01*
X200556569Y-107287110D01*
X200505560Y-107539000D01*
X200505560Y-108239000D01*
X200549838Y-108474317D01*
X200688910Y-108690441D01*
X200901110Y-108835431D01*
X200914197Y-108838081D01*
X200794747Y-108914945D01*
X200562401Y-108682599D01*
X200315839Y-108517852D01*
X200025000Y-108460000D01*
X199109440Y-108460000D01*
X199109440Y-108370000D01*
X199065162Y-108134683D01*
X198926090Y-107918559D01*
X198713890Y-107773569D01*
X198462000Y-107722560D01*
X196762000Y-107722560D01*
X196526683Y-107766838D01*
X196310559Y-107905910D01*
X196165569Y-108118110D01*
X196114560Y-108370000D01*
X196114560Y-110070000D01*
X196158838Y-110305317D01*
X196297910Y-110521441D01*
X196510110Y-110666431D01*
X196577541Y-110680086D01*
X196532853Y-110709946D01*
X196339046Y-111000000D01*
X185511368Y-111000000D01*
X185592838Y-110803799D01*
X185593162Y-110431833D01*
X185451117Y-110088057D01*
X185188327Y-109824808D01*
X184844799Y-109682162D01*
X184642305Y-109681986D01*
X184700847Y-109541002D01*
X193732998Y-109541002D01*
X194023837Y-109483150D01*
X194270399Y-109318403D01*
X196529802Y-107059000D01*
X197231000Y-107059000D01*
X197521839Y-107001148D01*
X197747925Y-106850083D01*
X198120000Y-106924093D01*
X198688285Y-106811054D01*
X199170054Y-106489147D01*
X199491961Y-106007378D01*
X199605000Y-105439093D01*
X199605000Y-105380907D01*
X199557089Y-105140040D01*
X199609946Y-105219147D01*
X199609946Y-105219147D01*
G37*
X199609946Y-105219147D02*
X200091715Y-105541054D01*
X200660000Y-105654093D01*
X201228285Y-105541054D01*
X201255311Y-105522996D01*
X201100852Y-105754161D01*
X201043000Y-106045000D01*
X201043000Y-106912258D01*
X200917683Y-106935838D01*
X200701559Y-107074910D01*
X200556569Y-107287110D01*
X200505560Y-107539000D01*
X200505560Y-108239000D01*
X200549838Y-108474317D01*
X200688910Y-108690441D01*
X200901110Y-108835431D01*
X200914197Y-108838081D01*
X200794747Y-108914945D01*
X200562401Y-108682599D01*
X200315839Y-108517852D01*
X200025000Y-108460000D01*
X199109440Y-108460000D01*
X199109440Y-108370000D01*
X199065162Y-108134683D01*
X198926090Y-107918559D01*
X198713890Y-107773569D01*
X198462000Y-107722560D01*
X196762000Y-107722560D01*
X196526683Y-107766838D01*
X196310559Y-107905910D01*
X196165569Y-108118110D01*
X196114560Y-108370000D01*
X196114560Y-110070000D01*
X196158838Y-110305317D01*
X196297910Y-110521441D01*
X196510110Y-110666431D01*
X196577541Y-110680086D01*
X196532853Y-110709946D01*
X196339046Y-111000000D01*
X185511368Y-111000000D01*
X185592838Y-110803799D01*
X185593162Y-110431833D01*
X185451117Y-110088057D01*
X185188327Y-109824808D01*
X184844799Y-109682162D01*
X184642305Y-109681986D01*
X184700847Y-109541002D01*
X193732998Y-109541002D01*
X194023837Y-109483150D01*
X194270399Y-109318403D01*
X196529802Y-107059000D01*
X197231000Y-107059000D01*
X197521839Y-107001148D01*
X197747925Y-106850083D01*
X198120000Y-106924093D01*
X198688285Y-106811054D01*
X199170054Y-106489147D01*
X199491961Y-106007378D01*
X199605000Y-105439093D01*
X199605000Y-105380907D01*
X199557089Y-105140040D01*
X199609946Y-105219147D01*
G36*
X200120883Y-101239943D02*
X200383673Y-101503192D01*
X200727201Y-101645838D01*
X201099167Y-101646162D01*
X201442943Y-101504117D01*
X201706192Y-101241327D01*
X201820934Y-100965000D01*
X211000384Y-100965000D01*
X210887569Y-101130110D01*
X210879086Y-101172000D01*
X208456000Y-101172000D01*
X208219717Y-101219000D01*
X208165160Y-101229852D01*
X207918599Y-101394599D01*
X207251320Y-102061878D01*
X207205833Y-102061838D01*
X206862057Y-102203883D01*
X206598808Y-102466673D01*
X206456162Y-102810201D01*
X206455838Y-103182167D01*
X206597883Y-103525943D01*
X206860673Y-103789192D01*
X207090890Y-103884787D01*
X207090838Y-103944167D01*
X207232883Y-104287943D01*
X207495673Y-104551192D01*
X207839201Y-104693838D01*
X207952735Y-104693937D01*
X207994883Y-104795943D01*
X208257673Y-105059192D01*
X208601201Y-105201838D01*
X208648077Y-105201879D01*
X209315599Y-105869401D01*
X209562160Y-106034148D01*
X209610414Y-106043746D01*
X209853000Y-106092000D01*
X210876074Y-106092000D01*
X210880838Y-106117317D01*
X211019910Y-106333441D01*
X211232110Y-106478431D01*
X211311526Y-106494513D01*
X211210210Y-106562210D01*
X211210208Y-106562213D01*
X208743420Y-109029000D01*
X202943757Y-109029000D01*
X202917090Y-108987559D01*
X202704890Y-108842569D01*
X202691803Y-108839919D01*
X202904441Y-108703090D01*
X203049431Y-108490890D01*
X203100440Y-108239000D01*
X203100440Y-107539000D01*
X203056162Y-107303683D01*
X202917090Y-107087559D01*
X202738817Y-106965750D01*
X203239000Y-106965750D01*
X203239000Y-107656310D01*
X203335673Y-107889699D01*
X203514302Y-108068327D01*
X203747691Y-108165000D01*
X204438250Y-108165000D01*
X204597000Y-108006250D01*
X204597000Y-106807000D01*
X204851000Y-106807000D01*
X204851000Y-108006250D01*
X205009750Y-108165000D01*
X205700309Y-108165000D01*
X205933698Y-108068327D01*
X206112327Y-107889699D01*
X206209000Y-107656310D01*
X206209000Y-106965750D01*
X206050250Y-106807000D01*
X204851000Y-106807000D01*
X204597000Y-106807000D01*
X203397750Y-106807000D01*
X203239000Y-106965750D01*
X202738817Y-106965750D01*
X202704890Y-106942569D01*
X202563000Y-106913836D01*
X202563000Y-106359802D01*
X203253063Y-105669739D01*
X203239000Y-105703690D01*
X203239000Y-106394250D01*
X203397750Y-106553000D01*
X204597000Y-106553000D01*
X204597000Y-106533000D01*
X204851000Y-106533000D01*
X204851000Y-106553000D01*
X206050250Y-106553000D01*
X206209000Y-106394250D01*
X206209000Y-105703690D01*
X206112327Y-105470301D01*
X205933698Y-105291673D01*
X205759223Y-105219403D01*
X205803147Y-105190054D01*
X206125054Y-104708285D01*
X206238093Y-104140000D01*
X206125054Y-103571715D01*
X205803147Y-103089946D01*
X205321378Y-102768039D01*
X204753093Y-102655000D01*
X204694907Y-102655000D01*
X204126622Y-102768039D01*
X203644853Y-103089946D01*
X203408542Y-103443611D01*
X203170599Y-103602599D01*
X202024190Y-104749008D01*
X202031961Y-104737378D01*
X202145000Y-104169093D01*
X202145000Y-104110907D01*
X202031961Y-103542622D01*
X201710054Y-103060853D01*
X201228285Y-102738946D01*
X200660000Y-102625907D01*
X200293592Y-102698790D01*
X199800401Y-102205599D01*
X199553839Y-102040852D01*
X199263000Y-101983000D01*
X197152129Y-101983000D01*
X197344757Y-101519100D01*
X197345241Y-100965000D01*
X200007279Y-100965000D01*
X200120883Y-101239943D01*
X200120883Y-101239943D01*
G37*
X200120883Y-101239943D02*
X200383673Y-101503192D01*
X200727201Y-101645838D01*
X201099167Y-101646162D01*
X201442943Y-101504117D01*
X201706192Y-101241327D01*
X201820934Y-100965000D01*
X211000384Y-100965000D01*
X210887569Y-101130110D01*
X210879086Y-101172000D01*
X208456000Y-101172000D01*
X208219717Y-101219000D01*
X208165160Y-101229852D01*
X207918599Y-101394599D01*
X207251320Y-102061878D01*
X207205833Y-102061838D01*
X206862057Y-102203883D01*
X206598808Y-102466673D01*
X206456162Y-102810201D01*
X206455838Y-103182167D01*
X206597883Y-103525943D01*
X206860673Y-103789192D01*
X207090890Y-103884787D01*
X207090838Y-103944167D01*
X207232883Y-104287943D01*
X207495673Y-104551192D01*
X207839201Y-104693838D01*
X207952735Y-104693937D01*
X207994883Y-104795943D01*
X208257673Y-105059192D01*
X208601201Y-105201838D01*
X208648077Y-105201879D01*
X209315599Y-105869401D01*
X209562160Y-106034148D01*
X209610414Y-106043746D01*
X209853000Y-106092000D01*
X210876074Y-106092000D01*
X210880838Y-106117317D01*
X211019910Y-106333441D01*
X211232110Y-106478431D01*
X211311526Y-106494513D01*
X211210210Y-106562210D01*
X211210208Y-106562213D01*
X208743420Y-109029000D01*
X202943757Y-109029000D01*
X202917090Y-108987559D01*
X202704890Y-108842569D01*
X202691803Y-108839919D01*
X202904441Y-108703090D01*
X203049431Y-108490890D01*
X203100440Y-108239000D01*
X203100440Y-107539000D01*
X203056162Y-107303683D01*
X202917090Y-107087559D01*
X202738817Y-106965750D01*
X203239000Y-106965750D01*
X203239000Y-107656310D01*
X203335673Y-107889699D01*
X203514302Y-108068327D01*
X203747691Y-108165000D01*
X204438250Y-108165000D01*
X204597000Y-108006250D01*
X204597000Y-106807000D01*
X204851000Y-106807000D01*
X204851000Y-108006250D01*
X205009750Y-108165000D01*
X205700309Y-108165000D01*
X205933698Y-108068327D01*
X206112327Y-107889699D01*
X206209000Y-107656310D01*
X206209000Y-106965750D01*
X206050250Y-106807000D01*
X204851000Y-106807000D01*
X204597000Y-106807000D01*
X203397750Y-106807000D01*
X203239000Y-106965750D01*
X202738817Y-106965750D01*
X202704890Y-106942569D01*
X202563000Y-106913836D01*
X202563000Y-106359802D01*
X203253063Y-105669739D01*
X203239000Y-105703690D01*
X203239000Y-106394250D01*
X203397750Y-106553000D01*
X204597000Y-106553000D01*
X204597000Y-106533000D01*
X204851000Y-106533000D01*
X204851000Y-106553000D01*
X206050250Y-106553000D01*
X206209000Y-106394250D01*
X206209000Y-105703690D01*
X206112327Y-105470301D01*
X205933698Y-105291673D01*
X205759223Y-105219403D01*
X205803147Y-105190054D01*
X206125054Y-104708285D01*
X206238093Y-104140000D01*
X206125054Y-103571715D01*
X205803147Y-103089946D01*
X205321378Y-102768039D01*
X204753093Y-102655000D01*
X204694907Y-102655000D01*
X204126622Y-102768039D01*
X203644853Y-103089946D01*
X203408542Y-103443611D01*
X203170599Y-103602599D01*
X202024190Y-104749008D01*
X202031961Y-104737378D01*
X202145000Y-104169093D01*
X202145000Y-104110907D01*
X202031961Y-103542622D01*
X201710054Y-103060853D01*
X201228285Y-102738946D01*
X200660000Y-102625907D01*
X200293592Y-102698790D01*
X199800401Y-102205599D01*
X199553839Y-102040852D01*
X199263000Y-101983000D01*
X197152129Y-101983000D01*
X197344757Y-101519100D01*
X197345241Y-100965000D01*
X200007279Y-100965000D01*
X200120883Y-101239943D01*
G36*
X169977838Y-103532317D02*
X170036178Y-103622980D01*
X169946000Y-103840690D01*
X169946000Y-103981250D01*
X170104750Y-104140000D01*
X171229000Y-104140000D01*
X171229000Y-104120000D01*
X171483000Y-104120000D01*
X171483000Y-104140000D01*
X172607250Y-104140000D01*
X172766000Y-103981250D01*
X172766000Y-103965177D01*
X172817599Y-104042401D01*
X173552198Y-104777000D01*
X172731334Y-104777000D01*
X172766000Y-104693310D01*
X172766000Y-104552750D01*
X172607250Y-104394000D01*
X171483000Y-104394000D01*
X171483000Y-104414000D01*
X171229000Y-104414000D01*
X171229000Y-104394000D01*
X170104750Y-104394000D01*
X169946000Y-104552750D01*
X169946000Y-104693310D01*
X170035806Y-104910122D01*
X169984569Y-104985110D01*
X169933560Y-105237000D01*
X169933560Y-105837000D01*
X169977838Y-106072317D01*
X170043269Y-106174000D01*
X168843802Y-106174000D01*
X168379673Y-105709871D01*
X168714167Y-105710162D01*
X169057943Y-105568117D01*
X169321192Y-105305327D01*
X169463838Y-104961799D01*
X169464162Y-104589833D01*
X169322117Y-104246057D01*
X169289000Y-104212882D01*
X169289000Y-104073802D01*
X169954502Y-103408300D01*
X169977838Y-103532317D01*
X169977838Y-103532317D01*
G37*
X169977838Y-103532317D02*
X170036178Y-103622980D01*
X169946000Y-103840690D01*
X169946000Y-103981250D01*
X170104750Y-104140000D01*
X171229000Y-104140000D01*
X171229000Y-104120000D01*
X171483000Y-104120000D01*
X171483000Y-104140000D01*
X172607250Y-104140000D01*
X172766000Y-103981250D01*
X172766000Y-103965177D01*
X172817599Y-104042401D01*
X173552198Y-104777000D01*
X172731334Y-104777000D01*
X172766000Y-104693310D01*
X172766000Y-104552750D01*
X172607250Y-104394000D01*
X171483000Y-104394000D01*
X171483000Y-104414000D01*
X171229000Y-104414000D01*
X171229000Y-104394000D01*
X170104750Y-104394000D01*
X169946000Y-104552750D01*
X169946000Y-104693310D01*
X170035806Y-104910122D01*
X169984569Y-104985110D01*
X169933560Y-105237000D01*
X169933560Y-105837000D01*
X169977838Y-106072317D01*
X170043269Y-106174000D01*
X168843802Y-106174000D01*
X168379673Y-105709871D01*
X168714167Y-105710162D01*
X169057943Y-105568117D01*
X169321192Y-105305327D01*
X169463838Y-104961799D01*
X169464162Y-104589833D01*
X169322117Y-104246057D01*
X169289000Y-104212882D01*
X169289000Y-104073802D01*
X169954502Y-103408300D01*
X169977838Y-103532317D01*
M02*
