G04 #@! TF.FileFunction,Legend,Bot*
%FSLAX46Y46*%
G04 Gerber Fmt 4.6, Leading zero omitted, Abs format (unit mm)*
G04 Created by KiCad (PCBNEW 4.0.7-e2-6376~58~ubuntu16.04.1) date Mon Apr 29 13:57:36 2019*
%MOMM*%
%LPD*%
G01*
G04 APERTURE LIST*
%ADD10C,0.100000*%
%ADD11C,0.010000*%
%ADD12C,0.150000*%
%ADD13R,2.100000X2.100000*%
%ADD14O,2.100000X2.100000*%
%ADD15C,1.850000*%
%ADD16O,2.300000X1.600000*%
%ADD17C,1.924000*%
G04 APERTURE END LIST*
D10*
D11*
G36*
X170290044Y-45016385D02*
X170432678Y-45000587D01*
X170555568Y-44965748D01*
X170691042Y-44905663D01*
X170693272Y-44904569D01*
X170965084Y-44726639D01*
X171206023Y-44481538D01*
X171405530Y-44184290D01*
X171553047Y-43849916D01*
X171623817Y-43580602D01*
X171652536Y-43308538D01*
X171648419Y-43006658D01*
X171614042Y-42709663D01*
X171551978Y-42452252D01*
X171536964Y-42409878D01*
X171384185Y-42099805D01*
X171178700Y-41822120D01*
X170935107Y-41592182D01*
X170668003Y-41425347D01*
X170557738Y-41379683D01*
X170374282Y-41339368D01*
X170144912Y-41323212D01*
X169904771Y-41330912D01*
X169689001Y-41362166D01*
X169597211Y-41387939D01*
X169448004Y-41465068D01*
X169273385Y-41591960D01*
X169096101Y-41748745D01*
X168938900Y-41915552D01*
X168837042Y-42051984D01*
X168673995Y-42385669D01*
X168574737Y-42757828D01*
X168539874Y-43150576D01*
X168543714Y-43200973D01*
X168788971Y-43200973D01*
X168818323Y-42841956D01*
X168915951Y-42491074D01*
X169082298Y-42160546D01*
X169253323Y-41932332D01*
X169467045Y-41750076D01*
X169724041Y-41628946D01*
X170005537Y-41572460D01*
X170292759Y-41584136D01*
X170566935Y-41667492D01*
X170594921Y-41680904D01*
X170852082Y-41854577D01*
X171066329Y-42090819D01*
X171232619Y-42376474D01*
X171345906Y-42698385D01*
X171401147Y-43043396D01*
X171393296Y-43398350D01*
X171347834Y-43644623D01*
X171229230Y-43976969D01*
X171062657Y-44257053D01*
X170857121Y-44481146D01*
X170621627Y-44645518D01*
X170365179Y-44746439D01*
X170096784Y-44780178D01*
X169825446Y-44743006D01*
X169560171Y-44631192D01*
X169345466Y-44474036D01*
X169106143Y-44204658D01*
X168933324Y-43894543D01*
X168827452Y-43555909D01*
X168788971Y-43200973D01*
X168543714Y-43200973D01*
X168570011Y-43546027D01*
X168665755Y-43926295D01*
X168765594Y-44161088D01*
X168905697Y-44378441D01*
X169096105Y-44593841D01*
X169310713Y-44781331D01*
X169523419Y-44914951D01*
X169523834Y-44915151D01*
X169657846Y-44970497D01*
X169794857Y-45002484D01*
X169966279Y-45016838D01*
X170095334Y-45019350D01*
X170290044Y-45016385D01*
X170290044Y-45016385D01*
G37*
X170290044Y-45016385D02*
X170432678Y-45000587D01*
X170555568Y-44965748D01*
X170691042Y-44905663D01*
X170693272Y-44904569D01*
X170965084Y-44726639D01*
X171206023Y-44481538D01*
X171405530Y-44184290D01*
X171553047Y-43849916D01*
X171623817Y-43580602D01*
X171652536Y-43308538D01*
X171648419Y-43006658D01*
X171614042Y-42709663D01*
X171551978Y-42452252D01*
X171536964Y-42409878D01*
X171384185Y-42099805D01*
X171178700Y-41822120D01*
X170935107Y-41592182D01*
X170668003Y-41425347D01*
X170557738Y-41379683D01*
X170374282Y-41339368D01*
X170144912Y-41323212D01*
X169904771Y-41330912D01*
X169689001Y-41362166D01*
X169597211Y-41387939D01*
X169448004Y-41465068D01*
X169273385Y-41591960D01*
X169096101Y-41748745D01*
X168938900Y-41915552D01*
X168837042Y-42051984D01*
X168673995Y-42385669D01*
X168574737Y-42757828D01*
X168539874Y-43150576D01*
X168543714Y-43200973D01*
X168788971Y-43200973D01*
X168818323Y-42841956D01*
X168915951Y-42491074D01*
X169082298Y-42160546D01*
X169253323Y-41932332D01*
X169467045Y-41750076D01*
X169724041Y-41628946D01*
X170005537Y-41572460D01*
X170292759Y-41584136D01*
X170566935Y-41667492D01*
X170594921Y-41680904D01*
X170852082Y-41854577D01*
X171066329Y-42090819D01*
X171232619Y-42376474D01*
X171345906Y-42698385D01*
X171401147Y-43043396D01*
X171393296Y-43398350D01*
X171347834Y-43644623D01*
X171229230Y-43976969D01*
X171062657Y-44257053D01*
X170857121Y-44481146D01*
X170621627Y-44645518D01*
X170365179Y-44746439D01*
X170096784Y-44780178D01*
X169825446Y-44743006D01*
X169560171Y-44631192D01*
X169345466Y-44474036D01*
X169106143Y-44204658D01*
X168933324Y-43894543D01*
X168827452Y-43555909D01*
X168788971Y-43200973D01*
X168543714Y-43200973D01*
X168570011Y-43546027D01*
X168665755Y-43926295D01*
X168765594Y-44161088D01*
X168905697Y-44378441D01*
X169096105Y-44593841D01*
X169310713Y-44781331D01*
X169523419Y-44914951D01*
X169523834Y-44915151D01*
X169657846Y-44970497D01*
X169794857Y-45002484D01*
X169966279Y-45016838D01*
X170095334Y-45019350D01*
X170290044Y-45016385D01*
G36*
X178036094Y-44993228D02*
X178334027Y-44880808D01*
X178450761Y-44810769D01*
X178561742Y-44737745D01*
X178620190Y-44710985D01*
X178642900Y-44728152D01*
X178646667Y-44783484D01*
X178678394Y-44878505D01*
X178753469Y-44939306D01*
X178838068Y-44942346D01*
X178867391Y-44917907D01*
X178885473Y-44862031D01*
X178893947Y-44760025D01*
X178894447Y-44597198D01*
X178891524Y-44461360D01*
X178885603Y-44260620D01*
X178877997Y-44129632D01*
X178864898Y-44053507D01*
X178842501Y-44017357D01*
X178807002Y-44006292D01*
X178775006Y-44005500D01*
X178705977Y-44017960D01*
X178665116Y-44070154D01*
X178635151Y-44184307D01*
X178634838Y-44185890D01*
X178555684Y-44384032D01*
X178413130Y-44546350D01*
X178222067Y-44669253D01*
X177997385Y-44749150D01*
X177753974Y-44782451D01*
X177506725Y-44765566D01*
X177270527Y-44694905D01*
X177060272Y-44566877D01*
X177059017Y-44565844D01*
X176895614Y-44388725D01*
X176805991Y-44193844D01*
X176793016Y-43992983D01*
X176859557Y-43797925D01*
X176868438Y-43782864D01*
X176976575Y-43649702D01*
X177127201Y-43546256D01*
X177335499Y-43464139D01*
X177542059Y-43410758D01*
X177900274Y-43325105D01*
X178209976Y-43238076D01*
X178461476Y-43152843D01*
X178645085Y-43072580D01*
X178725006Y-43023385D01*
X178886860Y-42850226D01*
X178986576Y-42636064D01*
X179024100Y-42397461D01*
X178999377Y-42150983D01*
X178912354Y-41913193D01*
X178762975Y-41700655D01*
X178729460Y-41666358D01*
X178547072Y-41516312D01*
X178350140Y-41415641D01*
X178117176Y-41356583D01*
X177826691Y-41331375D01*
X177800000Y-41330579D01*
X177611541Y-41329474D01*
X177444786Y-41335430D01*
X177325113Y-41347247D01*
X177292000Y-41354599D01*
X177118027Y-41425275D01*
X176946286Y-41517571D01*
X176808517Y-41613390D01*
X176762834Y-41656358D01*
X176678167Y-41750391D01*
X176657000Y-41612330D01*
X176619453Y-41497949D01*
X176558505Y-41425111D01*
X176491659Y-41407669D01*
X176444777Y-41444334D01*
X176427561Y-41511888D01*
X176413846Y-41642598D01*
X176405427Y-41814971D01*
X176403648Y-41936567D01*
X176406469Y-42147671D01*
X176416956Y-42288851D01*
X176437007Y-42374653D01*
X176466500Y-42418000D01*
X176545344Y-42441137D01*
X176616677Y-42399124D01*
X176655363Y-42309627D01*
X176657000Y-42284131D01*
X176686910Y-42154980D01*
X176763961Y-42004915D01*
X176869139Y-41865856D01*
X176950680Y-41791149D01*
X177200978Y-41655231D01*
X177497428Y-41583991D01*
X177715334Y-41571334D01*
X178026474Y-41600266D01*
X178292641Y-41683098D01*
X178506581Y-41813885D01*
X178661039Y-41986684D01*
X178748763Y-42195549D01*
X178762959Y-42429882D01*
X178739492Y-42573282D01*
X178689315Y-42678284D01*
X178592005Y-42785305D01*
X178575542Y-42800808D01*
X178505262Y-42861773D01*
X178432104Y-42910531D01*
X178340605Y-42952942D01*
X178215301Y-42994865D01*
X178040728Y-43042163D01*
X177801422Y-43100695D01*
X177755162Y-43111715D01*
X177516343Y-43171949D01*
X177293588Y-43234435D01*
X177106024Y-43293352D01*
X176972779Y-43342879D01*
X176933419Y-43361783D01*
X176736245Y-43515029D01*
X176605438Y-43706043D01*
X176539676Y-43921736D01*
X176537633Y-44149018D01*
X176597988Y-44374803D01*
X176719415Y-44586000D01*
X176900592Y-44769521D01*
X177087716Y-44887641D01*
X177395844Y-44997609D01*
X177717668Y-45032483D01*
X178036094Y-44993228D01*
X178036094Y-44993228D01*
G37*
X178036094Y-44993228D02*
X178334027Y-44880808D01*
X178450761Y-44810769D01*
X178561742Y-44737745D01*
X178620190Y-44710985D01*
X178642900Y-44728152D01*
X178646667Y-44783484D01*
X178678394Y-44878505D01*
X178753469Y-44939306D01*
X178838068Y-44942346D01*
X178867391Y-44917907D01*
X178885473Y-44862031D01*
X178893947Y-44760025D01*
X178894447Y-44597198D01*
X178891524Y-44461360D01*
X178885603Y-44260620D01*
X178877997Y-44129632D01*
X178864898Y-44053507D01*
X178842501Y-44017357D01*
X178807002Y-44006292D01*
X178775006Y-44005500D01*
X178705977Y-44017960D01*
X178665116Y-44070154D01*
X178635151Y-44184307D01*
X178634838Y-44185890D01*
X178555684Y-44384032D01*
X178413130Y-44546350D01*
X178222067Y-44669253D01*
X177997385Y-44749150D01*
X177753974Y-44782451D01*
X177506725Y-44765566D01*
X177270527Y-44694905D01*
X177060272Y-44566877D01*
X177059017Y-44565844D01*
X176895614Y-44388725D01*
X176805991Y-44193844D01*
X176793016Y-43992983D01*
X176859557Y-43797925D01*
X176868438Y-43782864D01*
X176976575Y-43649702D01*
X177127201Y-43546256D01*
X177335499Y-43464139D01*
X177542059Y-43410758D01*
X177900274Y-43325105D01*
X178209976Y-43238076D01*
X178461476Y-43152843D01*
X178645085Y-43072580D01*
X178725006Y-43023385D01*
X178886860Y-42850226D01*
X178986576Y-42636064D01*
X179024100Y-42397461D01*
X178999377Y-42150983D01*
X178912354Y-41913193D01*
X178762975Y-41700655D01*
X178729460Y-41666358D01*
X178547072Y-41516312D01*
X178350140Y-41415641D01*
X178117176Y-41356583D01*
X177826691Y-41331375D01*
X177800000Y-41330579D01*
X177611541Y-41329474D01*
X177444786Y-41335430D01*
X177325113Y-41347247D01*
X177292000Y-41354599D01*
X177118027Y-41425275D01*
X176946286Y-41517571D01*
X176808517Y-41613390D01*
X176762834Y-41656358D01*
X176678167Y-41750391D01*
X176657000Y-41612330D01*
X176619453Y-41497949D01*
X176558505Y-41425111D01*
X176491659Y-41407669D01*
X176444777Y-41444334D01*
X176427561Y-41511888D01*
X176413846Y-41642598D01*
X176405427Y-41814971D01*
X176403648Y-41936567D01*
X176406469Y-42147671D01*
X176416956Y-42288851D01*
X176437007Y-42374653D01*
X176466500Y-42418000D01*
X176545344Y-42441137D01*
X176616677Y-42399124D01*
X176655363Y-42309627D01*
X176657000Y-42284131D01*
X176686910Y-42154980D01*
X176763961Y-42004915D01*
X176869139Y-41865856D01*
X176950680Y-41791149D01*
X177200978Y-41655231D01*
X177497428Y-41583991D01*
X177715334Y-41571334D01*
X178026474Y-41600266D01*
X178292641Y-41683098D01*
X178506581Y-41813885D01*
X178661039Y-41986684D01*
X178748763Y-42195549D01*
X178762959Y-42429882D01*
X178739492Y-42573282D01*
X178689315Y-42678284D01*
X178592005Y-42785305D01*
X178575542Y-42800808D01*
X178505262Y-42861773D01*
X178432104Y-42910531D01*
X178340605Y-42952942D01*
X178215301Y-42994865D01*
X178040728Y-43042163D01*
X177801422Y-43100695D01*
X177755162Y-43111715D01*
X177516343Y-43171949D01*
X177293588Y-43234435D01*
X177106024Y-43293352D01*
X176972779Y-43342879D01*
X176933419Y-43361783D01*
X176736245Y-43515029D01*
X176605438Y-43706043D01*
X176539676Y-43921736D01*
X176537633Y-44149018D01*
X176597988Y-44374803D01*
X176719415Y-44586000D01*
X176900592Y-44769521D01*
X177087716Y-44887641D01*
X177395844Y-44997609D01*
X177717668Y-45032483D01*
X178036094Y-44993228D01*
G36*
X181751494Y-44115472D02*
X182005190Y-44061529D01*
X182223520Y-43960596D01*
X182428249Y-43804537D01*
X182502387Y-43733720D01*
X182676656Y-43531015D01*
X182796256Y-43316667D01*
X182873720Y-43063987D01*
X182906533Y-42873084D01*
X182933842Y-42672000D01*
X180297667Y-42672000D01*
X180298080Y-42576750D01*
X180326739Y-42436722D01*
X180401676Y-42265678D01*
X180507842Y-42090970D01*
X180630184Y-41939951D01*
X180669495Y-41901812D01*
X180845976Y-41757683D01*
X181010302Y-41664473D01*
X181192485Y-41610181D01*
X181422540Y-41582808D01*
X181475432Y-41579589D01*
X181878147Y-41592852D01*
X182243615Y-41677318D01*
X182565395Y-41831494D01*
X182566338Y-41832092D01*
X182720816Y-41913682D01*
X182823082Y-41929127D01*
X182873783Y-41878422D01*
X182880000Y-41828817D01*
X182840448Y-41737362D01*
X182729219Y-41636421D01*
X182557456Y-41534099D01*
X182350834Y-41443924D01*
X182170207Y-41388710D01*
X181963461Y-41353254D01*
X181703922Y-41333248D01*
X181652334Y-41331062D01*
X181441490Y-41325236D01*
X181289898Y-41328940D01*
X181172391Y-41345230D01*
X181063803Y-41377164D01*
X180971878Y-41413725D01*
X180653687Y-41586941D01*
X180397386Y-41813491D01*
X180296251Y-41939691D01*
X180159865Y-42169015D01*
X180079004Y-42411160D01*
X180045630Y-42693424D01*
X180043667Y-42797561D01*
X180049089Y-42986630D01*
X180055392Y-43027763D01*
X180296811Y-43027763D01*
X180315763Y-42986722D01*
X180372210Y-42958427D01*
X180474056Y-42940530D01*
X180629206Y-42930686D01*
X180845564Y-42926547D01*
X181131036Y-42925767D01*
X181480045Y-42926000D01*
X182662423Y-42926000D01*
X182624977Y-43056568D01*
X182504717Y-43332909D01*
X182322902Y-43560494D01*
X182090884Y-43733619D01*
X181820011Y-43846578D01*
X181521634Y-43893666D01*
X181207103Y-43869180D01*
X181073533Y-43836363D01*
X180852835Y-43735209D01*
X180640836Y-43575915D01*
X180465952Y-43382679D01*
X180385879Y-43250825D01*
X180339774Y-43157468D01*
X180307450Y-43083896D01*
X180296811Y-43027763D01*
X180055392Y-43027763D01*
X180071061Y-43130016D01*
X180118146Y-43266326D01*
X180173864Y-43384691D01*
X180356072Y-43659878D01*
X180602209Y-43881792D01*
X180872539Y-44034624D01*
X181015823Y-44087894D01*
X181171692Y-44117842D01*
X181371361Y-44129738D01*
X181440667Y-44130558D01*
X181751494Y-44115472D01*
X181751494Y-44115472D01*
G37*
X181751494Y-44115472D02*
X182005190Y-44061529D01*
X182223520Y-43960596D01*
X182428249Y-43804537D01*
X182502387Y-43733720D01*
X182676656Y-43531015D01*
X182796256Y-43316667D01*
X182873720Y-43063987D01*
X182906533Y-42873084D01*
X182933842Y-42672000D01*
X180297667Y-42672000D01*
X180298080Y-42576750D01*
X180326739Y-42436722D01*
X180401676Y-42265678D01*
X180507842Y-42090970D01*
X180630184Y-41939951D01*
X180669495Y-41901812D01*
X180845976Y-41757683D01*
X181010302Y-41664473D01*
X181192485Y-41610181D01*
X181422540Y-41582808D01*
X181475432Y-41579589D01*
X181878147Y-41592852D01*
X182243615Y-41677318D01*
X182565395Y-41831494D01*
X182566338Y-41832092D01*
X182720816Y-41913682D01*
X182823082Y-41929127D01*
X182873783Y-41878422D01*
X182880000Y-41828817D01*
X182840448Y-41737362D01*
X182729219Y-41636421D01*
X182557456Y-41534099D01*
X182350834Y-41443924D01*
X182170207Y-41388710D01*
X181963461Y-41353254D01*
X181703922Y-41333248D01*
X181652334Y-41331062D01*
X181441490Y-41325236D01*
X181289898Y-41328940D01*
X181172391Y-41345230D01*
X181063803Y-41377164D01*
X180971878Y-41413725D01*
X180653687Y-41586941D01*
X180397386Y-41813491D01*
X180296251Y-41939691D01*
X180159865Y-42169015D01*
X180079004Y-42411160D01*
X180045630Y-42693424D01*
X180043667Y-42797561D01*
X180049089Y-42986630D01*
X180055392Y-43027763D01*
X180296811Y-43027763D01*
X180315763Y-42986722D01*
X180372210Y-42958427D01*
X180474056Y-42940530D01*
X180629206Y-42930686D01*
X180845564Y-42926547D01*
X181131036Y-42925767D01*
X181480045Y-42926000D01*
X182662423Y-42926000D01*
X182624977Y-43056568D01*
X182504717Y-43332909D01*
X182322902Y-43560494D01*
X182090884Y-43733619D01*
X181820011Y-43846578D01*
X181521634Y-43893666D01*
X181207103Y-43869180D01*
X181073533Y-43836363D01*
X180852835Y-43735209D01*
X180640836Y-43575915D01*
X180465952Y-43382679D01*
X180385879Y-43250825D01*
X180339774Y-43157468D01*
X180307450Y-43083896D01*
X180296811Y-43027763D01*
X180055392Y-43027763D01*
X180071061Y-43130016D01*
X180118146Y-43266326D01*
X180173864Y-43384691D01*
X180356072Y-43659878D01*
X180602209Y-43881792D01*
X180872539Y-44034624D01*
X181015823Y-44087894D01*
X181171692Y-44117842D01*
X181371361Y-44129738D01*
X181440667Y-44130558D01*
X181751494Y-44115472D01*
G36*
X185696764Y-44115812D02*
X185940318Y-44065394D01*
X186154157Y-43971369D01*
X186274809Y-43893869D01*
X186354659Y-43839857D01*
X186387178Y-43835063D01*
X186393632Y-43879082D01*
X186393667Y-43891601D01*
X186424992Y-43988315D01*
X186499506Y-44050056D01*
X186585117Y-44053327D01*
X186615055Y-44028296D01*
X186633201Y-43971130D01*
X186641303Y-43866793D01*
X186641108Y-43700252D01*
X186638573Y-43593508D01*
X186632041Y-43397670D01*
X186623080Y-43270815D01*
X186608016Y-43197268D01*
X186583176Y-43161352D01*
X186544884Y-43147394D01*
X186533592Y-43145613D01*
X186467692Y-43152246D01*
X186424620Y-43208994D01*
X186397058Y-43293780D01*
X186327526Y-43478246D01*
X186222036Y-43614152D01*
X186059099Y-43726895D01*
X186007592Y-43754072D01*
X185734623Y-43852550D01*
X185441600Y-43889732D01*
X185149717Y-43867224D01*
X184880170Y-43786636D01*
X184656577Y-43651590D01*
X184550729Y-43542406D01*
X184440661Y-43396146D01*
X184382076Y-43300886D01*
X184318817Y-43176310D01*
X184281375Y-43066531D01*
X184263302Y-42941041D01*
X184258152Y-42769331D01*
X184258131Y-42714334D01*
X184274076Y-42446086D01*
X184327258Y-42233732D01*
X184428153Y-42052840D01*
X184587233Y-41878981D01*
X184634638Y-41836110D01*
X184823344Y-41699906D01*
X185030013Y-41615850D01*
X185275281Y-41578012D01*
X185533285Y-41577941D01*
X185744859Y-41596354D01*
X185916257Y-41635302D01*
X186091422Y-41705725D01*
X186139667Y-41728900D01*
X186299513Y-41813583D01*
X186447307Y-41902349D01*
X186544868Y-41971271D01*
X186635768Y-42037587D01*
X186696861Y-42050721D01*
X186750978Y-42022913D01*
X186802052Y-41966728D01*
X186784247Y-41899293D01*
X186775165Y-41884196D01*
X186675939Y-41773360D01*
X186519959Y-41652412D01*
X186331207Y-41536745D01*
X186133662Y-41441754D01*
X186024125Y-41402080D01*
X185802469Y-41352379D01*
X185549118Y-41324882D01*
X185293128Y-41320276D01*
X185063557Y-41339243D01*
X184907017Y-41375778D01*
X184595679Y-41528004D01*
X184344677Y-41738377D01*
X184157487Y-42002314D01*
X184037584Y-42315230D01*
X183993820Y-42580306D01*
X184003098Y-42931904D01*
X184087440Y-43259303D01*
X184240994Y-43552216D01*
X184457910Y-43800355D01*
X184732336Y-43993434D01*
X184822976Y-44038171D01*
X184959890Y-44087331D01*
X185118541Y-44115885D01*
X185326133Y-44128135D01*
X185398834Y-44129248D01*
X185696764Y-44115812D01*
X185696764Y-44115812D01*
G37*
X185696764Y-44115812D02*
X185940318Y-44065394D01*
X186154157Y-43971369D01*
X186274809Y-43893869D01*
X186354659Y-43839857D01*
X186387178Y-43835063D01*
X186393632Y-43879082D01*
X186393667Y-43891601D01*
X186424992Y-43988315D01*
X186499506Y-44050056D01*
X186585117Y-44053327D01*
X186615055Y-44028296D01*
X186633201Y-43971130D01*
X186641303Y-43866793D01*
X186641108Y-43700252D01*
X186638573Y-43593508D01*
X186632041Y-43397670D01*
X186623080Y-43270815D01*
X186608016Y-43197268D01*
X186583176Y-43161352D01*
X186544884Y-43147394D01*
X186533592Y-43145613D01*
X186467692Y-43152246D01*
X186424620Y-43208994D01*
X186397058Y-43293780D01*
X186327526Y-43478246D01*
X186222036Y-43614152D01*
X186059099Y-43726895D01*
X186007592Y-43754072D01*
X185734623Y-43852550D01*
X185441600Y-43889732D01*
X185149717Y-43867224D01*
X184880170Y-43786636D01*
X184656577Y-43651590D01*
X184550729Y-43542406D01*
X184440661Y-43396146D01*
X184382076Y-43300886D01*
X184318817Y-43176310D01*
X184281375Y-43066531D01*
X184263302Y-42941041D01*
X184258152Y-42769331D01*
X184258131Y-42714334D01*
X184274076Y-42446086D01*
X184327258Y-42233732D01*
X184428153Y-42052840D01*
X184587233Y-41878981D01*
X184634638Y-41836110D01*
X184823344Y-41699906D01*
X185030013Y-41615850D01*
X185275281Y-41578012D01*
X185533285Y-41577941D01*
X185744859Y-41596354D01*
X185916257Y-41635302D01*
X186091422Y-41705725D01*
X186139667Y-41728900D01*
X186299513Y-41813583D01*
X186447307Y-41902349D01*
X186544868Y-41971271D01*
X186635768Y-42037587D01*
X186696861Y-42050721D01*
X186750978Y-42022913D01*
X186802052Y-41966728D01*
X186784247Y-41899293D01*
X186775165Y-41884196D01*
X186675939Y-41773360D01*
X186519959Y-41652412D01*
X186331207Y-41536745D01*
X186133662Y-41441754D01*
X186024125Y-41402080D01*
X185802469Y-41352379D01*
X185549118Y-41324882D01*
X185293128Y-41320276D01*
X185063557Y-41339243D01*
X184907017Y-41375778D01*
X184595679Y-41528004D01*
X184344677Y-41738377D01*
X184157487Y-42002314D01*
X184037584Y-42315230D01*
X183993820Y-42580306D01*
X184003098Y-42931904D01*
X184087440Y-43259303D01*
X184240994Y-43552216D01*
X184457910Y-43800355D01*
X184732336Y-43993434D01*
X184822976Y-44038171D01*
X184959890Y-44087331D01*
X185118541Y-44115885D01*
X185326133Y-44128135D01*
X185398834Y-44129248D01*
X185696764Y-44115812D01*
G36*
X189165610Y-45018873D02*
X189500396Y-44994911D01*
X189781728Y-44923917D01*
X190030356Y-44799625D01*
X190135170Y-44726109D01*
X190288334Y-44609285D01*
X190288334Y-44736126D01*
X190313885Y-44856770D01*
X190378891Y-44933375D01*
X190465875Y-44946918D01*
X190478294Y-44942899D01*
X190509587Y-44890560D01*
X190531709Y-44775125D01*
X190544650Y-44617666D01*
X190548398Y-44439258D01*
X190542943Y-44260974D01*
X190528271Y-44103886D01*
X190504373Y-43989069D01*
X190478834Y-43942000D01*
X190400059Y-43918323D01*
X190329664Y-43960996D01*
X190290458Y-44052939D01*
X190288175Y-44084767D01*
X190248508Y-44238251D01*
X190139784Y-44392369D01*
X189976637Y-44534926D01*
X189773698Y-44653724D01*
X189545600Y-44736565D01*
X189491001Y-44749275D01*
X189154331Y-44779329D01*
X188836879Y-44729486D01*
X188546548Y-44603754D01*
X188291242Y-44406144D01*
X188078866Y-44140664D01*
X187994392Y-43990096D01*
X187954943Y-43902819D01*
X187927768Y-43815625D01*
X187910631Y-43710395D01*
X187901295Y-43569008D01*
X187897522Y-43373344D01*
X187896992Y-43201167D01*
X187898239Y-42958951D01*
X187903495Y-42783188D01*
X187915034Y-42655686D01*
X187935129Y-42558250D01*
X187966053Y-42472684D01*
X187995989Y-42408842D01*
X188177383Y-42123815D01*
X188411881Y-41879813D01*
X188643455Y-41718074D01*
X188755791Y-41659668D01*
X188854011Y-41622796D01*
X188963414Y-41602570D01*
X189109296Y-41594104D01*
X189293500Y-41592500D01*
X189522948Y-41597250D01*
X189697468Y-41618109D01*
X189841772Y-41664992D01*
X189980573Y-41747816D01*
X190138584Y-41876494D01*
X190248265Y-41975582D01*
X190410650Y-42109891D01*
X190527943Y-42172842D01*
X190600035Y-42164405D01*
X190626816Y-42084553D01*
X190627000Y-42073859D01*
X190592458Y-41977368D01*
X190499488Y-41855722D01*
X190364074Y-41724154D01*
X190202202Y-41597898D01*
X190029856Y-41492186D01*
X190001496Y-41477763D01*
X189849753Y-41408659D01*
X189717056Y-41365975D01*
X189570606Y-41342337D01*
X189377603Y-41330367D01*
X189340140Y-41329040D01*
X189073010Y-41330271D01*
X188874154Y-41353314D01*
X188800071Y-41373916D01*
X188471817Y-41537299D01*
X188174839Y-41764703D01*
X187926789Y-42040062D01*
X187755956Y-42324102D01*
X187711175Y-42424796D01*
X187680015Y-42515578D01*
X187660022Y-42614963D01*
X187648743Y-42741465D01*
X187643723Y-42913600D01*
X187642507Y-43149881D01*
X187642500Y-43180000D01*
X187642500Y-43793834D01*
X187795182Y-44113532D01*
X187937196Y-44379049D01*
X188084347Y-44579878D01*
X188254163Y-44735087D01*
X188464169Y-44863745D01*
X188502482Y-44883047D01*
X188648351Y-44950937D01*
X188767734Y-44991937D01*
X188891987Y-45012468D01*
X189052464Y-45018953D01*
X189165610Y-45018873D01*
X189165610Y-45018873D01*
G37*
X189165610Y-45018873D02*
X189500396Y-44994911D01*
X189781728Y-44923917D01*
X190030356Y-44799625D01*
X190135170Y-44726109D01*
X190288334Y-44609285D01*
X190288334Y-44736126D01*
X190313885Y-44856770D01*
X190378891Y-44933375D01*
X190465875Y-44946918D01*
X190478294Y-44942899D01*
X190509587Y-44890560D01*
X190531709Y-44775125D01*
X190544650Y-44617666D01*
X190548398Y-44439258D01*
X190542943Y-44260974D01*
X190528271Y-44103886D01*
X190504373Y-43989069D01*
X190478834Y-43942000D01*
X190400059Y-43918323D01*
X190329664Y-43960996D01*
X190290458Y-44052939D01*
X190288175Y-44084767D01*
X190248508Y-44238251D01*
X190139784Y-44392369D01*
X189976637Y-44534926D01*
X189773698Y-44653724D01*
X189545600Y-44736565D01*
X189491001Y-44749275D01*
X189154331Y-44779329D01*
X188836879Y-44729486D01*
X188546548Y-44603754D01*
X188291242Y-44406144D01*
X188078866Y-44140664D01*
X187994392Y-43990096D01*
X187954943Y-43902819D01*
X187927768Y-43815625D01*
X187910631Y-43710395D01*
X187901295Y-43569008D01*
X187897522Y-43373344D01*
X187896992Y-43201167D01*
X187898239Y-42958951D01*
X187903495Y-42783188D01*
X187915034Y-42655686D01*
X187935129Y-42558250D01*
X187966053Y-42472684D01*
X187995989Y-42408842D01*
X188177383Y-42123815D01*
X188411881Y-41879813D01*
X188643455Y-41718074D01*
X188755791Y-41659668D01*
X188854011Y-41622796D01*
X188963414Y-41602570D01*
X189109296Y-41594104D01*
X189293500Y-41592500D01*
X189522948Y-41597250D01*
X189697468Y-41618109D01*
X189841772Y-41664992D01*
X189980573Y-41747816D01*
X190138584Y-41876494D01*
X190248265Y-41975582D01*
X190410650Y-42109891D01*
X190527943Y-42172842D01*
X190600035Y-42164405D01*
X190626816Y-42084553D01*
X190627000Y-42073859D01*
X190592458Y-41977368D01*
X190499488Y-41855722D01*
X190364074Y-41724154D01*
X190202202Y-41597898D01*
X190029856Y-41492186D01*
X190001496Y-41477763D01*
X189849753Y-41408659D01*
X189717056Y-41365975D01*
X189570606Y-41342337D01*
X189377603Y-41330367D01*
X189340140Y-41329040D01*
X189073010Y-41330271D01*
X188874154Y-41353314D01*
X188800071Y-41373916D01*
X188471817Y-41537299D01*
X188174839Y-41764703D01*
X187926789Y-42040062D01*
X187755956Y-42324102D01*
X187711175Y-42424796D01*
X187680015Y-42515578D01*
X187660022Y-42614963D01*
X187648743Y-42741465D01*
X187643723Y-42913600D01*
X187642507Y-43149881D01*
X187642500Y-43180000D01*
X187642500Y-43793834D01*
X187795182Y-44113532D01*
X187937196Y-44379049D01*
X188084347Y-44579878D01*
X188254163Y-44735087D01*
X188464169Y-44863745D01*
X188502482Y-44883047D01*
X188648351Y-44950937D01*
X188767734Y-44991937D01*
X188891987Y-45012468D01*
X189052464Y-45018953D01*
X189165610Y-45018873D01*
G36*
X193241930Y-44115730D02*
X193517471Y-44036878D01*
X193549932Y-44022387D01*
X193820975Y-43866645D01*
X194031642Y-43674716D01*
X194204978Y-43424863D01*
X194228360Y-43382575D01*
X194298287Y-43245839D01*
X194340939Y-43133907D01*
X194363018Y-43016655D01*
X194371224Y-42863957D01*
X194372288Y-42735500D01*
X194352539Y-42422648D01*
X194287088Y-42165574D01*
X194168034Y-41944297D01*
X193987480Y-41738839D01*
X193972793Y-41724962D01*
X193765066Y-41549367D01*
X193570661Y-41433731D01*
X193360569Y-41366051D01*
X193105787Y-41334318D01*
X193018834Y-41330105D01*
X192753606Y-41330635D01*
X192556488Y-41353325D01*
X192484683Y-41373361D01*
X192180990Y-41528186D01*
X191917005Y-41745217D01*
X191709204Y-42009323D01*
X191629464Y-42158819D01*
X191559087Y-42393504D01*
X191532418Y-42668362D01*
X191537436Y-42754168D01*
X191778129Y-42754168D01*
X191806968Y-42453980D01*
X191915766Y-42177237D01*
X192102632Y-41929423D01*
X192278000Y-41776751D01*
X192433972Y-41675904D01*
X192588249Y-41614956D01*
X192768185Y-41586894D01*
X193001136Y-41584704D01*
X193024027Y-41585477D01*
X193207619Y-41595879D01*
X193337985Y-41616798D01*
X193446541Y-41656771D01*
X193564706Y-41724333D01*
X193586739Y-41738360D01*
X193825000Y-41937909D01*
X194007923Y-42188389D01*
X194097518Y-42392375D01*
X194131305Y-42586844D01*
X194128274Y-42818383D01*
X194091703Y-43049491D01*
X194024870Y-43242667D01*
X194022859Y-43246648D01*
X193856877Y-43483776D01*
X193631628Y-43678362D01*
X193366834Y-43818339D01*
X193082218Y-43891644D01*
X192955334Y-43899667D01*
X192666915Y-43860292D01*
X192395822Y-43749762D01*
X192157540Y-43579474D01*
X191967552Y-43360823D01*
X191841344Y-43105205D01*
X191831141Y-43072318D01*
X191778129Y-42754168D01*
X191537436Y-42754168D01*
X191548969Y-42951350D01*
X191608250Y-43210427D01*
X191646993Y-43307000D01*
X191817681Y-43579498D01*
X192048364Y-43817639D01*
X192316067Y-43998490D01*
X192362667Y-44021450D01*
X192633699Y-44107991D01*
X192937063Y-44139426D01*
X193241930Y-44115730D01*
X193241930Y-44115730D01*
G37*
X193241930Y-44115730D02*
X193517471Y-44036878D01*
X193549932Y-44022387D01*
X193820975Y-43866645D01*
X194031642Y-43674716D01*
X194204978Y-43424863D01*
X194228360Y-43382575D01*
X194298287Y-43245839D01*
X194340939Y-43133907D01*
X194363018Y-43016655D01*
X194371224Y-42863957D01*
X194372288Y-42735500D01*
X194352539Y-42422648D01*
X194287088Y-42165574D01*
X194168034Y-41944297D01*
X193987480Y-41738839D01*
X193972793Y-41724962D01*
X193765066Y-41549367D01*
X193570661Y-41433731D01*
X193360569Y-41366051D01*
X193105787Y-41334318D01*
X193018834Y-41330105D01*
X192753606Y-41330635D01*
X192556488Y-41353325D01*
X192484683Y-41373361D01*
X192180990Y-41528186D01*
X191917005Y-41745217D01*
X191709204Y-42009323D01*
X191629464Y-42158819D01*
X191559087Y-42393504D01*
X191532418Y-42668362D01*
X191537436Y-42754168D01*
X191778129Y-42754168D01*
X191806968Y-42453980D01*
X191915766Y-42177237D01*
X192102632Y-41929423D01*
X192278000Y-41776751D01*
X192433972Y-41675904D01*
X192588249Y-41614956D01*
X192768185Y-41586894D01*
X193001136Y-41584704D01*
X193024027Y-41585477D01*
X193207619Y-41595879D01*
X193337985Y-41616798D01*
X193446541Y-41656771D01*
X193564706Y-41724333D01*
X193586739Y-41738360D01*
X193825000Y-41937909D01*
X194007923Y-42188389D01*
X194097518Y-42392375D01*
X194131305Y-42586844D01*
X194128274Y-42818383D01*
X194091703Y-43049491D01*
X194024870Y-43242667D01*
X194022859Y-43246648D01*
X193856877Y-43483776D01*
X193631628Y-43678362D01*
X193366834Y-43818339D01*
X193082218Y-43891644D01*
X192955334Y-43899667D01*
X192666915Y-43860292D01*
X192395822Y-43749762D01*
X192157540Y-43579474D01*
X191967552Y-43360823D01*
X191841344Y-43105205D01*
X191831141Y-43072318D01*
X191778129Y-42754168D01*
X191537436Y-42754168D01*
X191548969Y-42951350D01*
X191608250Y-43210427D01*
X191646993Y-43307000D01*
X191817681Y-43579498D01*
X192048364Y-43817639D01*
X192316067Y-43998490D01*
X192362667Y-44021450D01*
X192633699Y-44107991D01*
X192937063Y-44139426D01*
X193241930Y-44115730D01*
G36*
X208523626Y-45236683D02*
X208760342Y-45111031D01*
X208970366Y-44920257D01*
X209142768Y-44667323D01*
X209185465Y-44579885D01*
X209259964Y-44394018D01*
X209314125Y-44205814D01*
X209350102Y-43998568D01*
X209370054Y-43755574D01*
X209376136Y-43460126D01*
X209371589Y-43137868D01*
X209358949Y-42803778D01*
X209336710Y-42537115D01*
X209300796Y-42320818D01*
X209247134Y-42137827D01*
X209171648Y-41971082D01*
X209070265Y-41803525D01*
X209043451Y-41763943D01*
X208871929Y-41557174D01*
X208682938Y-41422397D01*
X208456125Y-41348509D01*
X208240762Y-41326035D01*
X208067188Y-41322770D01*
X207945092Y-41334022D01*
X207841613Y-41366839D01*
X207723893Y-41428268D01*
X207700296Y-41441949D01*
X207493502Y-41591354D01*
X207328878Y-41777836D01*
X207202941Y-42010000D01*
X207112205Y-42296448D01*
X207053186Y-42645785D01*
X207022399Y-43066614D01*
X207020500Y-43120321D01*
X207019894Y-43264667D01*
X207286976Y-43264667D01*
X207288624Y-42989037D01*
X207293089Y-42781978D01*
X207301956Y-42627404D01*
X207316812Y-42509230D01*
X207339242Y-42411370D01*
X207370834Y-42317737D01*
X207383601Y-42284870D01*
X207511891Y-42018268D01*
X207659730Y-41808715D01*
X207818055Y-41668363D01*
X207861759Y-41643745D01*
X208044209Y-41587562D01*
X208251150Y-41574598D01*
X208446622Y-41604400D01*
X208560847Y-41652555D01*
X208746599Y-41812116D01*
X208906939Y-42045584D01*
X209011328Y-42275991D01*
X209045298Y-42374493D01*
X209069940Y-42472143D01*
X209086728Y-42584859D01*
X209097139Y-42728563D01*
X209102648Y-42919175D01*
X209104732Y-43172614D01*
X209104930Y-43285834D01*
X209102306Y-43615072D01*
X209091769Y-43875594D01*
X209070145Y-44083217D01*
X209034263Y-44253756D01*
X208980951Y-44403030D01*
X208907036Y-44546856D01*
X208826154Y-44675862D01*
X208655719Y-44866799D01*
X208454174Y-44986252D01*
X208235686Y-45034284D01*
X208014420Y-45010956D01*
X207804541Y-44916329D01*
X207620216Y-44750466D01*
X207560871Y-44670365D01*
X207467219Y-44515871D01*
X207396840Y-44362991D01*
X207346705Y-44196183D01*
X207313787Y-43999910D01*
X207295059Y-43758629D01*
X207287491Y-43456803D01*
X207286976Y-43264667D01*
X207019894Y-43264667D01*
X207018564Y-43581281D01*
X207046336Y-43971278D01*
X207106265Y-44299503D01*
X207200794Y-44575150D01*
X207332371Y-44807412D01*
X207503443Y-45005481D01*
X207528353Y-45028870D01*
X207762578Y-45193308D01*
X208013817Y-45280783D01*
X208271141Y-45294254D01*
X208523626Y-45236683D01*
X208523626Y-45236683D01*
G37*
X208523626Y-45236683D02*
X208760342Y-45111031D01*
X208970366Y-44920257D01*
X209142768Y-44667323D01*
X209185465Y-44579885D01*
X209259964Y-44394018D01*
X209314125Y-44205814D01*
X209350102Y-43998568D01*
X209370054Y-43755574D01*
X209376136Y-43460126D01*
X209371589Y-43137868D01*
X209358949Y-42803778D01*
X209336710Y-42537115D01*
X209300796Y-42320818D01*
X209247134Y-42137827D01*
X209171648Y-41971082D01*
X209070265Y-41803525D01*
X209043451Y-41763943D01*
X208871929Y-41557174D01*
X208682938Y-41422397D01*
X208456125Y-41348509D01*
X208240762Y-41326035D01*
X208067188Y-41322770D01*
X207945092Y-41334022D01*
X207841613Y-41366839D01*
X207723893Y-41428268D01*
X207700296Y-41441949D01*
X207493502Y-41591354D01*
X207328878Y-41777836D01*
X207202941Y-42010000D01*
X207112205Y-42296448D01*
X207053186Y-42645785D01*
X207022399Y-43066614D01*
X207020500Y-43120321D01*
X207019894Y-43264667D01*
X207286976Y-43264667D01*
X207288624Y-42989037D01*
X207293089Y-42781978D01*
X207301956Y-42627404D01*
X207316812Y-42509230D01*
X207339242Y-42411370D01*
X207370834Y-42317737D01*
X207383601Y-42284870D01*
X207511891Y-42018268D01*
X207659730Y-41808715D01*
X207818055Y-41668363D01*
X207861759Y-41643745D01*
X208044209Y-41587562D01*
X208251150Y-41574598D01*
X208446622Y-41604400D01*
X208560847Y-41652555D01*
X208746599Y-41812116D01*
X208906939Y-42045584D01*
X209011328Y-42275991D01*
X209045298Y-42374493D01*
X209069940Y-42472143D01*
X209086728Y-42584859D01*
X209097139Y-42728563D01*
X209102648Y-42919175D01*
X209104732Y-43172614D01*
X209104930Y-43285834D01*
X209102306Y-43615072D01*
X209091769Y-43875594D01*
X209070145Y-44083217D01*
X209034263Y-44253756D01*
X208980951Y-44403030D01*
X208907036Y-44546856D01*
X208826154Y-44675862D01*
X208655719Y-44866799D01*
X208454174Y-44986252D01*
X208235686Y-45034284D01*
X208014420Y-45010956D01*
X207804541Y-44916329D01*
X207620216Y-44750466D01*
X207560871Y-44670365D01*
X207467219Y-44515871D01*
X207396840Y-44362991D01*
X207346705Y-44196183D01*
X207313787Y-43999910D01*
X207295059Y-43758629D01*
X207287491Y-43456803D01*
X207286976Y-43264667D01*
X207019894Y-43264667D01*
X207018564Y-43581281D01*
X207046336Y-43971278D01*
X207106265Y-44299503D01*
X207200794Y-44575150D01*
X207332371Y-44807412D01*
X207503443Y-45005481D01*
X207528353Y-45028870D01*
X207762578Y-45193308D01*
X208013817Y-45280783D01*
X208271141Y-45294254D01*
X208523626Y-45236683D01*
G36*
X215984260Y-45272412D02*
X216191073Y-45243209D01*
X216340411Y-45193512D01*
X216586016Y-45025747D01*
X216794760Y-44789415D01*
X216962000Y-44494244D01*
X217083093Y-44149965D01*
X217153396Y-43766307D01*
X217170000Y-43455167D01*
X217135369Y-43011266D01*
X217034235Y-42603867D01*
X216870738Y-42239523D01*
X216649016Y-41924788D01*
X216373208Y-41666212D01*
X216047453Y-41470350D01*
X215871490Y-41399474D01*
X215684478Y-41352587D01*
X215469818Y-41325423D01*
X215254550Y-41318769D01*
X215065712Y-41333412D01*
X214930344Y-41370142D01*
X214926708Y-41371938D01*
X214839856Y-41443285D01*
X214804022Y-41528866D01*
X214828015Y-41602082D01*
X214845804Y-41616224D01*
X214923907Y-41625529D01*
X214982326Y-41606357D01*
X215064353Y-41586485D01*
X215201266Y-41576243D01*
X215363610Y-41577815D01*
X215365607Y-41577916D01*
X215706276Y-41635348D01*
X216018354Y-41766351D01*
X216294905Y-41962647D01*
X216528990Y-42215956D01*
X216713672Y-42517999D01*
X216842014Y-42860496D01*
X216907076Y-43235168D01*
X216913780Y-43425501D01*
X216911466Y-43560007D01*
X216903566Y-43621347D01*
X216883810Y-43621018D01*
X216845929Y-43570518D01*
X216839696Y-43561381D01*
X216615530Y-43287403D01*
X216370632Y-43089145D01*
X216110218Y-42968561D01*
X215839504Y-42927605D01*
X215563705Y-42968232D01*
X215411437Y-43026198D01*
X215191351Y-43163786D01*
X215007365Y-43359819D01*
X214872126Y-43577237D01*
X214806848Y-43766513D01*
X214779108Y-43981957D01*
X215021830Y-43981957D01*
X215091854Y-43724972D01*
X215234161Y-43493468D01*
X215257234Y-43466924D01*
X215462355Y-43291200D01*
X215684973Y-43196092D01*
X215919711Y-43183003D01*
X216129518Y-43239387D01*
X216305011Y-43342654D01*
X216490403Y-43501930D01*
X216662243Y-43695402D01*
X216744173Y-43811114D01*
X216874637Y-44014425D01*
X216778902Y-44281486D01*
X216646149Y-44559765D01*
X216474705Y-44778559D01*
X216274613Y-44934874D01*
X216055916Y-45025715D01*
X215828656Y-45048087D01*
X215602875Y-44998994D01*
X215388615Y-44875443D01*
X215246838Y-44738370D01*
X215099185Y-44505399D01*
X215024229Y-44247680D01*
X215021830Y-43981957D01*
X214779108Y-43981957D01*
X214776529Y-44001986D01*
X214781272Y-44252692D01*
X214821181Y-44487670D01*
X214868662Y-44623118D01*
X214998518Y-44834953D01*
X215176821Y-45032175D01*
X215373942Y-45182842D01*
X215403254Y-45199427D01*
X215558809Y-45250720D01*
X215762992Y-45274983D01*
X215984260Y-45272412D01*
X215984260Y-45272412D01*
G37*
X215984260Y-45272412D02*
X216191073Y-45243209D01*
X216340411Y-45193512D01*
X216586016Y-45025747D01*
X216794760Y-44789415D01*
X216962000Y-44494244D01*
X217083093Y-44149965D01*
X217153396Y-43766307D01*
X217170000Y-43455167D01*
X217135369Y-43011266D01*
X217034235Y-42603867D01*
X216870738Y-42239523D01*
X216649016Y-41924788D01*
X216373208Y-41666212D01*
X216047453Y-41470350D01*
X215871490Y-41399474D01*
X215684478Y-41352587D01*
X215469818Y-41325423D01*
X215254550Y-41318769D01*
X215065712Y-41333412D01*
X214930344Y-41370142D01*
X214926708Y-41371938D01*
X214839856Y-41443285D01*
X214804022Y-41528866D01*
X214828015Y-41602082D01*
X214845804Y-41616224D01*
X214923907Y-41625529D01*
X214982326Y-41606357D01*
X215064353Y-41586485D01*
X215201266Y-41576243D01*
X215363610Y-41577815D01*
X215365607Y-41577916D01*
X215706276Y-41635348D01*
X216018354Y-41766351D01*
X216294905Y-41962647D01*
X216528990Y-42215956D01*
X216713672Y-42517999D01*
X216842014Y-42860496D01*
X216907076Y-43235168D01*
X216913780Y-43425501D01*
X216911466Y-43560007D01*
X216903566Y-43621347D01*
X216883810Y-43621018D01*
X216845929Y-43570518D01*
X216839696Y-43561381D01*
X216615530Y-43287403D01*
X216370632Y-43089145D01*
X216110218Y-42968561D01*
X215839504Y-42927605D01*
X215563705Y-42968232D01*
X215411437Y-43026198D01*
X215191351Y-43163786D01*
X215007365Y-43359819D01*
X214872126Y-43577237D01*
X214806848Y-43766513D01*
X214779108Y-43981957D01*
X215021830Y-43981957D01*
X215091854Y-43724972D01*
X215234161Y-43493468D01*
X215257234Y-43466924D01*
X215462355Y-43291200D01*
X215684973Y-43196092D01*
X215919711Y-43183003D01*
X216129518Y-43239387D01*
X216305011Y-43342654D01*
X216490403Y-43501930D01*
X216662243Y-43695402D01*
X216744173Y-43811114D01*
X216874637Y-44014425D01*
X216778902Y-44281486D01*
X216646149Y-44559765D01*
X216474705Y-44778559D01*
X216274613Y-44934874D01*
X216055916Y-45025715D01*
X215828656Y-45048087D01*
X215602875Y-44998994D01*
X215388615Y-44875443D01*
X215246838Y-44738370D01*
X215099185Y-44505399D01*
X215024229Y-44247680D01*
X215021830Y-43981957D01*
X214779108Y-43981957D01*
X214776529Y-44001986D01*
X214781272Y-44252692D01*
X214821181Y-44487670D01*
X214868662Y-44623118D01*
X214998518Y-44834953D01*
X215176821Y-45032175D01*
X215373942Y-45182842D01*
X215403254Y-45199427D01*
X215558809Y-45250720D01*
X215762992Y-45274983D01*
X215984260Y-45272412D01*
G36*
X175005295Y-43952584D02*
X174990509Y-43893288D01*
X174942899Y-43807407D01*
X174856706Y-43687178D01*
X174726170Y-43524836D01*
X174545529Y-43312617D01*
X174444378Y-43196515D01*
X174238205Y-42961117D01*
X174018471Y-42710255D01*
X173803507Y-42464856D01*
X173611646Y-42245848D01*
X173489497Y-42106431D01*
X173094827Y-41656000D01*
X174836667Y-41656000D01*
X174837315Y-41857084D01*
X174849809Y-42029504D01*
X174888537Y-42127959D01*
X174957422Y-42160161D01*
X174989906Y-42157106D01*
X175028938Y-42139787D01*
X175054089Y-42094782D01*
X175069346Y-42005372D01*
X175078694Y-41854840D01*
X175081732Y-41771941D01*
X175093963Y-41402000D01*
X172762334Y-41402000D01*
X172763503Y-41518417D01*
X172776952Y-41569342D01*
X172819725Y-41646682D01*
X172896661Y-41756718D01*
X173012597Y-41905730D01*
X173172371Y-42099999D01*
X173380822Y-42345805D01*
X173570638Y-42566167D01*
X173783604Y-42812639D01*
X173984479Y-43045834D01*
X174164838Y-43255914D01*
X174316255Y-43433044D01*
X174430304Y-43567384D01*
X174498560Y-43649100D01*
X174504360Y-43656250D01*
X174632115Y-43815000D01*
X173062892Y-43815000D01*
X173050196Y-43571995D01*
X173037685Y-43429150D01*
X173014417Y-43351025D01*
X172973290Y-43317756D01*
X172957906Y-43313830D01*
X172889075Y-43317514D01*
X172843538Y-43367204D01*
X172817288Y-43474114D01*
X172806320Y-43649455D01*
X172805315Y-43740917D01*
X172804667Y-44069000D01*
X175006000Y-44069000D01*
X175005295Y-43952584D01*
X175005295Y-43952584D01*
G37*
X175005295Y-43952584D02*
X174990509Y-43893288D01*
X174942899Y-43807407D01*
X174856706Y-43687178D01*
X174726170Y-43524836D01*
X174545529Y-43312617D01*
X174444378Y-43196515D01*
X174238205Y-42961117D01*
X174018471Y-42710255D01*
X173803507Y-42464856D01*
X173611646Y-42245848D01*
X173489497Y-42106431D01*
X173094827Y-41656000D01*
X174836667Y-41656000D01*
X174837315Y-41857084D01*
X174849809Y-42029504D01*
X174888537Y-42127959D01*
X174957422Y-42160161D01*
X174989906Y-42157106D01*
X175028938Y-42139787D01*
X175054089Y-42094782D01*
X175069346Y-42005372D01*
X175078694Y-41854840D01*
X175081732Y-41771941D01*
X175093963Y-41402000D01*
X172762334Y-41402000D01*
X172763503Y-41518417D01*
X172776952Y-41569342D01*
X172819725Y-41646682D01*
X172896661Y-41756718D01*
X173012597Y-41905730D01*
X173172371Y-42099999D01*
X173380822Y-42345805D01*
X173570638Y-42566167D01*
X173783604Y-42812639D01*
X173984479Y-43045834D01*
X174164838Y-43255914D01*
X174316255Y-43433044D01*
X174430304Y-43567384D01*
X174498560Y-43649100D01*
X174504360Y-43656250D01*
X174632115Y-43815000D01*
X173062892Y-43815000D01*
X173050196Y-43571995D01*
X173037685Y-43429150D01*
X173014417Y-43351025D01*
X172973290Y-43317756D01*
X172957906Y-43313830D01*
X172889075Y-43317514D01*
X172843538Y-43367204D01*
X172817288Y-43474114D01*
X172806320Y-43649455D01*
X172805315Y-43740917D01*
X172804667Y-44069000D01*
X175006000Y-44069000D01*
X175005295Y-43952584D01*
G36*
X197093037Y-44135955D02*
X197357259Y-44061450D01*
X197566382Y-43939514D01*
X197669383Y-43858753D01*
X197749360Y-43775977D01*
X197809198Y-43679488D01*
X197851785Y-43557588D01*
X197880009Y-43398582D01*
X197896756Y-43190771D01*
X197904916Y-42922459D01*
X197907374Y-42581949D01*
X197907404Y-42558018D01*
X197908334Y-41660869D01*
X198087885Y-41647851D01*
X198211064Y-41628641D01*
X198270325Y-41588150D01*
X198282550Y-41555240D01*
X198280881Y-41491342D01*
X198239791Y-41447551D01*
X198147931Y-41420448D01*
X197993954Y-41406617D01*
X197775934Y-41402649D01*
X197568860Y-41405857D01*
X197431730Y-41417575D01*
X197350077Y-41439762D01*
X197316114Y-41464961D01*
X197277107Y-41552438D01*
X197314389Y-41617675D01*
X197420753Y-41652453D01*
X197483672Y-41656000D01*
X197654334Y-41656000D01*
X197654334Y-42538740D01*
X197653927Y-42834903D01*
X197651928Y-43058951D01*
X197647169Y-43223436D01*
X197638480Y-43340909D01*
X197624693Y-43423921D01*
X197604639Y-43485022D01*
X197577149Y-43536765D01*
X197558742Y-43565323D01*
X197397817Y-43734276D01*
X197186902Y-43844827D01*
X196944185Y-43888776D01*
X196846936Y-43886269D01*
X196564347Y-43828037D01*
X196317422Y-43699299D01*
X196093156Y-43493310D01*
X195918667Y-43295080D01*
X195918667Y-41660639D01*
X196119369Y-41647737D01*
X196249006Y-41631578D01*
X196314809Y-41598900D01*
X196335201Y-41555240D01*
X196334302Y-41493525D01*
X196296679Y-41450563D01*
X196211078Y-41423226D01*
X196066247Y-41408387D01*
X195850932Y-41402917D01*
X195786267Y-41402649D01*
X195569824Y-41405249D01*
X195423735Y-41414960D01*
X195333854Y-41433536D01*
X195286039Y-41462732D01*
X195284114Y-41464961D01*
X195243837Y-41552328D01*
X195280877Y-41616205D01*
X195389821Y-41651114D01*
X195472838Y-41656000D01*
X195664667Y-41656000D01*
X195664667Y-43815000D01*
X195494005Y-43815000D01*
X195361013Y-43834679D01*
X195294103Y-43888237D01*
X195300482Y-43967456D01*
X195326448Y-44006040D01*
X195400079Y-44046651D01*
X195541620Y-44066373D01*
X195648684Y-44069000D01*
X195918667Y-44069000D01*
X195918667Y-43634884D01*
X196104326Y-43806018D01*
X196293618Y-43962782D01*
X196468689Y-44062065D01*
X196659839Y-44118397D01*
X196796022Y-44137748D01*
X197093037Y-44135955D01*
X197093037Y-44135955D01*
G37*
X197093037Y-44135955D02*
X197357259Y-44061450D01*
X197566382Y-43939514D01*
X197669383Y-43858753D01*
X197749360Y-43775977D01*
X197809198Y-43679488D01*
X197851785Y-43557588D01*
X197880009Y-43398582D01*
X197896756Y-43190771D01*
X197904916Y-42922459D01*
X197907374Y-42581949D01*
X197907404Y-42558018D01*
X197908334Y-41660869D01*
X198087885Y-41647851D01*
X198211064Y-41628641D01*
X198270325Y-41588150D01*
X198282550Y-41555240D01*
X198280881Y-41491342D01*
X198239791Y-41447551D01*
X198147931Y-41420448D01*
X197993954Y-41406617D01*
X197775934Y-41402649D01*
X197568860Y-41405857D01*
X197431730Y-41417575D01*
X197350077Y-41439762D01*
X197316114Y-41464961D01*
X197277107Y-41552438D01*
X197314389Y-41617675D01*
X197420753Y-41652453D01*
X197483672Y-41656000D01*
X197654334Y-41656000D01*
X197654334Y-42538740D01*
X197653927Y-42834903D01*
X197651928Y-43058951D01*
X197647169Y-43223436D01*
X197638480Y-43340909D01*
X197624693Y-43423921D01*
X197604639Y-43485022D01*
X197577149Y-43536765D01*
X197558742Y-43565323D01*
X197397817Y-43734276D01*
X197186902Y-43844827D01*
X196944185Y-43888776D01*
X196846936Y-43886269D01*
X196564347Y-43828037D01*
X196317422Y-43699299D01*
X196093156Y-43493310D01*
X195918667Y-43295080D01*
X195918667Y-41660639D01*
X196119369Y-41647737D01*
X196249006Y-41631578D01*
X196314809Y-41598900D01*
X196335201Y-41555240D01*
X196334302Y-41493525D01*
X196296679Y-41450563D01*
X196211078Y-41423226D01*
X196066247Y-41408387D01*
X195850932Y-41402917D01*
X195786267Y-41402649D01*
X195569824Y-41405249D01*
X195423735Y-41414960D01*
X195333854Y-41433536D01*
X195286039Y-41462732D01*
X195284114Y-41464961D01*
X195243837Y-41552328D01*
X195280877Y-41616205D01*
X195389821Y-41651114D01*
X195472838Y-41656000D01*
X195664667Y-41656000D01*
X195664667Y-43815000D01*
X195494005Y-43815000D01*
X195361013Y-43834679D01*
X195294103Y-43888237D01*
X195300482Y-43967456D01*
X195326448Y-44006040D01*
X195400079Y-44046651D01*
X195541620Y-44066373D01*
X195648684Y-44069000D01*
X195918667Y-44069000D01*
X195918667Y-43634884D01*
X196104326Y-43806018D01*
X196293618Y-43962782D01*
X196468689Y-44062065D01*
X196659839Y-44118397D01*
X196796022Y-44137748D01*
X197093037Y-44135955D01*
G36*
X204643527Y-45252804D02*
X204924531Y-45136954D01*
X205119257Y-44997572D01*
X205317966Y-44779584D01*
X205437953Y-44540235D01*
X205484586Y-44268053D01*
X205485603Y-44214385D01*
X205483628Y-44119273D01*
X205475054Y-44031354D01*
X205455427Y-43945392D01*
X205420293Y-43856155D01*
X205365200Y-43758410D01*
X205285695Y-43646922D01*
X205177325Y-43516458D01*
X205035636Y-43361785D01*
X204856176Y-43177669D01*
X204634491Y-42958877D01*
X204366129Y-42700175D01*
X204046635Y-42396329D01*
X203671558Y-42042107D01*
X203498557Y-41879104D01*
X203263500Y-41657707D01*
X204266483Y-41656854D01*
X205269465Y-41656000D01*
X205282483Y-41835917D01*
X205296471Y-41949743D01*
X205326552Y-42001973D01*
X205387966Y-42015675D01*
X205401334Y-42015834D01*
X205456085Y-42011170D01*
X205488762Y-41985110D01*
X205506341Y-41919548D01*
X205515798Y-41796381D01*
X205519605Y-41708917D01*
X205532043Y-41402000D01*
X203073000Y-41402000D01*
X203073000Y-41768919D01*
X204021343Y-42685873D01*
X204263529Y-42922327D01*
X204491765Y-43149469D01*
X204697191Y-43358153D01*
X204870949Y-43539230D01*
X205004181Y-43683552D01*
X205088026Y-43781970D01*
X205104256Y-43804164D01*
X205180581Y-43928388D01*
X205218407Y-44031127D01*
X205227852Y-44151606D01*
X205223147Y-44265002D01*
X205180721Y-44502812D01*
X205079436Y-44691799D01*
X204909935Y-44845420D01*
X204759205Y-44932457D01*
X204486584Y-45026661D01*
X204219285Y-45036809D01*
X203961794Y-44963508D01*
X203718596Y-44807363D01*
X203697097Y-44788858D01*
X203577784Y-44664627D01*
X203478066Y-44527588D01*
X203438050Y-44450692D01*
X203371055Y-44327092D01*
X203297874Y-44281270D01*
X203287508Y-44280667D01*
X203198578Y-44308033D01*
X203164339Y-44382216D01*
X203178454Y-44491348D01*
X203234590Y-44623556D01*
X203326410Y-44766972D01*
X203447579Y-44909724D01*
X203591761Y-45039943D01*
X203747845Y-45143178D01*
X204040826Y-45257441D01*
X204344173Y-45293475D01*
X204643527Y-45252804D01*
X204643527Y-45252804D01*
G37*
X204643527Y-45252804D02*
X204924531Y-45136954D01*
X205119257Y-44997572D01*
X205317966Y-44779584D01*
X205437953Y-44540235D01*
X205484586Y-44268053D01*
X205485603Y-44214385D01*
X205483628Y-44119273D01*
X205475054Y-44031354D01*
X205455427Y-43945392D01*
X205420293Y-43856155D01*
X205365200Y-43758410D01*
X205285695Y-43646922D01*
X205177325Y-43516458D01*
X205035636Y-43361785D01*
X204856176Y-43177669D01*
X204634491Y-42958877D01*
X204366129Y-42700175D01*
X204046635Y-42396329D01*
X203671558Y-42042107D01*
X203498557Y-41879104D01*
X203263500Y-41657707D01*
X204266483Y-41656854D01*
X205269465Y-41656000D01*
X205282483Y-41835917D01*
X205296471Y-41949743D01*
X205326552Y-42001973D01*
X205387966Y-42015675D01*
X205401334Y-42015834D01*
X205456085Y-42011170D01*
X205488762Y-41985110D01*
X205506341Y-41919548D01*
X205515798Y-41796381D01*
X205519605Y-41708917D01*
X205532043Y-41402000D01*
X203073000Y-41402000D01*
X203073000Y-41768919D01*
X204021343Y-42685873D01*
X204263529Y-42922327D01*
X204491765Y-43149469D01*
X204697191Y-43358153D01*
X204870949Y-43539230D01*
X205004181Y-43683552D01*
X205088026Y-43781970D01*
X205104256Y-43804164D01*
X205180581Y-43928388D01*
X205218407Y-44031127D01*
X205227852Y-44151606D01*
X205223147Y-44265002D01*
X205180721Y-44502812D01*
X205079436Y-44691799D01*
X204909935Y-44845420D01*
X204759205Y-44932457D01*
X204486584Y-45026661D01*
X204219285Y-45036809D01*
X203961794Y-44963508D01*
X203718596Y-44807363D01*
X203697097Y-44788858D01*
X203577784Y-44664627D01*
X203478066Y-44527588D01*
X203438050Y-44450692D01*
X203371055Y-44327092D01*
X203297874Y-44281270D01*
X203287508Y-44280667D01*
X203198578Y-44308033D01*
X203164339Y-44382216D01*
X203178454Y-44491348D01*
X203234590Y-44623556D01*
X203326410Y-44766972D01*
X203447579Y-44909724D01*
X203591761Y-45039943D01*
X203747845Y-45143178D01*
X204040826Y-45257441D01*
X204344173Y-45293475D01*
X204643527Y-45252804D01*
G36*
X212132334Y-41658687D02*
X212629239Y-41646761D01*
X212842556Y-41640426D01*
X212985681Y-41631856D01*
X213073087Y-41618464D01*
X213119247Y-41597663D01*
X213138635Y-41566867D01*
X213141404Y-41555240D01*
X213127983Y-41471711D01*
X213099582Y-41439471D01*
X213043003Y-41429526D01*
X212913889Y-41420574D01*
X212724367Y-41413015D01*
X212486569Y-41407246D01*
X212212622Y-41403666D01*
X211978767Y-41402649D01*
X211642550Y-41403147D01*
X211381372Y-41405461D01*
X211185615Y-41410127D01*
X211045662Y-41417682D01*
X210951894Y-41428662D01*
X210894695Y-41443606D01*
X210864446Y-41463050D01*
X210862781Y-41464961D01*
X210830101Y-41548056D01*
X210835102Y-41591961D01*
X210860449Y-41619881D01*
X210920089Y-41638622D01*
X211027461Y-41649798D01*
X211196006Y-41655021D01*
X211369005Y-41656000D01*
X211878334Y-41656000D01*
X211878216Y-43317584D01*
X211878099Y-44979167D01*
X211514932Y-44587584D01*
X211332920Y-44398928D01*
X211194674Y-44274915D01*
X211093771Y-44212003D01*
X211023785Y-44206649D01*
X210978293Y-44255309D01*
X210966710Y-44285257D01*
X210958758Y-44319137D01*
X210962405Y-44354637D01*
X210984625Y-44400548D01*
X211032394Y-44465662D01*
X211112686Y-44558769D01*
X211232477Y-44688662D01*
X211398741Y-44864131D01*
X211559236Y-45032084D01*
X211688832Y-45163073D01*
X211782566Y-45242415D01*
X211859888Y-45282566D01*
X211940246Y-45295982D01*
X211972361Y-45296667D01*
X212132334Y-45296667D01*
X212132334Y-41658687D01*
X212132334Y-41658687D01*
G37*
X212132334Y-41658687D02*
X212629239Y-41646761D01*
X212842556Y-41640426D01*
X212985681Y-41631856D01*
X213073087Y-41618464D01*
X213119247Y-41597663D01*
X213138635Y-41566867D01*
X213141404Y-41555240D01*
X213127983Y-41471711D01*
X213099582Y-41439471D01*
X213043003Y-41429526D01*
X212913889Y-41420574D01*
X212724367Y-41413015D01*
X212486569Y-41407246D01*
X212212622Y-41403666D01*
X211978767Y-41402649D01*
X211642550Y-41403147D01*
X211381372Y-41405461D01*
X211185615Y-41410127D01*
X211045662Y-41417682D01*
X210951894Y-41428662D01*
X210894695Y-41443606D01*
X210864446Y-41463050D01*
X210862781Y-41464961D01*
X210830101Y-41548056D01*
X210835102Y-41591961D01*
X210860449Y-41619881D01*
X210920089Y-41638622D01*
X211027461Y-41649798D01*
X211196006Y-41655021D01*
X211369005Y-41656000D01*
X211878334Y-41656000D01*
X211878216Y-43317584D01*
X211878099Y-44979167D01*
X211514932Y-44587584D01*
X211332920Y-44398928D01*
X211194674Y-44274915D01*
X211093771Y-44212003D01*
X211023785Y-44206649D01*
X210978293Y-44255309D01*
X210966710Y-44285257D01*
X210958758Y-44319137D01*
X210962405Y-44354637D01*
X210984625Y-44400548D01*
X211032394Y-44465662D01*
X211112686Y-44558769D01*
X211232477Y-44688662D01*
X211398741Y-44864131D01*
X211559236Y-45032084D01*
X211688832Y-45163073D01*
X211782566Y-45242415D01*
X211859888Y-45282566D01*
X211940246Y-45295982D01*
X211972361Y-45296667D01*
X212132334Y-45296667D01*
X212132334Y-41658687D01*
G36*
X215452028Y-74321504D02*
X215538745Y-74200415D01*
X215587712Y-74009026D01*
X215597204Y-73749954D01*
X215594912Y-73701840D01*
X215564702Y-73448315D01*
X215500295Y-73222550D01*
X215393979Y-73014045D01*
X215238041Y-72812298D01*
X215024769Y-72606810D01*
X214746449Y-72387080D01*
X214503000Y-72215217D01*
X214329102Y-72097203D01*
X214094523Y-71939024D01*
X213804484Y-71744150D01*
X213464201Y-71516051D01*
X213078892Y-71258197D01*
X212653776Y-70974058D01*
X212194071Y-70667104D01*
X211704994Y-70340806D01*
X211191764Y-69998633D01*
X210659599Y-69644057D01*
X210113717Y-69280546D01*
X209559335Y-68911571D01*
X209001672Y-68540603D01*
X208445946Y-68171110D01*
X207897375Y-67806565D01*
X207361177Y-67450436D01*
X206842570Y-67106194D01*
X206346772Y-66777309D01*
X205879000Y-66467251D01*
X205444474Y-66179490D01*
X205048411Y-65917496D01*
X204696029Y-65684741D01*
X204392546Y-65484693D01*
X204143180Y-65320823D01*
X203953149Y-65196600D01*
X203827672Y-65115496D01*
X203816950Y-65108667D01*
X203475286Y-64890364D01*
X203198733Y-64710179D01*
X202980018Y-64562310D01*
X202811867Y-64440955D01*
X202687008Y-64340314D01*
X202598167Y-64254584D01*
X202538070Y-64177963D01*
X202499446Y-64104649D01*
X202478086Y-64040685D01*
X202417297Y-63831031D01*
X202351111Y-63648431D01*
X202272009Y-63485107D01*
X202172475Y-63333280D01*
X202044991Y-63185172D01*
X201882040Y-63033005D01*
X201676105Y-62868999D01*
X201419667Y-62685377D01*
X201105209Y-62474358D01*
X200728372Y-62230192D01*
X200533051Y-62105456D01*
X200279412Y-61944350D01*
X199980932Y-61755386D01*
X199651085Y-61547076D01*
X199303347Y-61327931D01*
X198951193Y-61106462D01*
X198654038Y-60919975D01*
X198169566Y-60616031D01*
X197743561Y-60348220D01*
X197362558Y-60108021D01*
X197013092Y-59886909D01*
X196681698Y-59676362D01*
X196354912Y-59467857D01*
X196019268Y-59252870D01*
X195947492Y-59206805D01*
X195701150Y-59048657D01*
X196307325Y-58665549D01*
X196527129Y-58526454D01*
X196739047Y-58392031D01*
X196925336Y-58273557D01*
X197068255Y-58182309D01*
X197125167Y-58145734D01*
X197195267Y-58101263D01*
X197335041Y-58013369D01*
X197542310Y-57883412D01*
X197814897Y-57712754D01*
X198150621Y-57502754D01*
X198547305Y-57254774D01*
X199002769Y-56970174D01*
X199514836Y-56650315D01*
X200081325Y-56296557D01*
X200700059Y-55910261D01*
X201368859Y-55492787D01*
X202085545Y-55045497D01*
X202847940Y-54569751D01*
X203653864Y-54066910D01*
X204501139Y-53538333D01*
X205387586Y-52985383D01*
X205888167Y-52673155D01*
X206252372Y-52445913D01*
X206598733Y-52229645D01*
X206919843Y-52028988D01*
X207208295Y-51848578D01*
X207456680Y-51693050D01*
X207657593Y-51567042D01*
X207803626Y-51475187D01*
X207887371Y-51422124D01*
X207899000Y-51414620D01*
X207985483Y-51359068D01*
X208127639Y-51268791D01*
X208309367Y-51153971D01*
X208514564Y-51024792D01*
X208639834Y-50946143D01*
X208902551Y-50779727D01*
X209103801Y-50646731D01*
X209254885Y-50537299D01*
X209367105Y-50441574D01*
X209451765Y-50349699D01*
X209520166Y-50251817D01*
X209583612Y-50138073D01*
X209597484Y-50111012D01*
X209754244Y-49730417D01*
X209828402Y-49368080D01*
X209819860Y-49023244D01*
X209728519Y-48695150D01*
X209554281Y-48383040D01*
X209340227Y-48129037D01*
X209112278Y-47920660D01*
X208887258Y-47772146D01*
X208634355Y-47666413D01*
X208385834Y-47599938D01*
X208206636Y-47563407D01*
X208073151Y-47549256D01*
X207949438Y-47557486D01*
X207799552Y-47588101D01*
X207750834Y-47599982D01*
X207577456Y-47654128D01*
X207399239Y-47726274D01*
X207348834Y-47750723D01*
X207274690Y-47792340D01*
X207136310Y-47873313D01*
X206941678Y-47988809D01*
X206698777Y-48133997D01*
X206415594Y-48304043D01*
X206100111Y-48494117D01*
X205760314Y-48699384D01*
X205404187Y-48915014D01*
X205039714Y-49136174D01*
X204674880Y-49358032D01*
X204317668Y-49575756D01*
X203976065Y-49784513D01*
X203658053Y-49979471D01*
X203371618Y-50155797D01*
X203221167Y-50248824D01*
X202973856Y-50402047D01*
X202713306Y-50563468D01*
X202463832Y-50718023D01*
X202249745Y-50850650D01*
X202162834Y-50904490D01*
X201995425Y-51008226D01*
X201829861Y-51110895D01*
X201660028Y-51216307D01*
X201479809Y-51328268D01*
X201283091Y-51450585D01*
X201063757Y-51587068D01*
X200815693Y-51741522D01*
X200532784Y-51917755D01*
X200208914Y-52119576D01*
X199837968Y-52350791D01*
X199413831Y-52615208D01*
X198930389Y-52916635D01*
X198381526Y-53258880D01*
X198352834Y-53276771D01*
X197689907Y-53690145D01*
X197093653Y-54061925D01*
X196558910Y-54395329D01*
X196080514Y-54693573D01*
X195653301Y-54959874D01*
X195272109Y-55197449D01*
X194931774Y-55409514D01*
X194627133Y-55599287D01*
X194353022Y-55769983D01*
X194104279Y-55924820D01*
X193875739Y-56067013D01*
X193662241Y-56199781D01*
X193458619Y-56326339D01*
X193259712Y-56449905D01*
X193189118Y-56493746D01*
X192385737Y-56992631D01*
X192215452Y-56894690D01*
X192164937Y-56864768D01*
X192079787Y-56813098D01*
X191957130Y-56737899D01*
X191794098Y-56637386D01*
X191587821Y-56509778D01*
X191335428Y-56353289D01*
X191034050Y-56166139D01*
X190680817Y-55946542D01*
X190272859Y-55692717D01*
X189807307Y-55402879D01*
X189281290Y-55075246D01*
X188691938Y-54708035D01*
X188036383Y-54299463D01*
X187346167Y-53869200D01*
X186707393Y-53471104D01*
X186003881Y-53032906D01*
X185242861Y-52559108D01*
X184431562Y-52054209D01*
X183577215Y-51522707D01*
X182687048Y-50969102D01*
X182075667Y-50588977D01*
X181318189Y-50118781D01*
X180630987Y-49693726D01*
X180013080Y-49313221D01*
X179463489Y-48976678D01*
X178981234Y-48683507D01*
X178565334Y-48433120D01*
X178214811Y-48224928D01*
X177928683Y-48058341D01*
X177705971Y-47932772D01*
X177545695Y-47847630D01*
X177446875Y-47802327D01*
X177429390Y-47796506D01*
X177181649Y-47757308D01*
X176898438Y-47759397D01*
X176617232Y-47801077D01*
X176479259Y-47839500D01*
X176150319Y-47985589D01*
X175871992Y-48188663D01*
X175634986Y-48457068D01*
X175445904Y-48768000D01*
X175392003Y-48879087D01*
X175357002Y-48977787D01*
X175336819Y-49087586D01*
X175327371Y-49231975D01*
X175324575Y-49434441D01*
X175324486Y-49466500D01*
X175333667Y-49755361D01*
X175367407Y-49985929D01*
X175432934Y-50182786D01*
X175537474Y-50370513D01*
X175627079Y-50495763D01*
X175674280Y-50545546D01*
X175755832Y-50615038D01*
X175874286Y-50705893D01*
X176032196Y-50819769D01*
X176232113Y-50958321D01*
X176476589Y-51123207D01*
X176768178Y-51316083D01*
X177109433Y-51538604D01*
X177502904Y-51792429D01*
X177951145Y-52079213D01*
X178456708Y-52400612D01*
X179022147Y-52758283D01*
X179650012Y-53153882D01*
X180342857Y-53589067D01*
X181103233Y-54065493D01*
X181779334Y-54488353D01*
X182090349Y-54682721D01*
X182462460Y-54915239D01*
X182884951Y-55179212D01*
X183347103Y-55467944D01*
X183838199Y-55774741D01*
X184347521Y-56092906D01*
X184864351Y-56415744D01*
X185377972Y-56736559D01*
X185877666Y-57048657D01*
X186099821Y-57187404D01*
X186538861Y-57461765D01*
X186958628Y-57724402D01*
X187353341Y-57971677D01*
X187717220Y-58199955D01*
X188044483Y-58405598D01*
X188329349Y-58584971D01*
X188566037Y-58734435D01*
X188748765Y-58850356D01*
X188871752Y-58929096D01*
X188929218Y-58967019D01*
X188931041Y-58968353D01*
X189029273Y-59042450D01*
X188674553Y-59275252D01*
X188320764Y-59506746D01*
X187996002Y-59717565D01*
X187680880Y-59920089D01*
X187356005Y-60126700D01*
X187001989Y-60349778D01*
X186599441Y-60601705D01*
X186499500Y-60664065D01*
X186047290Y-60946883D01*
X185587696Y-61235773D01*
X185134229Y-61522161D01*
X184700402Y-61797477D01*
X184299726Y-62053148D01*
X183945712Y-62280601D01*
X183682534Y-62451247D01*
X183507502Y-62572674D01*
X183341317Y-62700522D01*
X183209524Y-62814634D01*
X183165192Y-62859478D01*
X183005375Y-63073307D01*
X182856007Y-63340939D01*
X182733290Y-63631708D01*
X182694397Y-63750638D01*
X182643774Y-63899242D01*
X182588648Y-64028840D01*
X182559610Y-64081853D01*
X182485282Y-64162527D01*
X182339051Y-64287502D01*
X182121093Y-64456653D01*
X181831580Y-64669857D01*
X181470686Y-64926990D01*
X181038585Y-65227928D01*
X180535451Y-65572547D01*
X179961457Y-65960724D01*
X179345167Y-66373406D01*
X178879806Y-66683631D01*
X178473443Y-66954228D01*
X178114717Y-67192664D01*
X177792263Y-67406406D01*
X177494721Y-67602920D01*
X177210728Y-67789673D01*
X176928922Y-67974132D01*
X176637941Y-68163763D01*
X176326422Y-68366033D01*
X175983003Y-68588410D01*
X175596322Y-68838358D01*
X175471667Y-68918877D01*
X175222155Y-69080048D01*
X174971895Y-69241739D01*
X174738738Y-69392415D01*
X174540534Y-69520539D01*
X174395134Y-69614577D01*
X174392167Y-69616497D01*
X174207762Y-69735310D01*
X173985412Y-69877808D01*
X173758756Y-70022462D01*
X173630167Y-70104203D01*
X173193351Y-70382203D01*
X172822650Y-70620569D01*
X172512011Y-70823943D01*
X172255382Y-70996968D01*
X172046710Y-71144285D01*
X171879943Y-71270538D01*
X171749028Y-71380368D01*
X171647915Y-71478418D01*
X171570549Y-71569330D01*
X171510879Y-71657747D01*
X171462852Y-71748310D01*
X171449804Y-71776605D01*
X171329463Y-72044822D01*
X170730203Y-72058661D01*
X170130944Y-72072500D01*
X169991883Y-72224361D01*
X169895904Y-72359287D01*
X169804981Y-72538155D01*
X169760182Y-72654604D01*
X169697539Y-72821009D01*
X169635811Y-72920436D01*
X169559392Y-72968946D01*
X169452676Y-72982599D01*
X169441414Y-72982667D01*
X169302451Y-73020055D01*
X169189290Y-73115917D01*
X169126894Y-73245800D01*
X169121667Y-73295860D01*
X169134008Y-73344827D01*
X169486169Y-73344827D01*
X169488586Y-73326268D01*
X169560776Y-73300610D01*
X169615993Y-73284796D01*
X169737527Y-73230071D01*
X169859054Y-73143596D01*
X169957058Y-73045995D01*
X170008022Y-72957891D01*
X170010667Y-72938674D01*
X170024545Y-72881220D01*
X170060406Y-72771753D01*
X170096659Y-72671342D01*
X170162142Y-72526549D01*
X170241171Y-72430100D01*
X170349930Y-72374893D01*
X170504602Y-72353826D01*
X170721369Y-72359797D01*
X170794138Y-72365245D01*
X170981089Y-72375563D01*
X171154766Y-72376800D01*
X171283275Y-72368913D01*
X171302545Y-72365907D01*
X171476546Y-72292941D01*
X171624267Y-72154417D01*
X171726771Y-71969124D01*
X171738682Y-71933178D01*
X171816660Y-71775492D01*
X171940943Y-71629802D01*
X171947940Y-71623548D01*
X172039025Y-71552230D01*
X172194642Y-71440809D01*
X172407553Y-71294099D01*
X172670521Y-71116912D01*
X172976307Y-70914064D01*
X173317674Y-70690369D01*
X173687384Y-70450639D01*
X174078200Y-70199689D01*
X174328667Y-70040108D01*
X174575192Y-69883161D01*
X174831611Y-69719307D01*
X175075457Y-69562943D01*
X175284266Y-69428464D01*
X175387000Y-69361923D01*
X175583900Y-69234028D01*
X175821733Y-69079662D01*
X176070366Y-68918379D01*
X176297167Y-68771350D01*
X177058566Y-68276507D01*
X177787944Y-67799587D01*
X178481667Y-67343051D01*
X179136100Y-66909358D01*
X179747609Y-66500968D01*
X180312561Y-66120341D01*
X180827321Y-65769937D01*
X181288255Y-65452216D01*
X181691728Y-65169637D01*
X182034107Y-64924661D01*
X182311758Y-64719748D01*
X182511952Y-64564677D01*
X182669833Y-64432421D01*
X182781002Y-64319165D01*
X182862625Y-64199766D01*
X182931866Y-64049079D01*
X183005891Y-63841961D01*
X183006434Y-63840348D01*
X183132774Y-63515190D01*
X183270741Y-63250916D01*
X183412688Y-63060967D01*
X183453766Y-63021170D01*
X183510164Y-62973470D01*
X183586311Y-62914989D01*
X183686634Y-62842849D01*
X183815562Y-62754173D01*
X183977524Y-62646084D01*
X184176948Y-62515704D01*
X184418262Y-62360156D01*
X184705895Y-62176562D01*
X185044275Y-61962044D01*
X185437830Y-61713727D01*
X185890989Y-61428731D01*
X186408181Y-61104180D01*
X186859334Y-60821442D01*
X187393341Y-60485374D01*
X187870506Y-60181875D01*
X188288703Y-59912361D01*
X188645807Y-59678250D01*
X188939693Y-59480959D01*
X189168237Y-59321905D01*
X189329313Y-59202505D01*
X189420797Y-59124176D01*
X189440028Y-59100396D01*
X189465604Y-59027477D01*
X189450812Y-58959799D01*
X189386260Y-58885020D01*
X189262558Y-58790799D01*
X189144975Y-58712629D01*
X189074893Y-58668093D01*
X188938960Y-58582471D01*
X188743154Y-58459499D01*
X188493451Y-58302913D01*
X188195830Y-58116451D01*
X187856269Y-57903848D01*
X187480743Y-57668841D01*
X187075232Y-57415166D01*
X186645713Y-57146560D01*
X186198164Y-56866760D01*
X185738561Y-56579501D01*
X185272883Y-56288521D01*
X184807106Y-55997555D01*
X184347210Y-55710341D01*
X183899171Y-55430614D01*
X183468966Y-55162111D01*
X183062574Y-54908569D01*
X182685971Y-54673724D01*
X182345136Y-54461312D01*
X182046046Y-54275070D01*
X181991000Y-54240816D01*
X181768700Y-54102113D01*
X181495720Y-53931180D01*
X181192899Y-53741102D01*
X180881076Y-53544966D01*
X180581090Y-53355855D01*
X180488167Y-53297171D01*
X180226327Y-53131884D01*
X179973265Y-52972426D01*
X179742611Y-52827363D01*
X179547991Y-52705260D01*
X179403035Y-52614684D01*
X179345167Y-52578786D01*
X179153428Y-52459279D01*
X178904750Y-52302407D01*
X178613066Y-52117120D01*
X178292313Y-51912368D01*
X177956424Y-51697102D01*
X177619336Y-51480274D01*
X177294982Y-51270832D01*
X176997299Y-51077729D01*
X176740220Y-50909915D01*
X176537681Y-50776340D01*
X176502739Y-50753048D01*
X176220123Y-50556889D01*
X176004444Y-50386263D01*
X175847097Y-50228472D01*
X175739478Y-50070813D01*
X175672983Y-49900584D01*
X175639009Y-49705086D01*
X175628949Y-49471617D01*
X175628926Y-49463173D01*
X175632464Y-49278568D01*
X175649210Y-49143794D01*
X175687143Y-49024178D01*
X175754246Y-48885047D01*
X175767962Y-48859147D01*
X175968916Y-48561931D01*
X176216344Y-48331953D01*
X176504024Y-48173105D01*
X176825731Y-48089279D01*
X177019365Y-48076556D01*
X177185732Y-48081054D01*
X177312736Y-48100994D01*
X177435747Y-48146047D01*
X177590139Y-48225882D01*
X177613982Y-48239109D01*
X177703831Y-48291240D01*
X177857369Y-48382716D01*
X178066229Y-48508424D01*
X178322044Y-48663251D01*
X178616446Y-48842084D01*
X178941071Y-49039812D01*
X179287550Y-49251320D01*
X179647517Y-49471496D01*
X180012606Y-49695228D01*
X180374449Y-49917402D01*
X180724680Y-50132906D01*
X181054932Y-50336626D01*
X181356838Y-50523451D01*
X181622032Y-50688267D01*
X181631167Y-50693961D01*
X181786105Y-50790475D01*
X181997503Y-50922047D01*
X182249900Y-51079061D01*
X182527836Y-51251900D01*
X182815851Y-51430948D01*
X183028167Y-51562897D01*
X183956965Y-52140247D01*
X184902354Y-52728331D01*
X185872910Y-53332489D01*
X186877205Y-53958065D01*
X187923814Y-54610399D01*
X189021311Y-55294832D01*
X190178270Y-56016707D01*
X190690500Y-56336410D01*
X191017476Y-56540168D01*
X191324606Y-56730910D01*
X191603932Y-56903742D01*
X191847499Y-57053768D01*
X192047347Y-57176095D01*
X192195520Y-57265829D01*
X192284061Y-57318074D01*
X192303957Y-57328830D01*
X192343441Y-57336449D01*
X192400766Y-57325161D01*
X192485220Y-57290200D01*
X192606092Y-57226799D01*
X192772671Y-57130190D01*
X192994245Y-56995607D01*
X193192957Y-56872571D01*
X193792755Y-56499408D01*
X194330553Y-56164773D01*
X194816257Y-55862495D01*
X195259772Y-55586403D01*
X195671005Y-55330326D01*
X196059862Y-55088094D01*
X196436248Y-54853535D01*
X196810071Y-54620480D01*
X197191234Y-54382756D01*
X197589646Y-54134195D01*
X198014167Y-53869275D01*
X198739246Y-53416820D01*
X199413316Y-52996340D01*
X200034194Y-52609196D01*
X200599698Y-52256745D01*
X201107646Y-51940347D01*
X201555853Y-51661361D01*
X201942138Y-51421145D01*
X202264317Y-51221059D01*
X202520208Y-51062461D01*
X202707628Y-50946711D01*
X202776667Y-50904295D01*
X202916597Y-50818436D01*
X203113220Y-50697599D01*
X203351162Y-50551242D01*
X203615046Y-50388825D01*
X203889499Y-50219806D01*
X204046667Y-50122969D01*
X204680871Y-49732711D01*
X205246417Y-49385946D01*
X205746223Y-49080943D01*
X206183205Y-48815966D01*
X206560280Y-48589283D01*
X206880365Y-48399160D01*
X207146376Y-48243863D01*
X207361231Y-48121660D01*
X207527846Y-48030815D01*
X207649139Y-47969597D01*
X207723064Y-47938002D01*
X207990580Y-47885429D01*
X208287830Y-47909211D01*
X208503586Y-47967283D01*
X208816356Y-48104514D01*
X209067056Y-48290446D01*
X209268695Y-48536693D01*
X209392080Y-48760565D01*
X209461480Y-48919424D01*
X209496479Y-49045543D01*
X209504892Y-49179572D01*
X209498237Y-49312790D01*
X209459149Y-49556015D01*
X209382477Y-49801996D01*
X209279141Y-50023559D01*
X209160060Y-50193532D01*
X209133344Y-50220821D01*
X209080122Y-50262885D01*
X208977066Y-50335013D01*
X208821882Y-50438666D01*
X208612273Y-50575307D01*
X208345946Y-50746397D01*
X208020605Y-50953398D01*
X207633955Y-51197772D01*
X207183701Y-51480980D01*
X206667549Y-51804485D01*
X206083204Y-52169748D01*
X205613000Y-52463131D01*
X204566755Y-53115569D01*
X203590192Y-53724676D01*
X202681102Y-54291845D01*
X201837274Y-54818464D01*
X201056497Y-55305924D01*
X200336561Y-55755614D01*
X199675256Y-56168925D01*
X199070371Y-56547246D01*
X198519696Y-56891967D01*
X198021020Y-57204479D01*
X197572134Y-57486170D01*
X197170825Y-57738432D01*
X196814885Y-57962654D01*
X196502102Y-58160226D01*
X196230267Y-58332538D01*
X195997168Y-58480980D01*
X195800596Y-58606942D01*
X195638339Y-58711814D01*
X195508188Y-58796985D01*
X195407932Y-58863846D01*
X195335361Y-58913786D01*
X195288264Y-58948196D01*
X195264430Y-58968466D01*
X195261191Y-58972452D01*
X195247305Y-58997387D01*
X195240285Y-59022596D01*
X195244324Y-59050973D01*
X195263615Y-59085412D01*
X195302352Y-59128807D01*
X195364726Y-59184052D01*
X195454931Y-59254040D01*
X195577159Y-59341665D01*
X195735604Y-59449820D01*
X195934458Y-59581401D01*
X196177915Y-59739300D01*
X196470166Y-59926411D01*
X196815406Y-60145628D01*
X197217826Y-60399845D01*
X197681620Y-60691955D01*
X198210981Y-61024853D01*
X198479834Y-61193846D01*
X199023353Y-61535753D01*
X199499900Y-61836222D01*
X199914422Y-62098499D01*
X200271865Y-62325825D01*
X200577176Y-62521443D01*
X200835301Y-62688597D01*
X201051186Y-62830529D01*
X201229778Y-62950482D01*
X201376022Y-63051699D01*
X201494866Y-63137423D01*
X201591256Y-63210898D01*
X201670138Y-63275365D01*
X201716396Y-63315798D01*
X201847873Y-63457856D01*
X201969846Y-63631125D01*
X202068248Y-63811042D01*
X202129012Y-63973047D01*
X202141667Y-64058355D01*
X202177659Y-64201763D01*
X202278162Y-64368152D01*
X202431962Y-64542625D01*
X202627850Y-64710288D01*
X202638087Y-64717885D01*
X202780989Y-64819312D01*
X202973297Y-64950338D01*
X203192498Y-65095887D01*
X203416080Y-65240879D01*
X203475167Y-65278540D01*
X203655338Y-65393077D01*
X203832598Y-65506223D01*
X204011183Y-65620776D01*
X204195327Y-65739537D01*
X204389263Y-65865306D01*
X204597225Y-66000883D01*
X204823449Y-66149067D01*
X205072168Y-66312659D01*
X205347616Y-66494458D01*
X205654027Y-66697266D01*
X205995637Y-66923880D01*
X206376678Y-67177102D01*
X206801384Y-67459732D01*
X207273992Y-67774569D01*
X207798733Y-68124414D01*
X208379843Y-68512066D01*
X209021556Y-68940325D01*
X209728106Y-69411992D01*
X209959637Y-69566574D01*
X210536206Y-69951953D01*
X211095616Y-70326681D01*
X211633573Y-70687843D01*
X212145783Y-71032521D01*
X212627952Y-71357800D01*
X213075788Y-71660764D01*
X213484996Y-71938495D01*
X213851283Y-72188078D01*
X214170354Y-72406595D01*
X214437917Y-72591132D01*
X214649677Y-72738771D01*
X214801340Y-72846595D01*
X214888614Y-72911690D01*
X214905120Y-72925667D01*
X215094791Y-73143825D01*
X215209995Y-73371627D01*
X215260133Y-73630313D01*
X215264070Y-73736582D01*
X215259064Y-73873259D01*
X215244830Y-73959771D01*
X215226262Y-73979723D01*
X215192984Y-73930759D01*
X215141724Y-73824326D01*
X215083101Y-73682642D01*
X215078357Y-73670308D01*
X214982791Y-73454064D01*
X214866477Y-73262184D01*
X214719278Y-73085111D01*
X214531057Y-72913292D01*
X214291679Y-72737169D01*
X213991008Y-72547187D01*
X213721463Y-72391143D01*
X213557462Y-72297813D01*
X213332765Y-72168609D01*
X213059619Y-72010644D01*
X212750274Y-71831027D01*
X212416975Y-71636871D01*
X212071971Y-71435287D01*
X211731796Y-71235902D01*
X210926330Y-70763200D01*
X210188769Y-70330791D01*
X209514174Y-69935822D01*
X208897601Y-69575441D01*
X208334109Y-69246794D01*
X207818756Y-68947029D01*
X207346601Y-68673292D01*
X206912700Y-68422732D01*
X206512114Y-68192494D01*
X206139899Y-67979726D01*
X205791114Y-67781575D01*
X205460818Y-67595188D01*
X205144067Y-67417713D01*
X204835921Y-67246296D01*
X204531438Y-67078085D01*
X204491167Y-67055919D01*
X204243026Y-66919250D01*
X203997793Y-66783922D01*
X203773856Y-66660103D01*
X203589606Y-66557958D01*
X203475167Y-66494224D01*
X203342009Y-66422038D01*
X203151011Y-66321581D01*
X202920193Y-66202177D01*
X202667575Y-66073149D01*
X202416834Y-65946654D01*
X201654834Y-65564830D01*
X201379667Y-65599592D01*
X201203086Y-65616265D01*
X200983579Y-65629069D01*
X200762869Y-65635698D01*
X200719227Y-65636094D01*
X200333953Y-65637834D01*
X199428060Y-65092061D01*
X199203695Y-64956777D01*
X198997842Y-64832351D01*
X198801622Y-64713323D01*
X198606154Y-64594233D01*
X198402559Y-64469621D01*
X198181956Y-64334027D01*
X197935466Y-64181991D01*
X197654209Y-64008053D01*
X197329304Y-63806753D01*
X196951873Y-63572631D01*
X196513034Y-63300227D01*
X196426667Y-63246602D01*
X196145974Y-63072351D01*
X195814632Y-62866716D01*
X195453954Y-62642918D01*
X195085252Y-62414183D01*
X194729840Y-62193732D01*
X194479334Y-62038382D01*
X194045879Y-61769385D01*
X193678789Y-61541391D01*
X193372205Y-61351218D01*
X193120269Y-61195682D01*
X192917123Y-61071599D01*
X192756909Y-60975787D01*
X192633771Y-60905061D01*
X192541849Y-60856240D01*
X192475287Y-60826138D01*
X192428226Y-60811573D01*
X192394809Y-60809362D01*
X192369178Y-60816321D01*
X192345475Y-60829266D01*
X192317842Y-60845015D01*
X192299167Y-60853588D01*
X192197938Y-60901790D01*
X192039315Y-60987257D01*
X191822014Y-61110770D01*
X191544747Y-61273107D01*
X191206231Y-61475049D01*
X190805180Y-61717376D01*
X190340308Y-62000867D01*
X189810330Y-62326303D01*
X189213961Y-62694462D01*
X188549916Y-63106125D01*
X187816909Y-63562071D01*
X187176834Y-63961204D01*
X186640091Y-64294822D01*
X186173090Y-64582078D01*
X185775035Y-64823442D01*
X185445133Y-65019385D01*
X185182589Y-65170374D01*
X184986608Y-65276882D01*
X184856396Y-65339376D01*
X184827334Y-65350555D01*
X184684356Y-65393980D01*
X184541450Y-65422301D01*
X184374262Y-65438448D01*
X184158438Y-65445353D01*
X184032248Y-65446241D01*
X183803529Y-65449700D01*
X183610323Y-65462348D01*
X183436096Y-65489179D01*
X183264318Y-65535187D01*
X183078455Y-65605368D01*
X182861975Y-65704715D01*
X182598345Y-65838223D01*
X182413643Y-65935224D01*
X181924362Y-66196189D01*
X181391963Y-66484085D01*
X180823253Y-66795010D01*
X180225042Y-67125066D01*
X179604137Y-67470353D01*
X178967348Y-67826971D01*
X178321482Y-68191021D01*
X177673348Y-68558603D01*
X177029755Y-68925817D01*
X176397510Y-69288765D01*
X175783423Y-69643545D01*
X175194301Y-69986260D01*
X174636953Y-70313009D01*
X174118188Y-70619892D01*
X173644813Y-70903011D01*
X173223638Y-71158465D01*
X172861471Y-71382355D01*
X172565119Y-71570781D01*
X172499042Y-71613907D01*
X172258511Y-71780854D01*
X172082702Y-71926374D01*
X171959069Y-72063659D01*
X171875067Y-72205896D01*
X171833829Y-72313272D01*
X171776264Y-72449877D01*
X171703955Y-72570762D01*
X171698518Y-72577855D01*
X171660374Y-72622349D01*
X171617987Y-72652637D01*
X171555517Y-72671448D01*
X171457122Y-72681515D01*
X171306961Y-72685566D01*
X171089195Y-72686333D01*
X171069176Y-72686334D01*
X170844499Y-72687117D01*
X170687338Y-72691351D01*
X170580544Y-72701862D01*
X170506969Y-72721477D01*
X170449464Y-72753024D01*
X170392633Y-72797851D01*
X170299127Y-72892109D01*
X170186861Y-73027188D01*
X170091474Y-73157684D01*
X169997329Y-73289687D01*
X169927441Y-73364187D01*
X169862772Y-73396439D01*
X169786839Y-73401781D01*
X169652379Y-73388440D01*
X169545000Y-73366042D01*
X169486169Y-73344827D01*
X169134008Y-73344827D01*
X169160649Y-73450533D01*
X169271048Y-73574874D01*
X169443045Y-73662402D01*
X169666819Y-73706638D01*
X169750201Y-73710629D01*
X169928751Y-73703855D01*
X170061262Y-73668460D01*
X170171716Y-73590750D01*
X170284094Y-73457028D01*
X170343993Y-73371531D01*
X170444734Y-73225664D01*
X170527128Y-73124592D01*
X170609810Y-73060100D01*
X170711415Y-73023973D01*
X170850578Y-73007994D01*
X171045936Y-73003949D01*
X171178023Y-73003834D01*
X171434388Y-73000279D01*
X171623614Y-72983228D01*
X171763138Y-72943098D01*
X171870399Y-72870308D01*
X171962832Y-72755276D01*
X172057877Y-72588422D01*
X172106167Y-72493833D01*
X172153569Y-72401217D01*
X172199806Y-72319590D01*
X172251356Y-72244188D01*
X172314701Y-72170250D01*
X172396320Y-72093013D01*
X172502693Y-72007713D01*
X172640300Y-71909590D01*
X172815621Y-71793880D01*
X173035136Y-71655820D01*
X173305325Y-71490648D01*
X173632667Y-71293602D01*
X174023643Y-71059919D01*
X174201667Y-70953711D01*
X174493533Y-70779858D01*
X174770974Y-70615196D01*
X175042375Y-70454852D01*
X175316117Y-70293956D01*
X175600584Y-70127635D01*
X175904158Y-69951017D01*
X176235223Y-69759232D01*
X176602160Y-69547408D01*
X177013353Y-69310672D01*
X177477186Y-69044155D01*
X178002039Y-68742983D01*
X178286834Y-68579677D01*
X178490080Y-68463804D01*
X178737240Y-68323878D01*
X178998184Y-68176909D01*
X179242782Y-68039905D01*
X179260500Y-68030019D01*
X179520905Y-67884765D01*
X179817843Y-67719115D01*
X180113915Y-67553935D01*
X180361167Y-67415979D01*
X180958869Y-67084547D01*
X181501641Y-66787864D01*
X181987109Y-66527151D01*
X182412903Y-66303627D01*
X182776651Y-66118512D01*
X183075983Y-65973025D01*
X183308525Y-65868386D01*
X183471908Y-65805815D01*
X183517101Y-65792902D01*
X183639577Y-65774044D01*
X183819819Y-65759235D01*
X184030956Y-65750242D01*
X184194434Y-65748380D01*
X184498285Y-65740802D01*
X184744805Y-65712296D01*
X184959848Y-65657707D01*
X185169268Y-65571881D01*
X185229500Y-65542020D01*
X185262367Y-65523841D01*
X185319794Y-65490107D01*
X185405205Y-65438694D01*
X185522020Y-65367479D01*
X185673661Y-65274340D01*
X185863552Y-65157155D01*
X186095114Y-65013800D01*
X186371768Y-64842153D01*
X186696937Y-64640090D01*
X187074043Y-64405489D01*
X187506509Y-64136228D01*
X187997755Y-63830183D01*
X188551204Y-63485232D01*
X189170278Y-63099252D01*
X189719129Y-62756980D01*
X189866909Y-62665889D01*
X190073678Y-62539936D01*
X190325591Y-62387428D01*
X190608801Y-62216670D01*
X190909463Y-62035968D01*
X191213730Y-61853628D01*
X191507756Y-61677955D01*
X191777696Y-61517257D01*
X192009704Y-61379838D01*
X192189932Y-61274004D01*
X192232889Y-61249044D01*
X192420611Y-61140375D01*
X192846722Y-61404643D01*
X193010223Y-61506130D01*
X193228236Y-61641580D01*
X193483401Y-61800200D01*
X193758360Y-61971199D01*
X194035752Y-62143784D01*
X194140667Y-62209080D01*
X194423214Y-62384867D01*
X194718372Y-62568362D01*
X195006538Y-62747387D01*
X195268108Y-62909765D01*
X195483480Y-63043318D01*
X195537667Y-63076880D01*
X195789745Y-63232972D01*
X196077162Y-63410974D01*
X196363288Y-63588199D01*
X196596000Y-63732364D01*
X197188543Y-64099244D01*
X197713657Y-64423796D01*
X198175688Y-64708598D01*
X198578983Y-64956227D01*
X198927891Y-65169261D01*
X199226758Y-65350278D01*
X199479931Y-65501854D01*
X199691758Y-65626569D01*
X199866586Y-65726999D01*
X200008761Y-65805722D01*
X200122632Y-65865316D01*
X200212546Y-65908358D01*
X200282849Y-65937426D01*
X200337890Y-65955098D01*
X200349552Y-65957986D01*
X200623187Y-65992371D01*
X200935205Y-65983294D01*
X201251927Y-65931738D01*
X201252481Y-65931607D01*
X201527462Y-65866799D01*
X202082465Y-66139477D01*
X202279436Y-66238393D01*
X202532248Y-66368615D01*
X202822614Y-66520536D01*
X203132248Y-66684551D01*
X203442864Y-66851054D01*
X203627817Y-66951266D01*
X203917623Y-67109325D01*
X204198497Y-67263215D01*
X204475019Y-67415570D01*
X204751770Y-67569026D01*
X205033330Y-67726218D01*
X205324280Y-67889780D01*
X205629200Y-68062349D01*
X205952671Y-68246558D01*
X206299273Y-68445044D01*
X206673586Y-68660440D01*
X207080191Y-68895383D01*
X207523669Y-69152507D01*
X208008599Y-69434448D01*
X208539563Y-69743840D01*
X209121140Y-70083319D01*
X209757912Y-70455520D01*
X210454459Y-70863077D01*
X211215360Y-71308626D01*
X211941834Y-71734233D01*
X212268338Y-71925220D01*
X212588120Y-72111655D01*
X212889861Y-72286984D01*
X213162245Y-72444654D01*
X213393952Y-72578111D01*
X213573666Y-72680803D01*
X213677500Y-72739235D01*
X214003268Y-72929396D01*
X214259073Y-73102723D01*
X214455261Y-73269191D01*
X214602178Y-73438774D01*
X214710172Y-73621447D01*
X214782335Y-73804356D01*
X214875280Y-74024104D01*
X214992800Y-74200931D01*
X215122251Y-74317392D01*
X215172258Y-74342311D01*
X215329290Y-74369675D01*
X215452028Y-74321504D01*
X215452028Y-74321504D01*
G37*
X215452028Y-74321504D02*
X215538745Y-74200415D01*
X215587712Y-74009026D01*
X215597204Y-73749954D01*
X215594912Y-73701840D01*
X215564702Y-73448315D01*
X215500295Y-73222550D01*
X215393979Y-73014045D01*
X215238041Y-72812298D01*
X215024769Y-72606810D01*
X214746449Y-72387080D01*
X214503000Y-72215217D01*
X214329102Y-72097203D01*
X214094523Y-71939024D01*
X213804484Y-71744150D01*
X213464201Y-71516051D01*
X213078892Y-71258197D01*
X212653776Y-70974058D01*
X212194071Y-70667104D01*
X211704994Y-70340806D01*
X211191764Y-69998633D01*
X210659599Y-69644057D01*
X210113717Y-69280546D01*
X209559335Y-68911571D01*
X209001672Y-68540603D01*
X208445946Y-68171110D01*
X207897375Y-67806565D01*
X207361177Y-67450436D01*
X206842570Y-67106194D01*
X206346772Y-66777309D01*
X205879000Y-66467251D01*
X205444474Y-66179490D01*
X205048411Y-65917496D01*
X204696029Y-65684741D01*
X204392546Y-65484693D01*
X204143180Y-65320823D01*
X203953149Y-65196600D01*
X203827672Y-65115496D01*
X203816950Y-65108667D01*
X203475286Y-64890364D01*
X203198733Y-64710179D01*
X202980018Y-64562310D01*
X202811867Y-64440955D01*
X202687008Y-64340314D01*
X202598167Y-64254584D01*
X202538070Y-64177963D01*
X202499446Y-64104649D01*
X202478086Y-64040685D01*
X202417297Y-63831031D01*
X202351111Y-63648431D01*
X202272009Y-63485107D01*
X202172475Y-63333280D01*
X202044991Y-63185172D01*
X201882040Y-63033005D01*
X201676105Y-62868999D01*
X201419667Y-62685377D01*
X201105209Y-62474358D01*
X200728372Y-62230192D01*
X200533051Y-62105456D01*
X200279412Y-61944350D01*
X199980932Y-61755386D01*
X199651085Y-61547076D01*
X199303347Y-61327931D01*
X198951193Y-61106462D01*
X198654038Y-60919975D01*
X198169566Y-60616031D01*
X197743561Y-60348220D01*
X197362558Y-60108021D01*
X197013092Y-59886909D01*
X196681698Y-59676362D01*
X196354912Y-59467857D01*
X196019268Y-59252870D01*
X195947492Y-59206805D01*
X195701150Y-59048657D01*
X196307325Y-58665549D01*
X196527129Y-58526454D01*
X196739047Y-58392031D01*
X196925336Y-58273557D01*
X197068255Y-58182309D01*
X197125167Y-58145734D01*
X197195267Y-58101263D01*
X197335041Y-58013369D01*
X197542310Y-57883412D01*
X197814897Y-57712754D01*
X198150621Y-57502754D01*
X198547305Y-57254774D01*
X199002769Y-56970174D01*
X199514836Y-56650315D01*
X200081325Y-56296557D01*
X200700059Y-55910261D01*
X201368859Y-55492787D01*
X202085545Y-55045497D01*
X202847940Y-54569751D01*
X203653864Y-54066910D01*
X204501139Y-53538333D01*
X205387586Y-52985383D01*
X205888167Y-52673155D01*
X206252372Y-52445913D01*
X206598733Y-52229645D01*
X206919843Y-52028988D01*
X207208295Y-51848578D01*
X207456680Y-51693050D01*
X207657593Y-51567042D01*
X207803626Y-51475187D01*
X207887371Y-51422124D01*
X207899000Y-51414620D01*
X207985483Y-51359068D01*
X208127639Y-51268791D01*
X208309367Y-51153971D01*
X208514564Y-51024792D01*
X208639834Y-50946143D01*
X208902551Y-50779727D01*
X209103801Y-50646731D01*
X209254885Y-50537299D01*
X209367105Y-50441574D01*
X209451765Y-50349699D01*
X209520166Y-50251817D01*
X209583612Y-50138073D01*
X209597484Y-50111012D01*
X209754244Y-49730417D01*
X209828402Y-49368080D01*
X209819860Y-49023244D01*
X209728519Y-48695150D01*
X209554281Y-48383040D01*
X209340227Y-48129037D01*
X209112278Y-47920660D01*
X208887258Y-47772146D01*
X208634355Y-47666413D01*
X208385834Y-47599938D01*
X208206636Y-47563407D01*
X208073151Y-47549256D01*
X207949438Y-47557486D01*
X207799552Y-47588101D01*
X207750834Y-47599982D01*
X207577456Y-47654128D01*
X207399239Y-47726274D01*
X207348834Y-47750723D01*
X207274690Y-47792340D01*
X207136310Y-47873313D01*
X206941678Y-47988809D01*
X206698777Y-48133997D01*
X206415594Y-48304043D01*
X206100111Y-48494117D01*
X205760314Y-48699384D01*
X205404187Y-48915014D01*
X205039714Y-49136174D01*
X204674880Y-49358032D01*
X204317668Y-49575756D01*
X203976065Y-49784513D01*
X203658053Y-49979471D01*
X203371618Y-50155797D01*
X203221167Y-50248824D01*
X202973856Y-50402047D01*
X202713306Y-50563468D01*
X202463832Y-50718023D01*
X202249745Y-50850650D01*
X202162834Y-50904490D01*
X201995425Y-51008226D01*
X201829861Y-51110895D01*
X201660028Y-51216307D01*
X201479809Y-51328268D01*
X201283091Y-51450585D01*
X201063757Y-51587068D01*
X200815693Y-51741522D01*
X200532784Y-51917755D01*
X200208914Y-52119576D01*
X199837968Y-52350791D01*
X199413831Y-52615208D01*
X198930389Y-52916635D01*
X198381526Y-53258880D01*
X198352834Y-53276771D01*
X197689907Y-53690145D01*
X197093653Y-54061925D01*
X196558910Y-54395329D01*
X196080514Y-54693573D01*
X195653301Y-54959874D01*
X195272109Y-55197449D01*
X194931774Y-55409514D01*
X194627133Y-55599287D01*
X194353022Y-55769983D01*
X194104279Y-55924820D01*
X193875739Y-56067013D01*
X193662241Y-56199781D01*
X193458619Y-56326339D01*
X193259712Y-56449905D01*
X193189118Y-56493746D01*
X192385737Y-56992631D01*
X192215452Y-56894690D01*
X192164937Y-56864768D01*
X192079787Y-56813098D01*
X191957130Y-56737899D01*
X191794098Y-56637386D01*
X191587821Y-56509778D01*
X191335428Y-56353289D01*
X191034050Y-56166139D01*
X190680817Y-55946542D01*
X190272859Y-55692717D01*
X189807307Y-55402879D01*
X189281290Y-55075246D01*
X188691938Y-54708035D01*
X188036383Y-54299463D01*
X187346167Y-53869200D01*
X186707393Y-53471104D01*
X186003881Y-53032906D01*
X185242861Y-52559108D01*
X184431562Y-52054209D01*
X183577215Y-51522707D01*
X182687048Y-50969102D01*
X182075667Y-50588977D01*
X181318189Y-50118781D01*
X180630987Y-49693726D01*
X180013080Y-49313221D01*
X179463489Y-48976678D01*
X178981234Y-48683507D01*
X178565334Y-48433120D01*
X178214811Y-48224928D01*
X177928683Y-48058341D01*
X177705971Y-47932772D01*
X177545695Y-47847630D01*
X177446875Y-47802327D01*
X177429390Y-47796506D01*
X177181649Y-47757308D01*
X176898438Y-47759397D01*
X176617232Y-47801077D01*
X176479259Y-47839500D01*
X176150319Y-47985589D01*
X175871992Y-48188663D01*
X175634986Y-48457068D01*
X175445904Y-48768000D01*
X175392003Y-48879087D01*
X175357002Y-48977787D01*
X175336819Y-49087586D01*
X175327371Y-49231975D01*
X175324575Y-49434441D01*
X175324486Y-49466500D01*
X175333667Y-49755361D01*
X175367407Y-49985929D01*
X175432934Y-50182786D01*
X175537474Y-50370513D01*
X175627079Y-50495763D01*
X175674280Y-50545546D01*
X175755832Y-50615038D01*
X175874286Y-50705893D01*
X176032196Y-50819769D01*
X176232113Y-50958321D01*
X176476589Y-51123207D01*
X176768178Y-51316083D01*
X177109433Y-51538604D01*
X177502904Y-51792429D01*
X177951145Y-52079213D01*
X178456708Y-52400612D01*
X179022147Y-52758283D01*
X179650012Y-53153882D01*
X180342857Y-53589067D01*
X181103233Y-54065493D01*
X181779334Y-54488353D01*
X182090349Y-54682721D01*
X182462460Y-54915239D01*
X182884951Y-55179212D01*
X183347103Y-55467944D01*
X183838199Y-55774741D01*
X184347521Y-56092906D01*
X184864351Y-56415744D01*
X185377972Y-56736559D01*
X185877666Y-57048657D01*
X186099821Y-57187404D01*
X186538861Y-57461765D01*
X186958628Y-57724402D01*
X187353341Y-57971677D01*
X187717220Y-58199955D01*
X188044483Y-58405598D01*
X188329349Y-58584971D01*
X188566037Y-58734435D01*
X188748765Y-58850356D01*
X188871752Y-58929096D01*
X188929218Y-58967019D01*
X188931041Y-58968353D01*
X189029273Y-59042450D01*
X188674553Y-59275252D01*
X188320764Y-59506746D01*
X187996002Y-59717565D01*
X187680880Y-59920089D01*
X187356005Y-60126700D01*
X187001989Y-60349778D01*
X186599441Y-60601705D01*
X186499500Y-60664065D01*
X186047290Y-60946883D01*
X185587696Y-61235773D01*
X185134229Y-61522161D01*
X184700402Y-61797477D01*
X184299726Y-62053148D01*
X183945712Y-62280601D01*
X183682534Y-62451247D01*
X183507502Y-62572674D01*
X183341317Y-62700522D01*
X183209524Y-62814634D01*
X183165192Y-62859478D01*
X183005375Y-63073307D01*
X182856007Y-63340939D01*
X182733290Y-63631708D01*
X182694397Y-63750638D01*
X182643774Y-63899242D01*
X182588648Y-64028840D01*
X182559610Y-64081853D01*
X182485282Y-64162527D01*
X182339051Y-64287502D01*
X182121093Y-64456653D01*
X181831580Y-64669857D01*
X181470686Y-64926990D01*
X181038585Y-65227928D01*
X180535451Y-65572547D01*
X179961457Y-65960724D01*
X179345167Y-66373406D01*
X178879806Y-66683631D01*
X178473443Y-66954228D01*
X178114717Y-67192664D01*
X177792263Y-67406406D01*
X177494721Y-67602920D01*
X177210728Y-67789673D01*
X176928922Y-67974132D01*
X176637941Y-68163763D01*
X176326422Y-68366033D01*
X175983003Y-68588410D01*
X175596322Y-68838358D01*
X175471667Y-68918877D01*
X175222155Y-69080048D01*
X174971895Y-69241739D01*
X174738738Y-69392415D01*
X174540534Y-69520539D01*
X174395134Y-69614577D01*
X174392167Y-69616497D01*
X174207762Y-69735310D01*
X173985412Y-69877808D01*
X173758756Y-70022462D01*
X173630167Y-70104203D01*
X173193351Y-70382203D01*
X172822650Y-70620569D01*
X172512011Y-70823943D01*
X172255382Y-70996968D01*
X172046710Y-71144285D01*
X171879943Y-71270538D01*
X171749028Y-71380368D01*
X171647915Y-71478418D01*
X171570549Y-71569330D01*
X171510879Y-71657747D01*
X171462852Y-71748310D01*
X171449804Y-71776605D01*
X171329463Y-72044822D01*
X170730203Y-72058661D01*
X170130944Y-72072500D01*
X169991883Y-72224361D01*
X169895904Y-72359287D01*
X169804981Y-72538155D01*
X169760182Y-72654604D01*
X169697539Y-72821009D01*
X169635811Y-72920436D01*
X169559392Y-72968946D01*
X169452676Y-72982599D01*
X169441414Y-72982667D01*
X169302451Y-73020055D01*
X169189290Y-73115917D01*
X169126894Y-73245800D01*
X169121667Y-73295860D01*
X169134008Y-73344827D01*
X169486169Y-73344827D01*
X169488586Y-73326268D01*
X169560776Y-73300610D01*
X169615993Y-73284796D01*
X169737527Y-73230071D01*
X169859054Y-73143596D01*
X169957058Y-73045995D01*
X170008022Y-72957891D01*
X170010667Y-72938674D01*
X170024545Y-72881220D01*
X170060406Y-72771753D01*
X170096659Y-72671342D01*
X170162142Y-72526549D01*
X170241171Y-72430100D01*
X170349930Y-72374893D01*
X170504602Y-72353826D01*
X170721369Y-72359797D01*
X170794138Y-72365245D01*
X170981089Y-72375563D01*
X171154766Y-72376800D01*
X171283275Y-72368913D01*
X171302545Y-72365907D01*
X171476546Y-72292941D01*
X171624267Y-72154417D01*
X171726771Y-71969124D01*
X171738682Y-71933178D01*
X171816660Y-71775492D01*
X171940943Y-71629802D01*
X171947940Y-71623548D01*
X172039025Y-71552230D01*
X172194642Y-71440809D01*
X172407553Y-71294099D01*
X172670521Y-71116912D01*
X172976307Y-70914064D01*
X173317674Y-70690369D01*
X173687384Y-70450639D01*
X174078200Y-70199689D01*
X174328667Y-70040108D01*
X174575192Y-69883161D01*
X174831611Y-69719307D01*
X175075457Y-69562943D01*
X175284266Y-69428464D01*
X175387000Y-69361923D01*
X175583900Y-69234028D01*
X175821733Y-69079662D01*
X176070366Y-68918379D01*
X176297167Y-68771350D01*
X177058566Y-68276507D01*
X177787944Y-67799587D01*
X178481667Y-67343051D01*
X179136100Y-66909358D01*
X179747609Y-66500968D01*
X180312561Y-66120341D01*
X180827321Y-65769937D01*
X181288255Y-65452216D01*
X181691728Y-65169637D01*
X182034107Y-64924661D01*
X182311758Y-64719748D01*
X182511952Y-64564677D01*
X182669833Y-64432421D01*
X182781002Y-64319165D01*
X182862625Y-64199766D01*
X182931866Y-64049079D01*
X183005891Y-63841961D01*
X183006434Y-63840348D01*
X183132774Y-63515190D01*
X183270741Y-63250916D01*
X183412688Y-63060967D01*
X183453766Y-63021170D01*
X183510164Y-62973470D01*
X183586311Y-62914989D01*
X183686634Y-62842849D01*
X183815562Y-62754173D01*
X183977524Y-62646084D01*
X184176948Y-62515704D01*
X184418262Y-62360156D01*
X184705895Y-62176562D01*
X185044275Y-61962044D01*
X185437830Y-61713727D01*
X185890989Y-61428731D01*
X186408181Y-61104180D01*
X186859334Y-60821442D01*
X187393341Y-60485374D01*
X187870506Y-60181875D01*
X188288703Y-59912361D01*
X188645807Y-59678250D01*
X188939693Y-59480959D01*
X189168237Y-59321905D01*
X189329313Y-59202505D01*
X189420797Y-59124176D01*
X189440028Y-59100396D01*
X189465604Y-59027477D01*
X189450812Y-58959799D01*
X189386260Y-58885020D01*
X189262558Y-58790799D01*
X189144975Y-58712629D01*
X189074893Y-58668093D01*
X188938960Y-58582471D01*
X188743154Y-58459499D01*
X188493451Y-58302913D01*
X188195830Y-58116451D01*
X187856269Y-57903848D01*
X187480743Y-57668841D01*
X187075232Y-57415166D01*
X186645713Y-57146560D01*
X186198164Y-56866760D01*
X185738561Y-56579501D01*
X185272883Y-56288521D01*
X184807106Y-55997555D01*
X184347210Y-55710341D01*
X183899171Y-55430614D01*
X183468966Y-55162111D01*
X183062574Y-54908569D01*
X182685971Y-54673724D01*
X182345136Y-54461312D01*
X182046046Y-54275070D01*
X181991000Y-54240816D01*
X181768700Y-54102113D01*
X181495720Y-53931180D01*
X181192899Y-53741102D01*
X180881076Y-53544966D01*
X180581090Y-53355855D01*
X180488167Y-53297171D01*
X180226327Y-53131884D01*
X179973265Y-52972426D01*
X179742611Y-52827363D01*
X179547991Y-52705260D01*
X179403035Y-52614684D01*
X179345167Y-52578786D01*
X179153428Y-52459279D01*
X178904750Y-52302407D01*
X178613066Y-52117120D01*
X178292313Y-51912368D01*
X177956424Y-51697102D01*
X177619336Y-51480274D01*
X177294982Y-51270832D01*
X176997299Y-51077729D01*
X176740220Y-50909915D01*
X176537681Y-50776340D01*
X176502739Y-50753048D01*
X176220123Y-50556889D01*
X176004444Y-50386263D01*
X175847097Y-50228472D01*
X175739478Y-50070813D01*
X175672983Y-49900584D01*
X175639009Y-49705086D01*
X175628949Y-49471617D01*
X175628926Y-49463173D01*
X175632464Y-49278568D01*
X175649210Y-49143794D01*
X175687143Y-49024178D01*
X175754246Y-48885047D01*
X175767962Y-48859147D01*
X175968916Y-48561931D01*
X176216344Y-48331953D01*
X176504024Y-48173105D01*
X176825731Y-48089279D01*
X177019365Y-48076556D01*
X177185732Y-48081054D01*
X177312736Y-48100994D01*
X177435747Y-48146047D01*
X177590139Y-48225882D01*
X177613982Y-48239109D01*
X177703831Y-48291240D01*
X177857369Y-48382716D01*
X178066229Y-48508424D01*
X178322044Y-48663251D01*
X178616446Y-48842084D01*
X178941071Y-49039812D01*
X179287550Y-49251320D01*
X179647517Y-49471496D01*
X180012606Y-49695228D01*
X180374449Y-49917402D01*
X180724680Y-50132906D01*
X181054932Y-50336626D01*
X181356838Y-50523451D01*
X181622032Y-50688267D01*
X181631167Y-50693961D01*
X181786105Y-50790475D01*
X181997503Y-50922047D01*
X182249900Y-51079061D01*
X182527836Y-51251900D01*
X182815851Y-51430948D01*
X183028167Y-51562897D01*
X183956965Y-52140247D01*
X184902354Y-52728331D01*
X185872910Y-53332489D01*
X186877205Y-53958065D01*
X187923814Y-54610399D01*
X189021311Y-55294832D01*
X190178270Y-56016707D01*
X190690500Y-56336410D01*
X191017476Y-56540168D01*
X191324606Y-56730910D01*
X191603932Y-56903742D01*
X191847499Y-57053768D01*
X192047347Y-57176095D01*
X192195520Y-57265829D01*
X192284061Y-57318074D01*
X192303957Y-57328830D01*
X192343441Y-57336449D01*
X192400766Y-57325161D01*
X192485220Y-57290200D01*
X192606092Y-57226799D01*
X192772671Y-57130190D01*
X192994245Y-56995607D01*
X193192957Y-56872571D01*
X193792755Y-56499408D01*
X194330553Y-56164773D01*
X194816257Y-55862495D01*
X195259772Y-55586403D01*
X195671005Y-55330326D01*
X196059862Y-55088094D01*
X196436248Y-54853535D01*
X196810071Y-54620480D01*
X197191234Y-54382756D01*
X197589646Y-54134195D01*
X198014167Y-53869275D01*
X198739246Y-53416820D01*
X199413316Y-52996340D01*
X200034194Y-52609196D01*
X200599698Y-52256745D01*
X201107646Y-51940347D01*
X201555853Y-51661361D01*
X201942138Y-51421145D01*
X202264317Y-51221059D01*
X202520208Y-51062461D01*
X202707628Y-50946711D01*
X202776667Y-50904295D01*
X202916597Y-50818436D01*
X203113220Y-50697599D01*
X203351162Y-50551242D01*
X203615046Y-50388825D01*
X203889499Y-50219806D01*
X204046667Y-50122969D01*
X204680871Y-49732711D01*
X205246417Y-49385946D01*
X205746223Y-49080943D01*
X206183205Y-48815966D01*
X206560280Y-48589283D01*
X206880365Y-48399160D01*
X207146376Y-48243863D01*
X207361231Y-48121660D01*
X207527846Y-48030815D01*
X207649139Y-47969597D01*
X207723064Y-47938002D01*
X207990580Y-47885429D01*
X208287830Y-47909211D01*
X208503586Y-47967283D01*
X208816356Y-48104514D01*
X209067056Y-48290446D01*
X209268695Y-48536693D01*
X209392080Y-48760565D01*
X209461480Y-48919424D01*
X209496479Y-49045543D01*
X209504892Y-49179572D01*
X209498237Y-49312790D01*
X209459149Y-49556015D01*
X209382477Y-49801996D01*
X209279141Y-50023559D01*
X209160060Y-50193532D01*
X209133344Y-50220821D01*
X209080122Y-50262885D01*
X208977066Y-50335013D01*
X208821882Y-50438666D01*
X208612273Y-50575307D01*
X208345946Y-50746397D01*
X208020605Y-50953398D01*
X207633955Y-51197772D01*
X207183701Y-51480980D01*
X206667549Y-51804485D01*
X206083204Y-52169748D01*
X205613000Y-52463131D01*
X204566755Y-53115569D01*
X203590192Y-53724676D01*
X202681102Y-54291845D01*
X201837274Y-54818464D01*
X201056497Y-55305924D01*
X200336561Y-55755614D01*
X199675256Y-56168925D01*
X199070371Y-56547246D01*
X198519696Y-56891967D01*
X198021020Y-57204479D01*
X197572134Y-57486170D01*
X197170825Y-57738432D01*
X196814885Y-57962654D01*
X196502102Y-58160226D01*
X196230267Y-58332538D01*
X195997168Y-58480980D01*
X195800596Y-58606942D01*
X195638339Y-58711814D01*
X195508188Y-58796985D01*
X195407932Y-58863846D01*
X195335361Y-58913786D01*
X195288264Y-58948196D01*
X195264430Y-58968466D01*
X195261191Y-58972452D01*
X195247305Y-58997387D01*
X195240285Y-59022596D01*
X195244324Y-59050973D01*
X195263615Y-59085412D01*
X195302352Y-59128807D01*
X195364726Y-59184052D01*
X195454931Y-59254040D01*
X195577159Y-59341665D01*
X195735604Y-59449820D01*
X195934458Y-59581401D01*
X196177915Y-59739300D01*
X196470166Y-59926411D01*
X196815406Y-60145628D01*
X197217826Y-60399845D01*
X197681620Y-60691955D01*
X198210981Y-61024853D01*
X198479834Y-61193846D01*
X199023353Y-61535753D01*
X199499900Y-61836222D01*
X199914422Y-62098499D01*
X200271865Y-62325825D01*
X200577176Y-62521443D01*
X200835301Y-62688597D01*
X201051186Y-62830529D01*
X201229778Y-62950482D01*
X201376022Y-63051699D01*
X201494866Y-63137423D01*
X201591256Y-63210898D01*
X201670138Y-63275365D01*
X201716396Y-63315798D01*
X201847873Y-63457856D01*
X201969846Y-63631125D01*
X202068248Y-63811042D01*
X202129012Y-63973047D01*
X202141667Y-64058355D01*
X202177659Y-64201763D01*
X202278162Y-64368152D01*
X202431962Y-64542625D01*
X202627850Y-64710288D01*
X202638087Y-64717885D01*
X202780989Y-64819312D01*
X202973297Y-64950338D01*
X203192498Y-65095887D01*
X203416080Y-65240879D01*
X203475167Y-65278540D01*
X203655338Y-65393077D01*
X203832598Y-65506223D01*
X204011183Y-65620776D01*
X204195327Y-65739537D01*
X204389263Y-65865306D01*
X204597225Y-66000883D01*
X204823449Y-66149067D01*
X205072168Y-66312659D01*
X205347616Y-66494458D01*
X205654027Y-66697266D01*
X205995637Y-66923880D01*
X206376678Y-67177102D01*
X206801384Y-67459732D01*
X207273992Y-67774569D01*
X207798733Y-68124414D01*
X208379843Y-68512066D01*
X209021556Y-68940325D01*
X209728106Y-69411992D01*
X209959637Y-69566574D01*
X210536206Y-69951953D01*
X211095616Y-70326681D01*
X211633573Y-70687843D01*
X212145783Y-71032521D01*
X212627952Y-71357800D01*
X213075788Y-71660764D01*
X213484996Y-71938495D01*
X213851283Y-72188078D01*
X214170354Y-72406595D01*
X214437917Y-72591132D01*
X214649677Y-72738771D01*
X214801340Y-72846595D01*
X214888614Y-72911690D01*
X214905120Y-72925667D01*
X215094791Y-73143825D01*
X215209995Y-73371627D01*
X215260133Y-73630313D01*
X215264070Y-73736582D01*
X215259064Y-73873259D01*
X215244830Y-73959771D01*
X215226262Y-73979723D01*
X215192984Y-73930759D01*
X215141724Y-73824326D01*
X215083101Y-73682642D01*
X215078357Y-73670308D01*
X214982791Y-73454064D01*
X214866477Y-73262184D01*
X214719278Y-73085111D01*
X214531057Y-72913292D01*
X214291679Y-72737169D01*
X213991008Y-72547187D01*
X213721463Y-72391143D01*
X213557462Y-72297813D01*
X213332765Y-72168609D01*
X213059619Y-72010644D01*
X212750274Y-71831027D01*
X212416975Y-71636871D01*
X212071971Y-71435287D01*
X211731796Y-71235902D01*
X210926330Y-70763200D01*
X210188769Y-70330791D01*
X209514174Y-69935822D01*
X208897601Y-69575441D01*
X208334109Y-69246794D01*
X207818756Y-68947029D01*
X207346601Y-68673292D01*
X206912700Y-68422732D01*
X206512114Y-68192494D01*
X206139899Y-67979726D01*
X205791114Y-67781575D01*
X205460818Y-67595188D01*
X205144067Y-67417713D01*
X204835921Y-67246296D01*
X204531438Y-67078085D01*
X204491167Y-67055919D01*
X204243026Y-66919250D01*
X203997793Y-66783922D01*
X203773856Y-66660103D01*
X203589606Y-66557958D01*
X203475167Y-66494224D01*
X203342009Y-66422038D01*
X203151011Y-66321581D01*
X202920193Y-66202177D01*
X202667575Y-66073149D01*
X202416834Y-65946654D01*
X201654834Y-65564830D01*
X201379667Y-65599592D01*
X201203086Y-65616265D01*
X200983579Y-65629069D01*
X200762869Y-65635698D01*
X200719227Y-65636094D01*
X200333953Y-65637834D01*
X199428060Y-65092061D01*
X199203695Y-64956777D01*
X198997842Y-64832351D01*
X198801622Y-64713323D01*
X198606154Y-64594233D01*
X198402559Y-64469621D01*
X198181956Y-64334027D01*
X197935466Y-64181991D01*
X197654209Y-64008053D01*
X197329304Y-63806753D01*
X196951873Y-63572631D01*
X196513034Y-63300227D01*
X196426667Y-63246602D01*
X196145974Y-63072351D01*
X195814632Y-62866716D01*
X195453954Y-62642918D01*
X195085252Y-62414183D01*
X194729840Y-62193732D01*
X194479334Y-62038382D01*
X194045879Y-61769385D01*
X193678789Y-61541391D01*
X193372205Y-61351218D01*
X193120269Y-61195682D01*
X192917123Y-61071599D01*
X192756909Y-60975787D01*
X192633771Y-60905061D01*
X192541849Y-60856240D01*
X192475287Y-60826138D01*
X192428226Y-60811573D01*
X192394809Y-60809362D01*
X192369178Y-60816321D01*
X192345475Y-60829266D01*
X192317842Y-60845015D01*
X192299167Y-60853588D01*
X192197938Y-60901790D01*
X192039315Y-60987257D01*
X191822014Y-61110770D01*
X191544747Y-61273107D01*
X191206231Y-61475049D01*
X190805180Y-61717376D01*
X190340308Y-62000867D01*
X189810330Y-62326303D01*
X189213961Y-62694462D01*
X188549916Y-63106125D01*
X187816909Y-63562071D01*
X187176834Y-63961204D01*
X186640091Y-64294822D01*
X186173090Y-64582078D01*
X185775035Y-64823442D01*
X185445133Y-65019385D01*
X185182589Y-65170374D01*
X184986608Y-65276882D01*
X184856396Y-65339376D01*
X184827334Y-65350555D01*
X184684356Y-65393980D01*
X184541450Y-65422301D01*
X184374262Y-65438448D01*
X184158438Y-65445353D01*
X184032248Y-65446241D01*
X183803529Y-65449700D01*
X183610323Y-65462348D01*
X183436096Y-65489179D01*
X183264318Y-65535187D01*
X183078455Y-65605368D01*
X182861975Y-65704715D01*
X182598345Y-65838223D01*
X182413643Y-65935224D01*
X181924362Y-66196189D01*
X181391963Y-66484085D01*
X180823253Y-66795010D01*
X180225042Y-67125066D01*
X179604137Y-67470353D01*
X178967348Y-67826971D01*
X178321482Y-68191021D01*
X177673348Y-68558603D01*
X177029755Y-68925817D01*
X176397510Y-69288765D01*
X175783423Y-69643545D01*
X175194301Y-69986260D01*
X174636953Y-70313009D01*
X174118188Y-70619892D01*
X173644813Y-70903011D01*
X173223638Y-71158465D01*
X172861471Y-71382355D01*
X172565119Y-71570781D01*
X172499042Y-71613907D01*
X172258511Y-71780854D01*
X172082702Y-71926374D01*
X171959069Y-72063659D01*
X171875067Y-72205896D01*
X171833829Y-72313272D01*
X171776264Y-72449877D01*
X171703955Y-72570762D01*
X171698518Y-72577855D01*
X171660374Y-72622349D01*
X171617987Y-72652637D01*
X171555517Y-72671448D01*
X171457122Y-72681515D01*
X171306961Y-72685566D01*
X171089195Y-72686333D01*
X171069176Y-72686334D01*
X170844499Y-72687117D01*
X170687338Y-72691351D01*
X170580544Y-72701862D01*
X170506969Y-72721477D01*
X170449464Y-72753024D01*
X170392633Y-72797851D01*
X170299127Y-72892109D01*
X170186861Y-73027188D01*
X170091474Y-73157684D01*
X169997329Y-73289687D01*
X169927441Y-73364187D01*
X169862772Y-73396439D01*
X169786839Y-73401781D01*
X169652379Y-73388440D01*
X169545000Y-73366042D01*
X169486169Y-73344827D01*
X169134008Y-73344827D01*
X169160649Y-73450533D01*
X169271048Y-73574874D01*
X169443045Y-73662402D01*
X169666819Y-73706638D01*
X169750201Y-73710629D01*
X169928751Y-73703855D01*
X170061262Y-73668460D01*
X170171716Y-73590750D01*
X170284094Y-73457028D01*
X170343993Y-73371531D01*
X170444734Y-73225664D01*
X170527128Y-73124592D01*
X170609810Y-73060100D01*
X170711415Y-73023973D01*
X170850578Y-73007994D01*
X171045936Y-73003949D01*
X171178023Y-73003834D01*
X171434388Y-73000279D01*
X171623614Y-72983228D01*
X171763138Y-72943098D01*
X171870399Y-72870308D01*
X171962832Y-72755276D01*
X172057877Y-72588422D01*
X172106167Y-72493833D01*
X172153569Y-72401217D01*
X172199806Y-72319590D01*
X172251356Y-72244188D01*
X172314701Y-72170250D01*
X172396320Y-72093013D01*
X172502693Y-72007713D01*
X172640300Y-71909590D01*
X172815621Y-71793880D01*
X173035136Y-71655820D01*
X173305325Y-71490648D01*
X173632667Y-71293602D01*
X174023643Y-71059919D01*
X174201667Y-70953711D01*
X174493533Y-70779858D01*
X174770974Y-70615196D01*
X175042375Y-70454852D01*
X175316117Y-70293956D01*
X175600584Y-70127635D01*
X175904158Y-69951017D01*
X176235223Y-69759232D01*
X176602160Y-69547408D01*
X177013353Y-69310672D01*
X177477186Y-69044155D01*
X178002039Y-68742983D01*
X178286834Y-68579677D01*
X178490080Y-68463804D01*
X178737240Y-68323878D01*
X178998184Y-68176909D01*
X179242782Y-68039905D01*
X179260500Y-68030019D01*
X179520905Y-67884765D01*
X179817843Y-67719115D01*
X180113915Y-67553935D01*
X180361167Y-67415979D01*
X180958869Y-67084547D01*
X181501641Y-66787864D01*
X181987109Y-66527151D01*
X182412903Y-66303627D01*
X182776651Y-66118512D01*
X183075983Y-65973025D01*
X183308525Y-65868386D01*
X183471908Y-65805815D01*
X183517101Y-65792902D01*
X183639577Y-65774044D01*
X183819819Y-65759235D01*
X184030956Y-65750242D01*
X184194434Y-65748380D01*
X184498285Y-65740802D01*
X184744805Y-65712296D01*
X184959848Y-65657707D01*
X185169268Y-65571881D01*
X185229500Y-65542020D01*
X185262367Y-65523841D01*
X185319794Y-65490107D01*
X185405205Y-65438694D01*
X185522020Y-65367479D01*
X185673661Y-65274340D01*
X185863552Y-65157155D01*
X186095114Y-65013800D01*
X186371768Y-64842153D01*
X186696937Y-64640090D01*
X187074043Y-64405489D01*
X187506509Y-64136228D01*
X187997755Y-63830183D01*
X188551204Y-63485232D01*
X189170278Y-63099252D01*
X189719129Y-62756980D01*
X189866909Y-62665889D01*
X190073678Y-62539936D01*
X190325591Y-62387428D01*
X190608801Y-62216670D01*
X190909463Y-62035968D01*
X191213730Y-61853628D01*
X191507756Y-61677955D01*
X191777696Y-61517257D01*
X192009704Y-61379838D01*
X192189932Y-61274004D01*
X192232889Y-61249044D01*
X192420611Y-61140375D01*
X192846722Y-61404643D01*
X193010223Y-61506130D01*
X193228236Y-61641580D01*
X193483401Y-61800200D01*
X193758360Y-61971199D01*
X194035752Y-62143784D01*
X194140667Y-62209080D01*
X194423214Y-62384867D01*
X194718372Y-62568362D01*
X195006538Y-62747387D01*
X195268108Y-62909765D01*
X195483480Y-63043318D01*
X195537667Y-63076880D01*
X195789745Y-63232972D01*
X196077162Y-63410974D01*
X196363288Y-63588199D01*
X196596000Y-63732364D01*
X197188543Y-64099244D01*
X197713657Y-64423796D01*
X198175688Y-64708598D01*
X198578983Y-64956227D01*
X198927891Y-65169261D01*
X199226758Y-65350278D01*
X199479931Y-65501854D01*
X199691758Y-65626569D01*
X199866586Y-65726999D01*
X200008761Y-65805722D01*
X200122632Y-65865316D01*
X200212546Y-65908358D01*
X200282849Y-65937426D01*
X200337890Y-65955098D01*
X200349552Y-65957986D01*
X200623187Y-65992371D01*
X200935205Y-65983294D01*
X201251927Y-65931738D01*
X201252481Y-65931607D01*
X201527462Y-65866799D01*
X202082465Y-66139477D01*
X202279436Y-66238393D01*
X202532248Y-66368615D01*
X202822614Y-66520536D01*
X203132248Y-66684551D01*
X203442864Y-66851054D01*
X203627817Y-66951266D01*
X203917623Y-67109325D01*
X204198497Y-67263215D01*
X204475019Y-67415570D01*
X204751770Y-67569026D01*
X205033330Y-67726218D01*
X205324280Y-67889780D01*
X205629200Y-68062349D01*
X205952671Y-68246558D01*
X206299273Y-68445044D01*
X206673586Y-68660440D01*
X207080191Y-68895383D01*
X207523669Y-69152507D01*
X208008599Y-69434448D01*
X208539563Y-69743840D01*
X209121140Y-70083319D01*
X209757912Y-70455520D01*
X210454459Y-70863077D01*
X211215360Y-71308626D01*
X211941834Y-71734233D01*
X212268338Y-71925220D01*
X212588120Y-72111655D01*
X212889861Y-72286984D01*
X213162245Y-72444654D01*
X213393952Y-72578111D01*
X213573666Y-72680803D01*
X213677500Y-72739235D01*
X214003268Y-72929396D01*
X214259073Y-73102723D01*
X214455261Y-73269191D01*
X214602178Y-73438774D01*
X214710172Y-73621447D01*
X214782335Y-73804356D01*
X214875280Y-74024104D01*
X214992800Y-74200931D01*
X215122251Y-74317392D01*
X215172258Y-74342311D01*
X215329290Y-74369675D01*
X215452028Y-74321504D01*
G36*
X192107424Y-91304297D02*
X192905855Y-91233571D01*
X193679362Y-91111816D01*
X194450012Y-90935098D01*
X195239874Y-90699483D01*
X195716753Y-90533832D01*
X196614136Y-90165186D01*
X197474146Y-89727279D01*
X198291520Y-89224397D01*
X199060992Y-88660822D01*
X199777299Y-88040839D01*
X200435178Y-87368732D01*
X201029364Y-86648785D01*
X201554593Y-85885282D01*
X201677863Y-85682438D01*
X202108952Y-84876351D01*
X202463374Y-84046990D01*
X202740041Y-83199716D01*
X202937865Y-82339890D01*
X203055757Y-81472872D01*
X203092629Y-80604023D01*
X203047393Y-79738704D01*
X202984278Y-79248000D01*
X202891495Y-78762554D01*
X202761416Y-78234434D01*
X202602348Y-77692303D01*
X202422602Y-77164822D01*
X202260163Y-76750334D01*
X201892757Y-75982561D01*
X201442712Y-75230745D01*
X200910759Y-74496075D01*
X200765831Y-74316167D01*
X200513122Y-74025358D01*
X200213037Y-73706945D01*
X199883956Y-73378582D01*
X199544263Y-73057923D01*
X199212337Y-72762623D01*
X198906561Y-72510337D01*
X198802622Y-72430598D01*
X198331667Y-72078275D01*
X198331422Y-69387221D01*
X198330718Y-68873645D01*
X198328768Y-68390293D01*
X198325670Y-67944110D01*
X198321523Y-67542043D01*
X198316424Y-67191039D01*
X198310472Y-66898044D01*
X198303765Y-66670006D01*
X198296401Y-66513871D01*
X198289803Y-66443504D01*
X198252981Y-66277452D01*
X198195638Y-66156442D01*
X198098335Y-66040856D01*
X198086237Y-66028649D01*
X197975591Y-65930536D01*
X197867406Y-65873188D01*
X197724052Y-65838829D01*
X197665538Y-65829918D01*
X197359316Y-65809673D01*
X197077718Y-65835184D01*
X196833998Y-65902616D01*
X196641410Y-66008134D01*
X196513210Y-66147902D01*
X196503077Y-66166225D01*
X196490492Y-66208255D01*
X196479598Y-66286105D01*
X196470239Y-66405467D01*
X196462261Y-66572033D01*
X196455509Y-66791495D01*
X196449827Y-67069545D01*
X196445060Y-67411876D01*
X196441054Y-67824178D01*
X196439327Y-68072000D01*
X196765334Y-68072000D01*
X196765334Y-67203753D01*
X196765783Y-66910524D01*
X196767843Y-66690224D01*
X196772576Y-66531120D01*
X196781046Y-66421476D01*
X196794319Y-66349558D01*
X196813458Y-66303630D01*
X196839528Y-66271958D01*
X196850757Y-66261836D01*
X196983924Y-66190200D01*
X197170117Y-66144559D01*
X197381065Y-66127264D01*
X197588496Y-66140663D01*
X197761796Y-66186120D01*
X197882352Y-66263893D01*
X197950936Y-66358209D01*
X197964250Y-66434623D01*
X197975830Y-66580167D01*
X197984958Y-66779313D01*
X197990920Y-67016529D01*
X197993000Y-67270423D01*
X197993000Y-68072000D01*
X196765334Y-68072000D01*
X196439327Y-68072000D01*
X196437653Y-68312145D01*
X196435893Y-68632917D01*
X196423952Y-70993000D01*
X195920729Y-70993000D01*
X195909115Y-68632917D01*
X195897500Y-66272834D01*
X195795855Y-66130317D01*
X195645404Y-65979812D01*
X195442927Y-65882478D01*
X195180649Y-65835262D01*
X195029667Y-65829500D01*
X194756342Y-65840923D01*
X194544582Y-65880446D01*
X194374263Y-65953907D01*
X194231920Y-66060994D01*
X194077167Y-66202801D01*
X194059226Y-68834000D01*
X194352334Y-68834000D01*
X194352982Y-67616917D01*
X194354193Y-67303013D01*
X194357297Y-67016033D01*
X194362014Y-66767070D01*
X194368064Y-66567220D01*
X194375169Y-66427577D01*
X194383050Y-66359236D01*
X194384732Y-66355047D01*
X194473226Y-66264021D01*
X194597979Y-66205658D01*
X194774999Y-66175000D01*
X194992063Y-66167000D01*
X195188180Y-66171073D01*
X195319930Y-66185481D01*
X195407318Y-66213512D01*
X195452340Y-66242620D01*
X195498875Y-66291185D01*
X195536116Y-66359481D01*
X195565062Y-66456551D01*
X195586711Y-66591441D01*
X195602063Y-66773194D01*
X195612117Y-67010854D01*
X195617871Y-67313467D01*
X195620324Y-67690074D01*
X195620490Y-67765084D01*
X195622334Y-68834000D01*
X194352334Y-68834000D01*
X194059226Y-68834000D01*
X194056000Y-69306984D01*
X194034834Y-72411167D01*
X193484500Y-72411167D01*
X193463334Y-69313015D01*
X193442167Y-66214863D01*
X193315167Y-66081319D01*
X193187848Y-65962407D01*
X193060757Y-65884461D01*
X192910985Y-65839578D01*
X192715623Y-65819858D01*
X192548230Y-65816788D01*
X192336447Y-65821342D01*
X192182260Y-65837823D01*
X192058946Y-65870461D01*
X191970218Y-65908296D01*
X191902103Y-65939030D01*
X191843466Y-65964571D01*
X191793560Y-65991091D01*
X191751634Y-66024765D01*
X191716941Y-66071768D01*
X191688731Y-66138273D01*
X191666256Y-66230455D01*
X191648766Y-66354487D01*
X191635513Y-66516544D01*
X191625747Y-66722799D01*
X191618719Y-66979428D01*
X191616592Y-67111687D01*
X191903139Y-67111687D01*
X191903780Y-66861817D01*
X191906595Y-66670537D01*
X191911924Y-66529159D01*
X191920107Y-66428993D01*
X191931484Y-66361350D01*
X191946395Y-66317539D01*
X191965179Y-66288873D01*
X191967077Y-66286733D01*
X192082872Y-66202941D01*
X192252984Y-66153586D01*
X192487978Y-66136195D01*
X192604056Y-66137684D01*
X192770344Y-66146541D01*
X192879571Y-66165922D01*
X192959321Y-66204295D01*
X193037173Y-66270126D01*
X193037972Y-66270891D01*
X193167000Y-66394508D01*
X193167000Y-69301931D01*
X192542584Y-69290216D01*
X191918167Y-69278500D01*
X191907020Y-67821957D01*
X191904332Y-67428837D01*
X191903139Y-67111687D01*
X191616592Y-67111687D01*
X191613682Y-67292603D01*
X191609885Y-67668500D01*
X191606580Y-68113292D01*
X191603018Y-68633153D01*
X191600667Y-68954842D01*
X191579500Y-71733834D01*
X191272584Y-71746272D01*
X190965667Y-71758710D01*
X190965667Y-70973688D01*
X190965075Y-70695778D01*
X190962481Y-70489911D01*
X190956656Y-70343467D01*
X190946371Y-70243827D01*
X190930399Y-70178371D01*
X190907509Y-70134479D01*
X190881000Y-70104000D01*
X190788843Y-70040575D01*
X190711667Y-70019334D01*
X190675289Y-70014171D01*
X190651144Y-69989132D01*
X190636740Y-69929894D01*
X190629586Y-69822132D01*
X190627191Y-69651522D01*
X190627000Y-69532500D01*
X190627898Y-69323328D01*
X190632253Y-69184492D01*
X190642555Y-69101669D01*
X190661296Y-69060536D01*
X190690967Y-69046767D01*
X190711667Y-69045667D01*
X190803824Y-69016936D01*
X190881000Y-68961000D01*
X190906379Y-68931765D01*
X190926079Y-68894170D01*
X190940786Y-68838037D01*
X190951189Y-68753190D01*
X190957974Y-68629454D01*
X190961827Y-68456650D01*
X190963435Y-68224604D01*
X190963486Y-67923138D01*
X190963143Y-67743917D01*
X190961618Y-67348811D01*
X190958089Y-67028686D01*
X190951210Y-66773860D01*
X190939638Y-66574649D01*
X190922026Y-66421371D01*
X190897031Y-66304343D01*
X190863307Y-66213882D01*
X190819509Y-66140306D01*
X190764292Y-66073931D01*
X190725653Y-66034065D01*
X190613040Y-65933295D01*
X190505704Y-65874713D01*
X190365548Y-65840070D01*
X190299538Y-65829918D01*
X190080669Y-65813665D01*
X189851784Y-65821065D01*
X189637377Y-65849130D01*
X189461940Y-65894872D01*
X189363515Y-65944091D01*
X189258809Y-66038377D01*
X189169116Y-66140944D01*
X189144551Y-66177189D01*
X189125082Y-66219199D01*
X189110117Y-66276598D01*
X189099067Y-66359009D01*
X189091339Y-66476055D01*
X189086343Y-66637361D01*
X189083488Y-66852548D01*
X189082184Y-67131241D01*
X189081839Y-67483063D01*
X189081834Y-67562609D01*
X189082111Y-67930804D01*
X189082686Y-68072000D01*
X189399334Y-68072000D01*
X189399334Y-67211546D01*
X189399664Y-66920720D01*
X189401458Y-66702567D01*
X189405920Y-66545095D01*
X189414253Y-66436309D01*
X189427663Y-66364217D01*
X189447351Y-66316827D01*
X189474524Y-66282144D01*
X189494584Y-66262757D01*
X189622471Y-66189961D01*
X189804032Y-66143556D01*
X190011759Y-66125880D01*
X190218148Y-66139274D01*
X190395692Y-66186076D01*
X190395796Y-66186120D01*
X190516352Y-66263893D01*
X190584936Y-66358209D01*
X190598250Y-66434623D01*
X190609830Y-66580167D01*
X190618958Y-66779313D01*
X190624920Y-67016529D01*
X190627000Y-67270423D01*
X190627000Y-68072000D01*
X189399334Y-68072000D01*
X189082686Y-68072000D01*
X189083306Y-68223740D01*
X189085962Y-68450823D01*
X189090625Y-68621460D01*
X189097837Y-68745058D01*
X189108144Y-68831023D01*
X189122090Y-68888762D01*
X189140218Y-68927681D01*
X189162478Y-68956531D01*
X189248514Y-69022838D01*
X189321228Y-69045667D01*
X189355018Y-69052472D01*
X189377405Y-69082391D01*
X189390701Y-69149682D01*
X189397212Y-69268601D01*
X189399249Y-69453406D01*
X189399334Y-69527911D01*
X189398732Y-69735665D01*
X189394818Y-69874037D01*
X189384427Y-69958314D01*
X189364395Y-70003780D01*
X189331558Y-70025721D01*
X189294036Y-70036583D01*
X189195372Y-70090570D01*
X189114119Y-70176897D01*
X189090205Y-70220700D01*
X189072347Y-70276775D01*
X189059935Y-70356407D01*
X189054265Y-70442069D01*
X189382677Y-70442069D01*
X189384165Y-70421135D01*
X189441051Y-70362085D01*
X189510824Y-70331631D01*
X189593971Y-70301132D01*
X189654358Y-70249501D01*
X189695466Y-70164495D01*
X189720775Y-70033868D01*
X189733767Y-69845376D01*
X189737922Y-69586772D01*
X189738000Y-69532500D01*
X189735093Y-69260445D01*
X189723997Y-69060625D01*
X189701147Y-68920739D01*
X189662978Y-68828483D01*
X189605926Y-68771552D01*
X189526428Y-68737644D01*
X189506154Y-68732198D01*
X189426224Y-68690922D01*
X189399334Y-68642694D01*
X189411526Y-68617747D01*
X189456004Y-68600235D01*
X189544621Y-68588946D01*
X189689230Y-68582670D01*
X189901684Y-68580197D01*
X190013167Y-68580000D01*
X190259697Y-68581417D01*
X190432943Y-68586399D01*
X190544248Y-68596042D01*
X190604958Y-68611444D01*
X190626418Y-68633703D01*
X190627000Y-68639359D01*
X190591123Y-68693314D01*
X190504506Y-68741403D01*
X190501490Y-68742471D01*
X190430229Y-68777408D01*
X190378757Y-68833325D01*
X190344011Y-68922827D01*
X190322929Y-69058516D01*
X190312448Y-69252996D01*
X190309504Y-69518870D01*
X190309500Y-69532500D01*
X190312232Y-69802212D01*
X190322426Y-69999910D01*
X190343079Y-70138126D01*
X190377187Y-70229395D01*
X190427747Y-70286251D01*
X190497755Y-70321228D01*
X190498096Y-70321347D01*
X190592750Y-70370328D01*
X190643444Y-70424459D01*
X190640681Y-70447813D01*
X190604287Y-70464446D01*
X190523270Y-70475415D01*
X190386634Y-70481774D01*
X190183386Y-70484581D01*
X190013167Y-70485000D01*
X189762966Y-70484048D01*
X189586118Y-70480426D01*
X189471321Y-70472987D01*
X189407274Y-70460584D01*
X189382677Y-70442069D01*
X189054265Y-70442069D01*
X189052357Y-70470885D01*
X189049004Y-70631494D01*
X189049263Y-70849523D01*
X189052525Y-71136259D01*
X189054597Y-71276891D01*
X189069694Y-72263000D01*
X188552667Y-72263000D01*
X188552667Y-69352304D01*
X188552060Y-68778065D01*
X188550281Y-68251504D01*
X188547394Y-67777312D01*
X188543462Y-67360182D01*
X188538549Y-67004806D01*
X188532718Y-66715873D01*
X188526033Y-66498077D01*
X188518556Y-66356109D01*
X188511344Y-66297526D01*
X188417686Y-66109184D01*
X188264967Y-65952152D01*
X188171667Y-65893464D01*
X188040184Y-65851530D01*
X187854020Y-65823302D01*
X187642391Y-65811112D01*
X187434515Y-65817291D01*
X187344530Y-65827483D01*
X187081512Y-65893894D01*
X186888055Y-66005234D01*
X186791537Y-66111920D01*
X186773198Y-66143124D01*
X186757686Y-66182987D01*
X186744648Y-66238839D01*
X186733728Y-66318010D01*
X186724572Y-66427832D01*
X186716825Y-66575634D01*
X186710133Y-66768747D01*
X186704140Y-67014502D01*
X186698494Y-67320229D01*
X186692838Y-67693258D01*
X186686818Y-68140920D01*
X186684440Y-68326000D01*
X186679034Y-68745398D01*
X186677312Y-68876334D01*
X186977176Y-68876334D01*
X186992338Y-67612837D01*
X186997689Y-67233075D01*
X187003940Y-66929918D01*
X187011535Y-66695305D01*
X187020917Y-66521178D01*
X187032529Y-66399474D01*
X187046816Y-66322134D01*
X187064222Y-66281098D01*
X187065741Y-66279168D01*
X187181069Y-66197662D01*
X187365591Y-66150357D01*
X187623389Y-66136336D01*
X187695270Y-66137779D01*
X187862814Y-66146808D01*
X187972014Y-66166052D01*
X188049155Y-66203209D01*
X188115399Y-66260823D01*
X188228758Y-66374182D01*
X188267582Y-68876334D01*
X186977176Y-68876334D01*
X186677312Y-68876334D01*
X186673793Y-69143812D01*
X186668839Y-69512274D01*
X186664300Y-69841814D01*
X186660301Y-70123463D01*
X186656967Y-70348251D01*
X186654424Y-70507209D01*
X186652796Y-70591366D01*
X186652690Y-70595297D01*
X186647667Y-70769094D01*
X186138293Y-70993606D01*
X185315293Y-71392699D01*
X184521208Y-71849715D01*
X183766347Y-72357069D01*
X183061019Y-72907178D01*
X182415531Y-73492457D01*
X181840194Y-74105323D01*
X181728179Y-74238114D01*
X181239137Y-74881798D01*
X180796804Y-75569979D01*
X180406585Y-76290538D01*
X180073883Y-77031356D01*
X179804102Y-77780316D01*
X179602645Y-78525299D01*
X179474917Y-79254185D01*
X179468774Y-79305173D01*
X179437470Y-79644487D01*
X179415889Y-80029242D01*
X179404022Y-80439475D01*
X179401858Y-80855225D01*
X179404810Y-81012550D01*
X179718638Y-81012550D01*
X179725662Y-80435956D01*
X179741550Y-80083858D01*
X179769253Y-79652107D01*
X179803482Y-79282756D01*
X179848282Y-78953574D01*
X179907699Y-78642329D01*
X179985776Y-78326792D01*
X180086560Y-77984730D01*
X180171267Y-77722186D01*
X180498831Y-76858529D01*
X180894600Y-76042649D01*
X181359545Y-75273344D01*
X181894633Y-74549411D01*
X182500835Y-73869650D01*
X183179120Y-73232856D01*
X183930457Y-72637829D01*
X184679167Y-72131204D01*
X184988802Y-71945942D01*
X185343456Y-71749187D01*
X185717778Y-71553950D01*
X186086417Y-71373241D01*
X186424021Y-71220072D01*
X186584167Y-71153524D01*
X186965167Y-71001812D01*
X186988123Y-69342000D01*
X188256334Y-69342000D01*
X188256334Y-72601667D01*
X189399334Y-72601667D01*
X189399334Y-70908334D01*
X190627000Y-70908334D01*
X190627000Y-72051334D01*
X191897000Y-72051334D01*
X191897000Y-69765334D01*
X193167000Y-69765334D01*
X193167000Y-72728667D01*
X194352334Y-72728667D01*
X194352334Y-69257334D01*
X195622334Y-69257334D01*
X195622334Y-71334125D01*
X196183250Y-71322313D01*
X196744167Y-71310500D01*
X196766475Y-68495334D01*
X197993000Y-68495334D01*
X197994185Y-70368584D01*
X197995369Y-72241834D01*
X198319103Y-72474667D01*
X199098015Y-73082417D01*
X199804523Y-73732928D01*
X200438146Y-74425468D01*
X200998401Y-75159303D01*
X201484805Y-75933699D01*
X201896875Y-76747921D01*
X202234131Y-77601238D01*
X202496088Y-78492914D01*
X202606830Y-78994000D01*
X202726188Y-79818643D01*
X202764408Y-80652811D01*
X202723560Y-81490381D01*
X202605711Y-82325229D01*
X202412933Y-83151230D01*
X202147294Y-83962261D01*
X201810863Y-84752197D01*
X201405711Y-85514915D01*
X200933907Y-86244290D01*
X200397519Y-86934199D01*
X199798618Y-87578516D01*
X199661185Y-87711165D01*
X198914674Y-88360635D01*
X198123165Y-88940986D01*
X197291572Y-89451488D01*
X196424808Y-89891411D01*
X195527789Y-90260026D01*
X194605426Y-90556603D01*
X193662636Y-90780414D01*
X192704331Y-90930728D01*
X191735425Y-91006816D01*
X190760833Y-91007949D01*
X189785468Y-90933398D01*
X188814245Y-90782432D01*
X187852077Y-90554323D01*
X186903878Y-90248341D01*
X185974563Y-89863756D01*
X185779834Y-89771764D01*
X184937369Y-89324048D01*
X184155940Y-88822924D01*
X183426097Y-88261892D01*
X182898562Y-87789975D01*
X182228064Y-87098379D01*
X181635611Y-86375427D01*
X181121529Y-85621618D01*
X180686141Y-84837451D01*
X180329771Y-84023426D01*
X180179296Y-83599205D01*
X180012312Y-83051129D01*
X179885379Y-82539501D01*
X179795872Y-82043246D01*
X179741167Y-81541288D01*
X179718638Y-81012550D01*
X179404810Y-81012550D01*
X179409388Y-81256529D01*
X179426600Y-81623424D01*
X179453486Y-81935947D01*
X179470184Y-82063167D01*
X179649191Y-82964296D01*
X179907749Y-83836893D01*
X180245310Y-84679862D01*
X180661325Y-85492106D01*
X181155248Y-86272530D01*
X181726530Y-87020035D01*
X182226396Y-87580494D01*
X182942964Y-88272565D01*
X183713036Y-88899919D01*
X184532358Y-89459745D01*
X185396675Y-89949234D01*
X186301734Y-90365575D01*
X186647667Y-90501113D01*
X187523745Y-90798568D01*
X188381103Y-91026336D01*
X189239406Y-91187942D01*
X190118319Y-91286909D01*
X191037508Y-91326760D01*
X191262000Y-91327927D01*
X192107424Y-91304297D01*
X192107424Y-91304297D01*
G37*
X192107424Y-91304297D02*
X192905855Y-91233571D01*
X193679362Y-91111816D01*
X194450012Y-90935098D01*
X195239874Y-90699483D01*
X195716753Y-90533832D01*
X196614136Y-90165186D01*
X197474146Y-89727279D01*
X198291520Y-89224397D01*
X199060992Y-88660822D01*
X199777299Y-88040839D01*
X200435178Y-87368732D01*
X201029364Y-86648785D01*
X201554593Y-85885282D01*
X201677863Y-85682438D01*
X202108952Y-84876351D01*
X202463374Y-84046990D01*
X202740041Y-83199716D01*
X202937865Y-82339890D01*
X203055757Y-81472872D01*
X203092629Y-80604023D01*
X203047393Y-79738704D01*
X202984278Y-79248000D01*
X202891495Y-78762554D01*
X202761416Y-78234434D01*
X202602348Y-77692303D01*
X202422602Y-77164822D01*
X202260163Y-76750334D01*
X201892757Y-75982561D01*
X201442712Y-75230745D01*
X200910759Y-74496075D01*
X200765831Y-74316167D01*
X200513122Y-74025358D01*
X200213037Y-73706945D01*
X199883956Y-73378582D01*
X199544263Y-73057923D01*
X199212337Y-72762623D01*
X198906561Y-72510337D01*
X198802622Y-72430598D01*
X198331667Y-72078275D01*
X198331422Y-69387221D01*
X198330718Y-68873645D01*
X198328768Y-68390293D01*
X198325670Y-67944110D01*
X198321523Y-67542043D01*
X198316424Y-67191039D01*
X198310472Y-66898044D01*
X198303765Y-66670006D01*
X198296401Y-66513871D01*
X198289803Y-66443504D01*
X198252981Y-66277452D01*
X198195638Y-66156442D01*
X198098335Y-66040856D01*
X198086237Y-66028649D01*
X197975591Y-65930536D01*
X197867406Y-65873188D01*
X197724052Y-65838829D01*
X197665538Y-65829918D01*
X197359316Y-65809673D01*
X197077718Y-65835184D01*
X196833998Y-65902616D01*
X196641410Y-66008134D01*
X196513210Y-66147902D01*
X196503077Y-66166225D01*
X196490492Y-66208255D01*
X196479598Y-66286105D01*
X196470239Y-66405467D01*
X196462261Y-66572033D01*
X196455509Y-66791495D01*
X196449827Y-67069545D01*
X196445060Y-67411876D01*
X196441054Y-67824178D01*
X196439327Y-68072000D01*
X196765334Y-68072000D01*
X196765334Y-67203753D01*
X196765783Y-66910524D01*
X196767843Y-66690224D01*
X196772576Y-66531120D01*
X196781046Y-66421476D01*
X196794319Y-66349558D01*
X196813458Y-66303630D01*
X196839528Y-66271958D01*
X196850757Y-66261836D01*
X196983924Y-66190200D01*
X197170117Y-66144559D01*
X197381065Y-66127264D01*
X197588496Y-66140663D01*
X197761796Y-66186120D01*
X197882352Y-66263893D01*
X197950936Y-66358209D01*
X197964250Y-66434623D01*
X197975830Y-66580167D01*
X197984958Y-66779313D01*
X197990920Y-67016529D01*
X197993000Y-67270423D01*
X197993000Y-68072000D01*
X196765334Y-68072000D01*
X196439327Y-68072000D01*
X196437653Y-68312145D01*
X196435893Y-68632917D01*
X196423952Y-70993000D01*
X195920729Y-70993000D01*
X195909115Y-68632917D01*
X195897500Y-66272834D01*
X195795855Y-66130317D01*
X195645404Y-65979812D01*
X195442927Y-65882478D01*
X195180649Y-65835262D01*
X195029667Y-65829500D01*
X194756342Y-65840923D01*
X194544582Y-65880446D01*
X194374263Y-65953907D01*
X194231920Y-66060994D01*
X194077167Y-66202801D01*
X194059226Y-68834000D01*
X194352334Y-68834000D01*
X194352982Y-67616917D01*
X194354193Y-67303013D01*
X194357297Y-67016033D01*
X194362014Y-66767070D01*
X194368064Y-66567220D01*
X194375169Y-66427577D01*
X194383050Y-66359236D01*
X194384732Y-66355047D01*
X194473226Y-66264021D01*
X194597979Y-66205658D01*
X194774999Y-66175000D01*
X194992063Y-66167000D01*
X195188180Y-66171073D01*
X195319930Y-66185481D01*
X195407318Y-66213512D01*
X195452340Y-66242620D01*
X195498875Y-66291185D01*
X195536116Y-66359481D01*
X195565062Y-66456551D01*
X195586711Y-66591441D01*
X195602063Y-66773194D01*
X195612117Y-67010854D01*
X195617871Y-67313467D01*
X195620324Y-67690074D01*
X195620490Y-67765084D01*
X195622334Y-68834000D01*
X194352334Y-68834000D01*
X194059226Y-68834000D01*
X194056000Y-69306984D01*
X194034834Y-72411167D01*
X193484500Y-72411167D01*
X193463334Y-69313015D01*
X193442167Y-66214863D01*
X193315167Y-66081319D01*
X193187848Y-65962407D01*
X193060757Y-65884461D01*
X192910985Y-65839578D01*
X192715623Y-65819858D01*
X192548230Y-65816788D01*
X192336447Y-65821342D01*
X192182260Y-65837823D01*
X192058946Y-65870461D01*
X191970218Y-65908296D01*
X191902103Y-65939030D01*
X191843466Y-65964571D01*
X191793560Y-65991091D01*
X191751634Y-66024765D01*
X191716941Y-66071768D01*
X191688731Y-66138273D01*
X191666256Y-66230455D01*
X191648766Y-66354487D01*
X191635513Y-66516544D01*
X191625747Y-66722799D01*
X191618719Y-66979428D01*
X191616592Y-67111687D01*
X191903139Y-67111687D01*
X191903780Y-66861817D01*
X191906595Y-66670537D01*
X191911924Y-66529159D01*
X191920107Y-66428993D01*
X191931484Y-66361350D01*
X191946395Y-66317539D01*
X191965179Y-66288873D01*
X191967077Y-66286733D01*
X192082872Y-66202941D01*
X192252984Y-66153586D01*
X192487978Y-66136195D01*
X192604056Y-66137684D01*
X192770344Y-66146541D01*
X192879571Y-66165922D01*
X192959321Y-66204295D01*
X193037173Y-66270126D01*
X193037972Y-66270891D01*
X193167000Y-66394508D01*
X193167000Y-69301931D01*
X192542584Y-69290216D01*
X191918167Y-69278500D01*
X191907020Y-67821957D01*
X191904332Y-67428837D01*
X191903139Y-67111687D01*
X191616592Y-67111687D01*
X191613682Y-67292603D01*
X191609885Y-67668500D01*
X191606580Y-68113292D01*
X191603018Y-68633153D01*
X191600667Y-68954842D01*
X191579500Y-71733834D01*
X191272584Y-71746272D01*
X190965667Y-71758710D01*
X190965667Y-70973688D01*
X190965075Y-70695778D01*
X190962481Y-70489911D01*
X190956656Y-70343467D01*
X190946371Y-70243827D01*
X190930399Y-70178371D01*
X190907509Y-70134479D01*
X190881000Y-70104000D01*
X190788843Y-70040575D01*
X190711667Y-70019334D01*
X190675289Y-70014171D01*
X190651144Y-69989132D01*
X190636740Y-69929894D01*
X190629586Y-69822132D01*
X190627191Y-69651522D01*
X190627000Y-69532500D01*
X190627898Y-69323328D01*
X190632253Y-69184492D01*
X190642555Y-69101669D01*
X190661296Y-69060536D01*
X190690967Y-69046767D01*
X190711667Y-69045667D01*
X190803824Y-69016936D01*
X190881000Y-68961000D01*
X190906379Y-68931765D01*
X190926079Y-68894170D01*
X190940786Y-68838037D01*
X190951189Y-68753190D01*
X190957974Y-68629454D01*
X190961827Y-68456650D01*
X190963435Y-68224604D01*
X190963486Y-67923138D01*
X190963143Y-67743917D01*
X190961618Y-67348811D01*
X190958089Y-67028686D01*
X190951210Y-66773860D01*
X190939638Y-66574649D01*
X190922026Y-66421371D01*
X190897031Y-66304343D01*
X190863307Y-66213882D01*
X190819509Y-66140306D01*
X190764292Y-66073931D01*
X190725653Y-66034065D01*
X190613040Y-65933295D01*
X190505704Y-65874713D01*
X190365548Y-65840070D01*
X190299538Y-65829918D01*
X190080669Y-65813665D01*
X189851784Y-65821065D01*
X189637377Y-65849130D01*
X189461940Y-65894872D01*
X189363515Y-65944091D01*
X189258809Y-66038377D01*
X189169116Y-66140944D01*
X189144551Y-66177189D01*
X189125082Y-66219199D01*
X189110117Y-66276598D01*
X189099067Y-66359009D01*
X189091339Y-66476055D01*
X189086343Y-66637361D01*
X189083488Y-66852548D01*
X189082184Y-67131241D01*
X189081839Y-67483063D01*
X189081834Y-67562609D01*
X189082111Y-67930804D01*
X189082686Y-68072000D01*
X189399334Y-68072000D01*
X189399334Y-67211546D01*
X189399664Y-66920720D01*
X189401458Y-66702567D01*
X189405920Y-66545095D01*
X189414253Y-66436309D01*
X189427663Y-66364217D01*
X189447351Y-66316827D01*
X189474524Y-66282144D01*
X189494584Y-66262757D01*
X189622471Y-66189961D01*
X189804032Y-66143556D01*
X190011759Y-66125880D01*
X190218148Y-66139274D01*
X190395692Y-66186076D01*
X190395796Y-66186120D01*
X190516352Y-66263893D01*
X190584936Y-66358209D01*
X190598250Y-66434623D01*
X190609830Y-66580167D01*
X190618958Y-66779313D01*
X190624920Y-67016529D01*
X190627000Y-67270423D01*
X190627000Y-68072000D01*
X189399334Y-68072000D01*
X189082686Y-68072000D01*
X189083306Y-68223740D01*
X189085962Y-68450823D01*
X189090625Y-68621460D01*
X189097837Y-68745058D01*
X189108144Y-68831023D01*
X189122090Y-68888762D01*
X189140218Y-68927681D01*
X189162478Y-68956531D01*
X189248514Y-69022838D01*
X189321228Y-69045667D01*
X189355018Y-69052472D01*
X189377405Y-69082391D01*
X189390701Y-69149682D01*
X189397212Y-69268601D01*
X189399249Y-69453406D01*
X189399334Y-69527911D01*
X189398732Y-69735665D01*
X189394818Y-69874037D01*
X189384427Y-69958314D01*
X189364395Y-70003780D01*
X189331558Y-70025721D01*
X189294036Y-70036583D01*
X189195372Y-70090570D01*
X189114119Y-70176897D01*
X189090205Y-70220700D01*
X189072347Y-70276775D01*
X189059935Y-70356407D01*
X189054265Y-70442069D01*
X189382677Y-70442069D01*
X189384165Y-70421135D01*
X189441051Y-70362085D01*
X189510824Y-70331631D01*
X189593971Y-70301132D01*
X189654358Y-70249501D01*
X189695466Y-70164495D01*
X189720775Y-70033868D01*
X189733767Y-69845376D01*
X189737922Y-69586772D01*
X189738000Y-69532500D01*
X189735093Y-69260445D01*
X189723997Y-69060625D01*
X189701147Y-68920739D01*
X189662978Y-68828483D01*
X189605926Y-68771552D01*
X189526428Y-68737644D01*
X189506154Y-68732198D01*
X189426224Y-68690922D01*
X189399334Y-68642694D01*
X189411526Y-68617747D01*
X189456004Y-68600235D01*
X189544621Y-68588946D01*
X189689230Y-68582670D01*
X189901684Y-68580197D01*
X190013167Y-68580000D01*
X190259697Y-68581417D01*
X190432943Y-68586399D01*
X190544248Y-68596042D01*
X190604958Y-68611444D01*
X190626418Y-68633703D01*
X190627000Y-68639359D01*
X190591123Y-68693314D01*
X190504506Y-68741403D01*
X190501490Y-68742471D01*
X190430229Y-68777408D01*
X190378757Y-68833325D01*
X190344011Y-68922827D01*
X190322929Y-69058516D01*
X190312448Y-69252996D01*
X190309504Y-69518870D01*
X190309500Y-69532500D01*
X190312232Y-69802212D01*
X190322426Y-69999910D01*
X190343079Y-70138126D01*
X190377187Y-70229395D01*
X190427747Y-70286251D01*
X190497755Y-70321228D01*
X190498096Y-70321347D01*
X190592750Y-70370328D01*
X190643444Y-70424459D01*
X190640681Y-70447813D01*
X190604287Y-70464446D01*
X190523270Y-70475415D01*
X190386634Y-70481774D01*
X190183386Y-70484581D01*
X190013167Y-70485000D01*
X189762966Y-70484048D01*
X189586118Y-70480426D01*
X189471321Y-70472987D01*
X189407274Y-70460584D01*
X189382677Y-70442069D01*
X189054265Y-70442069D01*
X189052357Y-70470885D01*
X189049004Y-70631494D01*
X189049263Y-70849523D01*
X189052525Y-71136259D01*
X189054597Y-71276891D01*
X189069694Y-72263000D01*
X188552667Y-72263000D01*
X188552667Y-69352304D01*
X188552060Y-68778065D01*
X188550281Y-68251504D01*
X188547394Y-67777312D01*
X188543462Y-67360182D01*
X188538549Y-67004806D01*
X188532718Y-66715873D01*
X188526033Y-66498077D01*
X188518556Y-66356109D01*
X188511344Y-66297526D01*
X188417686Y-66109184D01*
X188264967Y-65952152D01*
X188171667Y-65893464D01*
X188040184Y-65851530D01*
X187854020Y-65823302D01*
X187642391Y-65811112D01*
X187434515Y-65817291D01*
X187344530Y-65827483D01*
X187081512Y-65893894D01*
X186888055Y-66005234D01*
X186791537Y-66111920D01*
X186773198Y-66143124D01*
X186757686Y-66182987D01*
X186744648Y-66238839D01*
X186733728Y-66318010D01*
X186724572Y-66427832D01*
X186716825Y-66575634D01*
X186710133Y-66768747D01*
X186704140Y-67014502D01*
X186698494Y-67320229D01*
X186692838Y-67693258D01*
X186686818Y-68140920D01*
X186684440Y-68326000D01*
X186679034Y-68745398D01*
X186677312Y-68876334D01*
X186977176Y-68876334D01*
X186992338Y-67612837D01*
X186997689Y-67233075D01*
X187003940Y-66929918D01*
X187011535Y-66695305D01*
X187020917Y-66521178D01*
X187032529Y-66399474D01*
X187046816Y-66322134D01*
X187064222Y-66281098D01*
X187065741Y-66279168D01*
X187181069Y-66197662D01*
X187365591Y-66150357D01*
X187623389Y-66136336D01*
X187695270Y-66137779D01*
X187862814Y-66146808D01*
X187972014Y-66166052D01*
X188049155Y-66203209D01*
X188115399Y-66260823D01*
X188228758Y-66374182D01*
X188267582Y-68876334D01*
X186977176Y-68876334D01*
X186677312Y-68876334D01*
X186673793Y-69143812D01*
X186668839Y-69512274D01*
X186664300Y-69841814D01*
X186660301Y-70123463D01*
X186656967Y-70348251D01*
X186654424Y-70507209D01*
X186652796Y-70591366D01*
X186652690Y-70595297D01*
X186647667Y-70769094D01*
X186138293Y-70993606D01*
X185315293Y-71392699D01*
X184521208Y-71849715D01*
X183766347Y-72357069D01*
X183061019Y-72907178D01*
X182415531Y-73492457D01*
X181840194Y-74105323D01*
X181728179Y-74238114D01*
X181239137Y-74881798D01*
X180796804Y-75569979D01*
X180406585Y-76290538D01*
X180073883Y-77031356D01*
X179804102Y-77780316D01*
X179602645Y-78525299D01*
X179474917Y-79254185D01*
X179468774Y-79305173D01*
X179437470Y-79644487D01*
X179415889Y-80029242D01*
X179404022Y-80439475D01*
X179401858Y-80855225D01*
X179404810Y-81012550D01*
X179718638Y-81012550D01*
X179725662Y-80435956D01*
X179741550Y-80083858D01*
X179769253Y-79652107D01*
X179803482Y-79282756D01*
X179848282Y-78953574D01*
X179907699Y-78642329D01*
X179985776Y-78326792D01*
X180086560Y-77984730D01*
X180171267Y-77722186D01*
X180498831Y-76858529D01*
X180894600Y-76042649D01*
X181359545Y-75273344D01*
X181894633Y-74549411D01*
X182500835Y-73869650D01*
X183179120Y-73232856D01*
X183930457Y-72637829D01*
X184679167Y-72131204D01*
X184988802Y-71945942D01*
X185343456Y-71749187D01*
X185717778Y-71553950D01*
X186086417Y-71373241D01*
X186424021Y-71220072D01*
X186584167Y-71153524D01*
X186965167Y-71001812D01*
X186988123Y-69342000D01*
X188256334Y-69342000D01*
X188256334Y-72601667D01*
X189399334Y-72601667D01*
X189399334Y-70908334D01*
X190627000Y-70908334D01*
X190627000Y-72051334D01*
X191897000Y-72051334D01*
X191897000Y-69765334D01*
X193167000Y-69765334D01*
X193167000Y-72728667D01*
X194352334Y-72728667D01*
X194352334Y-69257334D01*
X195622334Y-69257334D01*
X195622334Y-71334125D01*
X196183250Y-71322313D01*
X196744167Y-71310500D01*
X196766475Y-68495334D01*
X197993000Y-68495334D01*
X197994185Y-70368584D01*
X197995369Y-72241834D01*
X198319103Y-72474667D01*
X199098015Y-73082417D01*
X199804523Y-73732928D01*
X200438146Y-74425468D01*
X200998401Y-75159303D01*
X201484805Y-75933699D01*
X201896875Y-76747921D01*
X202234131Y-77601238D01*
X202496088Y-78492914D01*
X202606830Y-78994000D01*
X202726188Y-79818643D01*
X202764408Y-80652811D01*
X202723560Y-81490381D01*
X202605711Y-82325229D01*
X202412933Y-83151230D01*
X202147294Y-83962261D01*
X201810863Y-84752197D01*
X201405711Y-85514915D01*
X200933907Y-86244290D01*
X200397519Y-86934199D01*
X199798618Y-87578516D01*
X199661185Y-87711165D01*
X198914674Y-88360635D01*
X198123165Y-88940986D01*
X197291572Y-89451488D01*
X196424808Y-89891411D01*
X195527789Y-90260026D01*
X194605426Y-90556603D01*
X193662636Y-90780414D01*
X192704331Y-90930728D01*
X191735425Y-91006816D01*
X190760833Y-91007949D01*
X189785468Y-90933398D01*
X188814245Y-90782432D01*
X187852077Y-90554323D01*
X186903878Y-90248341D01*
X185974563Y-89863756D01*
X185779834Y-89771764D01*
X184937369Y-89324048D01*
X184155940Y-88822924D01*
X183426097Y-88261892D01*
X182898562Y-87789975D01*
X182228064Y-87098379D01*
X181635611Y-86375427D01*
X181121529Y-85621618D01*
X180686141Y-84837451D01*
X180329771Y-84023426D01*
X180179296Y-83599205D01*
X180012312Y-83051129D01*
X179885379Y-82539501D01*
X179795872Y-82043246D01*
X179741167Y-81541288D01*
X179718638Y-81012550D01*
X179404810Y-81012550D01*
X179409388Y-81256529D01*
X179426600Y-81623424D01*
X179453486Y-81935947D01*
X179470184Y-82063167D01*
X179649191Y-82964296D01*
X179907749Y-83836893D01*
X180245310Y-84679862D01*
X180661325Y-85492106D01*
X181155248Y-86272530D01*
X181726530Y-87020035D01*
X182226396Y-87580494D01*
X182942964Y-88272565D01*
X183713036Y-88899919D01*
X184532358Y-89459745D01*
X185396675Y-89949234D01*
X186301734Y-90365575D01*
X186647667Y-90501113D01*
X187523745Y-90798568D01*
X188381103Y-91026336D01*
X189239406Y-91187942D01*
X190118319Y-91286909D01*
X191037508Y-91326760D01*
X191262000Y-91327927D01*
X192107424Y-91304297D01*
G36*
X193251397Y-80471578D02*
X193591392Y-80362612D01*
X193893723Y-80188442D01*
X194145868Y-79958421D01*
X194335306Y-79681899D01*
X194351235Y-79650167D01*
X194415782Y-79483804D01*
X194454075Y-79292915D01*
X194471066Y-79087281D01*
X194461282Y-78758263D01*
X194391752Y-78473858D01*
X194254668Y-78211810D01*
X194090305Y-78002409D01*
X193877506Y-77763654D01*
X194155690Y-76696077D01*
X194237265Y-76383314D01*
X194317802Y-76075070D01*
X194392977Y-75787849D01*
X194458469Y-75538155D01*
X194509954Y-75342493D01*
X194535084Y-75247500D01*
X194583466Y-75061211D01*
X194625941Y-74890217D01*
X194655716Y-74762147D01*
X194662589Y-74728917D01*
X194688884Y-74591334D01*
X193261192Y-74596245D01*
X192918494Y-74597932D01*
X192600321Y-74600471D01*
X192317218Y-74603702D01*
X192079730Y-74607466D01*
X191898405Y-74611604D01*
X191783788Y-74615957D01*
X191748834Y-74619059D01*
X191634509Y-74643297D01*
X191570139Y-74656982D01*
X191492255Y-74684233D01*
X191444933Y-74734080D01*
X191427685Y-74818269D01*
X191440022Y-74948549D01*
X191441103Y-74953460D01*
X191770000Y-74953460D01*
X191810594Y-74947536D01*
X191925419Y-74942161D01*
X192104040Y-74937531D01*
X192336023Y-74933844D01*
X192610932Y-74931293D01*
X192918334Y-74930076D01*
X193018834Y-74930000D01*
X193396866Y-74930840D01*
X193697024Y-74933543D01*
X193926088Y-74938390D01*
X194090836Y-74945659D01*
X194198046Y-74955629D01*
X194254496Y-74968580D01*
X194267667Y-74981416D01*
X194256784Y-75038779D01*
X194226863Y-75161621D01*
X194181997Y-75333976D01*
X194126280Y-75539876D01*
X194102166Y-75626999D01*
X193979865Y-76069524D01*
X193869325Y-76476381D01*
X193772458Y-76840174D01*
X193691176Y-77153512D01*
X193627393Y-77409001D01*
X193583021Y-77599246D01*
X193559973Y-77716855D01*
X193558278Y-77729381D01*
X193554799Y-77809053D01*
X193572669Y-77880305D01*
X193622304Y-77962186D01*
X193714116Y-78073747D01*
X193797496Y-78166955D01*
X194002853Y-78430590D01*
X194128784Y-78685985D01*
X194178246Y-78944419D01*
X194154201Y-79217171D01*
X194113125Y-79369967D01*
X193983149Y-79638066D01*
X193783976Y-79864904D01*
X193562567Y-80019153D01*
X193269038Y-80135149D01*
X192973899Y-80167956D01*
X192684924Y-80118528D01*
X192409890Y-79987820D01*
X192238730Y-79856548D01*
X192088920Y-79712720D01*
X191990172Y-79586203D01*
X191932160Y-79452228D01*
X191904559Y-79286025D01*
X191897044Y-79062824D01*
X191897000Y-79036750D01*
X191907943Y-78779889D01*
X191948099Y-78575333D01*
X192028462Y-78395735D01*
X192160025Y-78213748D01*
X192283305Y-78075785D01*
X192385619Y-77959451D01*
X192459448Y-77861395D01*
X192489580Y-77801929D01*
X192489667Y-77800207D01*
X192479526Y-77743744D01*
X192451186Y-77617808D01*
X192407772Y-77434861D01*
X192352411Y-77207367D01*
X192288228Y-76947789D01*
X192218347Y-76668591D01*
X192145895Y-76382236D01*
X192073998Y-76101187D01*
X192005779Y-75837909D01*
X191944366Y-75604864D01*
X191892883Y-75414515D01*
X191877937Y-75360815D01*
X191831106Y-75191916D01*
X191794527Y-75055540D01*
X191773293Y-74970913D01*
X191770000Y-74953460D01*
X191441103Y-74953460D01*
X191481456Y-75136668D01*
X191541016Y-75357315D01*
X191597496Y-75562914D01*
X191668309Y-75828477D01*
X191747637Y-76131731D01*
X191829661Y-76450406D01*
X191908562Y-76762233D01*
X191919925Y-76807666D01*
X192150906Y-77732832D01*
X191971036Y-77933207D01*
X191851577Y-78081947D01*
X191739103Y-78247426D01*
X191685334Y-78341541D01*
X191638494Y-78442116D01*
X191607826Y-78538212D01*
X191589996Y-78651724D01*
X191581668Y-78804547D01*
X191579507Y-79018576D01*
X191579500Y-79036334D01*
X191580942Y-79251149D01*
X191587599Y-79402274D01*
X191602967Y-79510666D01*
X191630545Y-79597283D01*
X191673829Y-79683084D01*
X191692926Y-79716102D01*
X191894582Y-79986011D01*
X192145861Y-80205900D01*
X192432237Y-80368726D01*
X192739181Y-80467448D01*
X193052167Y-80495024D01*
X193251397Y-80471578D01*
X193251397Y-80471578D01*
G37*
X193251397Y-80471578D02*
X193591392Y-80362612D01*
X193893723Y-80188442D01*
X194145868Y-79958421D01*
X194335306Y-79681899D01*
X194351235Y-79650167D01*
X194415782Y-79483804D01*
X194454075Y-79292915D01*
X194471066Y-79087281D01*
X194461282Y-78758263D01*
X194391752Y-78473858D01*
X194254668Y-78211810D01*
X194090305Y-78002409D01*
X193877506Y-77763654D01*
X194155690Y-76696077D01*
X194237265Y-76383314D01*
X194317802Y-76075070D01*
X194392977Y-75787849D01*
X194458469Y-75538155D01*
X194509954Y-75342493D01*
X194535084Y-75247500D01*
X194583466Y-75061211D01*
X194625941Y-74890217D01*
X194655716Y-74762147D01*
X194662589Y-74728917D01*
X194688884Y-74591334D01*
X193261192Y-74596245D01*
X192918494Y-74597932D01*
X192600321Y-74600471D01*
X192317218Y-74603702D01*
X192079730Y-74607466D01*
X191898405Y-74611604D01*
X191783788Y-74615957D01*
X191748834Y-74619059D01*
X191634509Y-74643297D01*
X191570139Y-74656982D01*
X191492255Y-74684233D01*
X191444933Y-74734080D01*
X191427685Y-74818269D01*
X191440022Y-74948549D01*
X191441103Y-74953460D01*
X191770000Y-74953460D01*
X191810594Y-74947536D01*
X191925419Y-74942161D01*
X192104040Y-74937531D01*
X192336023Y-74933844D01*
X192610932Y-74931293D01*
X192918334Y-74930076D01*
X193018834Y-74930000D01*
X193396866Y-74930840D01*
X193697024Y-74933543D01*
X193926088Y-74938390D01*
X194090836Y-74945659D01*
X194198046Y-74955629D01*
X194254496Y-74968580D01*
X194267667Y-74981416D01*
X194256784Y-75038779D01*
X194226863Y-75161621D01*
X194181997Y-75333976D01*
X194126280Y-75539876D01*
X194102166Y-75626999D01*
X193979865Y-76069524D01*
X193869325Y-76476381D01*
X193772458Y-76840174D01*
X193691176Y-77153512D01*
X193627393Y-77409001D01*
X193583021Y-77599246D01*
X193559973Y-77716855D01*
X193558278Y-77729381D01*
X193554799Y-77809053D01*
X193572669Y-77880305D01*
X193622304Y-77962186D01*
X193714116Y-78073747D01*
X193797496Y-78166955D01*
X194002853Y-78430590D01*
X194128784Y-78685985D01*
X194178246Y-78944419D01*
X194154201Y-79217171D01*
X194113125Y-79369967D01*
X193983149Y-79638066D01*
X193783976Y-79864904D01*
X193562567Y-80019153D01*
X193269038Y-80135149D01*
X192973899Y-80167956D01*
X192684924Y-80118528D01*
X192409890Y-79987820D01*
X192238730Y-79856548D01*
X192088920Y-79712720D01*
X191990172Y-79586203D01*
X191932160Y-79452228D01*
X191904559Y-79286025D01*
X191897044Y-79062824D01*
X191897000Y-79036750D01*
X191907943Y-78779889D01*
X191948099Y-78575333D01*
X192028462Y-78395735D01*
X192160025Y-78213748D01*
X192283305Y-78075785D01*
X192385619Y-77959451D01*
X192459448Y-77861395D01*
X192489580Y-77801929D01*
X192489667Y-77800207D01*
X192479526Y-77743744D01*
X192451186Y-77617808D01*
X192407772Y-77434861D01*
X192352411Y-77207367D01*
X192288228Y-76947789D01*
X192218347Y-76668591D01*
X192145895Y-76382236D01*
X192073998Y-76101187D01*
X192005779Y-75837909D01*
X191944366Y-75604864D01*
X191892883Y-75414515D01*
X191877937Y-75360815D01*
X191831106Y-75191916D01*
X191794527Y-75055540D01*
X191773293Y-74970913D01*
X191770000Y-74953460D01*
X191441103Y-74953460D01*
X191481456Y-75136668D01*
X191541016Y-75357315D01*
X191597496Y-75562914D01*
X191668309Y-75828477D01*
X191747637Y-76131731D01*
X191829661Y-76450406D01*
X191908562Y-76762233D01*
X191919925Y-76807666D01*
X192150906Y-77732832D01*
X191971036Y-77933207D01*
X191851577Y-78081947D01*
X191739103Y-78247426D01*
X191685334Y-78341541D01*
X191638494Y-78442116D01*
X191607826Y-78538212D01*
X191589996Y-78651724D01*
X191581668Y-78804547D01*
X191579507Y-79018576D01*
X191579500Y-79036334D01*
X191580942Y-79251149D01*
X191587599Y-79402274D01*
X191602967Y-79510666D01*
X191630545Y-79597283D01*
X191673829Y-79683084D01*
X191692926Y-79716102D01*
X191894582Y-79986011D01*
X192145861Y-80205900D01*
X192432237Y-80368726D01*
X192739181Y-80467448D01*
X193052167Y-80495024D01*
X193251397Y-80471578D01*
G36*
X187908769Y-87043144D02*
X188234330Y-86998695D01*
X188400057Y-86959918D01*
X188917610Y-86771958D01*
X189392351Y-86518237D01*
X189819547Y-86205626D01*
X190194463Y-85840994D01*
X190512364Y-85431213D01*
X190768516Y-84983152D01*
X190958185Y-84503683D01*
X191076636Y-83999675D01*
X191119134Y-83477999D01*
X191094877Y-83049271D01*
X190988159Y-82491740D01*
X190807319Y-81971941D01*
X190556036Y-81494209D01*
X190237991Y-81062878D01*
X189856861Y-80682284D01*
X189416328Y-80356762D01*
X188920071Y-80090647D01*
X188425667Y-79904540D01*
X188253831Y-79867524D01*
X188020701Y-79839316D01*
X187749253Y-79820536D01*
X187462464Y-79811806D01*
X187183309Y-79813746D01*
X186934765Y-79826978D01*
X186739808Y-79852123D01*
X186711167Y-79858195D01*
X186167130Y-80025185D01*
X185667550Y-80262622D01*
X185216616Y-80566473D01*
X184818514Y-80932709D01*
X184477431Y-81357300D01*
X184197554Y-81836215D01*
X183983070Y-82365423D01*
X183932134Y-82533277D01*
X183868986Y-82847230D01*
X183836722Y-83210247D01*
X183835348Y-83592560D01*
X183864870Y-83964399D01*
X183925294Y-84295993D01*
X183931780Y-84321084D01*
X184116297Y-84859915D01*
X184369222Y-85350492D01*
X184687105Y-85789338D01*
X185066495Y-86172974D01*
X185503941Y-86497923D01*
X185995993Y-86760705D01*
X186539200Y-86957842D01*
X186550787Y-86961155D01*
X186841217Y-87020658D01*
X187183500Y-87054145D01*
X187548921Y-87061634D01*
X187908769Y-87043144D01*
X187908769Y-87043144D01*
G37*
X187908769Y-87043144D02*
X188234330Y-86998695D01*
X188400057Y-86959918D01*
X188917610Y-86771958D01*
X189392351Y-86518237D01*
X189819547Y-86205626D01*
X190194463Y-85840994D01*
X190512364Y-85431213D01*
X190768516Y-84983152D01*
X190958185Y-84503683D01*
X191076636Y-83999675D01*
X191119134Y-83477999D01*
X191094877Y-83049271D01*
X190988159Y-82491740D01*
X190807319Y-81971941D01*
X190556036Y-81494209D01*
X190237991Y-81062878D01*
X189856861Y-80682284D01*
X189416328Y-80356762D01*
X188920071Y-80090647D01*
X188425667Y-79904540D01*
X188253831Y-79867524D01*
X188020701Y-79839316D01*
X187749253Y-79820536D01*
X187462464Y-79811806D01*
X187183309Y-79813746D01*
X186934765Y-79826978D01*
X186739808Y-79852123D01*
X186711167Y-79858195D01*
X186167130Y-80025185D01*
X185667550Y-80262622D01*
X185216616Y-80566473D01*
X184818514Y-80932709D01*
X184477431Y-81357300D01*
X184197554Y-81836215D01*
X183983070Y-82365423D01*
X183932134Y-82533277D01*
X183868986Y-82847230D01*
X183836722Y-83210247D01*
X183835348Y-83592560D01*
X183864870Y-83964399D01*
X183925294Y-84295993D01*
X183931780Y-84321084D01*
X184116297Y-84859915D01*
X184369222Y-85350492D01*
X184687105Y-85789338D01*
X185066495Y-86172974D01*
X185503941Y-86497923D01*
X185995993Y-86760705D01*
X186539200Y-86957842D01*
X186550787Y-86961155D01*
X186841217Y-87020658D01*
X187183500Y-87054145D01*
X187548921Y-87061634D01*
X187908769Y-87043144D01*
G36*
X197076463Y-85541585D02*
X197322376Y-85504218D01*
X197365186Y-85496169D01*
X197812976Y-85369367D01*
X198223392Y-85170456D01*
X198588682Y-84905407D01*
X198901092Y-84580189D01*
X199152871Y-84200773D01*
X199219835Y-84067892D01*
X199377991Y-83638304D01*
X199457099Y-83206011D01*
X199461744Y-82778629D01*
X199396511Y-82363775D01*
X199265984Y-81969065D01*
X199074747Y-81602114D01*
X198827387Y-81270539D01*
X198528486Y-80981955D01*
X198182630Y-80743979D01*
X197794402Y-80564228D01*
X197368389Y-80450316D01*
X197019334Y-80412340D01*
X196817133Y-80408574D01*
X196623096Y-80413270D01*
X196469123Y-80425375D01*
X196426667Y-80431907D01*
X195984848Y-80558880D01*
X195578773Y-80759435D01*
X195215221Y-81027595D01*
X194900972Y-81357385D01*
X194642805Y-81742829D01*
X194448187Y-82176002D01*
X194397607Y-82331623D01*
X194365182Y-82472319D01*
X194347159Y-82625482D01*
X194339785Y-82818500D01*
X194338918Y-82973334D01*
X194341957Y-83204646D01*
X194353070Y-83378963D01*
X194376158Y-83523856D01*
X194415122Y-83666893D01*
X194452679Y-83777170D01*
X194597799Y-84124319D01*
X194771888Y-84417484D01*
X194994668Y-84686844D01*
X195143721Y-84834488D01*
X195514906Y-85127567D01*
X195920306Y-85343753D01*
X196357656Y-85481862D01*
X196393132Y-85489335D01*
X196649969Y-85534412D01*
X196865037Y-85551739D01*
X197076463Y-85541585D01*
X197076463Y-85541585D01*
G37*
X197076463Y-85541585D02*
X197322376Y-85504218D01*
X197365186Y-85496169D01*
X197812976Y-85369367D01*
X198223392Y-85170456D01*
X198588682Y-84905407D01*
X198901092Y-84580189D01*
X199152871Y-84200773D01*
X199219835Y-84067892D01*
X199377991Y-83638304D01*
X199457099Y-83206011D01*
X199461744Y-82778629D01*
X199396511Y-82363775D01*
X199265984Y-81969065D01*
X199074747Y-81602114D01*
X198827387Y-81270539D01*
X198528486Y-80981955D01*
X198182630Y-80743979D01*
X197794402Y-80564228D01*
X197368389Y-80450316D01*
X197019334Y-80412340D01*
X196817133Y-80408574D01*
X196623096Y-80413270D01*
X196469123Y-80425375D01*
X196426667Y-80431907D01*
X195984848Y-80558880D01*
X195578773Y-80759435D01*
X195215221Y-81027595D01*
X194900972Y-81357385D01*
X194642805Y-81742829D01*
X194448187Y-82176002D01*
X194397607Y-82331623D01*
X194365182Y-82472319D01*
X194347159Y-82625482D01*
X194339785Y-82818500D01*
X194338918Y-82973334D01*
X194341957Y-83204646D01*
X194353070Y-83378963D01*
X194376158Y-83523856D01*
X194415122Y-83666893D01*
X194452679Y-83777170D01*
X194597799Y-84124319D01*
X194771888Y-84417484D01*
X194994668Y-84686844D01*
X195143721Y-84834488D01*
X195514906Y-85127567D01*
X195920306Y-85343753D01*
X196357656Y-85481862D01*
X196393132Y-85489335D01*
X196649969Y-85534412D01*
X196865037Y-85551739D01*
X197076463Y-85541585D01*
G36*
X177958120Y-33746850D02*
X178236938Y-33717236D01*
X178387361Y-33693990D01*
X178574810Y-33668388D01*
X178768531Y-33653512D01*
X178879486Y-33650767D01*
X179120800Y-33650767D01*
X179120800Y-32169100D01*
X179057300Y-32169100D01*
X179019120Y-32171588D01*
X179000466Y-32186485D01*
X178994354Y-32224941D01*
X178993800Y-32270487D01*
X178973230Y-32460902D01*
X178913907Y-32646476D01*
X178819405Y-32821892D01*
X178693302Y-32981837D01*
X178539173Y-33120994D01*
X178360596Y-33234050D01*
X178337633Y-33245641D01*
X178235229Y-33290775D01*
X178123777Y-33331760D01*
X178023637Y-33361283D01*
X178002052Y-33366161D01*
X177871855Y-33385297D01*
X177719907Y-33395528D01*
X177560937Y-33396851D01*
X177409669Y-33389261D01*
X177280832Y-33372754D01*
X177250077Y-33366370D01*
X177022057Y-33292476D01*
X176813605Y-33182751D01*
X176628018Y-33040449D01*
X176468595Y-32868820D01*
X176338634Y-32671117D01*
X176241433Y-32450593D01*
X176207600Y-32338434D01*
X176179627Y-32177833D01*
X176170595Y-31997195D01*
X176180054Y-31813222D01*
X176207552Y-31642610D01*
X176228465Y-31565850D01*
X176314917Y-31354494D01*
X176430146Y-31162416D01*
X176511015Y-31060585D01*
X176538943Y-31032221D01*
X176595492Y-30977535D01*
X176678143Y-30898886D01*
X176784378Y-30798632D01*
X176911679Y-30679129D01*
X177057528Y-30542735D01*
X177219405Y-30391809D01*
X177394793Y-30228708D01*
X177581174Y-30055789D01*
X177776029Y-29875410D01*
X177851314Y-29805822D01*
X178049155Y-29622662D01*
X178239696Y-29445542D01*
X178420386Y-29276876D01*
X178588675Y-29119078D01*
X178742012Y-28974562D01*
X178877847Y-28845741D01*
X178993628Y-28735030D01*
X179086805Y-28644842D01*
X179154828Y-28577590D01*
X179195145Y-28535690D01*
X179202404Y-28527253D01*
X179346265Y-28317449D01*
X179457762Y-28088826D01*
X179537803Y-27838417D01*
X179587292Y-27563255D01*
X179607138Y-27260373D01*
X179607633Y-27200778D01*
X179592383Y-26896061D01*
X179545689Y-26616072D01*
X179466134Y-26355699D01*
X179352303Y-26109830D01*
X179264990Y-25964114D01*
X179088183Y-25730117D01*
X178884521Y-25528284D01*
X178655245Y-25359114D01*
X178401597Y-25223107D01*
X178124819Y-25120761D01*
X177826153Y-25052576D01*
X177506841Y-25019052D01*
X177168125Y-25020687D01*
X176961800Y-25038108D01*
X176709333Y-25074550D01*
X176456948Y-25126036D01*
X176215198Y-25189789D01*
X175994636Y-25263029D01*
X175808216Y-25341813D01*
X175690306Y-25404182D01*
X175577523Y-25473420D01*
X175476712Y-25544401D01*
X175394718Y-25611996D01*
X175338385Y-25671077D01*
X175315803Y-25710732D01*
X175311268Y-25747740D01*
X175307360Y-25820040D01*
X175304272Y-25920596D01*
X175302201Y-26042368D01*
X175301340Y-26178319D01*
X175301370Y-26231850D01*
X175302952Y-26417565D01*
X175307458Y-26570434D01*
X175316055Y-26699908D01*
X175329910Y-26815440D01*
X175350191Y-26926481D01*
X175378065Y-27042481D01*
X175414698Y-27172892D01*
X175419644Y-27189642D01*
X175444255Y-27268199D01*
X175463918Y-27314259D01*
X175484210Y-27336329D01*
X175510706Y-27342917D01*
X175520258Y-27343147D01*
X175575383Y-27343193D01*
X175568716Y-27132919D01*
X175578527Y-26851576D01*
X175625587Y-26585365D01*
X175708942Y-26336851D01*
X175827640Y-26108601D01*
X175980725Y-25903179D01*
X176055335Y-25824041D01*
X176213474Y-25683061D01*
X176373951Y-25574754D01*
X176550391Y-25491149D01*
X176722633Y-25433684D01*
X176854490Y-25406578D01*
X177014414Y-25390156D01*
X177189517Y-25384402D01*
X177366907Y-25389300D01*
X177533693Y-25404835D01*
X177676985Y-25430991D01*
X177692050Y-25434859D01*
X177939313Y-25520490D01*
X178166421Y-25638614D01*
X178369786Y-25785997D01*
X178545823Y-25959401D01*
X178690944Y-26155594D01*
X178801564Y-26371338D01*
X178837119Y-26467756D01*
X178860930Y-26543330D01*
X178877661Y-26607565D01*
X178888550Y-26670843D01*
X178894835Y-26743544D01*
X178897752Y-26836052D01*
X178898539Y-26958746D01*
X178898550Y-26983267D01*
X178897989Y-27112305D01*
X178895492Y-27209359D01*
X178889840Y-27284773D01*
X178879811Y-27348890D01*
X178864186Y-27412054D01*
X178841744Y-27484609D01*
X178838071Y-27495852D01*
X178817552Y-27557464D01*
X178797276Y-27613699D01*
X178775204Y-27666781D01*
X178749296Y-27718935D01*
X178717514Y-27772385D01*
X178677816Y-27829354D01*
X178628165Y-27892067D01*
X178566521Y-27962749D01*
X178490845Y-28043624D01*
X178399096Y-28136916D01*
X178289237Y-28244849D01*
X178159226Y-28369647D01*
X178007026Y-28513535D01*
X177830596Y-28678737D01*
X177627898Y-28867478D01*
X177396892Y-29081980D01*
X177309104Y-29163434D01*
X177109951Y-29348603D01*
X176917360Y-29528441D01*
X176733953Y-29700452D01*
X176562353Y-29862143D01*
X176405183Y-30011018D01*
X176265065Y-30144582D01*
X176144622Y-30260341D01*
X176046478Y-30355801D01*
X175973254Y-30428466D01*
X175927574Y-30475842D01*
X175918273Y-30486350D01*
X175829843Y-30606572D01*
X175740820Y-30754054D01*
X175658630Y-30914489D01*
X175590701Y-31073572D01*
X175550165Y-31195434D01*
X175535601Y-31256817D01*
X175525168Y-31324904D01*
X175518306Y-31407671D01*
X175514458Y-31513097D01*
X175513063Y-31649160D01*
X175513093Y-31724600D01*
X175513879Y-31866228D01*
X175515965Y-31974336D01*
X175520240Y-32057737D01*
X175527594Y-32125241D01*
X175538916Y-32185662D01*
X175555094Y-32247811D01*
X175571362Y-32302203D01*
X175677683Y-32582252D01*
X175815786Y-32837919D01*
X175983377Y-33066941D01*
X176178161Y-33267053D01*
X176397844Y-33435993D01*
X176640131Y-33571495D01*
X176902727Y-33671298D01*
X176981089Y-33692920D01*
X177188045Y-33732248D01*
X177425391Y-33754350D01*
X177684843Y-33759219D01*
X177958120Y-33746850D01*
X177958120Y-33746850D01*
G37*
X177958120Y-33746850D02*
X178236938Y-33717236D01*
X178387361Y-33693990D01*
X178574810Y-33668388D01*
X178768531Y-33653512D01*
X178879486Y-33650767D01*
X179120800Y-33650767D01*
X179120800Y-32169100D01*
X179057300Y-32169100D01*
X179019120Y-32171588D01*
X179000466Y-32186485D01*
X178994354Y-32224941D01*
X178993800Y-32270487D01*
X178973230Y-32460902D01*
X178913907Y-32646476D01*
X178819405Y-32821892D01*
X178693302Y-32981837D01*
X178539173Y-33120994D01*
X178360596Y-33234050D01*
X178337633Y-33245641D01*
X178235229Y-33290775D01*
X178123777Y-33331760D01*
X178023637Y-33361283D01*
X178002052Y-33366161D01*
X177871855Y-33385297D01*
X177719907Y-33395528D01*
X177560937Y-33396851D01*
X177409669Y-33389261D01*
X177280832Y-33372754D01*
X177250077Y-33366370D01*
X177022057Y-33292476D01*
X176813605Y-33182751D01*
X176628018Y-33040449D01*
X176468595Y-32868820D01*
X176338634Y-32671117D01*
X176241433Y-32450593D01*
X176207600Y-32338434D01*
X176179627Y-32177833D01*
X176170595Y-31997195D01*
X176180054Y-31813222D01*
X176207552Y-31642610D01*
X176228465Y-31565850D01*
X176314917Y-31354494D01*
X176430146Y-31162416D01*
X176511015Y-31060585D01*
X176538943Y-31032221D01*
X176595492Y-30977535D01*
X176678143Y-30898886D01*
X176784378Y-30798632D01*
X176911679Y-30679129D01*
X177057528Y-30542735D01*
X177219405Y-30391809D01*
X177394793Y-30228708D01*
X177581174Y-30055789D01*
X177776029Y-29875410D01*
X177851314Y-29805822D01*
X178049155Y-29622662D01*
X178239696Y-29445542D01*
X178420386Y-29276876D01*
X178588675Y-29119078D01*
X178742012Y-28974562D01*
X178877847Y-28845741D01*
X178993628Y-28735030D01*
X179086805Y-28644842D01*
X179154828Y-28577590D01*
X179195145Y-28535690D01*
X179202404Y-28527253D01*
X179346265Y-28317449D01*
X179457762Y-28088826D01*
X179537803Y-27838417D01*
X179587292Y-27563255D01*
X179607138Y-27260373D01*
X179607633Y-27200778D01*
X179592383Y-26896061D01*
X179545689Y-26616072D01*
X179466134Y-26355699D01*
X179352303Y-26109830D01*
X179264990Y-25964114D01*
X179088183Y-25730117D01*
X178884521Y-25528284D01*
X178655245Y-25359114D01*
X178401597Y-25223107D01*
X178124819Y-25120761D01*
X177826153Y-25052576D01*
X177506841Y-25019052D01*
X177168125Y-25020687D01*
X176961800Y-25038108D01*
X176709333Y-25074550D01*
X176456948Y-25126036D01*
X176215198Y-25189789D01*
X175994636Y-25263029D01*
X175808216Y-25341813D01*
X175690306Y-25404182D01*
X175577523Y-25473420D01*
X175476712Y-25544401D01*
X175394718Y-25611996D01*
X175338385Y-25671077D01*
X175315803Y-25710732D01*
X175311268Y-25747740D01*
X175307360Y-25820040D01*
X175304272Y-25920596D01*
X175302201Y-26042368D01*
X175301340Y-26178319D01*
X175301370Y-26231850D01*
X175302952Y-26417565D01*
X175307458Y-26570434D01*
X175316055Y-26699908D01*
X175329910Y-26815440D01*
X175350191Y-26926481D01*
X175378065Y-27042481D01*
X175414698Y-27172892D01*
X175419644Y-27189642D01*
X175444255Y-27268199D01*
X175463918Y-27314259D01*
X175484210Y-27336329D01*
X175510706Y-27342917D01*
X175520258Y-27343147D01*
X175575383Y-27343193D01*
X175568716Y-27132919D01*
X175578527Y-26851576D01*
X175625587Y-26585365D01*
X175708942Y-26336851D01*
X175827640Y-26108601D01*
X175980725Y-25903179D01*
X176055335Y-25824041D01*
X176213474Y-25683061D01*
X176373951Y-25574754D01*
X176550391Y-25491149D01*
X176722633Y-25433684D01*
X176854490Y-25406578D01*
X177014414Y-25390156D01*
X177189517Y-25384402D01*
X177366907Y-25389300D01*
X177533693Y-25404835D01*
X177676985Y-25430991D01*
X177692050Y-25434859D01*
X177939313Y-25520490D01*
X178166421Y-25638614D01*
X178369786Y-25785997D01*
X178545823Y-25959401D01*
X178690944Y-26155594D01*
X178801564Y-26371338D01*
X178837119Y-26467756D01*
X178860930Y-26543330D01*
X178877661Y-26607565D01*
X178888550Y-26670843D01*
X178894835Y-26743544D01*
X178897752Y-26836052D01*
X178898539Y-26958746D01*
X178898550Y-26983267D01*
X178897989Y-27112305D01*
X178895492Y-27209359D01*
X178889840Y-27284773D01*
X178879811Y-27348890D01*
X178864186Y-27412054D01*
X178841744Y-27484609D01*
X178838071Y-27495852D01*
X178817552Y-27557464D01*
X178797276Y-27613699D01*
X178775204Y-27666781D01*
X178749296Y-27718935D01*
X178717514Y-27772385D01*
X178677816Y-27829354D01*
X178628165Y-27892067D01*
X178566521Y-27962749D01*
X178490845Y-28043624D01*
X178399096Y-28136916D01*
X178289237Y-28244849D01*
X178159226Y-28369647D01*
X178007026Y-28513535D01*
X177830596Y-28678737D01*
X177627898Y-28867478D01*
X177396892Y-29081980D01*
X177309104Y-29163434D01*
X177109951Y-29348603D01*
X176917360Y-29528441D01*
X176733953Y-29700452D01*
X176562353Y-29862143D01*
X176405183Y-30011018D01*
X176265065Y-30144582D01*
X176144622Y-30260341D01*
X176046478Y-30355801D01*
X175973254Y-30428466D01*
X175927574Y-30475842D01*
X175918273Y-30486350D01*
X175829843Y-30606572D01*
X175740820Y-30754054D01*
X175658630Y-30914489D01*
X175590701Y-31073572D01*
X175550165Y-31195434D01*
X175535601Y-31256817D01*
X175525168Y-31324904D01*
X175518306Y-31407671D01*
X175514458Y-31513097D01*
X175513063Y-31649160D01*
X175513093Y-31724600D01*
X175513879Y-31866228D01*
X175515965Y-31974336D01*
X175520240Y-32057737D01*
X175527594Y-32125241D01*
X175538916Y-32185662D01*
X175555094Y-32247811D01*
X175571362Y-32302203D01*
X175677683Y-32582252D01*
X175815786Y-32837919D01*
X175983377Y-33066941D01*
X176178161Y-33267053D01*
X176397844Y-33435993D01*
X176640131Y-33571495D01*
X176902727Y-33671298D01*
X176981089Y-33692920D01*
X177188045Y-33732248D01*
X177425391Y-33754350D01*
X177684843Y-33759219D01*
X177958120Y-33746850D01*
G36*
X187497615Y-33799727D02*
X187499046Y-33741776D01*
X187500307Y-33651004D01*
X187501355Y-33532167D01*
X187502148Y-33390021D01*
X187502643Y-33229323D01*
X187502800Y-33068684D01*
X187502800Y-32317267D01*
X187453005Y-32317267D01*
X187428374Y-32319928D01*
X187412527Y-32333540D01*
X187402394Y-32366544D01*
X187394908Y-32427383D01*
X187389534Y-32491892D01*
X187380415Y-32584678D01*
X187368777Y-32670760D01*
X187356885Y-32733805D01*
X187354925Y-32741331D01*
X187305898Y-32856422D01*
X187226834Y-32972572D01*
X187127410Y-33076187D01*
X187100811Y-33098299D01*
X187061704Y-33128931D01*
X187025485Y-33155090D01*
X186988615Y-33177129D01*
X186947553Y-33195401D01*
X186898761Y-33210259D01*
X186838697Y-33222057D01*
X186763823Y-33231146D01*
X186670598Y-33237881D01*
X186555484Y-33242613D01*
X186414940Y-33245697D01*
X186245426Y-33247484D01*
X186043403Y-33248329D01*
X185805331Y-33248584D01*
X185593665Y-33248600D01*
X184411882Y-33248600D01*
X184423050Y-25893184D01*
X184479777Y-25772151D01*
X184559374Y-25639485D01*
X184664481Y-25518493D01*
X184783738Y-25421086D01*
X184852619Y-25381206D01*
X184928059Y-25349257D01*
X185004983Y-25329467D01*
X185099791Y-25318260D01*
X185156880Y-25314859D01*
X185343800Y-25305922D01*
X185343800Y-25184100D01*
X182719133Y-25184100D01*
X182719133Y-25305922D01*
X182904341Y-25315345D01*
X183011591Y-25323799D01*
X183092562Y-25338762D01*
X183163211Y-25363823D01*
X183201434Y-25382176D01*
X183349107Y-25476277D01*
X183465682Y-25593678D01*
X183546769Y-25718171D01*
X183618716Y-25850850D01*
X183624241Y-29550383D01*
X183629767Y-33249916D01*
X182407158Y-33243967D01*
X181184550Y-33238017D01*
X181078716Y-33185606D01*
X180946526Y-33098993D01*
X180830701Y-32982381D01*
X180742926Y-32847845D01*
X180734074Y-32829426D01*
X180703428Y-32752083D01*
X180684198Y-32672075D01*
X180673162Y-32573557D01*
X180669738Y-32513059D01*
X180660917Y-32317267D01*
X180538966Y-32317267D01*
X180538966Y-33068684D01*
X180539123Y-33242282D01*
X180539568Y-33401717D01*
X180540266Y-33542233D01*
X180541180Y-33659072D01*
X180542273Y-33747480D01*
X180543508Y-33802699D01*
X180544743Y-33820100D01*
X180566347Y-33815234D01*
X180620014Y-33802107D01*
X180696791Y-33782931D01*
X180758074Y-33767450D01*
X180862718Y-33743044D01*
X180992447Y-33715954D01*
X181130446Y-33689546D01*
X181255005Y-33667974D01*
X181301210Y-33660629D01*
X181345639Y-33654084D01*
X181390929Y-33648283D01*
X181439715Y-33643171D01*
X181494633Y-33638693D01*
X181558320Y-33634793D01*
X181633411Y-33631416D01*
X181722542Y-33628507D01*
X181828350Y-33626011D01*
X181953469Y-33623873D01*
X182100536Y-33622037D01*
X182272186Y-33620448D01*
X182471057Y-33619051D01*
X182699783Y-33617791D01*
X182961000Y-33616612D01*
X183257345Y-33615459D01*
X183591453Y-33614278D01*
X183862133Y-33613361D01*
X184309711Y-33612107D01*
X184716839Y-33611486D01*
X185083305Y-33611498D01*
X185408895Y-33612142D01*
X185693397Y-33613415D01*
X185936600Y-33615318D01*
X186138291Y-33617848D01*
X186298257Y-33621004D01*
X186416287Y-33624786D01*
X186483279Y-33628476D01*
X186692959Y-33650275D01*
X186915708Y-33683852D01*
X187134713Y-33726212D01*
X187333161Y-33774359D01*
X187384933Y-33789115D01*
X187445315Y-33806684D01*
X187486207Y-33817913D01*
X187496058Y-33820101D01*
X187497615Y-33799727D01*
X187497615Y-33799727D01*
G37*
X187497615Y-33799727D02*
X187499046Y-33741776D01*
X187500307Y-33651004D01*
X187501355Y-33532167D01*
X187502148Y-33390021D01*
X187502643Y-33229323D01*
X187502800Y-33068684D01*
X187502800Y-32317267D01*
X187453005Y-32317267D01*
X187428374Y-32319928D01*
X187412527Y-32333540D01*
X187402394Y-32366544D01*
X187394908Y-32427383D01*
X187389534Y-32491892D01*
X187380415Y-32584678D01*
X187368777Y-32670760D01*
X187356885Y-32733805D01*
X187354925Y-32741331D01*
X187305898Y-32856422D01*
X187226834Y-32972572D01*
X187127410Y-33076187D01*
X187100811Y-33098299D01*
X187061704Y-33128931D01*
X187025485Y-33155090D01*
X186988615Y-33177129D01*
X186947553Y-33195401D01*
X186898761Y-33210259D01*
X186838697Y-33222057D01*
X186763823Y-33231146D01*
X186670598Y-33237881D01*
X186555484Y-33242613D01*
X186414940Y-33245697D01*
X186245426Y-33247484D01*
X186043403Y-33248329D01*
X185805331Y-33248584D01*
X185593665Y-33248600D01*
X184411882Y-33248600D01*
X184423050Y-25893184D01*
X184479777Y-25772151D01*
X184559374Y-25639485D01*
X184664481Y-25518493D01*
X184783738Y-25421086D01*
X184852619Y-25381206D01*
X184928059Y-25349257D01*
X185004983Y-25329467D01*
X185099791Y-25318260D01*
X185156880Y-25314859D01*
X185343800Y-25305922D01*
X185343800Y-25184100D01*
X182719133Y-25184100D01*
X182719133Y-25305922D01*
X182904341Y-25315345D01*
X183011591Y-25323799D01*
X183092562Y-25338762D01*
X183163211Y-25363823D01*
X183201434Y-25382176D01*
X183349107Y-25476277D01*
X183465682Y-25593678D01*
X183546769Y-25718171D01*
X183618716Y-25850850D01*
X183624241Y-29550383D01*
X183629767Y-33249916D01*
X182407158Y-33243967D01*
X181184550Y-33238017D01*
X181078716Y-33185606D01*
X180946526Y-33098993D01*
X180830701Y-32982381D01*
X180742926Y-32847845D01*
X180734074Y-32829426D01*
X180703428Y-32752083D01*
X180684198Y-32672075D01*
X180673162Y-32573557D01*
X180669738Y-32513059D01*
X180660917Y-32317267D01*
X180538966Y-32317267D01*
X180538966Y-33068684D01*
X180539123Y-33242282D01*
X180539568Y-33401717D01*
X180540266Y-33542233D01*
X180541180Y-33659072D01*
X180542273Y-33747480D01*
X180543508Y-33802699D01*
X180544743Y-33820100D01*
X180566347Y-33815234D01*
X180620014Y-33802107D01*
X180696791Y-33782931D01*
X180758074Y-33767450D01*
X180862718Y-33743044D01*
X180992447Y-33715954D01*
X181130446Y-33689546D01*
X181255005Y-33667974D01*
X181301210Y-33660629D01*
X181345639Y-33654084D01*
X181390929Y-33648283D01*
X181439715Y-33643171D01*
X181494633Y-33638693D01*
X181558320Y-33634793D01*
X181633411Y-33631416D01*
X181722542Y-33628507D01*
X181828350Y-33626011D01*
X181953469Y-33623873D01*
X182100536Y-33622037D01*
X182272186Y-33620448D01*
X182471057Y-33619051D01*
X182699783Y-33617791D01*
X182961000Y-33616612D01*
X183257345Y-33615459D01*
X183591453Y-33614278D01*
X183862133Y-33613361D01*
X184309711Y-33612107D01*
X184716839Y-33611486D01*
X185083305Y-33611498D01*
X185408895Y-33612142D01*
X185693397Y-33613415D01*
X185936600Y-33615318D01*
X186138291Y-33617848D01*
X186298257Y-33621004D01*
X186416287Y-33624786D01*
X186483279Y-33628476D01*
X186692959Y-33650275D01*
X186915708Y-33683852D01*
X187134713Y-33726212D01*
X187333161Y-33774359D01*
X187384933Y-33789115D01*
X187445315Y-33806684D01*
X187486207Y-33817913D01*
X187496058Y-33820101D01*
X187497615Y-33799727D01*
G36*
X191180780Y-33775439D02*
X191189440Y-33767388D01*
X191200702Y-33752012D01*
X191215256Y-33727713D01*
X191233789Y-33692888D01*
X191256992Y-33645937D01*
X191285554Y-33585261D01*
X191320163Y-33509257D01*
X191361509Y-33416327D01*
X191410281Y-33304868D01*
X191467168Y-33173281D01*
X191532860Y-33019965D01*
X191608045Y-32843319D01*
X191693412Y-32641742D01*
X191789651Y-32413635D01*
X191897451Y-32157397D01*
X192017501Y-31871426D01*
X192150490Y-31554123D01*
X192297107Y-31203887D01*
X192458042Y-30819117D01*
X192633983Y-30398213D01*
X192793944Y-30015392D01*
X192954258Y-29631797D01*
X193111031Y-29256913D01*
X193263413Y-28892760D01*
X193410555Y-28541358D01*
X193551609Y-28204727D01*
X193685726Y-27884887D01*
X193812057Y-27583858D01*
X193929753Y-27303660D01*
X194037965Y-27046311D01*
X194135844Y-26813834D01*
X194222541Y-26608246D01*
X194297208Y-26431569D01*
X194358995Y-26285822D01*
X194407054Y-26173024D01*
X194440536Y-26095196D01*
X194458591Y-26054358D01*
X194458882Y-26053733D01*
X194550355Y-25878601D01*
X194648720Y-25735654D01*
X194762454Y-25614774D01*
X194900032Y-25505842D01*
X194941356Y-25477832D01*
X195105667Y-25390500D01*
X195282686Y-25333557D01*
X195458799Y-25311262D01*
X195474279Y-25311100D01*
X195609633Y-25311100D01*
X195609633Y-25184100D01*
X192900300Y-25184100D01*
X192900300Y-25247600D01*
X192902079Y-25283223D01*
X192914192Y-25302170D01*
X192946795Y-25309706D01*
X193010049Y-25311097D01*
X193022815Y-25311100D01*
X193164170Y-25330351D01*
X193287130Y-25387369D01*
X193389451Y-25481053D01*
X193402127Y-25497199D01*
X193470111Y-25607894D01*
X193503161Y-25719364D01*
X193504259Y-25844526D01*
X193496000Y-25903767D01*
X193483634Y-25951645D01*
X193457464Y-26034944D01*
X193418927Y-26149590D01*
X193369464Y-26291510D01*
X193310515Y-26456632D01*
X193243519Y-26640882D01*
X193169915Y-26840188D01*
X193091142Y-27050476D01*
X193084554Y-27067934D01*
X192696906Y-28094517D01*
X189443113Y-28094517D01*
X189031186Y-27046767D01*
X188939882Y-26814209D01*
X188862978Y-26617361D01*
X188799208Y-26452604D01*
X188747309Y-26316321D01*
X188706014Y-26204892D01*
X188674058Y-26114699D01*
X188650178Y-26042124D01*
X188633107Y-25983549D01*
X188621580Y-25935354D01*
X188614333Y-25893922D01*
X188610101Y-25855634D01*
X188608861Y-25838760D01*
X188605541Y-25742735D01*
X188611479Y-25674608D01*
X188628229Y-25620654D01*
X188635214Y-25605927D01*
X188714019Y-25478287D01*
X188803926Y-25389137D01*
X188910035Y-25335057D01*
X189037445Y-25312632D01*
X189074425Y-25311565D01*
X189142870Y-25310354D01*
X189179174Y-25303821D01*
X189193529Y-25286610D01*
X189196127Y-25253364D01*
X189196133Y-25247600D01*
X189196133Y-25184100D01*
X186783133Y-25184100D01*
X186783133Y-25311100D01*
X186918487Y-25311100D01*
X187096202Y-25331232D01*
X187274887Y-25388793D01*
X187448099Y-25479534D01*
X187609399Y-25599204D01*
X187752345Y-25743554D01*
X187870496Y-25908334D01*
X187898288Y-25957612D01*
X187913904Y-25991052D01*
X187944953Y-26061361D01*
X187990513Y-26166363D01*
X188049660Y-26303882D01*
X188121470Y-26471742D01*
X188205020Y-26667765D01*
X188299387Y-26889776D01*
X188403647Y-27135599D01*
X188516878Y-27403057D01*
X188638155Y-27689974D01*
X188766555Y-27994173D01*
X188901156Y-28313479D01*
X188968840Y-28474243D01*
X189598300Y-28474243D01*
X189618900Y-28472692D01*
X189678437Y-28471221D01*
X189773515Y-28469853D01*
X189900735Y-28468609D01*
X190056703Y-28467510D01*
X190238021Y-28466578D01*
X190441293Y-28465834D01*
X190663122Y-28465300D01*
X190900111Y-28464997D01*
X191071647Y-28464934D01*
X191367316Y-28465074D01*
X191623109Y-28465526D01*
X191841482Y-28466333D01*
X192024893Y-28467539D01*
X192175798Y-28469190D01*
X192296654Y-28471329D01*
X192389917Y-28474001D01*
X192458044Y-28477250D01*
X192503492Y-28481121D01*
X192528716Y-28485658D01*
X192536175Y-28490905D01*
X192536066Y-28491392D01*
X192527541Y-28514610D01*
X192505251Y-28574727D01*
X192470224Y-28668977D01*
X192423491Y-28794596D01*
X192366081Y-28948820D01*
X192299024Y-29128882D01*
X192223350Y-29332019D01*
X192140088Y-29555466D01*
X192050268Y-29796457D01*
X191954920Y-30052227D01*
X191855074Y-30320013D01*
X191819426Y-30415606D01*
X191699096Y-30737538D01*
X191588024Y-31033194D01*
X191486762Y-31301155D01*
X191395860Y-31540001D01*
X191315866Y-31748314D01*
X191247332Y-31924672D01*
X191190806Y-32067657D01*
X191146840Y-32175848D01*
X191115982Y-32247827D01*
X191098783Y-32282172D01*
X191095447Y-32284741D01*
X191085686Y-32261633D01*
X191061877Y-32202621D01*
X191025312Y-32110991D01*
X190977283Y-31990030D01*
X190919081Y-31843026D01*
X190851998Y-31673268D01*
X190777326Y-31484041D01*
X190696356Y-31278634D01*
X190610381Y-31060335D01*
X190520691Y-30832430D01*
X190428578Y-30598208D01*
X190335335Y-30360956D01*
X190242253Y-30123962D01*
X190150622Y-29890513D01*
X190061736Y-29663896D01*
X189976886Y-29447399D01*
X189897364Y-29244310D01*
X189824460Y-29057917D01*
X189759468Y-28891506D01*
X189703678Y-28748365D01*
X189658382Y-28631783D01*
X189624872Y-28545046D01*
X189604440Y-28491442D01*
X189598300Y-28474243D01*
X188968840Y-28474243D01*
X189041033Y-28645714D01*
X189185263Y-28988703D01*
X189281049Y-29216712D01*
X189429619Y-29570428D01*
X189575584Y-29917794D01*
X189717926Y-30256391D01*
X189855627Y-30583801D01*
X189987665Y-30897605D01*
X190113023Y-31195384D01*
X190230681Y-31474719D01*
X190339619Y-31733192D01*
X190438819Y-31968385D01*
X190527262Y-32177877D01*
X190603927Y-32359252D01*
X190667796Y-32510090D01*
X190717850Y-32627972D01*
X190753069Y-32710480D01*
X190765072Y-32738347D01*
X190849504Y-32937982D01*
X190925726Y-33127568D01*
X190991754Y-33301660D01*
X191045604Y-33454809D01*
X191085293Y-33581570D01*
X191108836Y-33676496D01*
X191110879Y-33687809D01*
X191124400Y-33745589D01*
X191144094Y-33771937D01*
X191174033Y-33777767D01*
X191180780Y-33775439D01*
X191180780Y-33775439D01*
G37*
X191180780Y-33775439D02*
X191189440Y-33767388D01*
X191200702Y-33752012D01*
X191215256Y-33727713D01*
X191233789Y-33692888D01*
X191256992Y-33645937D01*
X191285554Y-33585261D01*
X191320163Y-33509257D01*
X191361509Y-33416327D01*
X191410281Y-33304868D01*
X191467168Y-33173281D01*
X191532860Y-33019965D01*
X191608045Y-32843319D01*
X191693412Y-32641742D01*
X191789651Y-32413635D01*
X191897451Y-32157397D01*
X192017501Y-31871426D01*
X192150490Y-31554123D01*
X192297107Y-31203887D01*
X192458042Y-30819117D01*
X192633983Y-30398213D01*
X192793944Y-30015392D01*
X192954258Y-29631797D01*
X193111031Y-29256913D01*
X193263413Y-28892760D01*
X193410555Y-28541358D01*
X193551609Y-28204727D01*
X193685726Y-27884887D01*
X193812057Y-27583858D01*
X193929753Y-27303660D01*
X194037965Y-27046311D01*
X194135844Y-26813834D01*
X194222541Y-26608246D01*
X194297208Y-26431569D01*
X194358995Y-26285822D01*
X194407054Y-26173024D01*
X194440536Y-26095196D01*
X194458591Y-26054358D01*
X194458882Y-26053733D01*
X194550355Y-25878601D01*
X194648720Y-25735654D01*
X194762454Y-25614774D01*
X194900032Y-25505842D01*
X194941356Y-25477832D01*
X195105667Y-25390500D01*
X195282686Y-25333557D01*
X195458799Y-25311262D01*
X195474279Y-25311100D01*
X195609633Y-25311100D01*
X195609633Y-25184100D01*
X192900300Y-25184100D01*
X192900300Y-25247600D01*
X192902079Y-25283223D01*
X192914192Y-25302170D01*
X192946795Y-25309706D01*
X193010049Y-25311097D01*
X193022815Y-25311100D01*
X193164170Y-25330351D01*
X193287130Y-25387369D01*
X193389451Y-25481053D01*
X193402127Y-25497199D01*
X193470111Y-25607894D01*
X193503161Y-25719364D01*
X193504259Y-25844526D01*
X193496000Y-25903767D01*
X193483634Y-25951645D01*
X193457464Y-26034944D01*
X193418927Y-26149590D01*
X193369464Y-26291510D01*
X193310515Y-26456632D01*
X193243519Y-26640882D01*
X193169915Y-26840188D01*
X193091142Y-27050476D01*
X193084554Y-27067934D01*
X192696906Y-28094517D01*
X189443113Y-28094517D01*
X189031186Y-27046767D01*
X188939882Y-26814209D01*
X188862978Y-26617361D01*
X188799208Y-26452604D01*
X188747309Y-26316321D01*
X188706014Y-26204892D01*
X188674058Y-26114699D01*
X188650178Y-26042124D01*
X188633107Y-25983549D01*
X188621580Y-25935354D01*
X188614333Y-25893922D01*
X188610101Y-25855634D01*
X188608861Y-25838760D01*
X188605541Y-25742735D01*
X188611479Y-25674608D01*
X188628229Y-25620654D01*
X188635214Y-25605927D01*
X188714019Y-25478287D01*
X188803926Y-25389137D01*
X188910035Y-25335057D01*
X189037445Y-25312632D01*
X189074425Y-25311565D01*
X189142870Y-25310354D01*
X189179174Y-25303821D01*
X189193529Y-25286610D01*
X189196127Y-25253364D01*
X189196133Y-25247600D01*
X189196133Y-25184100D01*
X186783133Y-25184100D01*
X186783133Y-25311100D01*
X186918487Y-25311100D01*
X187096202Y-25331232D01*
X187274887Y-25388793D01*
X187448099Y-25479534D01*
X187609399Y-25599204D01*
X187752345Y-25743554D01*
X187870496Y-25908334D01*
X187898288Y-25957612D01*
X187913904Y-25991052D01*
X187944953Y-26061361D01*
X187990513Y-26166363D01*
X188049660Y-26303882D01*
X188121470Y-26471742D01*
X188205020Y-26667765D01*
X188299387Y-26889776D01*
X188403647Y-27135599D01*
X188516878Y-27403057D01*
X188638155Y-27689974D01*
X188766555Y-27994173D01*
X188901156Y-28313479D01*
X188968840Y-28474243D01*
X189598300Y-28474243D01*
X189618900Y-28472692D01*
X189678437Y-28471221D01*
X189773515Y-28469853D01*
X189900735Y-28468609D01*
X190056703Y-28467510D01*
X190238021Y-28466578D01*
X190441293Y-28465834D01*
X190663122Y-28465300D01*
X190900111Y-28464997D01*
X191071647Y-28464934D01*
X191367316Y-28465074D01*
X191623109Y-28465526D01*
X191841482Y-28466333D01*
X192024893Y-28467539D01*
X192175798Y-28469190D01*
X192296654Y-28471329D01*
X192389917Y-28474001D01*
X192458044Y-28477250D01*
X192503492Y-28481121D01*
X192528716Y-28485658D01*
X192536175Y-28490905D01*
X192536066Y-28491392D01*
X192527541Y-28514610D01*
X192505251Y-28574727D01*
X192470224Y-28668977D01*
X192423491Y-28794596D01*
X192366081Y-28948820D01*
X192299024Y-29128882D01*
X192223350Y-29332019D01*
X192140088Y-29555466D01*
X192050268Y-29796457D01*
X191954920Y-30052227D01*
X191855074Y-30320013D01*
X191819426Y-30415606D01*
X191699096Y-30737538D01*
X191588024Y-31033194D01*
X191486762Y-31301155D01*
X191395860Y-31540001D01*
X191315866Y-31748314D01*
X191247332Y-31924672D01*
X191190806Y-32067657D01*
X191146840Y-32175848D01*
X191115982Y-32247827D01*
X191098783Y-32282172D01*
X191095447Y-32284741D01*
X191085686Y-32261633D01*
X191061877Y-32202621D01*
X191025312Y-32110991D01*
X190977283Y-31990030D01*
X190919081Y-31843026D01*
X190851998Y-31673268D01*
X190777326Y-31484041D01*
X190696356Y-31278634D01*
X190610381Y-31060335D01*
X190520691Y-30832430D01*
X190428578Y-30598208D01*
X190335335Y-30360956D01*
X190242253Y-30123962D01*
X190150622Y-29890513D01*
X190061736Y-29663896D01*
X189976886Y-29447399D01*
X189897364Y-29244310D01*
X189824460Y-29057917D01*
X189759468Y-28891506D01*
X189703678Y-28748365D01*
X189658382Y-28631783D01*
X189624872Y-28545046D01*
X189604440Y-28491442D01*
X189598300Y-28474243D01*
X188968840Y-28474243D01*
X189041033Y-28645714D01*
X189185263Y-28988703D01*
X189281049Y-29216712D01*
X189429619Y-29570428D01*
X189575584Y-29917794D01*
X189717926Y-30256391D01*
X189855627Y-30583801D01*
X189987665Y-30897605D01*
X190113023Y-31195384D01*
X190230681Y-31474719D01*
X190339619Y-31733192D01*
X190438819Y-31968385D01*
X190527262Y-32177877D01*
X190603927Y-32359252D01*
X190667796Y-32510090D01*
X190717850Y-32627972D01*
X190753069Y-32710480D01*
X190765072Y-32738347D01*
X190849504Y-32937982D01*
X190925726Y-33127568D01*
X190991754Y-33301660D01*
X191045604Y-33454809D01*
X191085293Y-33581570D01*
X191108836Y-33676496D01*
X191110879Y-33687809D01*
X191124400Y-33745589D01*
X191144094Y-33771937D01*
X191174033Y-33777767D01*
X191180780Y-33775439D01*
G36*
X201134133Y-32465434D02*
X201007133Y-32465434D01*
X201005523Y-32618892D01*
X201001239Y-32706219D01*
X200991588Y-32786060D01*
X200979064Y-32839746D01*
X200911422Y-32967452D01*
X200813001Y-33078946D01*
X200709515Y-33153350D01*
X200594383Y-33216850D01*
X199245008Y-33222744D01*
X197895633Y-33228637D01*
X197895633Y-29502100D01*
X198887577Y-29502100D01*
X199104011Y-29502550D01*
X199306845Y-29503843D01*
X199491750Y-29505897D01*
X199654400Y-29508631D01*
X199790468Y-29511962D01*
X199895626Y-29515808D01*
X199965549Y-29520088D01*
X199989806Y-29523016D01*
X200121253Y-29558109D01*
X200227019Y-29611841D01*
X200319166Y-29688713D01*
X200399779Y-29782261D01*
X200452556Y-29879635D01*
X200482878Y-29993758D01*
X200494858Y-30110642D01*
X200504442Y-30285267D01*
X200626133Y-30285267D01*
X200626133Y-28380267D01*
X200504442Y-28380267D01*
X200495262Y-28555154D01*
X200470034Y-28724746D01*
X200413267Y-28866710D01*
X200324398Y-28982274D01*
X200281658Y-29019867D01*
X200248376Y-29045900D01*
X200217184Y-29067887D01*
X200184352Y-29086171D01*
X200146152Y-29101099D01*
X200098853Y-29113016D01*
X200038729Y-29122266D01*
X199962048Y-29129196D01*
X199865083Y-29134149D01*
X199744104Y-29137472D01*
X199595382Y-29139509D01*
X199415188Y-29140606D01*
X199199793Y-29141107D01*
X198969339Y-29141338D01*
X197894629Y-29142267D01*
X197900423Y-27496559D01*
X197906216Y-25850850D01*
X197958457Y-25745017D01*
X198035393Y-25625613D01*
X198140927Y-25512178D01*
X198261928Y-25417802D01*
X198321492Y-25383192D01*
X198393497Y-25351026D01*
X198466421Y-25331006D01*
X198556387Y-25319476D01*
X198620591Y-25315345D01*
X198805800Y-25305922D01*
X198805800Y-25184100D01*
X196181133Y-25184100D01*
X196181133Y-25305922D01*
X196366645Y-25314792D01*
X196484278Y-25324487D01*
X196574828Y-25342586D01*
X196653207Y-25372135D01*
X196657686Y-25374261D01*
X196766685Y-25442722D01*
X196874470Y-25538437D01*
X196969182Y-25648874D01*
X197038960Y-25761502D01*
X197052122Y-25790999D01*
X197101883Y-25914350D01*
X197101883Y-32941684D01*
X197043044Y-33061499D01*
X196951972Y-33200156D01*
X196829098Y-33314025D01*
X196678689Y-33400476D01*
X196505014Y-33456880D01*
X196367881Y-33477417D01*
X196281839Y-33485166D01*
X196229249Y-33493223D01*
X196201349Y-33505074D01*
X196189378Y-33524208D01*
X196185019Y-33550225D01*
X196178321Y-33608434D01*
X198121769Y-33608847D01*
X198467341Y-33608960D01*
X198773665Y-33609228D01*
X199043823Y-33609775D01*
X199280901Y-33610726D01*
X199487981Y-33612208D01*
X199668148Y-33614345D01*
X199824486Y-33617263D01*
X199960079Y-33621087D01*
X200078011Y-33625942D01*
X200181366Y-33631954D01*
X200273229Y-33639247D01*
X200356683Y-33647948D01*
X200434812Y-33658181D01*
X200510701Y-33670071D01*
X200587433Y-33683745D01*
X200668092Y-33699327D01*
X200749043Y-33715582D01*
X200850707Y-33737337D01*
X200945806Y-33759754D01*
X201021004Y-33779589D01*
X201052050Y-33789262D01*
X201134133Y-33818223D01*
X201134133Y-32465434D01*
X201134133Y-32465434D01*
G37*
X201134133Y-32465434D02*
X201007133Y-32465434D01*
X201005523Y-32618892D01*
X201001239Y-32706219D01*
X200991588Y-32786060D01*
X200979064Y-32839746D01*
X200911422Y-32967452D01*
X200813001Y-33078946D01*
X200709515Y-33153350D01*
X200594383Y-33216850D01*
X199245008Y-33222744D01*
X197895633Y-33228637D01*
X197895633Y-29502100D01*
X198887577Y-29502100D01*
X199104011Y-29502550D01*
X199306845Y-29503843D01*
X199491750Y-29505897D01*
X199654400Y-29508631D01*
X199790468Y-29511962D01*
X199895626Y-29515808D01*
X199965549Y-29520088D01*
X199989806Y-29523016D01*
X200121253Y-29558109D01*
X200227019Y-29611841D01*
X200319166Y-29688713D01*
X200399779Y-29782261D01*
X200452556Y-29879635D01*
X200482878Y-29993758D01*
X200494858Y-30110642D01*
X200504442Y-30285267D01*
X200626133Y-30285267D01*
X200626133Y-28380267D01*
X200504442Y-28380267D01*
X200495262Y-28555154D01*
X200470034Y-28724746D01*
X200413267Y-28866710D01*
X200324398Y-28982274D01*
X200281658Y-29019867D01*
X200248376Y-29045900D01*
X200217184Y-29067887D01*
X200184352Y-29086171D01*
X200146152Y-29101099D01*
X200098853Y-29113016D01*
X200038729Y-29122266D01*
X199962048Y-29129196D01*
X199865083Y-29134149D01*
X199744104Y-29137472D01*
X199595382Y-29139509D01*
X199415188Y-29140606D01*
X199199793Y-29141107D01*
X198969339Y-29141338D01*
X197894629Y-29142267D01*
X197900423Y-27496559D01*
X197906216Y-25850850D01*
X197958457Y-25745017D01*
X198035393Y-25625613D01*
X198140927Y-25512178D01*
X198261928Y-25417802D01*
X198321492Y-25383192D01*
X198393497Y-25351026D01*
X198466421Y-25331006D01*
X198556387Y-25319476D01*
X198620591Y-25315345D01*
X198805800Y-25305922D01*
X198805800Y-25184100D01*
X196181133Y-25184100D01*
X196181133Y-25305922D01*
X196366645Y-25314792D01*
X196484278Y-25324487D01*
X196574828Y-25342586D01*
X196653207Y-25372135D01*
X196657686Y-25374261D01*
X196766685Y-25442722D01*
X196874470Y-25538437D01*
X196969182Y-25648874D01*
X197038960Y-25761502D01*
X197052122Y-25790999D01*
X197101883Y-25914350D01*
X197101883Y-32941684D01*
X197043044Y-33061499D01*
X196951972Y-33200156D01*
X196829098Y-33314025D01*
X196678689Y-33400476D01*
X196505014Y-33456880D01*
X196367881Y-33477417D01*
X196281839Y-33485166D01*
X196229249Y-33493223D01*
X196201349Y-33505074D01*
X196189378Y-33524208D01*
X196185019Y-33550225D01*
X196178321Y-33608434D01*
X198121769Y-33608847D01*
X198467341Y-33608960D01*
X198773665Y-33609228D01*
X199043823Y-33609775D01*
X199280901Y-33610726D01*
X199487981Y-33612208D01*
X199668148Y-33614345D01*
X199824486Y-33617263D01*
X199960079Y-33621087D01*
X200078011Y-33625942D01*
X200181366Y-33631954D01*
X200273229Y-33639247D01*
X200356683Y-33647948D01*
X200434812Y-33658181D01*
X200510701Y-33670071D01*
X200587433Y-33683745D01*
X200668092Y-33699327D01*
X200749043Y-33715582D01*
X200850707Y-33737337D01*
X200945806Y-33759754D01*
X201021004Y-33779589D01*
X201052050Y-33789262D01*
X201134133Y-33818223D01*
X201134133Y-32465434D01*
G36*
X207632300Y-32465434D02*
X207505300Y-32465434D01*
X207503689Y-32618892D01*
X207499406Y-32706219D01*
X207489755Y-32786060D01*
X207477231Y-32839746D01*
X207409589Y-32967452D01*
X207311168Y-33078946D01*
X207207681Y-33153350D01*
X207092550Y-33216850D01*
X205743175Y-33222744D01*
X204393800Y-33228637D01*
X204393800Y-29502100D01*
X205385744Y-29502100D01*
X205602178Y-29502550D01*
X205805011Y-29503843D01*
X205989917Y-29505897D01*
X206152567Y-29508631D01*
X206288634Y-29511962D01*
X206393793Y-29515808D01*
X206463715Y-29520088D01*
X206487973Y-29523016D01*
X206619420Y-29558109D01*
X206725186Y-29611841D01*
X206817333Y-29688713D01*
X206897946Y-29782261D01*
X206950723Y-29879635D01*
X206981045Y-29993758D01*
X206993025Y-30110642D01*
X207002608Y-30285267D01*
X207124300Y-30285267D01*
X207124300Y-28380267D01*
X207002608Y-28380267D01*
X206993429Y-28555154D01*
X206968201Y-28724746D01*
X206911434Y-28866710D01*
X206822564Y-28982274D01*
X206779825Y-29019867D01*
X206746543Y-29045900D01*
X206715351Y-29067887D01*
X206682519Y-29086171D01*
X206644318Y-29101099D01*
X206597020Y-29113016D01*
X206536895Y-29122266D01*
X206460215Y-29129196D01*
X206363250Y-29134149D01*
X206242270Y-29137472D01*
X206093548Y-29139509D01*
X205913354Y-29140606D01*
X205697959Y-29141107D01*
X205467506Y-29141338D01*
X204392796Y-29142267D01*
X204398589Y-27496559D01*
X204404383Y-25850850D01*
X204456624Y-25745017D01*
X204533560Y-25625613D01*
X204639094Y-25512178D01*
X204760094Y-25417802D01*
X204819658Y-25383192D01*
X204891664Y-25351026D01*
X204964588Y-25331006D01*
X205054554Y-25319476D01*
X205118758Y-25315345D01*
X205303966Y-25305922D01*
X205303966Y-25184100D01*
X202679300Y-25184100D01*
X202679300Y-25305922D01*
X202864811Y-25314792D01*
X202982444Y-25324487D01*
X203072995Y-25342586D01*
X203151374Y-25372135D01*
X203155853Y-25374261D01*
X203264852Y-25442722D01*
X203372637Y-25538437D01*
X203467349Y-25648874D01*
X203537126Y-25761502D01*
X203550289Y-25790999D01*
X203600050Y-25914350D01*
X203600050Y-32941684D01*
X203541211Y-33061499D01*
X203450139Y-33200156D01*
X203327265Y-33314025D01*
X203176856Y-33400476D01*
X203003181Y-33456880D01*
X202866048Y-33477417D01*
X202780006Y-33485166D01*
X202727415Y-33493223D01*
X202699515Y-33505074D01*
X202687545Y-33524208D01*
X202683185Y-33550225D01*
X202676488Y-33608434D01*
X204619935Y-33608847D01*
X204965508Y-33608960D01*
X205271832Y-33609228D01*
X205541990Y-33609775D01*
X205779067Y-33610726D01*
X205986147Y-33612208D01*
X206166314Y-33614345D01*
X206322652Y-33617263D01*
X206458246Y-33621087D01*
X206576178Y-33625942D01*
X206679533Y-33631954D01*
X206771396Y-33639247D01*
X206854850Y-33647948D01*
X206932979Y-33658181D01*
X207008867Y-33670071D01*
X207085600Y-33683745D01*
X207166259Y-33699327D01*
X207247210Y-33715582D01*
X207348874Y-33737337D01*
X207443973Y-33759754D01*
X207519171Y-33779589D01*
X207550217Y-33789262D01*
X207632300Y-33818223D01*
X207632300Y-32465434D01*
X207632300Y-32465434D01*
G37*
X207632300Y-32465434D02*
X207505300Y-32465434D01*
X207503689Y-32618892D01*
X207499406Y-32706219D01*
X207489755Y-32786060D01*
X207477231Y-32839746D01*
X207409589Y-32967452D01*
X207311168Y-33078946D01*
X207207681Y-33153350D01*
X207092550Y-33216850D01*
X205743175Y-33222744D01*
X204393800Y-33228637D01*
X204393800Y-29502100D01*
X205385744Y-29502100D01*
X205602178Y-29502550D01*
X205805011Y-29503843D01*
X205989917Y-29505897D01*
X206152567Y-29508631D01*
X206288634Y-29511962D01*
X206393793Y-29515808D01*
X206463715Y-29520088D01*
X206487973Y-29523016D01*
X206619420Y-29558109D01*
X206725186Y-29611841D01*
X206817333Y-29688713D01*
X206897946Y-29782261D01*
X206950723Y-29879635D01*
X206981045Y-29993758D01*
X206993025Y-30110642D01*
X207002608Y-30285267D01*
X207124300Y-30285267D01*
X207124300Y-28380267D01*
X207002608Y-28380267D01*
X206993429Y-28555154D01*
X206968201Y-28724746D01*
X206911434Y-28866710D01*
X206822564Y-28982274D01*
X206779825Y-29019867D01*
X206746543Y-29045900D01*
X206715351Y-29067887D01*
X206682519Y-29086171D01*
X206644318Y-29101099D01*
X206597020Y-29113016D01*
X206536895Y-29122266D01*
X206460215Y-29129196D01*
X206363250Y-29134149D01*
X206242270Y-29137472D01*
X206093548Y-29139509D01*
X205913354Y-29140606D01*
X205697959Y-29141107D01*
X205467506Y-29141338D01*
X204392796Y-29142267D01*
X204398589Y-27496559D01*
X204404383Y-25850850D01*
X204456624Y-25745017D01*
X204533560Y-25625613D01*
X204639094Y-25512178D01*
X204760094Y-25417802D01*
X204819658Y-25383192D01*
X204891664Y-25351026D01*
X204964588Y-25331006D01*
X205054554Y-25319476D01*
X205118758Y-25315345D01*
X205303966Y-25305922D01*
X205303966Y-25184100D01*
X202679300Y-25184100D01*
X202679300Y-25305922D01*
X202864811Y-25314792D01*
X202982444Y-25324487D01*
X203072995Y-25342586D01*
X203151374Y-25372135D01*
X203155853Y-25374261D01*
X203264852Y-25442722D01*
X203372637Y-25538437D01*
X203467349Y-25648874D01*
X203537126Y-25761502D01*
X203550289Y-25790999D01*
X203600050Y-25914350D01*
X203600050Y-32941684D01*
X203541211Y-33061499D01*
X203450139Y-33200156D01*
X203327265Y-33314025D01*
X203176856Y-33400476D01*
X203003181Y-33456880D01*
X202866048Y-33477417D01*
X202780006Y-33485166D01*
X202727415Y-33493223D01*
X202699515Y-33505074D01*
X202687545Y-33524208D01*
X202683185Y-33550225D01*
X202676488Y-33608434D01*
X204619935Y-33608847D01*
X204965508Y-33608960D01*
X205271832Y-33609228D01*
X205541990Y-33609775D01*
X205779067Y-33610726D01*
X205986147Y-33612208D01*
X206166314Y-33614345D01*
X206322652Y-33617263D01*
X206458246Y-33621087D01*
X206576178Y-33625942D01*
X206679533Y-33631954D01*
X206771396Y-33639247D01*
X206854850Y-33647948D01*
X206932979Y-33658181D01*
X207008867Y-33670071D01*
X207085600Y-33683745D01*
X207166259Y-33699327D01*
X207247210Y-33715582D01*
X207348874Y-33737337D01*
X207443973Y-33759754D01*
X207519171Y-33779589D01*
X207550217Y-33789262D01*
X207632300Y-33818223D01*
X207632300Y-32465434D01*
D12*
%LPC*%
D13*
X185420000Y-104140000D03*
D14*
X187960000Y-105410000D03*
X190500000Y-104140000D03*
X193040000Y-105410000D03*
X195580000Y-104140000D03*
X198120000Y-105410000D03*
X200660000Y-104140000D03*
D13*
X187960000Y-137160000D03*
D14*
X190500000Y-137160000D03*
X193040000Y-137160000D03*
X195580000Y-137160000D03*
D13*
X204724000Y-106680000D03*
D14*
X204724000Y-104140000D03*
D13*
X197612000Y-109220000D03*
D14*
X197612000Y-111760000D03*
D13*
X173990000Y-139700000D03*
D14*
X173990000Y-137160000D03*
X176530000Y-139700000D03*
X176530000Y-137160000D03*
X179070000Y-139700000D03*
X179070000Y-137160000D03*
X181610000Y-139700000D03*
X181610000Y-137160000D03*
X184150000Y-139700000D03*
X184150000Y-137160000D03*
D15*
X169101000Y-134660000D03*
X169101000Y-139660000D03*
D16*
X166401000Y-133660000D03*
X166401000Y-140660000D03*
D17*
X192248000Y-73540000D03*
X193948000Y-101240000D03*
X195948000Y-101240000D03*
M02*
