G04 #@! TF.FileFunction,Other,User*
%FSLAX46Y46*%
G04 Gerber Fmt 4.6, Leading zero omitted, Abs format (unit mm)*
G04 Created by KiCad (PCBNEW 4.0.7-e2-6376~58~ubuntu16.04.1) date Mon Apr 29 13:49:55 2019*
%MOMM*%
%LPD*%
G01*
G04 APERTURE LIST*
%ADD10C,0.100000*%
%ADD11C,0.050000*%
%ADD12C,0.150000*%
G04 APERTURE END LIST*
D10*
D11*
X172495000Y-110237000D02*
X172495000Y-100837000D01*
X172495000Y-110237000D02*
X179295000Y-110237000D01*
X179295000Y-100837000D02*
X172495000Y-100837000D01*
X179295000Y-100837000D02*
X179295000Y-110237000D01*
X193793000Y-115979000D02*
X193793000Y-119479000D01*
X193793000Y-115979000D02*
X192043000Y-115979000D01*
X192043000Y-119479000D02*
X193793000Y-119479000D01*
X192043000Y-119479000D02*
X192043000Y-115979000D01*
X183995000Y-112005000D02*
X180495000Y-112005000D01*
X183995000Y-112005000D02*
X183995000Y-110255000D01*
X180495000Y-110255000D02*
X180495000Y-112005000D01*
X180495000Y-110255000D02*
X183995000Y-110255000D01*
X195825000Y-115979000D02*
X195825000Y-119479000D01*
X195825000Y-115979000D02*
X194075000Y-115979000D01*
X194075000Y-119479000D02*
X195825000Y-119479000D01*
X194075000Y-119479000D02*
X194075000Y-115979000D01*
X188059000Y-130674000D02*
X184559000Y-130674000D01*
X188059000Y-130674000D02*
X188059000Y-128924000D01*
X184559000Y-128924000D02*
X184559000Y-130674000D01*
X184559000Y-128924000D02*
X188059000Y-128924000D01*
X183995000Y-113910000D02*
X180495000Y-113910000D01*
X183995000Y-113910000D02*
X183995000Y-112160000D01*
X180495000Y-112160000D02*
X180495000Y-113910000D01*
X180495000Y-112160000D02*
X183995000Y-112160000D01*
X177047000Y-124813000D02*
X177047000Y-121313000D01*
X177047000Y-124813000D02*
X178797000Y-124813000D01*
X178797000Y-121313000D02*
X177047000Y-121313000D01*
X178797000Y-121313000D02*
X178797000Y-124813000D01*
X188059000Y-132579000D02*
X184559000Y-132579000D01*
X188059000Y-132579000D02*
X188059000Y-130829000D01*
X184559000Y-130829000D02*
X184559000Y-132579000D01*
X184559000Y-130829000D02*
X188059000Y-130829000D01*
X218534000Y-108375000D02*
X211234000Y-108375000D01*
X218534000Y-113875000D02*
X218534000Y-108375000D01*
X211234000Y-113875000D02*
X218534000Y-113875000D01*
X211234000Y-108375000D02*
X211234000Y-113875000D01*
X218534000Y-100882000D02*
X211234000Y-100882000D01*
X218534000Y-106382000D02*
X218534000Y-100882000D01*
X211234000Y-106382000D02*
X218534000Y-106382000D01*
X211234000Y-100882000D02*
X211234000Y-106382000D01*
X202470000Y-107020000D02*
X202470000Y-107080000D01*
X202470000Y-105940000D02*
X202470000Y-107030000D01*
X183619140Y-105938320D02*
X183619140Y-107081320D01*
X183620000Y-107083000D02*
X202470000Y-107083000D01*
X202470000Y-105940000D02*
X202470000Y-102340000D01*
X202470000Y-102340000D02*
X183620000Y-102340000D01*
X183620000Y-102340000D02*
X183620000Y-105940000D01*
X186160000Y-138960000D02*
X197360000Y-138960000D01*
X197360000Y-138960000D02*
X197360000Y-135360000D01*
X197360000Y-135360000D02*
X186160000Y-135360000D01*
X186160000Y-135360000D02*
X186160000Y-138960000D01*
X206524000Y-108480000D02*
X206524000Y-102330000D01*
X206524000Y-102330000D02*
X202924000Y-102330000D01*
X202924000Y-102330000D02*
X202924000Y-108480000D01*
X202924000Y-108480000D02*
X206524000Y-108480000D01*
X195812000Y-107420000D02*
X195812000Y-113570000D01*
X195812000Y-113570000D02*
X199412000Y-113570000D01*
X199412000Y-113570000D02*
X199412000Y-107420000D01*
X199412000Y-107420000D02*
X195812000Y-107420000D01*
X172190000Y-141500000D02*
X185940000Y-141500000D01*
X185940000Y-141500000D02*
X185940000Y-135350000D01*
X185940000Y-135350000D02*
X172190000Y-135350000D01*
X172190000Y-135350000D02*
X172190000Y-141500000D01*
X164001000Y-132760000D02*
X164001000Y-141560000D01*
X170101000Y-141560000D02*
X164001000Y-141560000D01*
X170101000Y-132760000D02*
X170101000Y-141560000D01*
X164001000Y-132760000D02*
X170101000Y-132760000D01*
X202703000Y-107289000D02*
X202703000Y-110389000D01*
X202703000Y-107289000D02*
X200903000Y-107289000D01*
X200903000Y-110389000D02*
X202703000Y-110389000D01*
X200903000Y-110389000D02*
X200903000Y-107289000D01*
X174905000Y-134758000D02*
X171805000Y-134758000D01*
X174905000Y-134758000D02*
X174905000Y-132958000D01*
X171805000Y-132958000D02*
X171805000Y-134758000D01*
X171805000Y-132958000D02*
X174905000Y-132958000D01*
X174905000Y-132853000D02*
X171805000Y-132853000D01*
X174905000Y-132853000D02*
X174905000Y-131053000D01*
X171805000Y-131053000D02*
X171805000Y-132853000D01*
X171805000Y-131053000D02*
X174905000Y-131053000D01*
D12*
X200723000Y-24490000D02*
X189223000Y-24490000D01*
X189223000Y-24490000D02*
X189223000Y-35990000D01*
X189223000Y-35990000D02*
X200723000Y-35990000D01*
X200723000Y-35990000D02*
X200723000Y-24490000D01*
D11*
X164926000Y-100932000D02*
X164926000Y-106332000D01*
X172386000Y-100932000D02*
X172386000Y-106332000D01*
X164926000Y-100932000D02*
X172386000Y-100932000D01*
X164926000Y-106332000D02*
X172386000Y-106332000D01*
X179662000Y-114130000D02*
X179662000Y-124630000D01*
X190162000Y-114130000D02*
X190162000Y-124630000D01*
X179662000Y-114130000D02*
X190162000Y-114130000D01*
X179862039Y-114161523D02*
X179862039Y-124661523D01*
X206887000Y-117607000D02*
X206887000Y-118597000D01*
X206887000Y-118597000D02*
X204177000Y-118597000D01*
X204177000Y-118597000D02*
X202037000Y-120737000D01*
X202037000Y-120737000D02*
X202037000Y-122277000D01*
X202036573Y-136676546D02*
G75*
G02X202037000Y-122277000I7640427J7199546D01*
G01*
X202037000Y-136677000D02*
X202037000Y-138217000D01*
X202037000Y-138217000D02*
X204177000Y-140357000D01*
X204177000Y-140357000D02*
X206887000Y-140357000D01*
X206887000Y-140357000D02*
X206887000Y-141347000D01*
X206887000Y-141347000D02*
X212467000Y-141347000D01*
X212467000Y-141347000D02*
X212467000Y-140357000D01*
X212467000Y-140357000D02*
X213317000Y-140357000D01*
X213317000Y-140357000D02*
X217297000Y-138917000D01*
X218331604Y-135433965D02*
G75*
G02X217297000Y-138907000I-1804604J-1353035D01*
G01*
X218327075Y-123531632D02*
G75*
G02X218317000Y-135437000I-8650075J-5945368D01*
G01*
X217298341Y-120061856D02*
G75*
G02X218317000Y-123517000I-771341J-2105144D01*
G01*
X217307000Y-120047000D02*
X213317000Y-118597000D01*
X213317000Y-118597000D02*
X212467000Y-118597000D01*
X212467000Y-118597000D02*
X212467000Y-117607000D01*
X212467000Y-117607000D02*
X206887000Y-117607000D01*
X217920000Y-107442000D02*
G75*
G03X217920000Y-107442000I-750000J0D01*
G01*
X217793000Y-140335000D02*
G75*
G03X217793000Y-140335000I-750000J0D01*
G01*
X171946000Y-140335000D02*
G75*
G03X171946000Y-140335000I-750000J0D01*
G01*
M02*
