G04 #@! TF.FileFunction,Other,Fab,Bot*
%FSLAX46Y46*%
G04 Gerber Fmt 4.6, Leading zero omitted, Abs format (unit mm)*
G04 Created by KiCad (PCBNEW 4.0.7-e2-6376~58~ubuntu16.04.1) date Mon Apr 22 12:57:07 2019*
%MOMM*%
%LPD*%
G01*
G04 APERTURE LIST*
%ADD10C,0.100000*%
%ADD11C,0.150000*%
G04 APERTURE END LIST*
D10*
D11*
X232852763Y-5906667D02*
X232376572Y-5906667D01*
X232948001Y-6192381D02*
X232614668Y-5192381D01*
X232281334Y-6192381D01*
X231948001Y-5525714D02*
X231948001Y-6192381D01*
X231948001Y-5620952D02*
X231900382Y-5573333D01*
X231805144Y-5525714D01*
X231662286Y-5525714D01*
X231567048Y-5573333D01*
X231519429Y-5668571D01*
X231519429Y-6192381D01*
X231186096Y-5525714D02*
X230805144Y-5525714D01*
X231043239Y-5192381D02*
X231043239Y-6049524D01*
X230995620Y-6144762D01*
X230900382Y-6192381D01*
X230805144Y-6192381D01*
X230090857Y-6144762D02*
X230186095Y-6192381D01*
X230376572Y-6192381D01*
X230471810Y-6144762D01*
X230519429Y-6049524D01*
X230519429Y-5668571D01*
X230471810Y-5573333D01*
X230376572Y-5525714D01*
X230186095Y-5525714D01*
X230090857Y-5573333D01*
X230043238Y-5668571D01*
X230043238Y-5763810D01*
X230519429Y-5859048D01*
X229614667Y-5525714D02*
X229614667Y-6192381D01*
X229614667Y-5620952D02*
X229567048Y-5573333D01*
X229471810Y-5525714D01*
X229328952Y-5525714D01*
X229233714Y-5573333D01*
X229186095Y-5668571D01*
X229186095Y-6192381D01*
X228709905Y-5525714D02*
X228709905Y-6192381D01*
X228709905Y-5620952D02*
X228662286Y-5573333D01*
X228567048Y-5525714D01*
X228424190Y-5525714D01*
X228328952Y-5573333D01*
X228281333Y-5668571D01*
X228281333Y-6192381D01*
X227376571Y-6192381D02*
X227376571Y-5668571D01*
X227424190Y-5573333D01*
X227519428Y-5525714D01*
X227709905Y-5525714D01*
X227805143Y-5573333D01*
X227376571Y-6144762D02*
X227471809Y-6192381D01*
X227709905Y-6192381D01*
X227805143Y-6144762D01*
X227852762Y-6049524D01*
X227852762Y-5954286D01*
X227805143Y-5859048D01*
X227709905Y-5811429D01*
X227471809Y-5811429D01*
X227376571Y-5763810D01*
X227138476Y-6287619D02*
X226376571Y-6287619D01*
X225662285Y-6192381D02*
X226138476Y-6192381D01*
X226138476Y-5192381D01*
X225186095Y-6192381D02*
X225281333Y-6144762D01*
X225328952Y-6097143D01*
X225376571Y-6001905D01*
X225376571Y-5716190D01*
X225328952Y-5620952D01*
X225281333Y-5573333D01*
X225186095Y-5525714D01*
X225043237Y-5525714D01*
X224947999Y-5573333D01*
X224900380Y-5620952D01*
X224852761Y-5716190D01*
X224852761Y-6001905D01*
X224900380Y-6097143D01*
X224947999Y-6144762D01*
X225043237Y-6192381D01*
X225186095Y-6192381D01*
X224281333Y-6192381D02*
X224376571Y-6144762D01*
X224424190Y-6097143D01*
X224471809Y-6001905D01*
X224471809Y-5716190D01*
X224424190Y-5620952D01*
X224376571Y-5573333D01*
X224281333Y-5525714D01*
X224138475Y-5525714D01*
X224043237Y-5573333D01*
X223995618Y-5620952D01*
X223947999Y-5716190D01*
X223947999Y-6001905D01*
X223995618Y-6097143D01*
X224043237Y-6144762D01*
X224138475Y-6192381D01*
X224281333Y-6192381D01*
X223519428Y-5525714D02*
X223519428Y-6525714D01*
X223519428Y-5573333D02*
X223424190Y-5525714D01*
X223233713Y-5525714D01*
X223138475Y-5573333D01*
X223090856Y-5620952D01*
X223043237Y-5716190D01*
X223043237Y-6001905D01*
X223090856Y-6097143D01*
X223138475Y-6144762D01*
X223233713Y-6192381D01*
X223424190Y-6192381D01*
X223519428Y-6144762D01*
M02*
